<svg xmlns="http://www.w3.org/2000/svg" xmlns:xlink="http://www.w3.org/1999/xlink" width="35" height="45" viewBox="0 0 35 44"><defs><clipPath id="b"><path d="M0 0h35v44H0z"/></clipPath><clipPath id="c"><path d="M0 0h35v44H0z"/></clipPath><clipPath id="d"><path d="M0 0h35v44H0z"/></clipPath><clipPath id="e"><path d="M0 0h35v44H0z"/></clipPath><mask id="i"><g filter="url(#a)"><path style="fill:#000;fill-opacity:.235294;stroke:none" d="M0 0h35v44H0z"/></g></mask><mask id="g"><g filter="url(#a)"><path style="fill:#000;fill-opacity:.988235;stroke:none" d="M0 0h35v44H0z"/></g></mask><mask id="k"><g filter="url(#a)"><path style="fill:#000;fill-opacity:.239216;stroke:none" d="M0 0h35v44H0z"/></g></mask><mask id="m"><g filter="url(#a)"><path style="fill:#000;fill-opacity:.984314;stroke:none" d="M0 0h35v44H0z"/></g></mask><g id="h" clip-path="url(#c)"><path style="stroke:none;fill-rule:evenodd;fill:#fefcfc;fill-opacity:1" d="M9.66 24.438c.606.789 1.16 1.62 1.668 2.488a31.565 31.565 0 0 1 2.582 5.777 53.082 53.082 0 0 1-4.25-8.266zm0 0"/></g><g id="j" clip-path="url(#d)"><path style="stroke:none;fill-rule:evenodd;fill:#fefcfb;fill-opacity:1" d="M24.43 24.54a59.145 59.145 0 0 1-4.551 8.66 28.497 28.497 0 0 1 2.375-5.376 21.003 21.003 0 0 1 2.176-3.285zm0 0"/></g><g id="f" clip-path="url(#b)"><path style="stroke:none;fill-rule:evenodd;fill:#d64032;fill-opacity:1" d="M24.633 24.14c-.063-.023-.094-.074-.102-.148a33.871 33.871 0 0 0 3.035-12.445c.082-3.149-1.027-5.805-3.34-7.965C20.833.836 17.056.203 12.899 1.692c-4.218 1.956-6.34 5.242-6.375 9.855a30.592 30.592 0 0 0 1.872 9.508c.418 1.011.77 2.008 1.062 2.984a20.183 20.183 0 0 1-4.398-7.96c-1.149-4.61-.02-8.575 3.386-11.9C12.758.267 17.547-.397 22.812 2.192c4.895 2.852 7.07 7.082 6.524 12.692a18.458 18.458 0 0 1-3.137 7.265 44.364 44.364 0 0 0-1.566 1.993zm0 0"/></g><g id="l" clip-path="url(#e)"><path style="stroke:none;fill-rule:evenodd;fill:#d63f31;fill-opacity:1" d="M19.676 33.598a38.028 38.028 0 0 0-2.024 10.351H16.54a1.026 1.026 0 0 0-.254-.199A40.482 40.482 0 0 0 14.11 33a98.49 98.49 0 0 0 2.934 4.379 37.061 37.061 0 0 0 2.48-3.781c.07-.125.122-.125.153 0zm0 0"/></g><filter id="a" filterUnits="objectBoundingBox" x="0%" y="0%" width="100%" height="100%"><feColorMatrix in="SourceGraphic" values="0 0 0 0 1 0 0 0 0 1 0 0 0 0 1 0 0 0 1 0"/></filter></defs><path style="stroke:none;fill-rule:evenodd;fill:#e27a70;fill-opacity:1" d="M24.633 24.14c-.07.133-.137.266-.203.4a21.003 21.003 0 0 0-2.176 3.284 28.497 28.497 0 0 0-2.375 5.375.6.6 0 0 1-.203.399c-.031-.125-.082-.125-.153 0a37.061 37.061 0 0 1-2.48 3.78A98.49 98.49 0 0 1 14.109 33c-.14-.047-.207-.148-.199-.297a31.565 31.565 0 0 0-2.582-5.777 24.026 24.026 0 0 0-1.668-2.488.567.567 0 0 1-.203-.399 31.577 31.577 0 0 0-1.062-2.984 30.592 30.592 0 0 1-1.872-9.508C6.56 6.934 8.68 3.648 12.898 1.69 17.055.203 20.832.836 24.227 3.582c2.312 2.16 3.421 4.816 3.34 7.965a33.871 33.871 0 0 1-3.036 12.445c.008.074.04.125.102.149zm0 0"/><use xlink:href="#f" mask="url(#g)"/><path style="stroke:none;fill-rule:evenodd;fill:#fefefe;fill-opacity:1" d="M15.527 4.43c1.961-.055 3.918.027 5.868.25 1.39.27 2.636.832 3.742 1.691 1.75 1.809 2 3.816.758 6.024a21.353 21.353 0 0 1-1.516 1.988 39.571 39.571 0 0 0-3.34 3.285c-.45.7-.7 1.46-.758 2.293H14.11a10.84 10.84 0 0 1 .457-3.484c.32-.567.692-1.098 1.114-1.594a58 58 0 0 0 2.832-2.887c.86-1.445.437-2.324-1.266-2.637a14.105 14.105 0 0 0-7.031.844c.297-1.785.586-3.578.863-5.375 1.496-.152 2.98-.285 4.45-.398zm0 0"/><path style="stroke:none;fill-rule:evenodd;fill:#f0bab5;fill-opacity:1" d="M20.484 21.75a57.252 57.252 0 0 0-6.675-.2.958.958 0 0 1-.102.598v-.695h6.879c.023.129-.012.227-.102.297zm0 0"/><path style="stroke:none;fill-rule:evenodd;fill:#fefdfd;fill-opacity:1" d="M20.484 21.75a95.486 95.486 0 0 0-.203 5.176h-6.98c.164-1.59.297-3.18.406-4.778a.958.958 0 0 0 .102-.597 57.252 57.252 0 0 1 6.675.199zm0 0"/><use xlink:href="#h" mask="url(#i)"/><use xlink:href="#j" mask="url(#k)"/><use xlink:href="#l" mask="url(#m)"/></svg>