<?xml version="1.0" encoding="UTF-8"?>
<!DOCTYPE svg PUBLIC "-//W3C//DTD SVG 1.1//EN" "http://www.w3.org/Graphics/SVG/1.1/DTD/svg11.dtd">
<svg xmlns="http://www.w3.org/2000/svg" version="1.1" width="346px" height="442px" style="shape-rendering:geometricPrecision; text-rendering:geometricPrecision; image-rendering:optimizeQuality; fill-rule:evenodd; clip-rule:evenodd" xmlns:xlink="http://www.w3.org/1999/xlink">
<g><path style="opacity:0.982" fill="#d64032" d="M 243.5,242.5 C 242.903,242.265 242.57,241.765 242.5,241C 260.365,201.205 270.365,159.539 272.5,116C 272.181,69.6675 251.181,36.6675 209.5,17C 168.412,2.05684 131.079,8.39018 97.5,36C 74.6591,57.6938 63.6591,84.3605 64.5,116C 66.5587,159.402 76.5587,200.902 94.5,240.5C 94.3764,241.107 94.0431,241.44 93.5,241.5C 73.0637,218.311 58.5637,191.644 50,161.5C 38.6544,115.221 49.8211,75.3872 83.5,42C 126.123,2.67303 173.456,-3.99363 225.5,22C 273.907,50.646 295.407,93.146 290,149.5C 284.857,176.111 274.523,200.444 259,222.5C 253.618,229.042 248.452,235.709 243.5,242.5 Z"/></g>
<g><path style="opacity:1" fill="#e1796f" d="M 243.5,242.5 C 242.833,243.833 242.167,245.167 241.5,246.5C 240.206,247.29 239.039,248.29 238,249.5C 234.392,255.734 230.559,261.734 226.5,267.5C 227.192,249.935 223.025,233.602 214,218.5C 204.491,203.321 192.991,189.821 179.5,178C 189.332,168.833 198.498,159 207,148.5C 222.702,126.698 229.202,102.365 226.5,75.5C 230.332,74.3453 233.332,72.012 235.5,68.5C 236.486,64.03 236.819,59.3633 236.5,54.5C 191.997,54.1679 147.664,54.5013 103.5,55.5C 101.901,63.2687 103.901,69.7687 109.5,75C 110.448,75.4828 111.448,75.6495 112.5,75.5C 109.801,102.374 116.301,126.707 132,148.5C 140.502,159 149.668,168.833 159.5,178C 146.009,189.821 134.509,203.321 125,218.5C 115.797,234.613 111.63,251.946 112.5,270.5C 107.081,261.993 101.414,253.66 95.5,245.5C 94.3263,244.486 93.6596,243.153 93.5,241.5C 94.0431,241.44 94.3764,241.107 94.5,240.5C 76.5587,200.902 66.5587,159.402 64.5,116C 63.6591,84.3605 74.6591,57.6938 97.5,36C 131.079,8.39018 168.412,2.05684 209.5,17C 251.181,36.6675 272.181,69.6675 272.5,116C 270.365,159.539 260.365,201.205 242.5,241C 242.57,241.765 242.903,242.265 243.5,242.5 Z"/></g>
<g><path style="opacity:1" fill="#bc655c" d="M 103.5,55.5 C 147.664,54.5013 191.997,54.1679 236.5,54.5C 236.819,59.3633 236.486,64.03 235.5,68.5C 235.5,64.1667 235.5,59.8333 235.5,55.5C 191.5,55.5 147.5,55.5 103.5,55.5 Z"/></g>
<g><path style="opacity:0.999" fill="#030101" d="M 103.5,55.5 C 147.5,55.5 191.5,55.5 235.5,55.5C 235.5,59.8333 235.5,64.1667 235.5,68.5C 233.332,72.012 230.332,74.3453 226.5,75.5C 229.202,102.365 222.702,126.698 207,148.5C 198.498,159 189.332,168.833 179.5,178C 192.991,189.821 204.491,203.321 214,218.5C 223.025,233.602 227.192,249.935 226.5,267.5C 226.5,271.167 226.5,274.833 226.5,278.5C 226.5,279.833 226.5,281.167 226.5,282.5C 227.873,282.343 229.207,282.51 230.5,283C 236.135,288.585 238.135,295.418 236.5,303.5C 228.833,303.5 221.167,303.5 213.5,303.5C 211.5,303.5 209.5,303.5 207.5,303.5C 181.167,303.5 154.833,303.5 128.5,303.5C 126.833,303.5 125.167,303.5 123.5,303.5C 116.833,303.5 110.167,303.5 103.5,303.5C 103.334,298.821 103.501,294.155 104,289.5C 105.736,286.261 108.236,283.927 111.5,282.5C 112.483,278.702 112.817,274.702 112.5,270.5C 111.63,251.946 115.797,234.613 125,218.5C 134.509,203.321 146.009,189.821 159.5,178C 149.668,168.833 140.502,159 132,148.5C 116.301,126.707 109.801,102.374 112.5,75.5C 111.448,75.6495 110.448,75.4828 109.5,75C 103.901,69.7687 101.901,63.2687 103.5,55.5 Z"/></g>
<g><path style="opacity:1" fill="#dc776d" d="M 171.5,99.5 C 154.675,98.5034 137.675,98.1701 120.5,98.5C 120.232,100.099 120.566,101.432 121.5,102.5C 123.104,112.809 126.604,122.475 132,131.5C 141.542,146.21 153.042,159.21 166.5,170.5C 167.667,196.827 167.833,223.16 167,249.5C 155.369,254.748 143.202,258.248 130.5,260C 127.382,261.059 124.382,262.392 121.5,264C 120.527,269.407 120.193,274.907 120.5,280.5C 119.5,280.5 118.5,280.5 117.5,280.5C 114.382,255.974 119.882,233.64 134,213.5C 142.256,201.909 151.922,191.575 163,182.5C 163.667,179.5 163.667,176.5 163,173.5C 146.981,160.488 134.315,144.821 125,126.5C 118.357,110.834 115.857,94.5007 117.5,77.5C 152.167,77.5 186.833,77.5 221.5,77.5C 223.994,108.522 214.494,135.189 193,157.5C 187.635,163.199 181.969,168.533 176,173.5C 175.333,176.5 175.333,179.5 176,182.5C 192.019,195.512 204.685,211.179 214,229.5C 220.933,245.786 223.433,262.786 221.5,280.5C 220.5,280.5 219.5,280.5 218.5,280.5C 218.5,275.833 218.5,271.167 218.5,266.5C 202.977,262.24 187.977,256.573 173.5,249.5C 172.167,223.167 172.167,196.833 173.5,170.5C 190.845,155.829 204.345,138.162 214,117.5C 216.13,111.645 217.63,105.645 218.5,99.5C 202.833,99.5 187.167,99.5 171.5,99.5 Z"/></g>
<g><path style="opacity:1" fill="#60332f" d="M 171.5,99.5 C 154.833,99.5 138.167,99.5 121.5,99.5C 121.5,100.5 121.5,101.5 121.5,102.5C 120.566,101.432 120.232,100.099 120.5,98.5C 137.675,98.1701 154.675,98.5034 171.5,99.5 Z"/></g>
<g><path style="opacity:0.219" fill="#fefcfc" d="M 95.5,245.5 C 101.414,253.66 107.081,261.993 112.5,270.5C 112.817,274.702 112.483,278.702 111.5,282.5C 105.885,270.272 100.552,257.939 95.5,245.5 Z"/></g>
<g><path style="opacity:0.21" fill="#fefbfa" d="M 241.5,246.5 C 237.01,257.477 232.01,268.144 226.5,278.5C 226.5,274.833 226.5,271.167 226.5,267.5C 230.559,261.734 234.392,255.734 238,249.5C 239.039,248.29 240.206,247.29 241.5,246.5 Z"/></g>
<g><path style="opacity:0.208" fill="#fefbfb" d="M 123.5,303.5 C 125.167,303.5 126.833,303.5 128.5,303.5C 132.1,311.634 135.1,319.967 137.5,328.5C 132.077,320.659 127.41,312.326 123.5,303.5 Z"/></g>
<g><path style="opacity:1" fill="#e27a70" d="M 128.5,303.5 C 154.833,303.5 181.167,303.5 207.5,303.5C 203.26,313.309 199.593,323.309 196.5,333.5C 196.34,335.153 195.674,336.486 194.5,337.5C 194.19,336.262 193.69,336.262 193,337.5C 185.568,350.713 177.401,363.38 168.5,375.5C 158.148,360.658 148.482,345.992 139.5,331.5C 138.094,331.027 137.427,330.027 137.5,328.5C 135.1,319.967 132.1,311.634 128.5,303.5 Z"/></g>
<g><path style="opacity:0.221" fill="#fefbfb" d="M 207.5,303.5 C 209.5,303.5 211.5,303.5 213.5,303.5C 208.626,314.018 202.959,324.018 196.5,333.5C 199.593,323.309 203.26,313.309 207.5,303.5 Z"/></g>
<g><path style="opacity:0.985" fill="#d63f31" d="M 194.5,337.5 C 183.074,371.294 176.408,405.961 174.5,441.5C 170.833,441.5 167.167,441.5 163.5,441.5C 162.828,440.733 161.995,440.066 161,439.5C 158.638,402.526 151.472,366.526 139.5,331.5C 148.482,345.992 158.148,360.658 168.5,375.5C 177.401,363.38 185.568,350.713 193,337.5C 193.69,336.262 194.19,336.262 194.5,337.5 Z"/></g>
</svg>
