<?xml version="1.0" encoding="UTF-8"?>
<!DOCTYPE svg PUBLIC "-//W3C//DTD SVG 1.1//EN" "http://www.w3.org/Graphics/SVG/1.1/DTD/svg11.dtd">
<svg xmlns="http://www.w3.org/2000/svg" version="1.1" width="346px" height="442px" style="shape-rendering:geometricPrecision; text-rendering:geometricPrecision; image-rendering:optimizeQuality; fill-rule:evenodd; clip-rule:evenodd" xmlns:xlink="http://www.w3.org/1999/xlink">
<g><path style="opacity:1" fill="#e27a70" d="M 243.5,242.5 C 242.833,243.833 242.167,245.167 241.5,246.5C 233.362,256.752 226.195,267.752 220,279.5C 210.306,296.77 202.472,314.77 196.5,333.5C 196.34,335.153 195.674,336.486 194.5,337.5C 194.19,336.262 193.69,336.262 193,337.5C 185.568,350.713 177.401,363.38 168.5,375.5C 158.148,360.658 148.482,345.992 139.5,331.5C 138.094,331.027 137.427,330.027 137.5,328.5C 130.951,308.394 122.451,289.06 112,270.5C 106.973,261.759 101.473,253.425 95.5,245.5C 94.3263,244.486 93.6596,243.153 93.5,241.5C 90.6016,231.654 87.1016,221.654 83,211.5C 71.8194,180.616 65.6528,148.782 64.5,116C 64.8189,69.6675 85.8189,36.6675 127.5,17C 168.588,2.05684 205.921,8.39018 239.5,36C 262.341,57.6938 273.341,84.3605 272.5,116C 270.365,159.539 260.365,201.205 242.5,241C 242.57,241.765 242.903,242.265 243.5,242.5 Z"/></g>
<g><path style="opacity:0.987" fill="#d64032" d="M 243.5,242.5 C 242.903,242.265 242.57,241.765 242.5,241C 260.365,201.205 270.365,159.539 272.5,116C 273.341,84.3605 262.341,57.6938 239.5,36C 205.921,8.39018 168.588,2.05684 127.5,17C 85.8189,36.6675 64.8189,69.6675 64.5,116C 65.6528,148.782 71.8194,180.616 83,211.5C 87.1016,221.654 90.6016,231.654 93.5,241.5C 73.0637,218.311 58.5637,191.644 50,161.5C 38.6544,115.221 49.8211,75.3872 83.5,42C 126.123,2.67303 173.456,-3.99363 225.5,22C 273.907,50.646 295.407,93.146 290,149.5C 284.857,176.111 274.523,200.444 259,222.5C 253.618,229.042 248.452,235.709 243.5,242.5 Z"/></g>
<g><path style="opacity:1" fill="#fefefe" d="M 153.5,44.5 C 172.903,43.9446 192.236,44.7779 211.5,47C 225.251,49.7109 237.585,55.3775 248.5,64C 265.779,82.1552 268.279,102.322 256,124.5C 251.385,131.45 246.385,138.116 241,144.5C 229.333,154.833 218.333,165.833 208,177.5C 203.562,184.511 201.062,192.178 200.5,200.5C 180.167,200.5 159.833,200.5 139.5,200.5C 139.115,188.583 140.615,176.916 144,165.5C 147.173,159.819 150.839,154.486 155,149.5C 164.697,140.137 174.03,130.47 183,120.5C 191.49,105.972 187.323,97.1389 170.5,94C 146.581,90.8459 123.415,93.6792 101,102.5C 103.935,84.5551 106.768,66.5551 109.5,48.5C 124.296,46.9731 138.962,45.6398 153.5,44.5 Z"/></g>
<g><path style="opacity:1" fill="#f0bab5" d="M 202.5,218.5 C 180.859,216.511 158.859,215.844 136.5,216.5C 136.795,218.735 136.461,220.735 135.5,222.5C 135.5,220.167 135.5,217.833 135.5,215.5C 158.167,215.5 180.833,215.5 203.5,215.5C 203.737,216.791 203.404,217.791 202.5,218.5 Z"/></g>
<g><path style="opacity:1" fill="#fefdfd" d="M 202.5,218.5 C 201.373,235.814 200.707,253.147 200.5,270.5C 177.5,270.5 154.5,270.5 131.5,270.5C 133.097,254.525 134.431,238.525 135.5,222.5C 136.461,220.735 136.795,218.735 136.5,216.5C 158.859,215.844 180.859,216.511 202.5,218.5 Z"/></g>
<g><path style="opacity:0.235" fill="#fefcfc" d="M 95.5,245.5 C 101.473,253.425 106.973,261.759 112,270.5C 122.451,289.06 130.951,308.394 137.5,328.5C 121.152,302.138 107.152,274.471 95.5,245.5 Z"/></g>
<g><path style="opacity:0.238" fill="#fefcfb" d="M 241.5,246.5 C 228.823,276.858 213.823,305.858 196.5,333.5C 202.472,314.77 210.306,296.77 220,279.5C 226.195,267.752 233.362,256.752 241.5,246.5 Z"/></g>
<g><path style="opacity:0.985" fill="#d63f31" d="M 194.5,337.5 C 183.074,371.294 176.408,405.961 174.5,441.5C 170.833,441.5 167.167,441.5 163.5,441.5C 162.828,440.733 161.995,440.066 161,439.5C 158.638,402.526 151.472,366.526 139.5,331.5C 148.482,345.992 158.148,360.658 168.5,375.5C 177.401,363.38 185.568,350.713 193,337.5C 193.69,336.262 194.19,336.262 194.5,337.5 Z"/></g>
</svg>
