<?xml version="1.0" encoding="UTF-8"?>
<!DOCTYPE svg PUBLIC "-//W3C//DTD SVG 1.1//EN" "http://www.w3.org/Graphics/SVG/1.1/DTD/svg11.dtd">
<svg xmlns="http://www.w3.org/2000/svg" version="1.1" width="481px" height="481px" style="shape-rendering:geometricPrecision; text-rendering:geometricPrecision; image-rendering:optimizeQuality; fill-rule:evenodd; clip-rule:evenodd" xmlns:xlink="http://www.w3.org/1999/xlink">
<g><path style="opacity:1" fill="#e27a70" d="M 314.5,281.5 C 313.833,282.833 313.167,284.167 312.5,285.5C 304.362,295.752 297.195,306.752 291,318.5C 281.306,335.77 273.472,353.77 267.5,372.5C 267.34,374.153 266.674,375.486 265.5,376.5C 265.19,375.262 264.69,375.262 264,376.5C 256.568,389.713 248.401,402.38 239.5,414.5C 229.148,399.658 219.482,384.992 210.5,370.5C 209.094,370.027 208.427,369.027 208.5,367.5C 201.951,347.394 193.451,328.06 183,309.5C 177.973,300.759 172.473,292.425 166.5,284.5C 165.326,283.486 164.66,282.153 164.5,280.5C 161.602,270.654 158.102,260.654 154,250.5C 142.819,219.616 136.653,187.782 135.5,155C 135.819,108.667 156.819,75.6675 198.5,56C 239.588,41.0568 276.921,47.3902 310.5,75C 333.341,96.6938 344.341,123.36 343.5,155C 341.365,198.539 331.365,240.205 313.5,280C 313.57,280.765 313.903,281.265 314.5,281.5 Z"/></g>
<g><path style="opacity:0.987" fill="#d64032" d="M 314.5,281.5 C 313.903,281.265 313.57,280.765 313.5,280C 331.365,240.205 341.365,198.539 343.5,155C 344.341,123.36 333.341,96.6938 310.5,75C 276.921,47.3902 239.588,41.0568 198.5,56C 156.819,75.6675 135.819,108.667 135.5,155C 136.653,187.782 142.819,219.616 154,250.5C 158.102,260.654 161.602,270.654 164.5,280.5C 144.064,257.311 129.564,230.644 121,200.5C 109.654,154.221 120.821,114.387 154.5,81C 197.123,41.673 244.456,35.0064 296.5,61C 344.907,89.646 366.407,132.146 361,188.5C 355.857,215.111 345.523,239.444 330,261.5C 324.618,268.042 319.452,274.709 314.5,281.5 Z"/></g>
<g><path style="opacity:1" fill="#fefefe" d="M 224.5,83.5 C 243.903,82.9446 263.236,83.7779 282.5,86C 296.251,88.7109 308.585,94.3775 319.5,103C 336.779,121.155 339.279,141.322 327,163.5C 322.385,170.45 317.385,177.116 312,183.5C 300.333,193.833 289.333,204.833 279,216.5C 274.562,223.511 272.062,231.178 271.5,239.5C 251.167,239.5 230.833,239.5 210.5,239.5C 210.115,227.583 211.615,215.916 215,204.5C 218.173,198.819 221.839,193.486 226,188.5C 235.697,179.137 245.03,169.47 254,159.5C 262.49,144.972 258.323,136.139 241.5,133C 217.581,129.846 194.415,132.679 172,141.5C 174.935,123.555 177.768,105.555 180.5,87.5C 195.296,85.9731 209.962,84.6398 224.5,83.5 Z"/></g>
<g><path style="opacity:1" fill="#f0bab5" d="M 273.5,257.5 C 251.859,255.511 229.859,254.844 207.5,255.5C 207.795,257.735 207.461,259.735 206.5,261.5C 206.5,259.167 206.5,256.833 206.5,254.5C 229.167,254.5 251.833,254.5 274.5,254.5C 274.737,255.791 274.404,256.791 273.5,257.5 Z"/></g>
<g><path style="opacity:1" fill="#fefdfd" d="M 273.5,257.5 C 272.373,274.814 271.707,292.147 271.5,309.5C 248.5,309.5 225.5,309.5 202.5,309.5C 204.097,293.525 205.431,277.525 206.5,261.5C 207.461,259.735 207.795,257.735 207.5,255.5C 229.859,254.844 251.859,255.511 273.5,257.5 Z"/></g>
<g><path style="opacity:0.235" fill="#fefcfc" d="M 166.5,284.5 C 172.473,292.425 177.973,300.759 183,309.5C 193.451,328.06 201.951,347.394 208.5,367.5C 192.152,341.138 178.152,313.471 166.5,284.5 Z"/></g>
<g><path style="opacity:0.238" fill="#fefcfb" d="M 312.5,285.5 C 299.823,315.858 284.823,344.858 267.5,372.5C 273.472,353.77 281.306,335.77 291,318.5C 297.195,306.752 304.362,295.752 312.5,285.5 Z"/></g>
<g><path style="opacity:0.985" fill="#d63f31" d="M 265.5,376.5 C 254.074,410.294 247.408,444.961 245.5,480.5C 241.833,480.5 238.167,480.5 234.5,480.5C 233.828,479.733 232.995,479.066 232,478.5C 229.638,441.526 222.472,405.526 210.5,370.5C 219.482,384.992 229.148,399.658 239.5,414.5C 248.401,402.38 256.568,389.713 264,376.5C 264.69,375.262 265.19,375.262 265.5,376.5 Z"/></g>
</svg>
