<?xml version="1.0" encoding="UTF-8"?>
<!DOCTYPE svg PUBLIC "-//W3C//DTD SVG 1.1//EN" "http://www.w3.org/Graphics/SVG/1.1/DTD/svg11.dtd">
<svg xmlns="http://www.w3.org/2000/svg" version="1.1" width="481px" height="481px" style="shape-rendering:geometricPrecision; text-rendering:geometricPrecision; image-rendering:optimizeQuality; fill-rule:evenodd; clip-rule:evenodd" xmlns:xlink="http://www.w3.org/1999/xlink">
<g><path style="opacity:0.025" fill="#fefffe" d="M 208.5,44.5 C 209.601,43.4017 210.934,43.235 212.5,44C 211.207,44.49 209.873,44.6567 208.5,44.5 Z"/></g>
<g><path style="opacity:0.038" fill="#fefffe" d="M 301.5,53.5 C 294.232,50.2419 286.899,47.0752 279.5,44C 284.785,45.4258 290.118,47.0925 295.5,49C 297.747,50.2775 299.747,51.7775 301.5,53.5 Z"/></g>
<g><path style="opacity:0.044" fill="#fefffe" d="M 204.5,44.5 C 206.975,44.7467 206.975,45.4134 204.5,46.5C 203.537,46.0302 203.537,45.3635 204.5,44.5 Z"/></g>
<g><path style="opacity:0.031" fill="#fefffe" d="M 208.5,44.5 C 207.833,45.1667 207.833,45.1667 208.5,44.5 Z"/></g>
<g><path style="opacity:0.025" fill="#fefffe" d="M 199.5,45.5 C 203.339,45.6121 203.339,46.2787 199.5,47.5C 198.537,47.0302 198.537,46.3635 199.5,45.5 Z"/></g>
<g><path style="opacity:1" fill="#ab2320" d="M 277.5,50.5 C 280.518,52.3999 283.851,53.7333 287.5,54.5C 292.919,56.0444 297.919,58.3777 302.5,61.5C 303.659,63.2503 305.326,64.2503 307.5,64.5C 309.228,66.8774 311.561,68.544 314.5,69.5C 317.46,72.6448 320.793,75.3115 324.5,77.5C 324.369,78.2389 324.536,78.9056 325,79.5C 327.287,81.0544 329.454,82.7211 331.5,84.5C 333.094,87.7642 335.427,90.4309 338.5,92.5C 338.738,94.4044 339.738,95.7377 341.5,96.5C 341.427,98.0269 342.094,99.0269 343.5,99.5C 343.427,101.027 344.094,102.027 345.5,102.5C 347.332,106.836 349.665,110.836 352.5,114.5C 353.982,119.456 355.982,124.123 358.5,128.5C 359.233,133.445 360.566,138.112 362.5,142.5C 363.451,143.919 363.784,145.585 363.5,147.5C 369.424,195.551 354.758,235.885 319.5,268.5C 311.654,273.254 303.988,278.254 296.5,283.5C 291.096,285.301 285.763,287.301 280.5,289.5C 276.067,290.869 271.733,292.203 267.5,293.5C 257.891,294.961 248.224,295.961 238.5,296.5C 229.111,295.938 219.777,294.938 210.5,293.5C 191.359,288.453 174.025,279.786 158.5,267.5C 155.679,263.334 152.012,260.334 147.5,258.5C 146.167,256.833 144.833,255.167 143.5,253.5C 142.92,251.251 141.587,249.585 139.5,248.5C 139.573,246.973 138.906,245.973 137.5,245.5C 136.567,242.63 134.9,240.296 132.5,238.5C 130.926,233.68 128.593,229.347 125.5,225.5C 124.326,224.486 123.66,223.153 123.5,221.5C 118.75,207.733 115.417,193.733 113.5,179.5C 111.109,147.352 119.775,118.685 139.5,93.5C 141.914,92.0892 143.581,90.0892 144.5,87.5C 144.833,86.5 145.5,85.8333 146.5,85.5C 149.167,83.5 151.5,81.1667 153.5,78.5C 153.833,77.5 154.5,76.8333 155.5,76.5C 158.427,75.2427 160.761,73.2427 162.5,70.5C 166.976,66.4254 171.976,63.0921 177.5,60.5C 180.089,60.539 182.089,59.539 183.5,57.5C 207.158,45.9208 232.158,42.0874 258.5,46C 265.122,46.8198 271.455,48.3198 277.5,50.5 Z"/></g>
<g><path style="opacity:0.038" fill="#fefffe" d="M 171.5,56.5 C 174.039,53.8095 177.039,51.6428 180.5,50C 185.797,48.3411 191.131,47.3411 196.5,47C 191.687,48.7876 186.687,50.121 181.5,51C 178.26,53.0906 174.926,54.9239 171.5,56.5 Z"/></g>
<g><path style="opacity:0.329" fill="#b07676" d="M 277.5,50.5 C 281.332,50.8816 284.665,52.2149 287.5,54.5C 283.851,53.7333 280.518,52.3999 277.5,50.5 Z"/></g>
<g><path style="opacity:0.042" fill="#fefffe" d="M 301.5,53.5 C 310.359,59.0159 318.359,65.6826 325.5,73.5C 323.068,72.2498 320.734,70.7498 318.5,69C 312.937,63.5985 307.27,58.4318 301.5,53.5 Z"/></g>
<g><path style="opacity:0.042" fill="#fefffe" d="M 171.5,56.5 C 168.165,59.8389 164.165,62.1722 159.5,63.5C 162.996,60.3444 166.996,58.0111 171.5,56.5 Z"/></g>
<g><path style="opacity:0.42" fill="#aa5d61" d="M 183.5,57.5 C 182.089,59.539 180.089,60.539 177.5,60.5C 179.181,58.9925 181.181,57.9925 183.5,57.5 Z"/></g>
<g><path style="opacity:0.243" fill="#af888b" d="M 302.5,61.5 C 304.674,61.7497 306.341,62.7497 307.5,64.5C 305.326,64.2503 303.659,63.2503 302.5,61.5 Z"/></g>
<g><path style="opacity:0.033" fill="#fefffe" d="M 159.5,63.5 C 157.145,67.1773 154.478,70.5106 151.5,73.5C 153.119,69.226 155.786,65.8926 159.5,63.5 Z"/></g>
<g><path style="opacity:0.047" fill="#ae7f7d" d="M 307.5,64.5 C 310.4,65.4432 312.733,67.1099 314.5,69.5C 311.561,68.544 309.228,66.8774 307.5,64.5 Z"/></g>
<g><path style="opacity:1" fill="#fcfbfb" d="M 272.5,189.5 C 289.378,184.785 299.545,173.785 303,156.5C 307.204,136.08 300.704,120.247 283.5,109C 278.069,106.523 272.403,104.856 266.5,104C 243.502,103.5 220.502,103.333 197.5,103.5C 197.5,107.5 197.5,111.5 197.5,115.5C 190.035,108.536 182.702,101.369 175.5,94C 201.735,72.6944 231.401,66.0277 264.5,74C 316.822,91.8063 341.322,128.306 338,183.5C 335.638,201.951 328.638,218.284 317,232.5C 301.372,219.039 286.539,204.706 272.5,189.5 Z"/></g>
<g><path style="opacity:0.745" fill="#ab5c5f" d="M 162.5,70.5 C 160.761,73.2427 158.427,75.2427 155.5,76.5C 157.239,73.7573 159.573,71.7573 162.5,70.5 Z"/></g>
<g><path style="opacity:0.042" fill="#fefffe" d="M 151.5,73.5 C 150.342,76.8217 148.008,78.9883 144.5,80C 141.269,82.7273 138.603,85.894 136.5,89.5C 132.791,91.8947 129.458,94.5613 126.5,97.5C 132.251,91.5756 137.917,85.4089 143.5,79C 146.597,77.7266 149.264,75.8933 151.5,73.5 Z"/></g>
<g><path style="opacity:0.773" fill="#ab8383" d="M 314.5,69.5 C 318.704,71.0332 322.037,73.6998 324.5,77.5C 320.793,75.3115 317.46,72.6448 314.5,69.5 Z"/></g>
<g><path style="opacity:0.054" fill="#fefefe" d="M 325.5,73.5 C 329.536,77.5344 333.202,81.8677 336.5,86.5C 334.833,85.1667 333.167,83.8333 331.5,82.5C 331.5,81.8333 331.167,81.5 330.5,81.5C 330.5,80.8333 330.167,80.5 329.5,80.5C 327.295,78.6366 325.961,76.3033 325.5,73.5 Z"/></g>
<g><path style="opacity:0.008" fill="#ac8581" d="M 324.5,77.5 C 325.922,78.925 327.589,79.925 329.5,80.5C 330.167,80.5 330.5,80.8333 330.5,81.5C 331.167,81.5 331.5,81.8333 331.5,82.5C 331.5,83.1667 331.5,83.8333 331.5,84.5C 329.454,82.7211 327.287,81.0544 325,79.5C 324.536,78.9056 324.369,78.2389 324.5,77.5 Z"/></g>
<g><path style="opacity:0.765" fill="#aa6666" d="M 153.5,78.5 C 151.5,81.1667 149.167,83.5 146.5,85.5C 147.833,82.1667 150.167,79.8333 153.5,78.5 Z"/></g>
<g><path style="opacity:0.941" fill="#a97978" d="M 331.5,84.5 C 334.573,86.5691 336.906,89.2358 338.5,92.5C 335.427,90.4309 333.094,87.7642 331.5,84.5 Z"/></g>
<g><path style="opacity:0.052" fill="#fefefe" d="M 336.5,86.5 C 340.363,87.6936 343.363,90.027 345.5,93.5C 342.208,91.5419 339.208,89.2085 336.5,86.5 Z"/></g>
<g><path style="opacity:0.435" fill="#ab5d5c" d="M 144.5,87.5 C 143.581,90.0892 141.914,92.0892 139.5,93.5C 140.419,90.9108 142.086,88.9108 144.5,87.5 Z"/></g>
<g><path style="opacity:0.035" fill="#fefffe" d="M 345.5,93.5 C 346.338,93.8417 346.672,94.5084 346.5,95.5C 345.662,95.1583 345.328,94.4916 345.5,93.5 Z"/></g>
<g><path style="opacity:0.749" fill="#a58d8c" d="M 338.5,92.5 C 340.262,93.2623 341.262,94.5956 341.5,96.5C 339.738,95.7377 338.738,94.4044 338.5,92.5 Z"/></g>
<g><path style="opacity:0.037" fill="#fefffe" d="M 346.5,95.5 C 347.338,95.8417 347.672,96.5084 347.5,97.5C 346.662,97.1583 346.328,96.4916 346.5,95.5 Z"/></g>
<g><path style="opacity:0.039" fill="#fefffe" d="M 126.5,97.5 C 125.581,100.089 123.914,102.089 121.5,103.5C 122.419,100.911 124.086,98.9108 126.5,97.5 Z"/></g>
<g><path style="opacity:0.032" fill="#fefefe" d="M 347.5,97.5 C 348.933,99.5191 350.267,101.686 351.5,104C 348.875,102.971 347.541,100.805 347.5,97.5 Z"/></g>
<g><path style="opacity:0.702" fill="#a08b87" d="M 341.5,96.5 C 342.906,96.9731 343.573,97.9731 343.5,99.5C 342.094,99.0269 341.427,98.0269 341.5,96.5 Z"/></g>
<g><path style="opacity:0.58" fill="#a58989" d="M 343.5,99.5 C 344.906,99.9731 345.573,100.973 345.5,102.5C 344.094,102.027 343.427,101.027 343.5,99.5 Z"/></g>
<g><path style="opacity:0.046" fill="#fefffe" d="M 121.5,103.5 C 121.167,104.5 120.5,105.167 119.5,105.5C 119.5,104.167 120.167,103.5 121.5,103.5 Z"/></g>
<g><path style="opacity:1" fill="#040203" d="M 272.5,189.5 C 263.833,181.5 255.5,173.167 247.5,164.5C 256.357,165.711 264.524,164.045 272,159.5C 273,157.833 274,156.167 275,154.5C 278.84,142.009 274.673,133.842 262.5,130C 249.838,129.5 237.171,129.333 224.5,129.5C 224.5,133.5 224.5,137.5 224.5,141.5C 214.866,133.534 205.866,124.867 197.5,115.5C 197.5,111.5 197.5,107.5 197.5,103.5C 220.502,103.333 243.502,103.5 266.5,104C 272.403,104.856 278.069,106.523 283.5,109C 300.704,120.247 307.204,136.08 303,156.5C 299.545,173.785 289.378,184.785 272.5,189.5 Z"/></g>
<g><path style="opacity:0.033" fill="#fefffe" d="M 119.5,105.5 C 117.854,108.81 115.52,111.477 112.5,113.5C 114.094,110.236 116.427,107.569 119.5,105.5 Z"/></g>
<g><path style="opacity:1" fill="#fefdfd" d="M 197.5,145.5 C 197.5,176.833 197.5,208.167 197.5,239.5C 206.5,239.5 215.5,239.5 224.5,239.5C 225.496,223.675 225.83,207.675 225.5,191.5C 231.833,191.5 238.167,191.5 244.5,191.5C 263.632,210.132 282.632,228.965 301.5,248C 277.672,266.825 250.672,273.825 220.5,269C 169.207,255.567 142.207,222.401 139.5,169.5C 139.254,146.731 146.421,126.731 161,109.5C 173.66,120.993 185.827,132.993 197.5,145.5 Z"/></g>
<g><path style="opacity:0.02" fill="#fefffe" d="M 112.5,113.5 C 111.833,114.167 111.833,114.167 112.5,113.5 Z"/></g>
<g><path style="opacity:0.651" fill="#a99090" d="M 345.5,102.5 C 348.839,105.835 351.172,109.835 352.5,114.5C 349.665,110.836 347.332,106.836 345.5,102.5 Z"/></g>
<g><path style="opacity:0.035" fill="#fefefe" d="M 357.5,122.5 C 357.672,121.508 357.338,120.842 356.5,120.5C 356.672,119.508 356.338,118.842 355.5,118.5C 355.5,117.833 355.167,117.5 354.5,117.5C 354.5,117.167 354.5,116.833 354.5,116.5C 354.672,115.508 354.338,114.842 353.5,114.5C 353.076,111.646 352.076,108.979 350.5,106.5C 350.846,105.304 351.346,105.304 352,106.5C 353.874,112.812 356.874,118.479 361,123.5C 363.245,126.89 364.245,130.557 364,134.5C 362.567,129.958 360.4,125.958 357.5,122.5 Z"/></g>
<g><path style="opacity:0.349" fill="#a49e9c" d="M 352.5,114.5 C 352.833,114.5 353.167,114.5 353.5,114.5C 353.328,115.492 353.662,116.158 354.5,116.5C 354.5,116.833 354.5,117.167 354.5,117.5C 355.167,117.5 355.5,117.833 355.5,118.5C 355.328,119.492 355.662,120.158 356.5,120.5C 356.328,121.492 356.662,122.158 357.5,122.5C 357.833,124.5 358.167,126.5 358.5,128.5C 355.982,124.123 353.982,119.456 352.5,114.5 Z"/></g>
<g><path style="opacity:1" fill="#fcfcfc" d="M 247.5,164.5 C 239.425,157.092 231.758,149.425 224.5,141.5C 224.5,137.5 224.5,133.5 224.5,129.5C 237.171,129.333 249.838,129.5 262.5,130C 274.673,133.842 278.84,142.009 275,154.5C 274,156.167 273,157.833 272,159.5C 264.524,164.045 256.357,165.711 247.5,164.5 Z"/></g>
<g><path style="opacity:0.11" fill="#a59d9b" d="M 358.5,128.5 C 360.744,132.793 362.077,137.46 362.5,142.5C 360.566,138.112 359.233,133.445 358.5,128.5 Z"/></g>
<g><path style="opacity:0.041" fill="#fefffe" d="M 363.5,137.5 C 363.56,136.957 363.893,136.624 364.5,136.5C 365.648,138.423 366.148,140.423 366,142.5C 365.015,140.825 364.181,139.158 363.5,137.5 Z"/></g>
<g><path style="opacity:0.043" fill="#fefffe" d="M 365.5,143.5 C 366.833,144.167 366.833,144.167 365.5,143.5 Z"/></g>
<g><path style="opacity:1" fill="#252324" d="M 197.5,145.5 C 198.167,145.5 198.5,145.833 198.5,146.5C 198.5,177.167 198.5,207.833 198.5,238.5C 207.167,238.5 215.833,238.5 224.5,238.5C 224.5,238.833 224.5,239.167 224.5,239.5C 215.5,239.5 206.5,239.5 197.5,239.5C 197.5,208.167 197.5,176.833 197.5,145.5 Z"/></g>
<g><path style="opacity:1" fill="#020001" d="M 198.5,146.5 C 213.5,160.833 228.167,175.5 242.5,190.5C 236.5,190.5 230.5,190.5 224.5,190.5C 224.5,206.5 224.5,222.5 224.5,238.5C 215.833,238.5 207.167,238.5 198.5,238.5C 198.5,207.833 198.5,177.167 198.5,146.5 Z"/></g>
<g><path style="opacity:0.553" fill="#a76361" d="M 113.5,179.5 C 115.417,193.733 118.75,207.733 123.5,221.5C 117.05,208.363 113.717,194.363 113.5,179.5 Z"/></g>
<g><path style="opacity:1" fill="#aaa9a9" d="M 242.5,190.5 C 243.492,190.328 244.158,190.662 244.5,191.5C 238.167,191.5 231.833,191.5 225.5,191.5C 225.83,207.675 225.496,223.675 224.5,239.5C 224.5,239.167 224.5,238.833 224.5,238.5C 224.5,222.5 224.5,206.5 224.5,190.5C 230.5,190.5 236.5,190.5 242.5,190.5 Z"/></g>
<g><path style="opacity:0.027" fill="#fefffe" d="M 364.5,205.5 C 365.239,205.369 365.906,205.536 366.5,206C 364.179,213.142 361.179,219.975 357.5,226.5C 357.167,226.333 356.833,226.167 356.5,226C 360.041,219.548 362.708,212.715 364.5,205.5 Z"/></g>
<g><path style="opacity:0.036" fill="#fefffe" d="M 111.5,209.5 C 113.273,210.314 113.773,211.648 113,213.5C 112.209,212.255 111.709,210.922 111.5,209.5 Z"/></g>
<g><path style="opacity:0.025" fill="#fefffe" d="M 112.5,214.5 C 113.289,214.783 113.956,215.283 114.5,216C 113.184,216.528 112.517,216.028 112.5,214.5 Z"/></g>
<g><path style="opacity:0.03" fill="#fefffe" d="M 113.5,218.5 C 115.901,223.972 117.734,229.639 119,235.5C 115.87,230.277 114.037,224.611 113.5,218.5 Z"/></g>
<g><path style="opacity:0.651" fill="#a08f8f" d="M 363.5,147.5 C 371.147,190.23 360.147,227.564 330.5,259.5C 327.105,262.902 323.438,265.902 319.5,268.5C 354.758,235.885 369.424,195.551 363.5,147.5 Z"/></g>
<g><path style="opacity:0.041" fill="#fefffe" d="M 344.5,252.5 C 347.997,243.85 352.164,235.517 357,227.5C 357.667,228.5 357.667,229.5 357,230.5C 352.912,236.746 349.579,243.412 347,250.5C 346.292,251.381 345.458,252.047 344.5,252.5 Z"/></g>
<g><path style="opacity:0.329" fill="#a87878" d="M 125.5,225.5 C 128.593,229.347 130.926,233.68 132.5,238.5C 130.442,236.073 128.609,233.407 127,230.5C 125.991,228.975 125.491,227.308 125.5,225.5 Z"/></g>
<g><path style="opacity:0.037" fill="#fefefe" d="M 149.5,270.5 C 143.599,267.28 137.933,263.613 132.5,259.5C 127.695,252.051 123.029,244.551 118.5,237C 123.483,242.738 127.983,249.238 132,256.5C 138.021,261.031 143.854,265.697 149.5,270.5 Z"/></g>
<g><path style="opacity:0.439" fill="#a6716e" d="M 132.5,238.5 C 134.9,240.296 136.567,242.63 137.5,245.5C 135.1,243.704 133.433,241.37 132.5,238.5 Z"/></g>
<g><path style="opacity:0.145" fill="#ac8283" d="M 137.5,245.5 C 138.906,245.973 139.573,246.973 139.5,248.5C 138.094,248.027 137.427,247.027 137.5,245.5 Z"/></g>
<g><path style="opacity:0.004" fill="#a78c8b" d="M 139.5,248.5 C 141.587,249.585 142.92,251.251 143.5,253.5C 141.413,252.415 140.08,250.749 139.5,248.5 Z"/></g>
<g><path style="opacity:0.09" fill="#fefffe" d="M 344.5,252.5 C 343.833,253.167 343.833,253.167 344.5,252.5 Z"/></g>
<g><path style="opacity:0.046" fill="#fefffe" d="M 343.5,253.5 C 341.275,257.931 338.108,261.598 334,264.5C 333.833,264.167 333.667,263.833 333.5,263.5C 336.84,260.133 340.173,256.8 343.5,253.5 Z"/></g>
<g><path style="opacity:0.863" fill="#b3534e" d="M 147.5,258.5 C 152.012,260.334 155.679,263.334 158.5,267.5C 155.907,266.246 153.573,264.58 151.5,262.5C 149.833,261.5 148.5,260.167 147.5,258.5 Z"/></g>
<g><path style="opacity:0.031" fill="#fef3f2" d="M 328.5,263.5 C 329.043,263.56 329.376,263.893 329.5,264.5C 328.423,265.705 327.09,266.372 325.5,266.5C 325.833,265.5 326.5,264.833 327.5,264.5C 328.167,264.5 328.5,264.167 328.5,263.5 Z"/></g>
<g><path style="opacity:0.031" fill="#fdfefd" d="M 330.5,263.5 C 331.833,264.167 331.833,264.167 330.5,263.5 Z"/></g>
<g><path style="opacity:0.838" fill="#da4538" d="M 151.5,262.5 C 153.573,264.58 155.907,266.246 158.5,267.5C 161.567,270.986 163.9,274.986 165.5,279.5C 165.376,280.107 165.043,280.44 164.5,280.5C 163.272,279.694 162.272,278.694 161.5,277.5C 161.262,275.596 160.262,274.262 158.5,273.5C 155.906,269.974 153.573,266.308 151.5,262.5 Z"/></g>
<g><path style="opacity:0.988" fill="#e16453" d="M 330.5,259.5 C 330.267,261.062 329.6,262.395 328.5,263.5C 327.833,263.5 327.5,263.833 327.5,264.5C 326.5,264.833 325.833,265.5 325.5,266.5C 322.238,272.693 318.238,278.36 313.5,283.5C 312.957,283.44 312.624,283.107 312.5,282.5C 314.335,277.497 316.668,272.83 319.5,268.5C 323.438,265.902 327.105,262.902 330.5,259.5 Z"/></g>
<g><path style="opacity:0.03" fill="#fdfdfd" d="M 149.5,270.5 C 152.273,270.812 154.607,271.978 156.5,274C 153.664,273.915 151.331,272.749 149.5,270.5 Z"/></g>
<g><path style="opacity:1" fill="#e17a70" d="M 158.5,267.5 C 174.025,279.786 191.359,288.453 210.5,293.5C 219.965,296.542 229.798,297.875 240,297.5C 244.5,297.333 249,297.167 253.5,297C 259.05,296.523 263.717,295.357 267.5,293.5C 271.733,292.203 276.067,290.869 280.5,289.5C 286.267,289.31 291.6,287.31 296.5,283.5C 303.988,278.254 311.654,273.254 319.5,268.5C 316.668,272.83 314.335,277.497 312.5,282.5C 312.624,283.107 312.957,283.44 313.5,283.5C 313.167,284.167 312.833,284.833 312.5,285.5C 304.362,295.752 297.195,306.752 291,318.5C 281.306,335.77 273.472,353.77 267.5,372.5C 267.34,374.153 266.674,375.486 265.5,376.5C 265.19,375.262 264.69,375.262 264,376.5C 256.568,389.713 248.401,402.38 239.5,414.5C 229.148,399.658 219.482,384.992 210.5,370.5C 209.094,370.027 208.427,369.027 208.5,367.5C 201.951,347.394 193.451,328.06 183,309.5C 177.973,300.759 172.473,292.425 166.5,284.5C 165.326,283.486 164.66,282.153 164.5,280.5C 165.043,280.44 165.376,280.107 165.5,279.5C 163.9,274.986 161.567,270.986 158.5,267.5 Z"/></g>
<g><path style="opacity:0.036" fill="#fef4f2" d="M 158.5,273.5 C 160.262,274.262 161.262,275.596 161.5,277.5C 159.372,276.462 158.372,275.129 158.5,273.5 Z"/></g>
<g><path style="opacity:0.235" fill="#fefcfc" d="M 166.5,284.5 C 172.473,292.425 177.973,300.759 183,309.5C 193.451,328.06 201.951,347.394 208.5,367.5C 192.152,341.138 178.152,313.471 166.5,284.5 Z"/></g>
<g><path style="opacity:0.238" fill="#fefcfb" d="M 312.5,285.5 C 299.823,315.858 284.823,344.858 267.5,372.5C 273.472,353.77 281.306,335.77 291,318.5C 297.195,306.752 304.362,295.752 312.5,285.5 Z"/></g>
<g><path style="opacity:1" fill="#a57a78" d="M 296.5,283.5 C 291.6,287.31 286.267,289.31 280.5,289.5C 285.763,287.301 291.096,285.301 296.5,283.5 Z"/></g>
<g><path style="opacity:1" fill="#b17f7c" d="M 210.5,293.5 C 219.777,294.938 229.111,295.938 238.5,296.5C 248.224,295.961 257.891,294.961 267.5,293.5C 263.717,295.357 259.05,296.523 253.5,297C 249,297.167 244.5,297.333 240,297.5C 229.798,297.875 219.965,296.542 210.5,293.5 Z"/></g>
<g><path style="opacity:0.985" fill="#d63f31" d="M 265.5,376.5 C 254.074,410.294 247.408,444.961 245.5,480.5C 241.833,480.5 238.167,480.5 234.5,480.5C 233.828,479.733 232.995,479.066 232,478.5C 229.638,441.526 222.472,405.526 210.5,370.5C 219.482,384.992 229.148,399.658 239.5,414.5C 248.401,402.38 256.568,389.713 264,376.5C 264.69,375.262 265.19,375.262 265.5,376.5 Z"/></g>
</svg>
