<?xml version="1.0" encoding="UTF-8"?>
<!DOCTYPE svg PUBLIC "-//W3C//DTD SVG 1.1//EN" "http://www.w3.org/Graphics/SVG/1.1/DTD/svg11.dtd">
<svg xmlns="http://www.w3.org/2000/svg" version="1.1" width="346px" height="442px" style="shape-rendering:geometricPrecision; text-rendering:geometricPrecision; image-rendering:optimizeQuality; fill-rule:evenodd; clip-rule:evenodd" xmlns:xlink="http://www.w3.org/1999/xlink">
<g><path style="opacity:0.025" fill="#fefffe" d="M 137.5,5.5 C 138.601,4.40168 139.934,4.23502 141.5,5C 140.207,5.49001 138.873,5.65668 137.5,5.5 Z"/></g>
<g><path style="opacity:0.038" fill="#fefffe" d="M 230.5,14.5 C 223.232,11.2419 215.899,8.07519 208.5,5C 213.785,6.4258 219.118,8.09247 224.5,10C 226.747,11.2775 228.747,12.7775 230.5,14.5 Z"/></g>
<g><path style="opacity:0.044" fill="#fefffe" d="M 133.5,5.5 C 135.975,5.7467 135.975,6.41336 133.5,7.5C 132.537,7.03017 132.537,6.3635 133.5,5.5 Z"/></g>
<g><path style="opacity:0.031" fill="#fefffe" d="M 137.5,5.5 C 136.833,6.16667 136.833,6.16667 137.5,5.5 Z"/></g>
<g><path style="opacity:0.025" fill="#fefffe" d="M 128.5,6.5 C 132.339,6.61205 132.339,7.27872 128.5,8.5C 127.537,8.03017 127.537,7.3635 128.5,6.5 Z"/></g>
<g><path style="opacity:1" fill="#ab2320" d="M 206.5,11.5 C 209.518,13.3999 212.851,14.7333 216.5,15.5C 221.919,17.0444 226.919,19.3777 231.5,22.5C 232.659,24.2503 234.326,25.2503 236.5,25.5C 238.228,27.8774 240.561,29.544 243.5,30.5C 246.46,33.6448 249.793,36.3115 253.5,38.5C 253.369,39.2389 253.536,39.9056 254,40.5C 256.287,42.0544 258.454,43.7211 260.5,45.5C 262.094,48.7642 264.427,51.4309 267.5,53.5C 267.738,55.4044 268.738,56.7377 270.5,57.5C 270.427,59.0269 271.094,60.0269 272.5,60.5C 272.427,62.0269 273.094,63.0269 274.5,63.5C 276.332,67.8362 278.665,71.8362 281.5,75.5C 282.982,80.4563 284.982,85.123 287.5,89.5C 288.233,94.4449 289.566,99.1115 291.5,103.5C 292.451,104.919 292.784,106.585 292.5,108.5C 298.424,156.551 283.758,196.885 248.5,229.5C 240.654,234.254 232.988,239.254 225.5,244.5C 220.096,246.301 214.763,248.301 209.5,250.5C 205.067,251.869 200.733,253.203 196.5,254.5C 186.891,255.961 177.224,256.961 167.5,257.5C 158.111,256.938 148.777,255.938 139.5,254.5C 120.359,249.453 103.025,240.786 87.5,228.5C 84.6788,224.334 81.0121,221.334 76.5,219.5C 75.1667,217.833 73.8333,216.167 72.5,214.5C 71.9202,212.251 70.5869,210.585 68.5,209.5C 68.573,207.973 67.9063,206.973 66.5,206.5C 65.5667,203.63 63.9,201.296 61.5,199.5C 59.9259,194.68 57.5926,190.347 54.5,186.5C 53.3263,185.486 52.6596,184.153 52.5,182.5C 47.7503,168.733 44.417,154.733 42.5,140.5C 40.1086,108.352 48.7752,79.6852 68.5,54.5C 70.914,53.0892 72.5806,51.0892 73.5,48.5C 73.8333,47.5 74.5,46.8333 75.5,46.5C 78.1667,44.5 80.5,42.1667 82.5,39.5C 82.8333,38.5 83.5,37.8333 84.5,37.5C 87.4274,36.2427 89.7607,34.2427 91.5,31.5C 95.9756,27.4254 100.976,24.0921 106.5,21.5C 109.089,21.539 111.089,20.539 112.5,18.5C 136.158,6.92077 161.158,3.08743 187.5,7C 194.122,7.81984 200.455,9.31984 206.5,11.5 Z"/></g>
<g><path style="opacity:0.038" fill="#fefffe" d="M 100.5,17.5 C 103.039,14.8095 106.039,12.6428 109.5,11C 114.797,9.34106 120.131,8.34106 125.5,8C 120.687,9.78765 115.687,11.121 110.5,12C 107.26,14.0906 103.926,15.9239 100.5,17.5 Z"/></g>
<g><path style="opacity:0.329" fill="#b07676" d="M 206.5,11.5 C 210.332,11.8816 213.665,13.2149 216.5,15.5C 212.851,14.7333 209.518,13.3999 206.5,11.5 Z"/></g>
<g><path style="opacity:0.042" fill="#fefffe" d="M 230.5,14.5 C 239.359,20.0159 247.359,26.6826 254.5,34.5C 252.068,33.2498 249.734,31.7498 247.5,30C 241.937,24.5985 236.27,19.4318 230.5,14.5 Z"/></g>
<g><path style="opacity:0.042" fill="#fefffe" d="M 100.5,17.5 C 97.1651,20.8389 93.1651,23.1722 88.5,24.5C 91.9962,21.3444 95.9962,19.0111 100.5,17.5 Z"/></g>
<g><path style="opacity:0.42" fill="#aa5d61" d="M 112.5,18.5 C 111.089,20.539 109.089,21.539 106.5,21.5C 108.181,19.9925 110.181,18.9925 112.5,18.5 Z"/></g>
<g><path style="opacity:0.243" fill="#af888b" d="M 231.5,22.5 C 233.674,22.7497 235.341,23.7497 236.5,25.5C 234.326,25.2503 232.659,24.2503 231.5,22.5 Z"/></g>
<g><path style="opacity:0.033" fill="#fefffe" d="M 88.5,24.5 C 86.1446,28.1773 83.4779,31.5106 80.5,34.5C 82.1191,30.226 84.7858,26.8926 88.5,24.5 Z"/></g>
<g><path style="opacity:0.047" fill="#ae7f7d" d="M 236.5,25.5 C 239.4,26.4432 241.733,28.1099 243.5,30.5C 240.561,29.544 238.228,27.8774 236.5,25.5 Z"/></g>
<g><path style="opacity:1" fill="#fcfbfb" d="M 201.5,150.5 C 218.378,145.785 228.545,134.785 232,117.5C 236.204,97.0798 229.704,81.2465 212.5,70C 207.069,67.523 201.403,65.8563 195.5,65C 172.502,64.5 149.502,64.3334 126.5,64.5C 126.5,68.5 126.5,72.5 126.5,76.5C 119.035,69.5359 111.702,62.3692 104.5,55C 130.735,33.6944 160.401,27.0277 193.5,35C 245.822,52.8063 270.322,89.3063 267,144.5C 264.638,162.951 257.638,179.284 246,193.5C 230.372,180.039 215.539,165.706 201.5,150.5 Z"/></g>
<g><path style="opacity:0.745" fill="#ab5c5f" d="M 91.5,31.5 C 89.7607,34.2427 87.4274,36.2427 84.5,37.5C 86.2393,34.7573 88.5726,32.7573 91.5,31.5 Z"/></g>
<g><path style="opacity:0.042" fill="#fefffe" d="M 80.5,34.5 C 79.3418,37.8217 77.0084,39.9883 73.5,41C 70.2694,43.7273 67.6028,46.894 65.5,50.5C 61.791,52.8947 58.4577,55.5613 55.5,58.5C 61.2505,52.5756 66.9172,46.4089 72.5,40C 75.5973,38.7266 78.2639,36.8933 80.5,34.5 Z"/></g>
<g><path style="opacity:0.773" fill="#ab8383" d="M 243.5,30.5 C 247.704,32.0332 251.037,34.6998 253.5,38.5C 249.793,36.3115 246.46,33.6448 243.5,30.5 Z"/></g>
<g><path style="opacity:0.054" fill="#fefefe" d="M 254.5,34.5 C 258.536,38.5344 262.202,42.8677 265.5,47.5C 263.833,46.1667 262.167,44.8333 260.5,43.5C 260.5,42.8333 260.167,42.5 259.5,42.5C 259.5,41.8333 259.167,41.5 258.5,41.5C 256.295,39.6366 254.961,37.3033 254.5,34.5 Z"/></g>
<g><path style="opacity:0.008" fill="#ac8581" d="M 253.5,38.5 C 254.922,39.925 256.589,40.925 258.5,41.5C 259.167,41.5 259.5,41.8333 259.5,42.5C 260.167,42.5 260.5,42.8333 260.5,43.5C 260.5,44.1667 260.5,44.8333 260.5,45.5C 258.454,43.7211 256.287,42.0544 254,40.5C 253.536,39.9056 253.369,39.2389 253.5,38.5 Z"/></g>
<g><path style="opacity:0.765" fill="#aa6666" d="M 82.5,39.5 C 80.5,42.1667 78.1667,44.5 75.5,46.5C 76.8333,43.1667 79.1667,40.8333 82.5,39.5 Z"/></g>
<g><path style="opacity:0.941" fill="#a97978" d="M 260.5,45.5 C 263.573,47.5691 265.906,50.2358 267.5,53.5C 264.427,51.4309 262.094,48.7642 260.5,45.5 Z"/></g>
<g><path style="opacity:0.052" fill="#fefefe" d="M 265.5,47.5 C 269.363,48.6936 272.363,51.027 274.5,54.5C 271.208,52.5419 268.208,50.2085 265.5,47.5 Z"/></g>
<g><path style="opacity:0.435" fill="#ab5d5c" d="M 73.5,48.5 C 72.5806,51.0892 70.914,53.0892 68.5,54.5C 69.4194,51.9108 71.086,49.9108 73.5,48.5 Z"/></g>
<g><path style="opacity:0.035" fill="#fefffe" d="M 274.5,54.5 C 275.338,54.8417 275.672,55.5084 275.5,56.5C 274.662,56.1583 274.328,55.4916 274.5,54.5 Z"/></g>
<g><path style="opacity:0.749" fill="#a58d8c" d="M 267.5,53.5 C 269.262,54.2623 270.262,55.5956 270.5,57.5C 268.738,56.7377 267.738,55.4044 267.5,53.5 Z"/></g>
<g><path style="opacity:0.037" fill="#fefffe" d="M 275.5,56.5 C 276.338,56.8417 276.672,57.5084 276.5,58.5C 275.662,58.1583 275.328,57.4916 275.5,56.5 Z"/></g>
<g><path style="opacity:0.039" fill="#fefffe" d="M 55.5,58.5 C 54.5806,61.0892 52.914,63.0892 50.5,64.5C 51.4194,61.9108 53.086,59.9108 55.5,58.5 Z"/></g>
<g><path style="opacity:0.032" fill="#fefefe" d="M 276.5,58.5 C 277.933,60.5191 279.267,62.6857 280.5,65C 277.875,63.9715 276.541,61.8048 276.5,58.5 Z"/></g>
<g><path style="opacity:0.702" fill="#a08b87" d="M 270.5,57.5 C 271.906,57.9731 272.573,58.9731 272.5,60.5C 271.094,60.0269 270.427,59.0269 270.5,57.5 Z"/></g>
<g><path style="opacity:0.58" fill="#a58989" d="M 272.5,60.5 C 273.906,60.9731 274.573,61.9731 274.5,63.5C 273.094,63.0269 272.427,62.0269 272.5,60.5 Z"/></g>
<g><path style="opacity:0.046" fill="#fefffe" d="M 50.5,64.5 C 50.1667,65.5 49.5,66.1667 48.5,66.5C 48.5,65.1667 49.1667,64.5 50.5,64.5 Z"/></g>
<g><path style="opacity:1" fill="#040203" d="M 201.5,150.5 C 192.833,142.5 184.5,134.167 176.5,125.5C 185.357,126.711 193.524,125.045 201,120.5C 202,118.833 203,117.167 204,115.5C 207.84,103.009 203.673,94.8424 191.5,91C 178.838,90.5001 166.171,90.3334 153.5,90.5C 153.5,94.5 153.5,98.5 153.5,102.5C 143.866,94.5338 134.866,85.8671 126.5,76.5C 126.5,72.5 126.5,68.5 126.5,64.5C 149.502,64.3334 172.502,64.5 195.5,65C 201.403,65.8563 207.069,67.523 212.5,70C 229.704,81.2465 236.204,97.0798 232,117.5C 228.545,134.785 218.378,145.785 201.5,150.5 Z"/></g>
<g><path style="opacity:0.033" fill="#fefffe" d="M 48.5,66.5 C 46.8536,69.8102 44.5203,72.4768 41.5,74.5C 43.0941,71.2358 45.4275,68.5691 48.5,66.5 Z"/></g>
<g><path style="opacity:1" fill="#fefdfd" d="M 126.5,106.5 C 126.5,137.833 126.5,169.167 126.5,200.5C 135.5,200.5 144.5,200.5 153.5,200.5C 154.496,184.675 154.83,168.675 154.5,152.5C 160.833,152.5 167.167,152.5 173.5,152.5C 192.632,171.132 211.632,189.965 230.5,209C 206.672,227.825 179.672,234.825 149.5,230C 98.2067,216.567 71.2067,183.401 68.5,130.5C 68.254,107.731 75.4206,87.731 90,70.5C 102.66,81.9934 114.827,93.9934 126.5,106.5 Z"/></g>
<g><path style="opacity:0.02" fill="#fefffe" d="M 41.5,74.5 C 40.8333,75.1667 40.8333,75.1667 41.5,74.5 Z"/></g>
<g><path style="opacity:0.651" fill="#a99090" d="M 274.5,63.5 C 277.839,66.8349 280.172,70.8349 281.5,75.5C 278.665,71.8362 276.332,67.8362 274.5,63.5 Z"/></g>
<g><path style="opacity:0.035" fill="#fefefe" d="M 286.5,83.5 C 286.672,82.5084 286.338,81.8417 285.5,81.5C 285.672,80.5084 285.338,79.8417 284.5,79.5C 284.5,78.8333 284.167,78.5 283.5,78.5C 283.5,78.1667 283.5,77.8333 283.5,77.5C 283.672,76.5084 283.338,75.8417 282.5,75.5C 282.076,72.646 281.076,69.9793 279.5,67.5C 279.846,66.3044 280.346,66.3044 281,67.5C 282.874,73.8121 285.874,79.4787 290,84.5C 292.245,87.8903 293.245,91.557 293,95.5C 291.567,90.9581 289.4,86.9581 286.5,83.5 Z"/></g>
<g><path style="opacity:0.349" fill="#a49e9c" d="M 281.5,75.5 C 281.833,75.5 282.167,75.5 282.5,75.5C 282.328,76.4916 282.662,77.1583 283.5,77.5C 283.5,77.8333 283.5,78.1667 283.5,78.5C 284.167,78.5 284.5,78.8333 284.5,79.5C 284.328,80.4916 284.662,81.1583 285.5,81.5C 285.328,82.4916 285.662,83.1583 286.5,83.5C 286.833,85.5 287.167,87.5 287.5,89.5C 284.982,85.123 282.982,80.4563 281.5,75.5 Z"/></g>
<g><path style="opacity:1" fill="#fcfcfc" d="M 176.5,125.5 C 168.425,118.092 160.758,110.425 153.5,102.5C 153.5,98.5 153.5,94.5 153.5,90.5C 166.171,90.3334 178.838,90.5001 191.5,91C 203.673,94.8424 207.84,103.009 204,115.5C 203,117.167 202,118.833 201,120.5C 193.524,125.045 185.357,126.711 176.5,125.5 Z"/></g>
<g><path style="opacity:0.11" fill="#a59d9b" d="M 287.5,89.5 C 289.744,93.7932 291.077,98.4599 291.5,103.5C 289.566,99.1115 288.233,94.4449 287.5,89.5 Z"/></g>
<g><path style="opacity:0.041" fill="#fefffe" d="M 292.5,98.5 C 292.56,97.9569 292.893,97.6236 293.5,97.5C 294.648,99.4234 295.148,101.423 295,103.5C 294.015,101.825 293.181,100.158 292.5,98.5 Z"/></g>
<g><path style="opacity:0.043" fill="#fefffe" d="M 294.5,104.5 C 295.833,105.167 295.833,105.167 294.5,104.5 Z"/></g>
<g><path style="opacity:1" fill="#252324" d="M 126.5,106.5 C 127.167,106.5 127.5,106.833 127.5,107.5C 127.5,138.167 127.5,168.833 127.5,199.5C 136.167,199.5 144.833,199.5 153.5,199.5C 153.5,199.833 153.5,200.167 153.5,200.5C 144.5,200.5 135.5,200.5 126.5,200.5C 126.5,169.167 126.5,137.833 126.5,106.5 Z"/></g>
<g><path style="opacity:1" fill="#020001" d="M 127.5,107.5 C 142.5,121.833 157.167,136.5 171.5,151.5C 165.5,151.5 159.5,151.5 153.5,151.5C 153.5,167.5 153.5,183.5 153.5,199.5C 144.833,199.5 136.167,199.5 127.5,199.5C 127.5,168.833 127.5,138.167 127.5,107.5 Z"/></g>
<g><path style="opacity:0.553" fill="#a76361" d="M 42.5,140.5 C 44.417,154.733 47.7503,168.733 52.5,182.5C 46.0504,169.363 42.7171,155.363 42.5,140.5 Z"/></g>
<g><path style="opacity:1" fill="#aaa9a9" d="M 171.5,151.5 C 172.492,151.328 173.158,151.662 173.5,152.5C 167.167,152.5 160.833,152.5 154.5,152.5C 154.83,168.675 154.496,184.675 153.5,200.5C 153.5,200.167 153.5,199.833 153.5,199.5C 153.5,183.5 153.5,167.5 153.5,151.5C 159.5,151.5 165.5,151.5 171.5,151.5 Z"/></g>
<g><path style="opacity:0.027" fill="#fefffe" d="M 293.5,166.5 C 294.239,166.369 294.906,166.536 295.5,167C 293.179,174.142 290.179,180.975 286.5,187.5C 286.167,187.333 285.833,187.167 285.5,187C 289.041,180.548 291.708,173.715 293.5,166.5 Z"/></g>
<g><path style="opacity:0.036" fill="#fefffe" d="M 40.5,170.5 C 42.2726,171.314 42.7726,172.648 42,174.5C 41.2086,173.255 40.7086,171.922 40.5,170.5 Z"/></g>
<g><path style="opacity:0.025" fill="#fefffe" d="M 41.5,175.5 C 42.2891,175.783 42.9558,176.283 43.5,177C 42.184,177.528 41.5173,177.028 41.5,175.5 Z"/></g>
<g><path style="opacity:0.03" fill="#fefffe" d="M 42.5,179.5 C 44.901,184.972 46.7343,190.639 48,196.5C 44.8704,191.277 43.0371,185.611 42.5,179.5 Z"/></g>
<g><path style="opacity:0.651" fill="#a08f8f" d="M 292.5,108.5 C 300.147,151.23 289.147,188.564 259.5,220.5C 256.105,223.902 252.438,226.902 248.5,229.5C 283.758,196.885 298.424,156.551 292.5,108.5 Z"/></g>
<g><path style="opacity:0.041" fill="#fefffe" d="M 273.5,213.5 C 276.997,204.85 281.164,196.517 286,188.5C 286.667,189.5 286.667,190.5 286,191.5C 281.912,197.746 278.579,204.412 276,211.5C 275.292,212.381 274.458,213.047 273.5,213.5 Z"/></g>
<g><path style="opacity:0.329" fill="#a87878" d="M 54.5,186.5 C 57.5926,190.347 59.9259,194.68 61.5,199.5C 59.4424,197.073 57.6091,194.407 56,191.5C 54.9914,189.975 54.4914,188.308 54.5,186.5 Z"/></g>
<g><path style="opacity:0.037" fill="#fefefe" d="M 78.5,231.5 C 72.5994,228.28 66.9328,224.613 61.5,220.5C 56.6953,213.051 52.0286,205.551 47.5,198C 52.4834,203.738 56.9834,210.238 61,217.5C 67.021,222.031 72.8543,226.697 78.5,231.5 Z"/></g>
<g><path style="opacity:0.439" fill="#a6716e" d="M 61.5,199.5 C 63.9,201.296 65.5667,203.63 66.5,206.5C 64.1,204.704 62.4333,202.37 61.5,199.5 Z"/></g>
<g><path style="opacity:0.145" fill="#ac8283" d="M 66.5,206.5 C 67.9063,206.973 68.573,207.973 68.5,209.5C 67.0937,209.027 66.427,208.027 66.5,206.5 Z"/></g>
<g><path style="opacity:0.004" fill="#a78c8b" d="M 68.5,209.5 C 70.5869,210.585 71.9202,212.251 72.5,214.5C 70.4131,213.415 69.0798,211.749 68.5,209.5 Z"/></g>
<g><path style="opacity:0.09" fill="#fefffe" d="M 273.5,213.5 C 272.833,214.167 272.833,214.167 273.5,213.5 Z"/></g>
<g><path style="opacity:0.046" fill="#fefffe" d="M 272.5,214.5 C 270.275,218.931 267.108,222.598 263,225.5C 262.833,225.167 262.667,224.833 262.5,224.5C 265.84,221.133 269.173,217.8 272.5,214.5 Z"/></g>
<g><path style="opacity:0.863" fill="#b3534e" d="M 76.5,219.5 C 81.0121,221.334 84.6788,224.334 87.5,228.5C 84.9066,227.246 82.5732,225.58 80.5,223.5C 78.8333,222.5 77.5,221.167 76.5,219.5 Z"/></g>
<g><path style="opacity:0.031" fill="#fef3f2" d="M 257.5,224.5 C 258.043,224.56 258.376,224.893 258.5,225.5C 257.423,226.705 256.09,227.372 254.5,227.5C 254.833,226.5 255.5,225.833 256.5,225.5C 257.167,225.5 257.5,225.167 257.5,224.5 Z"/></g>
<g><path style="opacity:0.031" fill="#fdfefd" d="M 259.5,224.5 C 260.833,225.167 260.833,225.167 259.5,224.5 Z"/></g>
<g><path style="opacity:0.838" fill="#da4538" d="M 80.5,223.5 C 82.5732,225.58 84.9066,227.246 87.5,228.5C 90.5667,231.986 92.9,235.986 94.5,240.5C 94.3764,241.107 94.0431,241.44 93.5,241.5C 92.2719,240.694 91.2719,239.694 90.5,238.5C 90.2624,236.596 89.2624,235.262 87.5,234.5C 84.9062,230.974 82.5729,227.308 80.5,223.5 Z"/></g>
<g><path style="opacity:0.988" fill="#e16453" d="M 259.5,220.5 C 259.267,222.062 258.6,223.395 257.5,224.5C 256.833,224.5 256.5,224.833 256.5,225.5C 255.5,225.833 254.833,226.5 254.5,227.5C 251.238,233.693 247.238,239.36 242.5,244.5C 241.957,244.44 241.624,244.107 241.5,243.5C 243.335,238.497 245.668,233.83 248.5,229.5C 252.438,226.902 256.105,223.902 259.5,220.5 Z"/></g>
<g><path style="opacity:0.03" fill="#fdfdfd" d="M 78.5,231.5 C 81.2733,231.812 83.6066,232.978 85.5,235C 82.6641,234.915 80.3307,233.749 78.5,231.5 Z"/></g>
<g><path style="opacity:1" fill="#e17a70" d="M 87.5,228.5 C 103.025,240.786 120.359,249.453 139.5,254.5C 148.965,257.542 158.798,258.875 169,258.5C 173.5,258.333 178,258.167 182.5,258C 188.05,257.523 192.717,256.357 196.5,254.5C 200.733,253.203 205.067,251.869 209.5,250.5C 215.267,250.31 220.6,248.31 225.5,244.5C 232.988,239.254 240.654,234.254 248.5,229.5C 245.668,233.83 243.335,238.497 241.5,243.5C 241.624,244.107 241.957,244.44 242.5,244.5C 242.167,245.167 241.833,245.833 241.5,246.5C 233.362,256.752 226.195,267.752 220,279.5C 210.306,296.77 202.472,314.77 196.5,333.5C 196.34,335.153 195.674,336.486 194.5,337.5C 194.19,336.262 193.69,336.262 193,337.5C 185.568,350.713 177.401,363.38 168.5,375.5C 158.148,360.658 148.482,345.992 139.5,331.5C 138.094,331.027 137.427,330.027 137.5,328.5C 130.951,308.394 122.451,289.06 112,270.5C 106.973,261.759 101.473,253.425 95.5,245.5C 94.3263,244.486 93.6596,243.153 93.5,241.5C 94.0431,241.44 94.3764,241.107 94.5,240.5C 92.9,235.986 90.5667,231.986 87.5,228.5 Z"/></g>
<g><path style="opacity:0.036" fill="#fef4f2" d="M 87.5,234.5 C 89.2624,235.262 90.2624,236.596 90.5,238.5C 88.3723,237.462 87.3723,236.129 87.5,234.5 Z"/></g>
<g><path style="opacity:0.235" fill="#fefcfc" d="M 95.5,245.5 C 101.473,253.425 106.973,261.759 112,270.5C 122.451,289.06 130.951,308.394 137.5,328.5C 121.152,302.138 107.152,274.471 95.5,245.5 Z"/></g>
<g><path style="opacity:0.238" fill="#fefcfb" d="M 241.5,246.5 C 228.823,276.858 213.823,305.858 196.5,333.5C 202.472,314.77 210.306,296.77 220,279.5C 226.195,267.752 233.362,256.752 241.5,246.5 Z"/></g>
<g><path style="opacity:1" fill="#a57a78" d="M 225.5,244.5 C 220.6,248.31 215.267,250.31 209.5,250.5C 214.763,248.301 220.096,246.301 225.5,244.5 Z"/></g>
<g><path style="opacity:1" fill="#b17f7c" d="M 139.5,254.5 C 148.777,255.938 158.111,256.938 167.5,257.5C 177.224,256.961 186.891,255.961 196.5,254.5C 192.717,256.357 188.05,257.523 182.5,258C 178,258.167 173.5,258.333 169,258.5C 158.798,258.875 148.965,257.542 139.5,254.5 Z"/></g>
<g><path style="opacity:0.985" fill="#d63f31" d="M 194.5,337.5 C 183.074,371.294 176.408,405.961 174.5,441.5C 170.833,441.5 167.167,441.5 163.5,441.5C 162.828,440.733 161.995,440.066 161,439.5C 158.638,402.526 151.472,366.526 139.5,331.5C 148.482,345.992 158.148,360.658 168.5,375.5C 177.401,363.38 185.568,350.713 193,337.5C 193.69,336.262 194.19,336.262 194.5,337.5 Z"/></g>
</svg>
