<svg xmlns="http://www.w3.org/2000/svg" xmlns:xlink="http://www.w3.org/1999/xlink" width="35" height="45" viewBox="0 0 35 44"><defs><clipPath id="j"><path d="M0 0h35v44H0z"/></clipPath><clipPath id="r"><path d="M0 0h35v44H0z"/></clipPath><clipPath id="q"><path d="M0 0h35v44H0z"/></clipPath><clipPath id="c"><path d="M0 0h35v44H0z"/></clipPath><clipPath id="p"><path d="M0 0h35v44H0z"/></clipPath><clipPath id="d"><path d="M0 0h35v44H0z"/></clipPath><clipPath id="o"><path d="M0 0h35v44H0z"/></clipPath><clipPath id="e"><path d="M0 0h35v44H0z"/></clipPath><clipPath id="n"><path d="M0 0h35v44H0z"/></clipPath><clipPath id="f"><path d="M0 0h35v44H0z"/></clipPath><clipPath id="m"><path d="M0 0h35v44H0z"/></clipPath><clipPath id="g"><path d="M0 0h35v44H0z"/></clipPath><clipPath id="l"><path d="M0 0h35v44H0z"/></clipPath><clipPath id="h"><path d="M0 0h35v44H0z"/></clipPath><clipPath id="k"><path d="M0 0h35v44H0z"/></clipPath><clipPath id="i"><path d="M0 0h35v44H0z"/></clipPath><clipPath id="b"><path d="M0 0h35v44H0z"/></clipPath><mask id="B"><g filter="url(#a)"><path style="fill:#000;fill-opacity:.376471;stroke:none" d="M0 0h35v44H0z"/></g></mask><mask id="J"><g filter="url(#a)"><path style="fill:#000;fill-opacity:.913725;stroke:none" d="M0 0h35v44H0z"/></g></mask><mask id="H"><g filter="url(#a)"><path style="fill:#000;fill-opacity:.980392;stroke:none" d="M0 0h35v44H0z"/></g></mask><mask id="N"><g filter="url(#a)"><path style="fill:#000;fill-opacity:.984314;stroke:none" d="M0 0h35v44H0z"/></g></mask><mask id="F"><g filter="url(#a)"><path style="fill:#000;fill-opacity:.952941;stroke:none" d="M0 0h35v44H0z"/></g></mask><mask id="P"><g filter="url(#a)"><path style="fill:#000;fill-opacity:.945098;stroke:none" d="M0 0h35v44H0z"/></g></mask><mask id="D"><g filter="url(#a)"><path style="fill:#000;fill-opacity:.635294;stroke:none" d="M0 0h35v44H0z"/></g></mask><mask id="R"><g filter="url(#a)"><path style="fill:#000;fill-opacity:.619608;stroke:none" d="M0 0h35v44H0z"/></g></mask><mask id="L"><g filter="url(#a)"><path style="fill:#000;fill-opacity:.996078;stroke:none" d="M0 0h35v44H0z"/></g></mask><mask id="T"><g filter="url(#a)"><path style="fill:#000;fill-opacity:.152941;stroke:none" d="M0 0h35v44H0z"/></g></mask><mask id="z"><g filter="url(#a)"><path style="fill:#000;fill-opacity:.996078;stroke:none" d="M0 0h35v44H0z"/></g></mask><mask id="V"><g filter="url(#a)"><path style="fill:#000;fill-opacity:.686275;stroke:none" d="M0 0h35v44H0z"/></g></mask><mask id="x"><g filter="url(#a)"><path style="fill:#000;fill-opacity:.968627;stroke:none" d="M0 0h35v44H0z"/></g></mask><mask id="X"><g filter="url(#a)"><path style="fill:#000;fill-opacity:.270588;stroke:none" d="M0 0h35v44H0z"/></g></mask><mask id="v"><g filter="url(#a)"><path style="fill:#000;fill-opacity:.0235294;stroke:none" d="M0 0h35v44H0z"/></g></mask><mask id="Z"><g filter="url(#a)"><path style="fill:#000;fill-opacity:.984314;stroke:none" d="M0 0h35v44H0z"/></g></mask><mask id="t"><g filter="url(#a)"><path style="fill:#000;fill-opacity:.133333;stroke:none" d="M0 0h35v44H0z"/></g></mask><g id="w" clip-path="url(#d)"><path style="stroke:none;fill-rule:evenodd;fill:#d64336;fill-opacity:1" d="M27.766 5.723a12.003 12.003 0 0 0-.707 1.992c-1.11-2.8-3.063-4.809-5.868-6.024-5.421-1.742-9.836-.398-13.25 4.032a2.831 2.831 0 0 1-.101-.996 76.034 76.034 0 0 1 2.426-2.04c4.078-2.53 8.261-2.699 12.546-.496a13.172 13.172 0 0 1 4.602 4.032c.07-.207.188-.375.352-.5zm0 0"/></g><g id="A" clip-path="url(#f)"><path style="stroke:none;fill-rule:evenodd;fill:#b54d51;fill-opacity:1" d="M30.094 3.832c-.442.215-.883.445-1.317.7a1.85 1.85 0 0 1 1.317-.7zm0 0"/></g><g id="O" clip-path="url(#m)"><path style="stroke:none;fill-rule:evenodd;fill:#b74145;fill-opacity:1" d="M34.242 6.223c.254.312.387.68.403 1.093a5.398 5.398 0 0 1-.403-1.093zm0 0"/></g><g id="G" clip-path="url(#i)"><path style="stroke:none;fill-rule:evenodd;fill:#c96063;fill-opacity:1" d="M3.59 4.43h-.707c.023.168-.047.265-.203.297V4.23c.355-.054.66.012.91.2zm0 0"/></g><g id="u" clip-path="url(#c)"><path style="stroke:none;fill-rule:evenodd;fill:#a9a9a9;fill-opacity:1" d="M34.95 2.04v.198c-.134-.066-.134-.133 0-.199zm0 0"/></g><g id="Q" clip-path="url(#n)"><path style="stroke:none;fill-rule:evenodd;fill:#ae4c51;fill-opacity:1" d="M2.477 13.488c.336.117.675.23 1.011.348.13.098.13.18 0 .25-.343-.18-.683-.379-1.011-.598zm0 0"/></g><g id="Y" clip-path="url(#r)"><path style="stroke:none;fill-rule:evenodd;fill:#d63f31;fill-opacity:1" d="M19.676 33.598a38.028 38.028 0 0 0-2.024 10.351H16.54a1.026 1.026 0 0 0-.254-.199A40.482 40.482 0 0 0 14.11 33a98.49 98.49 0 0 0 2.934 4.379 37.061 37.061 0 0 0 2.48-3.781c.07-.125.122-.125.153 0zm0 0"/></g><g id="I" clip-path="url(#j)"><path style="stroke:none;fill-rule:evenodd;fill:#ca6266;fill-opacity:1" d="M7.84 4.629a1.35 1.35 0 0 0-.91-.2c.25-.187.554-.253.91-.199v.399zm0 0"/></g><g id="S" clip-path="url(#o)"><path style="stroke:none;fill-rule:evenodd;fill:#a9484d;fill-opacity:1" d="M32.523 13.79c-.312.198-.617.398-.914.593-.129-.086-.129-.188 0-.297.313-.086.618-.184.914-.297zm0 0"/></g><g id="C" clip-path="url(#g)"><path style="stroke:none;fill-rule:evenodd;fill:#b95156;fill-opacity:1" d="M31.71 3.832c.509.082.915.316 1.216.7-.41-.239-.817-.47-1.215-.7zm0 0"/></g><g id="y" clip-path="url(#e)"><path style="stroke:none;fill-rule:evenodd;fill:#c0161e;fill-opacity:1" d="M31.71 3.832c.4.23.806.461 1.216.7a3.296 3.296 0 0 1 1.316 1.69c.094.38.23.747.403 1.094.496 1.903.21 3.696-.86 5.375-.379.426-.8.79-1.262 1.098-.296.113-.601.211-.914.297-.129.11-.129.21 0 .297.301 4.68.606 9.36.914 14.039a3.859 3.859 0 0 1-1.214.098 9.193 9.193 0 0 0-1.922-.098c.023-.129-.012-.23-.102-.3v-.099c.125-.082.192-.214.203-.398a.803.803 0 0 0-.101-.398c.047-1.528.113-3.055.203-4.579.285-2.847.488-5.699.605-8.562-1.175-.309-2.035-1.004-2.578-2.09a6.718 6.718 0 0 1-.66-3.984c.094-.07.125-.168.102-.297.171-.676.41-1.336.707-1.992a2.926 2.926 0 0 1 1.011-1.192c.434-.254.875-.484 1.317-.699a3.332 3.332 0 0 1 1.617 0zm0 0"/></g><g id="U" clip-path="url(#p)"><path style="stroke:none;fill-rule:evenodd;fill:#c56066;fill-opacity:1" d="M29.285 28.121c.09.07.125.172.102.3.66-.034 1.3 0 1.922.099h-2.024v-.399zm0 0"/></g><g id="K" clip-path="url(#k)"><path style="stroke:none;fill-rule:evenodd;fill:#c01a20;fill-opacity:1" d="M1.465 4.43c.156 1.773.258 3.566.305 5.375h.707c.046-1.692.113-3.387.203-5.078.156-.032.226-.13.203-.297h.707c.144 1.785.246 3.574.305 5.375H4.5a7.32 7.32 0 0 0 .102-1.492c.128-.083.195-.215.203-.399a.774.774 0 0 0-.102-.398V6.32c.125-.082.195-.215.203-.398a.774.774 0 0 0-.101-.399 3.31 3.31 0 0 1 .101-1.093h.707c-.035.199.035.332.203.398.024.73.055 1.461.102 2.192-.055.453-.086.918-.102 1.39.059.465.11.93.153 1.395.242.093.492.129.758.101.05-1.265.152-2.527.304-3.785a1.83 1.83 0 0 1-.101-.598V4.43c.34-.04.64.027.91.199v.098c-.024.343.008.675.101.996.079 1.226.114 2.457.102 3.683 0 .578-.086 1.14-.254 1.692-.36 1.367-1.219 2.265-2.578 2.691-.152.332-.25.68-.305 1.043.16 2.277.364 4.55.606 6.82l.406 6.57c-1.043.098-2.09.114-3.137.051.16-4.386.364-8.78.61-13.191.125-.082.191-.215.199-.398a.774.774 0 0 0-.102-.399v-.2c.13-.07.13-.151 0-.25-.336-.116-.675-.23-1.011-.347C1.457 12.91.8 12.051.504 10.902a19.7 19.7 0 0 1 .05-6.37c.294-.09.598-.126.91-.102zm0 0"/></g><g id="s" clip-path="url(#b)"><path style="stroke:none;fill-rule:evenodd;fill:#b8b8b8;fill-opacity:1" d="M-.05 2.738v-.3c.296-.426.632-.82 1.01-1.192.036.031.067.067.103.098-.375.468-.747.933-1.114 1.394zm0 0"/></g><g id="W" clip-path="url(#q)"><path style="stroke:none;fill-rule:evenodd;fill:#b2b2b2;fill-opacity:1" d="M-.05 30.91a.736.736 0 0 1 .304.348.27.27 0 0 1-.305-.051v-.297zm0 0"/></g><g id="E" clip-path="url(#h)"><path style="stroke:none;fill-rule:evenodd;fill:#c86165;fill-opacity:1" d="M1.465 4.43a2.458 2.458 0 0 0-.91.101v-.3c.355-.055.66.011.91.199zm0 0"/></g><g id="M" clip-path="url(#l)"><path style="stroke:none;fill-rule:evenodd;fill:#d14136;fill-opacity:1" d="M6.93 5.523c0 .207.035.403.101.598a47.208 47.208 0 0 0-.304 3.785 1.606 1.606 0 0 1-.758-.101c-.043-.465-.094-.93-.153-1.395.016-.473.047-.937.102-1.39-.016.136 0 .27.05.398a8.74 8.74 0 0 0 .962-1.895zm0 0"/></g><filter id="a" filterUnits="objectBoundingBox" x="0%" y="0%" width="100%" height="100%"><feColorMatrix in="SourceGraphic" values="0 0 0 0 1 0 0 0 0 1 0 0 0 0 1 0 0 0 1 0"/></filter></defs><path style="stroke:none;fill-rule:evenodd;fill:#e17a70;fill-opacity:1" d="M27.059 7.715c.023.129-.008.226-.102.297-3.516-3.39-7.695-4.535-12.543-3.434-2.457.652-4.531 1.899-6.219 3.734-.02.383-.07.75-.152 1.094a50.417 50.417 0 0 0-.102-3.683c3.414-4.43 7.829-5.774 13.25-4.032 2.805 1.215 4.758 3.223 5.868 6.024zm0 0"/><use xlink:href="#s" mask="url(#t)"/><use xlink:href="#u" mask="url(#v)"/><use xlink:href="#w" mask="url(#x)"/><use xlink:href="#y" mask="url(#z)"/><path style="stroke:none;fill-rule:evenodd;fill:#fcfbfb;fill-opacity:1" d="M26.957 8.012a6.718 6.718 0 0 0 .66 3.984c.543 1.086 1.403 1.781 2.578 2.09-.117 2.863-.32 5.715-.605 8.562-1.692 3.02-4.152 5.211-7.387 6.57A59.845 59.845 0 0 1 19.88 33.2a17.355 17.355 0 0 1 1.617-3.832c-.05-.015-.101-.035-.152-.05-3.024.824-5.992.624-8.903-.598-.05.035-.101.066-.152.101a19.484 19.484 0 0 1 1.621 3.883 46.216 46.216 0 0 1-2.48-4.383c-2.715-1.593-4.688-3.816-5.918-6.668a189.67 189.67 0 0 1-.606-6.82c.055-.363.153-.71.305-1.043 1.36-.426 2.219-1.324 2.578-2.691.168-.551.254-1.114.254-1.692.082-.344.133-.71.152-1.094 1.688-1.835 3.762-3.082 6.22-3.734 4.847-1.101 9.026.043 12.542 3.434zm0 0"/><use xlink:href="#A" mask="url(#B)"/><use xlink:href="#C" mask="url(#D)"/><use xlink:href="#E" mask="url(#F)"/><use xlink:href="#G" mask="url(#H)"/><path style="stroke:none;fill-rule:evenodd;fill:#ca6468;fill-opacity:1" d="M5.816 4.828c-.168-.066-.238-.2-.203-.398h-.707c.086-.125.219-.192.407-.2.445-.043.613.157.503.598zm0 0"/><use xlink:href="#I" mask="url(#J)"/><use xlink:href="#K" mask="url(#L)"/><path style="stroke:none;fill-rule:evenodd;fill:#bf5256;fill-opacity:1" d="M4.805 5.523a.774.774 0 0 1 .101.399c-.008.183-.078.316-.203.398-.031-.285.004-.55.102-.797zm0 0"/><use xlink:href="#M" mask="url(#N)"/><use xlink:href="#O" mask="url(#P)"/><path style="stroke:none;fill-rule:evenodd;fill:#080808;fill-opacity:1" d="M16.844 7.316c5.554-.05 9.078 2.54 10.57 7.766.621 5.328-1.55 9.027-6.523 11.098-4.805 1.258-8.633-.086-11.485-4.032-2.172-3.988-1.902-7.804.809-11.445 1.793-1.937 4-3.066 6.629-3.387zm0 0"/><path style="stroke:none;fill-rule:evenodd;fill:#b7484c;fill-opacity:1" d="M4.703 7.516a.774.774 0 0 1 .102.398c-.008.184-.075.316-.203.399-.032-.29.003-.555.101-.797zm0 0"/><path style="stroke:none;fill-rule:evenodd;fill:#fdfdfd;fill-opacity:1" d="M16.742 8.41c4.403-.156 7.488 1.735 9.254 5.676 1.281 4.86-.32 8.46-4.805 10.8-4.3 1.485-7.859.473-10.671-3.034-1.594-2.543-1.899-5.23-.91-8.063 1.398-3.05 3.773-4.844 7.132-5.379zm0 0"/><use xlink:href="#Q" mask="url(#R)"/><use xlink:href="#S" mask="url(#T)"/><path style="stroke:none;fill-rule:evenodd;fill:#be4548;fill-opacity:1" d="M3.488 14.285a.774.774 0 0 1 .102.399c-.008.183-.074.316-.2.398-.03-.289 0-.555.098-.797zm0 0"/><path style="stroke:none;fill-rule:evenodd;fill:#bd484b;fill-opacity:1" d="M29.387 27.227a.803.803 0 0 1 .101.398c-.011.184-.078.316-.203.398-.031-.289.004-.554.102-.796zm0 0"/><use xlink:href="#U" mask="url(#V)"/><path style="stroke:none;fill-rule:evenodd;fill:#e17a70;fill-opacity:1" d="M19.879 33.2a.6.6 0 0 1-.203.398c-.031-.125-.082-.125-.153 0a37.061 37.061 0 0 1-2.48 3.78A98.49 98.49 0 0 1 14.109 33c-.14-.047-.207-.148-.199-.297a19.484 19.484 0 0 0-1.62-3.883c.05-.035.1-.066.151-.101 2.91 1.222 5.88 1.422 8.903.597.05.016.101.036.152.051A17.355 17.355 0 0 0 19.88 33.2zm0 0"/><use xlink:href="#W" mask="url(#X)"/><use xlink:href="#Y" mask="url(#Z)"/></svg>