<?xml version="1.0" encoding="UTF-8"?>
<!DOCTYPE svg PUBLIC "-//W3C//DTD SVG 1.1//EN" "http://www.w3.org/Graphics/SVG/1.1/DTD/svg11.dtd">
<svg xmlns="http://www.w3.org/2000/svg" version="1.1" width="346px" height="442px" style="shape-rendering:geometricPrecision; text-rendering:geometricPrecision; image-rendering:optimizeQuality; fill-rule:evenodd; clip-rule:evenodd" xmlns:xlink="http://www.w3.org/1999/xlink">
<g><path style="opacity:1" fill="#e17a70" d="M 267.5,77.5 C 267.737,78.791 267.404,79.791 266.5,80.5C 231.735,46.4243 190.402,34.9243 142.5,46C 118.201,52.5529 97.7008,65.0529 81,83.5C 80.8227,87.3563 80.3227,91.023 79.5,94.5C 79.6184,82.1503 79.2851,69.8169 78.5,57.5C 112.242,12.9805 155.909,-0.519508 209.5,17C 237.205,29.2034 256.538,49.3701 267.5,77.5 Z"/></g>
<g><path style="opacity:0.133" fill="#b8b8b8" d="M -0.5,27.5 C -0.5,26.5 -0.5,25.5 -0.5,24.5C 2.4335,20.2272 5.76684,16.2272 9.5,12.5C 9.83333,12.8333 10.1667,13.1667 10.5,13.5C 6.77893,18.2097 3.11226,22.8764 -0.5,27.5 Z"/></g>
<g><path style="opacity:0.024" fill="#a9a9a9" d="M 345.5,20.5 C 345.5,21.1667 345.5,21.8333 345.5,22.5C 344.167,21.8333 344.167,21.1667 345.5,20.5 Z"/></g>
<g><path style="opacity:0.969" fill="#d64336" d="M 274.5,57.5 C 271.538,64.0608 269.204,70.7275 267.5,77.5C 256.538,49.3701 237.205,29.2034 209.5,17C 155.909,-0.519508 112.242,12.9805 78.5,57.5C 77.5863,54.272 77.2529,50.9387 77.5,47.5C 85.3334,40.5021 93.3334,33.6688 101.5,27C 141.815,1.5607 183.149,-0.10597 225.5,22C 243.828,31.9195 258.995,45.4195 271,62.5C 271.697,60.4156 272.864,58.7489 274.5,57.5 Z"/></g>
<g><path style="opacity:0.998" fill="#c0161e" d="M 313.5,38.5 C 317.432,40.8047 321.432,43.1381 325.5,45.5C 331.656,49.6699 335.989,55.3366 338.5,62.5C 339.443,66.3322 340.777,69.9989 342.5,73.5C 347.388,92.6237 344.555,110.624 334,127.5C 330.239,131.77 326.072,135.437 321.5,138.5C 318.573,139.65 315.573,140.65 312.5,141.5C 311.224,142.614 311.224,143.614 312.5,144.5C 315.461,191.502 318.461,238.502 321.5,285.5C 317.555,286.491 313.555,286.824 309.5,286.5C 303.355,285.51 297.022,285.177 290.5,285.5C 290.737,284.209 290.404,283.209 289.5,282.5C 289.5,282.167 289.5,281.833 289.5,281.5C 290.748,280.666 291.415,279.333 291.5,277.5C 291.489,275.955 291.156,274.622 290.5,273.5C 290.971,258.158 291.638,242.824 292.5,227.5C 295.328,198.926 297.328,170.259 298.5,141.5C 286.889,138.399 278.389,131.399 273,120.5C 266.797,107.86 264.631,94.5262 266.5,80.5C 267.404,79.791 267.737,78.791 267.5,77.5C 269.204,70.7275 271.538,64.0608 274.5,57.5C 276.709,52.6187 280.043,48.6187 284.5,45.5C 288.788,42.9693 293.121,40.636 297.5,38.5C 302.833,37.1667 308.167,37.1667 313.5,38.5 Z"/></g>
<g><path style="opacity:1" fill="#fcfbfb" d="M 266.5,80.5 C 264.631,94.5262 266.797,107.86 273,120.5C 278.389,131.399 286.889,138.399 298.5,141.5C 297.328,170.259 295.328,198.926 292.5,227.5C 275.799,257.864 251.465,279.864 219.5,293.5C 212.312,307.222 204.645,320.556 196.5,333.5C 200.296,320.069 205.629,307.236 212.5,295C 212,294.833 211.5,294.667 211,294.5C 181.098,302.784 151.764,300.784 123,288.5C 122.5,288.833 122,289.167 121.5,289.5C 128.243,301.978 133.577,314.978 137.5,328.5C 128.6,314.379 120.434,299.713 113,284.5C 86.1582,268.497 66.6582,246.164 54.5,217.5C 52.0811,194.722 50.0811,171.889 48.5,149C 49.0241,145.338 50.0241,141.838 51.5,138.5C 64.9402,134.225 73.4402,125.225 77,111.5C 78.6767,105.951 79.5101,100.285 79.5,94.5C 80.3227,91.023 80.8227,87.3563 81,83.5C 97.7008,65.0529 118.201,52.5529 142.5,46C 190.402,34.9243 231.735,46.4243 266.5,80.5 Z"/></g>
<g><path style="opacity:0.376" fill="#b54d51" d="M 297.5,38.5 C 293.121,40.636 288.788,42.9693 284.5,45.5C 287.8,41.3487 292.133,39.0153 297.5,38.5 Z"/></g>
<g><path style="opacity:0.635" fill="#b95156" d="M 313.5,38.5 C 318.515,39.3326 322.515,41.666 325.5,45.5C 321.432,43.1381 317.432,40.8047 313.5,38.5 Z"/></g>
<g><path style="opacity:0.951" fill="#c86165" d="M 14.5,44.5 C 11.3915,44.2641 8.39147,44.5975 5.5,45.5C 5.5,44.5 5.5,43.5 5.5,42.5C 9.01215,41.9455 12.0122,42.6122 14.5,44.5 Z"/></g>
<g><path style="opacity:0.982" fill="#c96063" d="M 35.5,44.5 C 33.1667,44.5 30.8333,44.5 28.5,44.5C 28.7148,46.1788 28.0481,47.1788 26.5,47.5C 26.5,45.8333 26.5,44.1667 26.5,42.5C 30.0122,41.9455 33.0122,42.6122 35.5,44.5 Z"/></g>
<g><path style="opacity:1" fill="#ca6468" d="M 57.5,48.5 C 55.8235,47.8166 55.1568,46.4832 55.5,44.5C 53.1667,44.5 50.8333,44.5 48.5,44.5C 49.3339,43.2521 50.6672,42.5854 52.5,42.5C 56.9084,42.0775 58.5751,44.0775 57.5,48.5 Z"/></g>
<g><path style="opacity:0.912" fill="#ca6266" d="M 77.5,46.5 C 74.8555,44.7581 71.8555,44.0914 68.5,44.5C 70.9878,42.6122 73.9878,41.9455 77.5,42.5C 77.5,43.8333 77.5,45.1667 77.5,46.5 Z"/></g>
<g><path style="opacity:0.995" fill="#c01a20" d="M 14.5,44.5 C 16.0251,62.3171 17.0251,80.3171 17.5,98.5C 19.8333,98.5 22.1667,98.5 24.5,98.5C 24.9338,81.49 25.6005,64.49 26.5,47.5C 28.0481,47.1788 28.7148,46.1788 28.5,44.5C 30.8333,44.5 33.1667,44.5 35.5,44.5C 36.917,62.4202 37.917,80.4202 38.5,98.5C 40.5,98.5 42.5,98.5 44.5,98.5C 45.3292,93.547 45.6625,88.547 45.5,83.5C 46.7479,82.6661 47.4146,81.3328 47.5,79.5C 47.4892,77.9549 47.1558,76.6216 46.5,75.5C 46.5,71.5 46.5,67.5 46.5,63.5C 47.7479,62.6661 48.4146,61.3328 48.5,59.5C 48.4892,57.9549 48.1558,56.6216 47.5,55.5C 47.244,51.7307 47.5773,48.0641 48.5,44.5C 50.8333,44.5 53.1667,44.5 55.5,44.5C 55.1568,46.4832 55.8235,47.8166 57.5,48.5C 57.7228,55.8395 58.0561,63.1729 58.5,70.5C 57.9708,75.067 57.6375,79.7336 57.5,84.5C 58.0659,89.1594 58.5659,93.8261 59,98.5C 61.3806,99.435 63.8806,99.7683 66.5,99.5C 67.0109,86.7911 68.0109,74.1244 69.5,61.5C 68.8444,59.5466 68.5111,57.5466 68.5,55.5C 68.5,51.8333 68.5,48.1667 68.5,44.5C 71.8555,44.0914 74.8555,44.7581 77.5,46.5C 77.5,46.8333 77.5,47.1667 77.5,47.5C 77.2529,50.9387 77.5863,54.272 78.5,57.5C 79.2851,69.8169 79.6184,82.1503 79.5,94.5C 79.5101,100.285 78.6767,105.951 77,111.5C 73.4402,125.225 64.9402,134.225 51.5,138.5C 50.0241,141.838 49.0241,145.338 48.5,149C 50.0811,171.889 52.0811,194.722 54.5,217.5C 55.8333,239.5 57.1667,261.5 58.5,283.5C 48.183,284.471 37.8496,284.638 27.5,284C 29.0883,239.967 31.0883,195.8 33.5,151.5C 34.7479,150.666 35.4146,149.333 35.5,147.5C 35.4892,145.955 35.1558,144.622 34.5,143.5C 34.5,142.833 34.5,142.167 34.5,141.5C 35.7736,140.811 35.7736,139.977 34.5,139C 31.1478,137.83 27.8145,136.664 24.5,135.5C 14.4088,129.703 7.90877,121.036 5,109.5C 1.73628,88.1602 1.90294,66.8268 5.5,45.5C 8.39147,44.5975 11.3915,44.2641 14.5,44.5 Z"/></g>
<g><path style="opacity:1" fill="#bf5256" d="M 47.5,55.5 C 48.1558,56.6216 48.4892,57.9549 48.5,59.5C 48.4146,61.3328 47.7479,62.6661 46.5,63.5C 46.1936,60.6146 46.5269,57.9479 47.5,55.5 Z"/></g>
<g><path style="opacity:0.985" fill="#d14136" d="M 68.5,55.5 C 68.5111,57.5466 68.8444,59.5466 69.5,61.5C 68.0109,74.1244 67.0109,86.7911 66.5,99.5C 63.8806,99.7683 61.3806,99.435 59,98.5C 58.5659,93.8261 58.0659,89.1594 57.5,84.5C 57.6375,79.7336 57.9708,75.067 58.5,70.5C 58.3433,71.8734 58.51,73.2068 59,74.5C 63.0257,68.3898 66.1924,62.0564 68.5,55.5 Z"/></g>
<g><path style="opacity:0.945" fill="#b74145" d="M 338.5,62.5 C 341,65.6599 342.333,69.3266 342.5,73.5C 340.777,69.9989 339.443,66.3322 338.5,62.5 Z"/></g>
<g><path style="opacity:1" fill="#080808" d="M 166.5,73.5 C 221.409,73.0015 256.243,99.0015 271,151.5C 277.165,205.038 255.665,242.204 206.5,263C 159.011,275.621 121.177,262.121 93,222.5C 71.5029,182.437 74.1696,144.104 101,107.5C 118.701,88.0673 140.534,76.7339 166.5,73.5 Z"/></g>
<g><path style="opacity:1" fill="#b7484c" d="M 46.5,75.5 C 47.1558,76.6216 47.4892,77.9549 47.5,79.5C 47.4146,81.3328 46.7479,82.6661 45.5,83.5C 45.1936,80.6146 45.5269,77.9479 46.5,75.5 Z"/></g>
<g><path style="opacity:1" fill="#fdfdfd" d="M 165.5,84.5 C 209.027,82.9032 239.527,101.903 257,141.5C 269.666,190.321 253.833,226.488 209.5,250C 166.958,264.926 131.791,254.76 104,219.5C 88.2417,193.967 85.2417,166.967 95,138.5C 108.809,107.859 132.309,89.8591 165.5,84.5 Z"/></g>
<g><path style="opacity:0.62" fill="#ae4c51" d="M 24.5,135.5 C 27.8145,136.664 31.1478,137.83 34.5,139C 35.7736,139.977 35.7736,140.811 34.5,141.5C 31.0725,139.687 27.7391,137.687 24.5,135.5 Z"/></g>
<g><path style="opacity:0.153" fill="#a9484d" d="M 321.5,138.5 C 318.415,140.508 315.415,142.508 312.5,144.5C 311.224,143.614 311.224,142.614 312.5,141.5C 315.573,140.65 318.573,139.65 321.5,138.5 Z"/></g>
<g><path style="opacity:1" fill="#be4548" d="M 34.5,143.5 C 35.1558,144.622 35.4892,145.955 35.5,147.5C 35.4146,149.333 34.7479,150.666 33.5,151.5C 33.1936,148.615 33.5269,145.948 34.5,143.5 Z"/></g>
<g><path style="opacity:1" fill="#bd484b" d="M 290.5,273.5 C 291.156,274.622 291.489,275.955 291.5,277.5C 291.415,279.333 290.748,280.666 289.5,281.5C 289.194,278.615 289.527,275.948 290.5,273.5 Z"/></g>
<g><path style="opacity:0.686" fill="#c56066" d="M 289.5,282.5 C 290.404,283.209 290.737,284.209 290.5,285.5C 297.022,285.177 303.355,285.51 309.5,286.5C 302.833,286.5 296.167,286.5 289.5,286.5C 289.5,285.167 289.5,283.833 289.5,282.5 Z"/></g>
<g><path style="opacity:1" fill="#e17a70" d="M 196.5,333.5 C 196.34,335.153 195.674,336.486 194.5,337.5C 194.19,336.262 193.69,336.262 193,337.5C 185.568,350.713 177.401,363.38 168.5,375.5C 158.148,360.658 148.482,345.992 139.5,331.5C 138.094,331.027 137.427,330.027 137.5,328.5C 133.577,314.978 128.243,301.978 121.5,289.5C 122,289.167 122.5,288.833 123,288.5C 151.764,300.784 181.098,302.784 211,294.5C 211.5,294.667 212,294.833 212.5,295C 205.629,307.236 200.296,320.069 196.5,333.5 Z"/></g>
<g><path style="opacity:0.271" fill="#b2b2b2" d="M -0.5,310.5 C 0.836628,311.315 1.83663,312.482 2.5,314C 1.42317,314.47 0.423175,314.303 -0.5,313.5C -0.5,312.5 -0.5,311.5 -0.5,310.5 Z"/></g>
<g><path style="opacity:0.985" fill="#d63f31" d="M 194.5,337.5 C 183.074,371.294 176.408,405.961 174.5,441.5C 170.833,441.5 167.167,441.5 163.5,441.5C 162.828,440.733 161.995,440.066 161,439.5C 158.638,402.526 151.472,366.526 139.5,331.5C 148.482,345.992 158.148,360.658 168.5,375.5C 177.401,363.38 185.568,350.713 193,337.5C 193.69,336.262 194.19,336.262 194.5,337.5 Z"/></g>
</svg>
