<?xml version="1.0" encoding="UTF-8"?>
<!DOCTYPE svg PUBLIC "-//W3C//DTD SVG 1.1//EN" "http://www.w3.org/Graphics/SVG/1.1/DTD/svg11.dtd">
<svg xmlns="http://www.w3.org/2000/svg" version="1.1" width="481px" height="481px" style="shape-rendering:geometricPrecision; text-rendering:geometricPrecision; image-rendering:optimizeQuality; fill-rule:evenodd; clip-rule:evenodd" xmlns:xlink="http://www.w3.org/1999/xlink">
<g><path style="opacity:1" fill="#e17a70" d="M 338.5,116.5 C 338.737,117.791 338.404,118.791 337.5,119.5C 302.735,85.4243 261.402,73.9243 213.5,85C 189.201,91.5529 168.701,104.053 152,122.5C 151.823,126.356 151.323,130.023 150.5,133.5C 150.618,121.15 150.285,108.817 149.5,96.5C 183.242,51.9805 226.909,38.4805 280.5,56C 308.205,68.2034 327.538,88.3701 338.5,116.5 Z"/></g>
<g><path style="opacity:0.133" fill="#b9b9b9" d="M 79.5,51.5 C 81.0281,51.5173 81.5281,52.184 81,53.5C 76.952,57.8797 73.2853,62.5463 70,67.5C 69.3333,66.5 69.3333,65.5 70,64.5C 73.1759,60.1372 76.3426,55.8039 79.5,51.5 Z"/></g>
<g><path style="opacity:0.208" fill="#ababab" d="M 415.5,59.5 C 418.153,60.6493 419.32,62.6493 419,65.5C 417.558,63.6089 416.391,61.6089 415.5,59.5 Z"/></g>
<g><path style="opacity:0.969" fill="#d64336" d="M 345.5,96.5 C 342.538,103.061 340.204,109.727 338.5,116.5C 327.538,88.3701 308.205,68.2034 280.5,56C 226.909,38.4805 183.242,51.9805 149.5,96.5C 148.586,93.272 148.253,89.9387 148.5,86.5C 156.333,79.5021 164.333,72.6688 172.5,66C 212.815,40.5607 254.149,38.894 296.5,61C 314.828,70.9195 329.995,84.4195 342,101.5C 342.697,99.4156 343.864,97.7489 345.5,96.5 Z"/></g>
<g><path style="opacity:0.998" fill="#c0161e" d="M 384.5,77.5 C 388.432,79.8047 392.432,82.1381 396.5,84.5C 402.656,88.6699 406.989,94.3366 409.5,101.5C 410.443,105.332 411.777,108.999 413.5,112.5C 418.388,131.624 415.555,149.624 405,166.5C 401.239,170.77 397.072,174.437 392.5,177.5C 389.573,178.65 386.573,179.65 383.5,180.5C 382.224,181.614 382.224,182.614 383.5,183.5C 386.461,230.502 389.461,277.502 392.5,324.5C 388.555,325.491 384.555,325.824 380.5,325.5C 374.355,324.51 368.022,324.177 361.5,324.5C 361.737,323.209 361.404,322.209 360.5,321.5C 360.5,321.167 360.5,320.833 360.5,320.5C 361.748,319.666 362.415,318.333 362.5,316.5C 362.489,314.955 362.156,313.622 361.5,312.5C 361.971,297.158 362.638,281.824 363.5,266.5C 366.328,237.926 368.328,209.259 369.5,180.5C 357.889,177.399 349.389,170.399 344,159.5C 337.797,146.86 335.631,133.526 337.5,119.5C 338.404,118.791 338.737,117.791 338.5,116.5C 340.204,109.727 342.538,103.061 345.5,96.5C 347.709,91.6187 351.043,87.6187 355.5,84.5C 359.788,81.9693 364.121,79.636 368.5,77.5C 373.833,76.1667 379.167,76.1667 384.5,77.5 Z"/></g>
<g><path style="opacity:1" fill="#fcfbfb" d="M 337.5,119.5 C 335.631,133.526 337.797,146.86 344,159.5C 349.389,170.399 357.889,177.399 369.5,180.5C 368.328,209.259 366.328,237.926 363.5,266.5C 346.799,296.864 322.465,318.864 290.5,332.5C 283.312,346.222 275.645,359.556 267.5,372.5C 271.296,359.069 276.629,346.236 283.5,334C 283,333.833 282.5,333.667 282,333.5C 252.098,341.784 222.764,339.784 194,327.5C 193.5,327.833 193,328.167 192.5,328.5C 199.243,340.978 204.577,353.978 208.5,367.5C 199.6,353.379 191.434,338.713 184,323.5C 157.158,307.497 137.658,285.164 125.5,256.5C 123.081,233.722 121.081,210.889 119.5,188C 120.024,184.338 121.024,180.838 122.5,177.5C 135.94,173.225 144.44,164.225 148,150.5C 149.677,144.951 150.51,139.285 150.5,133.5C 151.323,130.023 151.823,126.356 152,122.5C 168.701,104.053 189.201,91.5529 213.5,85C 261.402,73.9243 302.735,85.4243 337.5,119.5 Z"/></g>
<g><path style="opacity:0.376" fill="#b54d51" d="M 368.5,77.5 C 364.121,79.636 359.788,81.9693 355.5,84.5C 358.8,80.3487 363.133,78.0153 368.5,77.5 Z"/></g>
<g><path style="opacity:0.635" fill="#b95156" d="M 384.5,77.5 C 389.515,78.3326 393.515,80.666 396.5,84.5C 392.432,82.1381 388.432,79.8047 384.5,77.5 Z"/></g>
<g><path style="opacity:0.951" fill="#c86165" d="M 85.5,83.5 C 82.3915,83.2641 79.3915,83.5975 76.5,84.5C 76.5,83.5 76.5,82.5 76.5,81.5C 80.0122,80.9455 83.0122,81.6122 85.5,83.5 Z"/></g>
<g><path style="opacity:0.982" fill="#c96063" d="M 106.5,83.5 C 104.167,83.5 101.833,83.5 99.5,83.5C 99.7148,85.1788 99.0481,86.1788 97.5,86.5C 97.5,84.8333 97.5,83.1667 97.5,81.5C 101.012,80.9455 104.012,81.6122 106.5,83.5 Z"/></g>
<g><path style="opacity:1" fill="#ca6468" d="M 128.5,87.5 C 126.824,86.8166 126.157,85.4832 126.5,83.5C 124.167,83.5 121.833,83.5 119.5,83.5C 120.334,82.2521 121.667,81.5854 123.5,81.5C 127.908,81.0775 129.575,83.0775 128.5,87.5 Z"/></g>
<g><path style="opacity:0.912" fill="#ca6266" d="M 148.5,85.5 C 145.855,83.7581 142.855,83.0914 139.5,83.5C 141.988,81.6122 144.988,80.9455 148.5,81.5C 148.5,82.8333 148.5,84.1667 148.5,85.5 Z"/></g>
<g><path style="opacity:0.995" fill="#c01a20" d="M 85.5,83.5 C 87.0251,101.317 88.0251,119.317 88.5,137.5C 90.8333,137.5 93.1667,137.5 95.5,137.5C 95.9338,120.49 96.6005,103.49 97.5,86.5C 99.0481,86.1788 99.7148,85.1788 99.5,83.5C 101.833,83.5 104.167,83.5 106.5,83.5C 107.917,101.42 108.917,119.42 109.5,137.5C 111.5,137.5 113.5,137.5 115.5,137.5C 116.329,132.547 116.663,127.547 116.5,122.5C 117.748,121.666 118.415,120.333 118.5,118.5C 118.489,116.955 118.156,115.622 117.5,114.5C 117.5,110.5 117.5,106.5 117.5,102.5C 118.748,101.666 119.415,100.333 119.5,98.5C 119.489,96.9549 119.156,95.6216 118.5,94.5C 118.244,90.7307 118.577,87.0641 119.5,83.5C 121.833,83.5 124.167,83.5 126.5,83.5C 126.157,85.4832 126.824,86.8166 128.5,87.5C 128.723,94.8395 129.056,102.173 129.5,109.5C 128.971,114.067 128.637,118.734 128.5,123.5C 129.066,128.159 129.566,132.826 130,137.5C 132.381,138.435 134.881,138.768 137.5,138.5C 138.011,125.791 139.011,113.124 140.5,100.5C 139.844,98.5466 139.511,96.5466 139.5,94.5C 139.5,90.8333 139.5,87.1667 139.5,83.5C 142.855,83.0914 145.855,83.7581 148.5,85.5C 148.5,85.8333 148.5,86.1667 148.5,86.5C 148.253,89.9387 148.586,93.272 149.5,96.5C 150.285,108.817 150.618,121.15 150.5,133.5C 150.51,139.285 149.677,144.951 148,150.5C 144.44,164.225 135.94,173.225 122.5,177.5C 121.024,180.838 120.024,184.338 119.5,188C 121.081,210.889 123.081,233.722 125.5,256.5C 126.833,278.5 128.167,300.5 129.5,322.5C 119.183,323.471 108.85,323.638 98.5,323C 100.088,278.967 102.088,234.8 104.5,190.5C 105.748,189.666 106.415,188.333 106.5,186.5C 106.489,184.955 106.156,183.622 105.5,182.5C 105.5,181.833 105.5,181.167 105.5,180.5C 106.774,179.811 106.774,178.977 105.5,178C 102.148,176.83 98.8145,175.664 95.5,174.5C 85.4088,168.703 78.9088,160.036 76,148.5C 72.7363,127.16 72.9029,105.827 76.5,84.5C 79.3915,83.5975 82.3915,83.2641 85.5,83.5 Z"/></g>
<g><path style="opacity:1" fill="#bf5256" d="M 118.5,94.5 C 119.156,95.6216 119.489,96.9549 119.5,98.5C 119.415,100.333 118.748,101.666 117.5,102.5C 117.194,99.6146 117.527,96.9479 118.5,94.5 Z"/></g>
<g><path style="opacity:0.985" fill="#d14136" d="M 139.5,94.5 C 139.511,96.5466 139.844,98.5466 140.5,100.5C 139.011,113.124 138.011,125.791 137.5,138.5C 134.881,138.768 132.381,138.435 130,137.5C 129.566,132.826 129.066,128.159 128.5,123.5C 128.637,118.734 128.971,114.067 129.5,109.5C 129.343,110.873 129.51,112.207 130,113.5C 134.026,107.39 137.192,101.056 139.5,94.5 Z"/></g>
<g><path style="opacity:0.945" fill="#b74145" d="M 409.5,101.5 C 412,104.66 413.333,108.327 413.5,112.5C 411.777,108.999 410.443,105.332 409.5,101.5 Z"/></g>
<g><path style="opacity:1" fill="#080808" d="M 237.5,112.5 C 292.409,112.001 327.243,138.001 342,190.5C 348.165,244.038 326.665,281.204 277.5,302C 230.011,314.621 192.177,301.121 164,261.5C 142.503,221.437 145.17,183.104 172,146.5C 189.701,127.067 211.534,115.734 237.5,112.5 Z"/></g>
<g><path style="opacity:1" fill="#b7484c" d="M 117.5,114.5 C 118.156,115.622 118.489,116.955 118.5,118.5C 118.415,120.333 117.748,121.666 116.5,122.5C 116.194,119.615 116.527,116.948 117.5,114.5 Z"/></g>
<g><path style="opacity:1" fill="#fdfdfd" d="M 236.5,123.5 C 280.027,121.903 310.527,140.903 328,180.5C 340.666,229.321 324.833,265.488 280.5,289C 237.958,303.926 202.791,293.76 175,258.5C 159.242,232.967 156.242,205.967 166,177.5C 179.809,146.859 203.309,128.859 236.5,123.5 Z"/></g>
<g><path style="opacity:0.62" fill="#ae4c51" d="M 95.5,174.5 C 98.8145,175.664 102.148,176.83 105.5,178C 106.774,178.977 106.774,179.811 105.5,180.5C 102.072,178.687 98.7391,176.687 95.5,174.5 Z"/></g>
<g><path style="opacity:0.153" fill="#a9484d" d="M 392.5,177.5 C 389.415,179.508 386.415,181.508 383.5,183.5C 382.224,182.614 382.224,181.614 383.5,180.5C 386.573,179.65 389.573,178.65 392.5,177.5 Z"/></g>
<g><path style="opacity:1" fill="#be4548" d="M 105.5,182.5 C 106.156,183.622 106.489,184.955 106.5,186.5C 106.415,188.333 105.748,189.666 104.5,190.5C 104.194,187.615 104.527,184.948 105.5,182.5 Z"/></g>
<g><path style="opacity:1" fill="#bd484b" d="M 361.5,312.5 C 362.156,313.622 362.489,314.955 362.5,316.5C 362.415,318.333 361.748,319.666 360.5,320.5C 360.194,317.615 360.527,314.948 361.5,312.5 Z"/></g>
<g><path style="opacity:0.686" fill="#c56066" d="M 360.5,321.5 C 361.404,322.209 361.737,323.209 361.5,324.5C 368.022,324.177 374.355,324.51 380.5,325.5C 373.833,325.5 367.167,325.5 360.5,325.5C 360.5,324.167 360.5,322.833 360.5,321.5 Z"/></g>
<g><path style="opacity:1" fill="#e17a70" d="M 267.5,372.5 C 267.34,374.153 266.674,375.486 265.5,376.5C 265.19,375.262 264.69,375.262 264,376.5C 256.568,389.713 248.401,402.38 239.5,414.5C 229.148,399.658 219.482,384.992 210.5,370.5C 209.094,370.027 208.427,369.027 208.5,367.5C 204.577,353.978 199.243,340.978 192.5,328.5C 193,328.167 193.5,327.833 194,327.5C 222.764,339.784 252.098,341.784 282,333.5C 282.5,333.667 283,333.833 283.5,334C 276.629,346.236 271.296,359.069 267.5,372.5 Z"/></g>
<g><path style="opacity:0.494" fill="#afafaf" d="M 418.5,350.5 C 419.773,351.077 419.773,351.743 418.5,352.5C 417.537,352.03 417.537,351.363 418.5,350.5 Z"/></g>
<g><path style="opacity:0.253" fill="#acacac" d="M 69.5,348.5 C 71.3386,349.508 72.6719,351.008 73.5,353C 70.9688,352.872 69.6354,351.372 69.5,348.5 Z"/></g>
<g><path style="opacity:0.985" fill="#d63f31" d="M 265.5,376.5 C 254.074,410.294 247.408,444.961 245.5,480.5C 241.833,480.5 238.167,480.5 234.5,480.5C 233.828,479.733 232.995,479.066 232,478.5C 229.638,441.526 222.472,405.526 210.5,370.5C 219.482,384.992 229.148,399.658 239.5,414.5C 248.401,402.38 256.568,389.713 264,376.5C 264.69,375.262 265.19,375.262 265.5,376.5 Z"/></g>
</svg>
