<?xml version="1.0" encoding="UTF-8"?>
<!DOCTYPE svg PUBLIC "-//W3C//DTD SVG 1.1//EN" "http://www.w3.org/Graphics/SVG/1.1/DTD/svg11.dtd">
<svg xmlns="http://www.w3.org/2000/svg" version="1.1" width="346px" height="442px" style="shape-rendering:geometricPrecision; text-rendering:geometricPrecision; image-rendering:optimizeQuality; fill-rule:evenodd; clip-rule:evenodd" xmlns:xlink="http://www.w3.org/1999/xlink">
<g><path style="opacity:1" fill="#e17a6f" d="M 243.5,242.5 C 242.833,243.833 242.167,245.167 241.5,246.5C 234.325,255.022 228.325,264.356 223.5,274.5C 220.188,274.993 217.021,275.993 214,277.5C 206.776,274.473 199.942,270.806 193.5,266.5C 190.134,258.93 186.134,251.763 181.5,245C 175.801,242.537 169.967,242.037 164,243.5C 159.11,243.145 154.276,242.478 149.5,241.5C 149.665,244.518 149.498,247.518 149,250.5C 145.748,254.507 144.915,259.007 146.5,264C 145.418,267.929 143.584,271.429 141,274.5C 133.592,266.821 124.758,264.321 114.5,267C 113.695,268.113 113.028,269.279 112.5,270.5C 107.081,261.993 101.414,253.66 95.5,245.5C 94.8333,245.5 94.5,245.167 94.5,244.5C 102.423,240.911 108.423,235.244 112.5,227.5C 124.275,227.62 132.941,222.62 138.5,212.5C 141.118,221.141 144.118,229.641 147.5,238C 151.631,238.262 155.298,236.928 158.5,234C 164.726,231.888 170.726,229.222 176.5,226C 170.394,217.123 165.061,207.79 160.5,198C 164.83,198.643 169.163,199.643 173.5,201C 183.565,202.469 192.231,199.635 199.5,192.5C 215.419,197.92 227.252,193.253 235,178.5C 236.061,173.896 236.727,169.229 237,164.5C 255.673,152.182 263.34,134.849 260,112.5C 254.922,94.422 243.422,82.5886 225.5,77C 217.49,75.5111 209.49,75.0111 201.5,75.5C 192.421,56.5252 177.754,50.0252 157.5,56C 151.405,58.2911 146.571,62.1244 143,67.5C 124.26,51.4201 103.427,48.0868 80.5,57.5C 97.6504,30.3988 122.317,14.5655 154.5,10C 205.747,5.86153 242.58,26.6949 265,72.5C 270.753,86.4383 273.253,100.938 272.5,116C 270.365,159.539 260.365,201.205 242.5,241C 242.57,241.765 242.903,242.265 243.5,242.5 Z"/></g>
<g><path style="opacity:0.987" fill="#d64032" d="M 243.5,242.5 C 242.903,242.265 242.57,241.765 242.5,241C 260.365,201.205 270.365,159.539 272.5,116C 273.253,100.938 270.753,86.4383 265,72.5C 242.58,26.6949 205.747,5.86153 154.5,10C 122.317,14.5655 97.6504,30.3988 80.5,57.5C 72.0027,61.332 65.0027,66.9987 59.5,74.5C 63.1571,66.5179 67.8238,59.1845 73.5,52.5C 74.8717,51.4884 76.205,50.4884 77.5,49.5C 107.58,14.317 145.58,0.816994 191.5,9C 239.707,20.8747 271.54,50.3747 287,97.5C 295.169,130.819 291.502,162.819 276,193.5C 267.142,211.236 256.309,227.569 243.5,242.5 Z"/></g>
<g><path style="opacity:0.093" fill="#fdf2f1" d="M 77.5,49.5 C 76.205,50.4884 74.8717,51.4884 73.5,52.5C 73.6941,50.0882 75.0274,49.0882 77.5,49.5 Z"/></g>
<g><path style="opacity:0.997" fill="#568b5c" d="M 94.5,244.5 C 79.7684,248.66 66.7684,245.66 55.5,235.5C 29.6053,235.111 17.4386,222.111 19,196.5C 19.7477,192.491 21.2477,188.824 23.5,185.5C 15.1376,169.841 15.6376,154.507 25,139.5C 30.7371,133.551 37.5705,129.551 45.5,127.5C 47.924,127.808 50.2573,127.474 52.5,126.5C 49.8436,117.714 48.8436,108.714 49.5,99.5C 50.8953,90.2984 54.2286,81.965 59.5,74.5C 65.0027,66.9987 72.0027,61.332 80.5,57.5C 103.427,48.0868 124.26,51.4201 143,67.5C 146.571,62.1244 151.405,58.2911 157.5,56C 177.754,50.0252 192.421,56.5252 201.5,75.5C 209.49,75.0111 217.49,75.5111 225.5,77C 243.422,82.5886 254.922,94.422 260,112.5C 263.34,134.849 255.673,152.182 237,164.5C 236.727,169.229 236.061,173.896 235,178.5C 227.252,193.253 215.419,197.92 199.5,192.5C 192.231,199.635 183.565,202.469 173.5,201C 169.163,199.643 164.83,198.643 160.5,198C 165.061,207.79 170.394,217.123 176.5,226C 170.726,229.222 164.726,231.888 158.5,234C 155.298,236.928 151.631,238.262 147.5,238C 144.118,229.641 141.118,221.141 138.5,212.5C 132.941,222.62 124.275,227.62 112.5,227.5C 108.423,235.244 102.423,240.911 94.5,244.5 Z"/></g>
<g><path style="opacity:0.093" fill="#fefffe" d="M 61.5,56.5 C 63.337,56.6395 63.6704,57.3061 62.5,58.5C 61.7025,58.0431 61.3691,57.3764 61.5,56.5 Z"/></g>
<g><path style="opacity:0.063" fill="#fefffe" d="M 56.5,62.5 C 56.5,61.8333 56.1667,61.5 55.5,61.5C 56.1405,59.668 57.1405,59.3347 58.5,60.5C 58.1445,61.5223 57.4778,62.189 56.5,62.5 Z"/></g>
<g><path style="opacity:0.062" fill="#fefffe" d="M 55.5,61.5 C 56.1667,61.5 56.5,61.8333 56.5,62.5C 55.8946,64.4812 54.8946,64.8146 53.5,63.5C 53.5,62.1667 54.1667,61.5 55.5,61.5 Z"/></g>
<g><path style="opacity:0.121" fill="#fefffe" d="M 53.5,63.5 C 53.313,65.5643 52.813,67.5643 52,69.5C 48.7864,75.064 45.1198,80.3973 41,85.5C 40.5436,89.4029 38.7103,92.4029 35.5,94.5C 34.548,93.467 34.548,92.3004 35.5,91C 37.5062,87.3197 39.5062,83.6531 41.5,80C 44.918,73.9641 48.918,68.4641 53.5,63.5 Z"/></g>
<g><path style="opacity:0.139" fill="#fefffe" d="M 30.5,94.5 C 31.4972,94.4701 32.1639,94.9701 32.5,96C 29.771,99.2124 26.771,102.212 23.5,105C 22.0563,105.781 20.723,105.614 19.5,104.5C 23.2125,101.116 26.8792,97.7829 30.5,94.5 Z"/></g>
<g><path style="opacity:0.95" fill="#d54031" d="M 49.5,99.5 C 48.8436,108.714 49.8436,117.714 52.5,126.5C 50.2573,127.474 47.924,127.808 45.5,127.5C 45.6043,117.857 46.9376,108.524 49.5,99.5 Z"/></g>
<g><path style="opacity:0.141" fill="#fefffe" d="M 14.5,107.5 C 15.5,107.5 16.5,107.5 17.5,107.5C 17.067,110.285 15.7337,112.619 13.5,114.5C 14.6613,116.224 14.4947,117.89 13,119.5C 12.0834,115.238 12.5834,111.238 14.5,107.5 Z"/></g>
<g><path style="opacity:0.067" fill="#fefffe" d="M 296.5,158.5 C 297.833,159.167 297.833,159.167 296.5,158.5 Z"/></g>
<g><path style="opacity:0.955" fill="#588b5c" d="M 223.5,274.5 C 225.379,273.659 227.379,273.325 229.5,273.5C 237.821,273.331 245.487,275.498 252.5,280C 255.321,282.141 256.654,284.975 256.5,288.5C 248.274,285.983 239.941,283.65 231.5,281.5C 229.091,281.915 226.758,282.582 224.5,283.5C 230.917,288.79 237.75,293.457 245,297.5C 251.902,295.421 258.902,293.755 266,292.5C 270.745,292.563 272.245,294.73 270.5,299C 265.396,299.954 260.396,301.287 255.5,303C 258.774,304.202 262.107,305.202 265.5,306C 266.991,308.022 266.658,309.688 264.5,311C 254.18,310.543 243.846,310.209 233.5,310C 238.327,316.081 243.993,321.248 250.5,325.5C 251.246,326.736 251.579,328.07 251.5,329.5C 241.345,328.506 232.845,324.172 226,316.5C 222.725,310.93 219.225,305.597 215.5,300.5C 214.876,298.246 213.543,296.579 211.5,295.5C 210.375,293.871 209.041,292.371 207.5,291C 202.592,288.962 197.759,286.795 193,284.5C 193.843,288.69 195.676,292.524 198.5,296C 202.369,296.605 206.035,297.771 209.5,299.5C 210.579,301.543 212.246,302.876 214.5,303.5C 218.166,308.166 219.832,313.499 219.5,319.5C 218.127,319.343 216.793,319.51 215.5,320C 220.262,323.694 224.929,327.36 229.5,331C 229.355,331.772 229.022,332.439 228.5,333C 224.806,333.278 221.139,333.278 217.5,333C 220.037,335.872 222.87,338.372 226,340.5C 226.865,342.888 226.032,344.388 223.5,345C 221.833,345.667 220.167,345.667 218.5,345C 210.927,340.261 204.927,334.095 200.5,326.5C 200.737,325.209 200.404,324.209 199.5,323.5C 194.735,316.306 190.735,308.639 187.5,300.5C 187.539,299.244 187.039,298.244 186,297.5C 185.192,301.027 185.359,304.36 186.5,307.5C 187.497,312.157 188.497,316.824 189.5,321.5C 192.567,323.988 194.901,326.988 196.5,330.5C 196.328,331.492 196.662,332.158 197.5,332.5C 199.167,339.002 198.667,345.335 196,351.5C 193.992,354.139 192.159,354.139 190.5,351.5C 190.616,348.14 190.949,344.807 191.5,341.5C 191.702,339.011 191.202,336.677 190,334.5C 187.949,339.214 185.115,343.381 181.5,347C 179.323,348.202 176.989,348.702 174.5,348.5C 177.098,342.038 179.098,335.371 180.5,328.5C 180.192,322.773 178.692,317.44 176,312.5C 174.623,319.919 171.623,326.585 167,332.5C 164.016,335.1 160.516,336.1 156.5,335.5C 156.491,333.692 156.991,332.025 158,330.5C 162.677,325.147 165.677,319.147 167,312.5C 165.5,314.667 164,316.833 162.5,319C 155.317,324.03 148.317,329.197 141.5,334.5C 140.833,334.5 140.5,334.833 140.5,335.5C 137.169,336.094 133.836,336.427 130.5,336.5C 125.599,335.948 124.432,333.615 127,329.5C 129.478,327.361 131.978,325.361 134.5,323.5C 135.167,323.5 135.833,323.5 136.5,323.5C 137.496,323.586 138.329,323.252 139,322.5C 143.755,315.324 148.755,308.324 154,301.5C 157.859,296.06 159.526,290.06 159,283.5C 158.333,282.833 157.667,282.167 157,281.5C 149.67,288.804 144.67,297.471 142,307.5C 139.666,311 136.832,314 133.5,316.5C 132.833,317.167 132.167,317.833 131.5,318.5C 126.804,322.211 121.47,323.378 115.5,322C 114.483,320.951 114.316,319.784 115,318.5C 117.128,315.37 119.628,312.537 122.5,310C 115.274,308.303 108.774,305.137 103,300.5C 102.289,298.633 102.789,297.133 104.5,296C 102.322,294.198 100.489,292.031 99,289.5C 98.51,288.207 98.3433,286.873 98.5,285.5C 104.425,286.296 110.092,287.963 115.5,290.5C 117.55,290.961 119.55,291.628 121.5,292.5C 122.107,292.376 122.44,292.043 122.5,291.5C 125.926,289.924 129.26,288.091 132.5,286C 128.152,285.535 123.819,285.035 119.5,284.5C 117.167,283.833 114.833,283.167 112.5,282.5C 106.984,280.477 102.484,277.144 99,272.5C 98.51,271.207 98.3433,269.873 98.5,268.5C 100.903,268.448 103.236,268.781 105.5,269.5C 107.794,271.653 110.46,273.32 113.5,274.5C 119.335,278.14 125.668,279.307 132.5,278C 126.78,273.066 120.113,270.566 112.5,270.5C 113.028,269.279 113.695,268.113 114.5,267C 124.758,264.321 133.592,266.821 141,274.5C 143.584,271.429 145.418,267.929 146.5,264C 144.915,259.007 145.748,254.507 149,250.5C 149.498,247.518 149.665,244.518 149.5,241.5C 154.276,242.478 159.11,243.145 164,243.5C 169.967,242.037 175.801,242.537 181.5,245C 186.134,251.763 190.134,258.93 193.5,266.5C 199.942,270.806 206.776,274.473 214,277.5C 217.021,275.993 220.188,274.993 223.5,274.5 Z M 209.5,311.5 C 211.326,313.147 212.66,315.147 213.5,317.5C 211.184,316.578 209.517,314.911 208.5,312.5C 209.167,312.5 209.5,312.167 209.5,311.5 Z"/></g>
<g><path style="opacity:0.227" fill="#fcfaf9" d="M 95.5,245.5 C 101.414,253.66 107.081,261.993 112.5,270.5C 112.833,271.833 113.167,273.167 113.5,274.5C 110.46,273.32 107.794,271.653 105.5,269.5C 101.608,261.719 98.275,253.719 95.5,245.5 Z"/></g>
<g><path style="opacity:0.224" fill="#fdf9f9" d="M 241.5,246.5 C 237.772,255.622 233.772,264.622 229.5,273.5C 227.379,273.325 225.379,273.659 223.5,274.5C 228.325,264.356 234.325,255.022 241.5,246.5 Z"/></g>
<g><path style="opacity:0.5" fill="#fefffe" d="M 13.5,251.5 C 12.475,251.103 12.3083,250.437 13,249.5C 13.4643,250.094 13.631,250.761 13.5,251.5 Z"/></g>
<g><path style="opacity:0.459" fill="#fefffe" d="M 13.5,251.5 C 14.404,252.209 14.7373,253.209 14.5,254.5C 13.596,253.791 13.2627,252.791 13.5,251.5 Z"/></g>
<g><path style="opacity:0.459" fill="#fefffe" d="M 14.5,254.5 C 15.404,255.209 15.7373,256.209 15.5,257.5C 14.596,256.791 14.2627,255.791 14.5,254.5 Z"/></g>
<g><path style="opacity:0.5" fill="#fefffe" d="M 15.5,257.5 C 16.525,257.897 16.6917,258.563 16,259.5C 15.5357,258.906 15.369,258.239 15.5,257.5 Z"/></g>
<g><path style="opacity:0.376" fill="#fefffe" d="M 17.5,264.5 C 16.8333,263.167 16.8333,263.167 17.5,264.5 Z"/></g>
<g><path style="opacity:0.376" fill="#fefffe" d="M 17.5,264.5 C 18.1667,264.5 18.5,264.833 18.5,265.5C 18.1667,265.167 17.8333,264.833 17.5,264.5 Z"/></g>
<g><path style="opacity:0.5" fill="#fefffe" d="M 18.5,265.5 C 19.525,265.897 19.6917,266.563 19,267.5C 18.5357,266.906 18.369,266.239 18.5,265.5 Z"/></g>
<g><path style="opacity:0.5" fill="#fefffe" d="M 20.5,271.5 C 19.475,271.103 19.3083,270.437 20,269.5C 20.4643,270.094 20.631,270.761 20.5,271.5 Z"/></g>
<g><path style="opacity:0.5" fill="#fefffe" d="M 20.5,271.5 C 21.3382,271.842 21.6716,272.508 21.5,273.5C 20.6618,273.158 20.3284,272.492 20.5,271.5 Z"/></g>
<g><path style="opacity:1" fill="#dc7b6f" d="M 112.5,270.5 C 120.113,270.566 126.78,273.066 132.5,278C 125.668,279.307 119.335,278.14 113.5,274.5C 113.167,273.167 112.833,271.833 112.5,270.5 Z"/></g>
<g><path style="opacity:0.5" fill="#fefffe" d="M 21.5,273.5 C 22.3382,273.842 22.6716,274.508 22.5,275.5C 21.6618,275.158 21.3284,274.492 21.5,273.5 Z"/></g>
<g><path style="opacity:0.5" fill="#fefffe" d="M 22.5,275.5 C 23.3382,275.842 23.6716,276.508 23.5,277.5C 22.6618,277.158 22.3284,276.492 22.5,275.5 Z"/></g>
<g><path style="opacity:0.5" fill="#fefffe" d="M 23.5,277.5 C 24.3382,277.842 24.6716,278.508 24.5,279.5C 23.6618,279.158 23.3284,278.492 23.5,277.5 Z"/></g>
<g><path style="opacity:0.459" fill="#fefffe" d="M 24.5,279.5 C 25.404,280.209 25.7373,281.209 25.5,282.5C 24.596,281.791 24.2627,280.791 24.5,279.5 Z"/></g>
<g><path style="opacity:0.146" fill="#fefffe" d="M 12.5,281.5 C 15.9492,284.119 18.9492,287.286 21.5,291C 20.1011,291.595 18.7678,291.428 17.5,290.5C 15.0222,287.871 13.3555,284.871 12.5,281.5 Z"/></g>
<g><path style="opacity:0.5" fill="#fefffe" d="M 25.5,282.5 C 26.525,282.897 26.6917,283.563 26,284.5C 25.5357,283.906 25.369,283.239 25.5,282.5 Z"/></g>
<g><path style="opacity:0.255" fill="#fafcfa" d="M 112.5,282.5 C 114.833,283.167 117.167,283.833 119.5,284.5C 120.227,286.954 121.227,289.287 122.5,291.5C 122.44,292.043 122.107,292.376 121.5,292.5C 119.55,291.628 117.55,290.961 115.5,290.5C 114.5,287.833 113.5,285.167 112.5,282.5 Z"/></g>
<g><path style="opacity:1" fill="#de7a6f" d="M 136.5,323.5 C 135.695,321.085 134.695,318.751 133.5,316.5C 136.832,314 139.666,311 142,307.5C 144.67,297.471 149.67,288.804 157,281.5C 157.667,282.167 158.333,282.833 159,283.5C 159.526,290.06 157.859,296.06 154,301.5C 148.755,308.324 143.755,315.324 139,322.5C 138.329,323.252 137.496,323.586 136.5,323.5 Z"/></g>
<g><path style="opacity:1" fill="#d48072" d="M 119.5,284.5 C 123.819,285.035 128.152,285.535 132.5,286C 129.26,288.091 125.926,289.924 122.5,291.5C 121.227,289.287 120.227,286.954 119.5,284.5 Z"/></g>
<g><path style="opacity:1" fill="#dd7b70" d="M 211.5,295.5 C 211.34,297.153 210.674,298.486 209.5,299.5C 206.035,297.771 202.369,296.605 198.5,296C 195.676,292.524 193.843,288.69 193,284.5C 197.759,286.795 202.592,288.962 207.5,291C 209.041,292.371 210.375,293.871 211.5,295.5 Z"/></g>
<g><path style="opacity:0.376" fill="#fefffe" d="M 26.5,286.5 C 27.8333,287.167 27.8333,287.167 26.5,286.5 Z"/></g>
<g><path style="opacity:0.5" fill="#fefffe" d="M 28.5,290.5 C 27.475,290.103 27.3083,289.437 28,288.5C 28.4643,289.094 28.631,289.761 28.5,290.5 Z"/></g>
<g><path style="opacity:0.5" fill="#fefffe" d="M 28.5,290.5 C 29.3382,290.842 29.6716,291.508 29.5,292.5C 28.6618,292.158 28.3284,291.492 28.5,290.5 Z"/></g>
<g><path style="opacity:0.251" fill="#c2d4c2" d="M 47.5,291.5 C 48.0768,290.227 48.7435,290.227 49.5,291.5C 49.0302,292.463 48.3635,292.463 47.5,291.5 Z"/></g>
<g><path style="opacity:0.376" fill="#fefffe" d="M 29.5,292.5 C 30.1667,292.5 30.5,292.833 30.5,293.5C 30.1667,293.167 29.8333,292.833 29.5,292.5 Z"/></g>
<g><path style="opacity:0.376" fill="#fefffe" d="M 30.5,293.5 C 31.8333,294.167 31.8333,294.167 30.5,293.5 Z"/></g>
<g><path style="opacity:0.376" fill="#fefffe" d="M 32.5,296.5 C 31.8333,295.167 31.8333,295.167 32.5,296.5 Z"/></g>
<g><path style="opacity:0.5" fill="#fefffe" d="M 32.5,296.5 C 33.3382,296.842 33.6716,297.508 33.5,298.5C 32.6618,298.158 32.3284,297.492 32.5,296.5 Z"/></g>
<g><path style="opacity:0.253" fill="#f2f5f1" d="M 211.5,295.5 C 213.543,296.579 214.876,298.246 215.5,300.5C 214.89,301.391 214.557,302.391 214.5,303.5C 212.246,302.876 210.579,301.543 209.5,299.5C 210.674,298.486 211.34,297.153 211.5,295.5 Z"/></g>
<g><path style="opacity:0.376" fill="#fefffe" d="M 33.5,298.5 C 34.8333,299.167 34.8333,299.167 33.5,298.5 Z"/></g>
<g><path style="opacity:1" fill="#9e8266" d="M 187.5,300.5 C 186.532,302.607 186.198,304.941 186.5,307.5C 185.359,304.36 185.192,301.027 186,297.5C 187.039,298.244 187.539,299.244 187.5,300.5 Z"/></g>
<g><path style="opacity:0.376" fill="#fefffe" d="M 35.5,301.5 C 36.8333,302.167 36.8333,302.167 35.5,301.5 Z"/></g>
<g><path style="opacity:1" fill="#de7b70" d="M 187.5,300.5 C 190.735,308.639 194.735,316.306 199.5,323.5C 198.695,325.915 197.695,328.249 196.5,330.5C 194.901,326.988 192.567,323.988 189.5,321.5C 188.497,316.824 187.497,312.157 186.5,307.5C 186.198,304.941 186.532,302.607 187.5,300.5 Z"/></g>
<g><path style="opacity:0.5" fill="#fefffe" d="M 37.5,305.5 C 36.475,305.103 36.3083,304.437 37,303.5C 37.4643,304.094 37.631,304.761 37.5,305.5 Z"/></g>
<g><path style="opacity:0.376" fill="#fefffe" d="M 37.5,305.5 C 38.1667,305.5 38.5,305.833 38.5,306.5C 38.1667,306.167 37.8333,305.833 37.5,305.5 Z"/></g>
<g><path style="opacity:1" fill="#da8175" d="M 206.5,307.5 C 206.167,308.167 205.833,308.833 205.5,309.5C 203.584,308.335 202.751,306.668 203,304.5C 204.518,305.163 205.685,306.163 206.5,307.5 Z"/></g>
<g><path style="opacity:0.376" fill="#fefffe" d="M 38.5,306.5 C 39.1667,306.5 39.5,306.833 39.5,307.5C 39.1667,307.167 38.8333,306.833 38.5,306.5 Z"/></g>
<g><path style="opacity:0.376" fill="#fefffe" d="M 39.5,307.5 C 40.1667,307.5 40.5,307.833 40.5,308.5C 40.1667,308.167 39.8333,307.833 39.5,307.5 Z"/></g>
<g><path style="opacity:0.459" fill="#fefffe" d="M 40.5,308.5 C 41.404,309.209 41.7373,310.209 41.5,311.5C 40.596,310.791 40.2627,309.791 40.5,308.5 Z"/></g>
<g><path style="opacity:0.247" fill="#eff4f0" d="M 206.5,307.5 C 207.974,308.436 208.974,309.77 209.5,311.5C 209.5,312.167 209.167,312.5 208.5,312.5C 206.5,312.5 205.5,311.5 205.5,309.5C 205.833,308.833 206.167,308.167 206.5,307.5 Z"/></g>
<g><path style="opacity:0.376" fill="#fefffe" d="M 41.5,311.5 C 42.8333,312.167 42.8333,312.167 41.5,311.5 Z"/></g>
<g><path style="opacity:0.376" fill="#fefffe" d="M 42.5,313.5 C 43.8333,314.167 43.8333,314.167 42.5,313.5 Z"/></g>
<g><path style="opacity:1" fill="#df7a6f" d="M 191.5,341.5 C 183.859,352.815 176.192,364.149 168.5,375.5C 159.081,362.086 150.081,348.42 141.5,334.5C 148.317,329.197 155.317,324.03 162.5,319C 164,316.833 165.5,314.667 167,312.5C 165.677,319.147 162.677,325.147 158,330.5C 156.991,332.025 156.491,333.692 156.5,335.5C 160.516,336.1 164.016,335.1 167,332.5C 171.623,326.585 174.623,319.919 176,312.5C 178.692,317.44 180.192,322.773 180.5,328.5C 179.098,335.371 177.098,342.038 174.5,348.5C 176.989,348.702 179.323,348.202 181.5,347C 185.115,343.381 187.949,339.214 190,334.5C 191.202,336.677 191.702,339.011 191.5,341.5 Z"/></g>
<g><path style="opacity:0.376" fill="#fefffe" d="M 44.5,316.5 C 43.8333,315.167 43.8333,315.167 44.5,316.5 Z"/></g>
<g><path style="opacity:0.5" fill="#fefffe" d="M 44.5,316.5 C 45.3382,316.842 45.6716,317.508 45.5,318.5C 44.6618,318.158 44.3284,317.492 44.5,316.5 Z"/></g>
<g><path style="opacity:0.175" fill="#fbf8f7" d="M 133.5,316.5 C 134.695,318.751 135.695,321.085 136.5,323.5C 135.833,323.5 135.167,323.5 134.5,323.5C 133.263,322.035 132.263,320.368 131.5,318.5C 132.167,317.833 132.833,317.167 133.5,316.5 Z"/></g>
<g><path style="opacity:0.376" fill="#fefffe" d="M 45.5,318.5 C 46.1667,318.5 46.5,318.833 46.5,319.5C 46.1667,319.167 45.8333,318.833 45.5,318.5 Z"/></g>
<g><path style="opacity:0.375" fill="#fefffe" d="M 46.5,319.5 C 47.525,319.897 47.6917,320.563 47,321.5C 46.5357,320.906 46.369,320.239 46.5,319.5 Z"/></g>
<g><path style="opacity:0.168" fill="#fbf6f5" d="M 199.5,323.5 C 200.404,324.209 200.737,325.209 200.5,326.5C 200.008,328.819 199.008,330.819 197.5,332.5C 196.662,332.158 196.328,331.492 196.5,330.5C 197.695,328.249 198.695,325.915 199.5,323.5 Z"/></g>
<g><path style="opacity:0.376" fill="#fefffe" d="M 60.5,336.5 C 59.8333,335.167 59.8333,335.167 60.5,336.5 Z"/></g>
<g><path style="opacity:0.376" fill="#fefffe" d="M 60.5,336.5 C 61.8333,337.167 61.8333,337.167 60.5,336.5 Z"/></g>
<g><path style="opacity:0.376" fill="#fefffe" d="M 62.5,339.5 C 61.8333,338.167 61.8333,338.167 62.5,339.5 Z"/></g>
<g><path style="opacity:0.376" fill="#fefffe" d="M 62.5,339.5 C 63.1667,339.5 63.5,339.833 63.5,340.5C 63.1667,340.167 62.8333,339.833 62.5,339.5 Z"/></g>
<g><path style="opacity:0.376" fill="#fefffe" d="M 63.5,340.5 C 64.8333,341.167 64.8333,341.167 63.5,340.5 Z"/></g>
<g><path style="opacity:0.985" fill="#d63f31" d="M 141.5,334.5 C 150.081,348.42 159.081,362.086 168.5,375.5C 176.192,364.149 183.859,352.815 191.5,341.5C 190.949,344.807 190.616,348.14 190.5,351.5C 185.775,365.065 182.275,379.065 180,393.5C 177.836,409.536 176.003,425.536 174.5,441.5C 170.833,441.5 167.167,441.5 163.5,441.5C 162.828,440.733 161.995,440.066 161,439.5C 158.845,403.891 152.012,369.225 140.5,335.5C 140.5,334.833 140.833,334.5 141.5,334.5 Z"/></g>
<g><path style="opacity:0.5" fill="#fefffe" d="M 263.5,341.5 C 264.601,340.402 265.934,340.235 267.5,341C 266.207,341.49 264.873,341.657 263.5,341.5 Z"/></g>
<g><path style="opacity:0.376" fill="#fefffe" d="M 65.5,341.5 C 66.8333,342.167 66.8333,342.167 65.5,341.5 Z"/></g>
<g><path style="opacity:0.376" fill="#fefffe" d="M 262.5,342.5 C 263.833,343.167 263.833,343.167 262.5,342.5 Z"/></g>
<g><path style="opacity:0.376" fill="#fefffe" d="M 67.5,344.5 C 66.8333,343.167 66.8333,343.167 67.5,344.5 Z"/></g>
<g><path style="opacity:0.376" fill="#fefffe" d="M 260.5,343.5 C 261.833,344.167 261.833,344.167 260.5,343.5 Z"/></g>
<g><path style="opacity:0.5" fill="#fefffe" d="M 67.5,344.5 C 69.0269,344.427 70.0269,345.094 70.5,346.5C 68.9731,346.573 67.9731,345.906 67.5,344.5 Z"/></g>
<g><path style="opacity:0.376" fill="#fefffe" d="M 260.5,344.5 C 259.833,345.167 259.833,345.167 260.5,344.5 Z"/></g>
<g><path style="opacity:0.5" fill="#fefffe" d="M 259.5,345.5 C 259.103,346.525 258.437,346.692 257.5,346C 258.094,345.536 258.761,345.369 259.5,345.5 Z"/></g>
<g><path style="opacity:0.376" fill="#fefffe" d="M 70.5,346.5 C 71.1667,346.5 71.5,346.833 71.5,347.5C 71.1667,347.167 70.8333,346.833 70.5,346.5 Z"/></g>
<g><path style="opacity:0.353" fill="#fefffe" d="M 255.5,346.5 C 256.833,347.167 256.833,347.167 255.5,346.5 Z"/></g>
<g><path style="opacity:0.235" fill="#fefffe" d="M 71.5,347.5 C 72.8333,348.167 72.8333,348.167 71.5,347.5 Z"/></g>
<g><path style="opacity:0.376" fill="#fefffe" d="M 77.5,350.5 C 76.8333,349.167 76.8333,349.167 77.5,350.5 Z"/></g>
<g><path style="opacity:0.376" fill="#fefffe" d="M 77.5,350.5 C 78.1667,350.5 78.5,350.833 78.5,351.5C 78.1667,351.167 77.8333,350.833 77.5,350.5 Z"/></g>
<g><path style="opacity:0.376" fill="#fefffe" d="M 78.5,351.5 C 79.8333,352.167 79.8333,352.167 78.5,351.5 Z"/></g>
<g><path style="opacity:0.376" fill="#fefffe" d="M 83.5,353.5 C 82.8333,352.167 82.8333,352.167 83.5,353.5 Z"/></g>
<g><path style="opacity:0.5" fill="#fefffe" d="M 83.5,353.5 C 85.099,353.232 86.4324,353.566 87.5,354.5C 85.901,354.768 84.5676,354.434 83.5,353.5 Z"/></g>
<g><path style="opacity:0.376" fill="#fefffe" d="M 87.5,354.5 C 88.8333,355.167 88.8333,355.167 87.5,354.5 Z"/></g>
<g><path style="opacity:0.376" fill="#fefffe" d="M 89.5,355.5 C 90.8333,356.167 90.8333,356.167 89.5,355.5 Z"/></g>
<g><path style="opacity:0.5" fill="#fefffe" d="M 228.5,361.5 C 229.239,361.369 229.906,361.536 230.5,362C 229.534,363.678 228.201,364.345 226.5,364C 227.381,363.292 228.047,362.458 228.5,361.5 Z"/></g>
<g><path style="opacity:0.398" fill="#fefffe" d="M 108.5,365.5 C 107.761,365.631 107.094,365.464 106.5,365C 107.437,364.308 108.103,364.475 108.5,365.5 Z"/></g>
<g><path style="opacity:1" fill="#b1c9b2" d="M 143.5,360.5 C 144.693,360.97 145.36,361.97 145.5,363.5C 145.304,367.083 144.304,367.083 142.5,363.5C 143.127,362.583 143.461,361.583 143.5,360.5 Z"/></g>
<g><path style="opacity:0.376" fill="#fefffe" d="M 224.5,364.5 C 225.833,365.167 225.833,365.167 224.5,364.5 Z"/></g>
<g><path style="opacity:0.376" fill="#fefffe" d="M 108.5,365.5 C 109.167,365.5 109.5,365.833 109.5,366.5C 109.167,366.167 108.833,365.833 108.5,365.5 Z"/></g>
<g><path style="opacity:0.376" fill="#fefffe" d="M 221.5,365.5 C 222.833,366.167 222.833,366.167 221.5,365.5 Z"/></g>
<g><path style="opacity:0.376" fill="#fefffe" d="M 109.5,366.5 C 110.167,366.5 110.5,366.833 110.5,367.5C 110.167,367.167 109.833,366.833 109.5,366.5 Z"/></g>
<g><path style="opacity:0.376" fill="#fefffe" d="M 218.5,366.5 C 219.833,367.167 219.833,367.167 218.5,366.5 Z"/></g>
<g><path style="opacity:0.376" fill="#fefffe" d="M 110.5,367.5 C 111.833,368.167 111.833,368.167 110.5,367.5 Z"/></g>
<g><path style="opacity:0.5" fill="#fefffe" d="M 218.5,367.5 C 217.998,369.085 216.998,369.585 215.5,369C 216.244,367.961 217.244,367.461 218.5,367.5 Z"/></g>
<g><path style="opacity:0.5" fill="#fefffe" d="M 115.5,369.5 C 115.897,368.475 116.563,368.308 117.5,369C 116.906,369.464 116.239,369.631 115.5,369.5 Z"/></g>
<g><path style="opacity:0.376" fill="#fefffe" d="M 211.5,369.5 C 212.833,370.167 212.833,370.167 211.5,369.5 Z"/></g>
<g><path style="opacity:0.5" fill="#fefffe" d="M 121.5,371.5 C 121.897,370.475 122.563,370.308 123.5,371C 122.906,371.464 122.239,371.631 121.5,371.5 Z"/></g>
<g><path style="opacity:0.376" fill="#fefffe" d="M 207.5,370.5 C 208.833,371.167 208.833,371.167 207.5,370.5 Z"/></g>
<g><path style="opacity:0.459" fill="#fefffe" d="M 200.5,372.5 C 201.251,371.427 202.251,371.26 203.5,372C 202.552,372.483 201.552,372.649 200.5,372.5 Z"/></g>
</svg>
