<?xml version="1.0" encoding="UTF-8"?>
<!DOCTYPE svg PUBLIC "-//W3C//DTD SVG 1.1//EN" "http://www.w3.org/Graphics/SVG/1.1/DTD/svg11.dtd">
<svg xmlns="http://www.w3.org/2000/svg" version="1.1" width="346px" height="442px" style="shape-rendering:geometricPrecision; text-rendering:geometricPrecision; image-rendering:optimizeQuality; fill-rule:evenodd; clip-rule:evenodd" xmlns:xlink="http://www.w3.org/1999/xlink">
<g><path style="opacity:0.883" fill="#070303" d="M 175.5,6.5 C 174.596,7.20895 174.263,8.20895 174.5,9.5C 174.768,23.8679 175.602,38.2012 177,52.5C 180.341,66.8654 183.841,81.1987 187.5,95.5C 185.464,102.043 184.631,108.709 185,115.5C 202.554,160.008 220.388,204.341 238.5,248.5C 238.5,249.833 239.167,250.5 240.5,250.5C 244.764,262.953 249.43,275.287 254.5,287.5C 253.975,288.192 253.308,288.692 252.5,289C 267.835,289.055 283.168,289.055 298.5,289C 298.167,289.333 297.833,289.667 297.5,290C 298.691,290.698 299.691,291.531 300.5,292.5C 300.082,293.222 299.416,293.722 298.5,294C 299.032,296.005 298.032,297.171 295.5,297.5C 295.167,296.167 294.833,296.167 294.5,297.5C 291.865,298.811 289.531,300.478 287.5,302.5C 286.508,302.328 285.842,302.662 285.5,303.5C 284.508,303.328 283.842,303.662 283.5,304.5C 282.209,304.263 281.209,304.596 280.5,305.5C 279.508,305.328 278.842,305.662 278.5,306.5C 276.692,306.491 275.025,306.991 273.5,308C 279.859,308.169 286.193,308.669 292.5,309.5C 292.291,310.086 291.957,310.586 291.5,311C 282.298,311.793 273.131,311.626 264,310.5C 261.97,310.954 260.137,311.62 258.5,312.5C 256.901,312.232 255.568,312.566 254.5,313.5C 251.505,313.294 248.838,313.96 246.5,315.5C 245.167,315.833 245.167,316.167 246.5,316.5C 231.106,321.403 215.439,325.737 199.5,329.5C 198.5,329.5 197.5,329.5 196.5,329.5C 178.313,332.185 160.313,335.185 142.5,338.5C 141.833,338.5 141.5,338.833 141.5,339.5C 136.156,339.816 130.822,340.316 125.5,341C 128.5,341.333 131.5,341.667 134.5,342C 129.054,342.325 123.721,342.492 118.5,342.5C 113.172,341.001 107.839,339.501 102.5,338C 92.6465,333.804 88.3131,326.304 89.5,315.5C 78.6528,313.106 67.6528,311.94 56.5,312C 59.8333,311.667 63.1667,311.333 66.5,311C 56.5349,309.425 46.8682,306.759 37.5,303C 32.3783,300.596 30.7116,296.763 32.5,291.5C 38.3955,291.01 44.2288,290.343 50,289.5C 59.6658,266.663 68.8325,243.663 77.5,220.5C 80.2011,217.765 81.8678,214.431 82.5,210.5C 110.072,143.677 137.405,76.6769 164.5,9.5C 165.11,8.60895 165.443,7.60895 165.5,6.5C 165.709,5.07833 166.209,3.74499 167,2.5C 167.333,2.83333 167.667,3.16667 168,3.5C 172.485,-0.946553 174.985,0.0534468 175.5,6.5 Z M 82.5,227.5 C 83.803,229.142 85.1363,230.809 86.5,232.5C 82.6398,244.245 78.4731,255.912 74,267.5C 72.6885,275.105 72.1885,282.772 72.5,290.5C 67.7863,290.827 63.1196,290.493 58.5,289.5C 58.1667,288.833 57.8333,288.167 57.5,287.5C 57.8457,286.304 58.3457,286.304 59,287.5C 59.4643,286.906 59.631,286.239 59.5,285.5C 60.6527,284.687 60.6527,283.687 59.5,282.5C 59.8457,281.304 60.3457,281.304 61,282.5C 61.4643,281.906 61.631,281.239 61.5,280.5C 62.404,279.791 62.7373,278.791 62.5,277.5C 63.3382,277.158 63.6716,276.492 63.5,275.5C 64.6527,274.687 64.6527,273.687 63.5,272.5C 63.8457,271.304 64.3457,271.304 65,272.5C 65.4643,271.906 65.631,271.239 65.5,270.5C 66.6527,269.687 66.6527,268.687 65.5,267.5C 65.8457,266.304 66.3457,266.304 67,267.5C 67.4643,266.906 67.631,266.239 67.5,265.5C 68.6527,264.687 68.6527,263.687 67.5,262.5C 67.8457,261.304 68.3457,261.304 69,262.5C 69.4643,261.906 69.631,261.239 69.5,260.5C 71.0077,258.829 71.3411,256.996 70.5,255C 72.3008,254.683 72.6341,254.016 71.5,253C 72.756,252.583 73.4226,251.75 73.5,250.5C 72.958,248.617 73.6247,246.951 75.5,245.5C 77.0077,243.829 77.3411,241.996 76.5,240C 78.3757,239.082 79.3757,237.582 79.5,235.5C 78.958,233.617 79.6247,231.951 81.5,230.5C 82.404,229.791 82.7373,228.791 82.5,227.5 Z M 91.5,240.5 C 93.0737,241.984 94.407,243.651 95.5,245.5C 97.5534,251.275 99.8867,256.941 102.5,262.5C 96.1042,262.299 90.1042,261.299 84.5,259.5C 85.404,258.791 85.7373,257.791 85.5,256.5C 87.676,251.314 89.676,245.981 91.5,240.5 Z M 236.5,259.5 C 239.205,267.113 242.205,274.613 245.5,282C 238.85,281.947 232.184,281.78 225.5,281.5C 229.181,274.093 232.847,266.759 236.5,259.5 Z M 105.5,269.5 C 105.5,269.833 105.5,270.167 105.5,270.5C 97.1423,269.951 88.809,269.117 80.5,268C 88.8469,268.025 97.1803,268.525 105.5,269.5 Z M 109.5,278.5 C 110.009,279.341 109.343,279.841 107.5,280C 110.505,280.319 112.505,281.819 113.5,284.5C 113.5,285.833 113.5,287.167 113.5,288.5C 107.642,288.178 101.975,288.511 96.5,289.5C 90.5594,290.413 84.5594,290.746 78.5,290.5C 77.9347,285.678 78.6013,281.178 80.5,277C 90.2125,276.657 99.8792,277.157 109.5,278.5 Z M 222.5,287.5 C 230.49,288.058 238.49,288.558 246.5,289C 238.173,289.5 229.84,289.666 221.5,289.5C 221.833,288.833 222.167,288.167 222.5,287.5 Z M 218.5,295.5 C 240.531,295.925 262.531,296.092 284.5,296C 277.296,300.179 269.629,303.179 261.5,305C 245.503,305.5 229.503,305.667 213.5,305.5C 214.172,302.657 215.505,300.157 217.5,298C 229.167,297.667 240.833,297.333 252.5,297C 240.993,296.831 229.659,296.331 218.5,295.5 Z M 119.5,298.5 C 121.588,300.336 122.921,302.669 123.5,305.5C 105.164,305.667 86.8303,305.5 68.5,305C 60.3692,303.507 52.3692,301.507 44.5,299C 69.4978,298.5 94.4978,298.333 119.5,298.5 Z M 209.5,310.5 C 216.175,310.334 222.842,310.5 229.5,311C 222.562,312.586 215.562,313.753 208.5,314.5C 208.833,313.167 209.167,311.833 209.5,310.5 Z M 127.5,312.5 C 128.401,313.29 129.068,314.29 129.5,315.5C 124.21,314.53 118.877,313.696 113.5,313C 118.155,312.501 122.821,312.334 127.5,312.5 Z M 133.5,322.5 C 134.167,323.833 134.833,325.167 135.5,326.5C 130.671,328.332 125.671,329.998 120.5,331.5C 115.689,328.523 111.689,324.689 108.5,320C 116.848,320.418 125.182,321.251 133.5,322.5 Z M 111.5,333.5 C 106.619,332.976 102.452,330.976 99,327.5C 98.3333,325.5 98.3333,323.5 99,321.5C 103.669,325.003 107.836,329.003 111.5,333.5 Z"/></g>
<g><path style="opacity:0.984" fill="#d64032" d="M 165.5,6.5 C 165.443,7.60895 165.11,8.60895 164.5,9.5C 121.123,12.2592 90.2896,33.2592 72,72.5C 64.8935,91.9029 62.5602,111.903 65,132.5C 67.9967,159.152 73.83,185.152 82.5,210.5C 81.8678,214.431 80.2011,217.765 77.5,220.5C 55.6306,190.056 45.1306,156.056 46,118.5C 49.2962,88.4088 61.7962,62.9088 83.5,42C 106.151,19.5112 133.485,7.67787 165.5,6.5 Z"/></g>
<g><path style="opacity:1" fill="#e1796f" d="M 164.5,9.5 C 137.405,76.6769 110.072,143.677 82.5,210.5C 73.83,185.152 67.9967,159.152 65,132.5C 62.5602,111.903 64.8935,91.9029 72,72.5C 90.2896,33.2592 121.123,12.2592 164.5,9.5 Z"/></g>
<g><path style="opacity:1" fill="#e1796f" d="M 174.5,9.5 C 229.226,15.3917 261.726,45.3917 272,99.5C 273.727,128.745 270.394,157.411 262,185.5C 256.493,204.355 249.993,222.855 242.5,241C 242.57,241.765 242.903,242.265 243.5,242.5C 242.833,243.833 242.167,245.167 241.5,246.5C 240.5,247.167 239.5,247.833 238.5,248.5C 220.388,204.341 202.554,160.008 185,115.5C 184.631,108.709 185.464,102.043 187.5,95.5C 183.841,81.1987 180.341,66.8654 177,52.5C 175.602,38.2012 174.768,23.8679 174.5,9.5 Z"/></g>
<g><path style="opacity:1" fill="#ae5e56" d="M 159.5,36.5 C 162.165,28.0073 165.332,19.674 169,11.5C 169.814,13.9018 169.647,16.2351 168.5,18.5C 165.501,24.4948 162.501,30.4948 159.5,36.5 Z"/></g>
<g><path style="opacity:0.987" fill="#d64032" d="M 175.5,6.5 C 231.412,14.0192 268.578,44.3525 287,97.5C 295.596,133.267 290.929,167.267 273,199.5C 264.639,214.905 254.805,229.238 243.5,242.5C 242.903,242.265 242.57,241.765 242.5,241C 249.993,222.855 256.493,204.355 262,185.5C 270.394,157.411 273.727,128.745 272,99.5C 261.726,45.3917 229.226,15.3917 174.5,9.5C 174.263,8.20895 174.596,7.20895 175.5,6.5 Z"/></g>
<g><path style="opacity:1" fill="#df786e" d="M 106.5,262.5 C 103.578,256.314 99.911,250.648 95.5,245.5C 94.407,243.651 93.0737,241.984 91.5,240.5C 91.8398,235.153 93.3398,230.153 96,225.5C 102.677,228.003 109.51,230.003 116.5,231.5C 116.785,229.712 116.452,228.045 115.5,226.5C 109.603,224.422 103.603,222.756 97.5,221.5C 102.891,206.164 108.391,190.831 114,175.5C 114.725,174.941 115.558,174.608 116.5,174.5C 121.982,175.912 127.482,177.245 133,178.5C 136.902,177.32 137.235,175.654 134,173.5C 129.236,172.067 124.403,170.9 119.5,170C 118.484,169.481 117.818,168.647 117.5,167.5C 121.552,155.729 125.885,144.062 130.5,132.5C 131.167,132.167 131.833,131.833 132.5,131.5C 137.727,133.141 143.061,134.141 148.5,134.5C 148.579,133.07 148.246,131.736 147.5,130.5C 142.436,128.985 137.436,127.318 132.5,125.5C 138.5,109.833 144.5,94.1667 150.5,78.5C 154.594,78.4339 158.428,79.7672 162,82.5C 164.277,81.2964 164.777,79.6297 163.5,77.5C 160.5,76 157.5,74.5 154.5,73C 153.941,72.2753 153.608,71.4419 153.5,70.5C 158.719,55.7286 164.219,41.062 170,26.5C 170.772,32.7056 170.605,38.8722 169.5,45C 171.239,54.7307 172.406,64.564 173,74.5C 175.732,121.319 178.232,168.152 180.5,215C 179.245,232.144 178.579,249.311 178.5,266.5C 154.429,265.442 130.429,264.109 106.5,262.5 Z"/></g>
<g><path style="opacity:1" fill="#582f2b" d="M 157.5,44.5 C 154.974,52.9098 152.141,61.2432 149,69.5C 148.583,70.756 147.75,71.4226 146.5,71.5C 149.6,62.1829 153.267,53.1829 157.5,44.5 Z"/></g>
<g><path style="opacity:1" fill="#c46961" d="M 178.5,82.5 C 180.26,86.5465 181.26,90.8799 181.5,95.5C 180.5,95.5 179.5,95.5 178.5,95.5C 178.5,91.1667 178.5,86.8333 178.5,82.5 Z"/></g>
<g><path style="opacity:1" fill="#b05f57" d="M 179.5,97.5 C 180.725,98.1522 181.392,99.3189 181.5,101C 181.238,103.547 180.738,106.047 180,108.5C 179.501,104.848 179.335,101.182 179.5,97.5 Z"/></g>
<g><path style="opacity:1" fill="#1b110f" d="M 147.5,101.5 C 150.602,101.154 153.435,101.821 156,103.5C 157.333,102.833 158.667,102.167 160,101.5C 161.204,102.859 162.704,103.859 164.5,104.5C 165.952,106.979 165.452,108.979 163,110.5C 161,111.833 159,111.833 157,110.5C 156.055,110.905 155.388,111.572 155,112.5C 153.654,109.299 151.32,106.966 148,105.5C 147.51,104.207 147.343,102.873 147.5,101.5 Z"/></g>
<g><path style="opacity:1" fill="#653632" d="M 146.5,72.5 C 141.396,89.4599 135.396,106.46 128.5,123.5C 128.043,124.298 127.376,124.631 126.5,124.5C 132.598,106.861 139.265,89.5277 146.5,72.5 Z"/></g>
<g><path style="opacity:1" fill="#c56a61" d="M 182.5,123.5 C 184.017,125.462 184.684,127.795 184.5,130.5C 183.843,138.489 183.343,146.489 183,154.5C 181.621,144.143 181.455,133.809 182.5,123.5 Z"/></g>
<g><path style="opacity:1" fill="#4d2926" d="M 126.5,125.5 C 127.043,125.56 127.376,125.893 127.5,126.5C 125.002,133.346 122.336,140.013 119.5,146.5C 121.238,139.285 123.572,132.285 126.5,125.5 Z"/></g>
<g><path style="opacity:1" fill="#d67369" d="M 159.5,36.5 C 159.037,39.221 158.371,41.8877 157.5,44.5C 153.267,53.1829 149.6,62.1829 146.5,71.5C 146.5,71.8333 146.5,72.1667 146.5,72.5C 139.265,89.5277 132.598,106.861 126.5,124.5C 126.5,124.833 126.5,125.167 126.5,125.5C 123.572,132.285 121.238,139.285 119.5,146.5C 109.722,174.053 99.3889,201.387 88.5,228.5C 88.0764,224.988 87.0764,221.655 85.5,218.5C 109.597,157.529 134.264,96.8619 159.5,36.5 Z"/></g>
<g><path style="opacity:1" fill="#df786f" d="M 234.5,255.5 C 228.983,263.867 223.983,272.534 219.5,281.5C 209.817,281.532 200.151,281.199 190.5,280.5C 190.03,264.648 189.03,248.981 187.5,233.5C 186.149,201.814 186.649,170.147 189,138.5C 204.751,177.325 219.917,216.325 234.5,255.5 Z"/></g>
<g><path style="opacity:0.955" fill="#d44133" d="M 85.5,218.5 C 87.0764,221.655 88.0764,224.988 88.5,228.5C 88.7709,230.38 88.1042,231.713 86.5,232.5C 85.1363,230.809 83.803,229.142 82.5,227.5C 82.5275,224.084 83.5275,221.084 85.5,218.5 Z"/></g>
<g><path style="opacity:0.201" fill="#fefbfb" d="M 95.5,245.5 C 99.911,250.648 103.578,256.314 106.5,262.5C 105.167,262.5 103.833,262.5 102.5,262.5C 99.8867,256.941 97.5534,251.275 95.5,245.5 Z"/></g>
<g><path style="opacity:0.082" fill="#eeecec" d="M 241.5,246.5 C 241.167,247.833 240.833,249.167 240.5,250.5C 239.167,250.5 238.5,249.833 238.5,248.5C 239.5,247.833 240.5,247.167 241.5,246.5 Z"/></g>
<g><path style="opacity:1" fill="#552e2a" d="M 187.5,233.5 C 189.03,248.981 190.03,264.648 190.5,280.5C 189.686,278.369 189.186,276.036 189,273.5C 188.046,260.182 187.546,246.849 187.5,233.5 Z"/></g>
<g><path style="opacity:0.25" fill="#fefbfb" d="M 234.5,255.5 C 235.345,256.671 236.011,258.005 236.5,259.5C 232.847,266.759 229.181,274.093 225.5,281.5C 223.5,281.5 221.5,281.5 219.5,281.5C 223.983,272.534 228.983,263.867 234.5,255.5 Z"/></g>
<g><path style="opacity:0.249" fill="#e9e7e6" d="M 110.5,268.5 C 111.167,269.5 111.833,270.5 112.5,271.5C 110.097,271.552 107.764,271.219 105.5,270.5C 105.5,270.167 105.5,269.833 105.5,269.5C 106.919,268.549 108.585,268.216 110.5,268.5 Z"/></g>
<g><path style="opacity:1" fill="#cd6e65" d="M 110.5,268.5 C 132.841,269.445 155.174,270.445 177.5,271.5C 177.5,272.833 177.5,274.167 177.5,275.5C 155.653,274.627 133.986,273.294 112.5,271.5C 111.833,270.5 111.167,269.5 110.5,268.5 Z"/></g>
<g><path style="opacity:1" fill="#6e3b36" d="M 184.5,272.5 C 183.833,272.833 183.167,273.167 182.5,273.5C 182.18,270.102 182.513,266.768 183.5,263.5C 184.484,266.428 184.817,269.428 184.5,272.5 Z"/></g>
<g><path style="opacity:1" fill="#be665d" d="M 184.5,272.5 C 184.817,275.572 184.484,278.572 183.5,281.5C 182.52,278.914 182.187,276.247 182.5,273.5C 183.167,273.167 183.833,272.833 184.5,272.5 Z"/></g>
<g><path style="opacity:1" fill="#dc776d" d="M 141.5,287.5 C 135.588,289.456 129.255,290.123 122.5,289.5C 121.272,288.694 120.272,287.694 119.5,286.5C 118.841,283.545 118.508,280.545 118.5,277.5C 140.594,278.251 162.594,279.918 184.5,282.5C 184.5,283.5 184.5,284.5 184.5,285.5C 170.211,283.983 155.878,282.983 141.5,282.5C 141.5,284.167 141.5,285.833 141.5,287.5 Z"/></g>
<g><path style="opacity:0.227" fill="#bbbbbb" d="M 109.5,278.5 C 110.568,277.566 111.901,277.232 113.5,277.5C 113.5,279.833 113.5,282.167 113.5,284.5C 112.505,281.819 110.505,280.319 107.5,280C 109.343,279.841 110.009,279.341 109.5,278.5 Z"/></g>
<g><path style="opacity:0.315" fill="#e7e4e3" d="M 119.5,286.5 C 120.272,287.694 121.272,288.694 122.5,289.5C 122.5,289.833 122.5,290.167 122.5,290.5C 121.5,290.5 120.5,290.5 119.5,290.5C 119.5,289.167 119.5,287.833 119.5,286.5 Z"/></g>
<g><path style="opacity:1" fill="#dd786e" d="M 199.5,286.5 C 205.358,286.178 211.025,286.511 216.5,287.5C 215.662,287.842 215.328,288.508 215.5,289.5C 215.167,289.5 214.833,289.5 214.5,289.5C 206.833,289.5 199.167,289.5 191.5,289.5C 191.5,288.5 191.5,287.5 191.5,286.5C 194.167,286.5 196.833,286.5 199.5,286.5 Z"/></g>
<g><path style="opacity:0.258" fill="#fffefe" d="M 216.5,287.5 C 218.5,287.5 220.5,287.5 222.5,287.5C 222.167,288.167 221.833,288.833 221.5,289.5C 219.5,289.5 217.5,289.5 215.5,289.5C 215.328,288.508 215.662,287.842 216.5,287.5 Z"/></g>
<g><path style="opacity:1" fill="#6f3b36" d="M 147.5,288.5 C 157.938,288.049 168.271,288.549 178.5,290C 173.333,290.167 168.167,290.333 163,290.5C 157.454,290.495 152.288,289.828 147.5,288.5 Z"/></g>
<g><path style="opacity:1" fill="#8d4c45" d="M 199.5,286.5 C 196.833,286.5 194.167,286.5 191.5,286.5C 191.5,287.5 191.5,288.5 191.5,289.5C 199.167,289.5 206.833,289.5 214.5,289.5C 206.35,290.493 198.017,290.826 189.5,290.5C 189.5,288.833 189.5,287.167 189.5,285.5C 193.042,285.187 196.375,285.521 199.5,286.5 Z"/></g>
<g><path style="opacity:1" fill="#3a1f1d" d="M 141.5,287.5 C 142.434,288.568 142.768,289.901 142.5,291.5C 135.646,291.824 128.979,291.491 122.5,290.5C 122.5,290.167 122.5,289.833 122.5,289.5C 129.255,290.123 135.588,289.456 141.5,287.5 Z"/></g>
<g><path style="opacity:0.008" fill="#000000" d="M 300.5,291.5 C 301.833,292.167 301.833,292.167 300.5,291.5 Z"/></g>
<g><path style="opacity:1" fill="#dc776d" d="M 124.5,296.5 C 153.329,295.502 182.329,295.169 211.5,295.5C 209.833,299.5 208.167,303.5 206.5,307.5C 206.167,307.5 205.833,307.5 205.5,307.5C 180.5,307.5 155.5,307.5 130.5,307.5C 130.167,307.5 129.833,307.5 129.5,307.5C 128.618,303.407 126.951,299.74 124.5,296.5 Z"/></g>
<g><path style="opacity:0.252" fill="#b9b8b8" d="M 211.5,295.5 C 213.833,295.5 216.167,295.5 218.5,295.5C 229.659,296.331 240.993,296.831 252.5,297C 240.833,297.333 229.167,297.667 217.5,298C 215.505,300.157 214.172,302.657 213.5,305.5C 212.662,305.842 212.328,306.508 212.5,307.5C 211.833,307.5 211.167,307.5 210.5,307.5C 209.167,307.5 207.833,307.5 206.5,307.5C 208.167,303.5 209.833,299.5 211.5,295.5 Z"/></g>
<g><path style="opacity:0.012" fill="#000000" d="M 294.5,297.5 C 294.833,297.5 295.167,297.5 295.5,297.5C 295.315,298.17 294.981,298.17 294.5,297.5 Z"/></g>
<g><path style="opacity:0.243" fill="#fcfaf9" d="M 119.5,296.5 C 121.167,296.5 122.833,296.5 124.5,296.5C 126.951,299.74 128.618,303.407 129.5,307.5C 128.5,307.5 127.5,307.5 126.5,307.5C 125.833,307.5 125.167,307.5 124.5,307.5C 124.672,306.508 124.338,305.842 123.5,305.5C 122.921,302.669 121.588,300.336 119.5,298.5C 119.5,297.833 119.5,297.167 119.5,296.5 Z"/></g>
<g><path style="opacity:0.008" fill="#000000" d="M 289.5,301.5 C 290.833,302.167 290.833,302.167 289.5,301.5 Z"/></g>
<g><path style="opacity:0.012" fill="#000000" d="M 287.5,302.5 C 288.833,303.167 288.833,303.167 287.5,302.5 Z"/></g>
<g><path style="opacity:0.008" fill="#000000" d="M 285.5,304.5 C 285.5,304.167 285.5,303.833 285.5,303.5C 286.167,303.5 286.833,303.5 287.5,303.5C 287.158,304.338 286.492,304.672 285.5,304.5 Z"/></g>
<g><path style="opacity:0.008" fill="#000000" d="M 283.5,305.5 C 283.5,305.167 283.5,304.833 283.5,304.5C 284.167,304.5 284.833,304.5 285.5,304.5C 285.158,305.338 284.492,305.672 283.5,305.5 Z"/></g>
<g><path style="opacity:0.005" fill="#000000" d="M 280.5,305.5 C 281.5,305.5 282.5,305.5 283.5,305.5C 285.969,306.317 288.635,306.817 291.5,307C 286.98,307.814 282.646,307.647 278.5,306.5C 279.492,306.672 280.158,306.338 280.5,305.5 Z"/></g>
<g><path style="opacity:1" fill="#a25750" d="M 130.5,307.5 C 155.5,307.5 180.5,307.5 205.5,307.5C 205.5,308.167 205.5,308.833 205.5,309.5C 205.167,309.5 204.833,309.5 204.5,309.5C 179.477,310.157 154.811,309.49 130.5,307.5 Z"/></g>
<g><path style="opacity:0.482" fill="#787675" d="M 205.5,307.5 C 205.833,307.5 206.167,307.5 206.5,307.5C 207.833,307.5 209.167,307.5 210.5,307.5C 209.448,309.256 207.781,309.923 205.5,309.5C 205.5,308.833 205.5,308.167 205.5,307.5 Z"/></g>
<g><path style="opacity:0.004" fill="#000000" d="M 53.5,309.5 C 54.8333,310.167 54.8333,310.167 53.5,309.5 Z"/></g>
<g><path style="opacity:1" fill="#5d3430" d="M 126.5,307.5 C 127.5,307.5 128.5,307.5 129.5,307.5C 129.833,307.5 130.167,307.5 130.5,307.5C 154.811,309.49 179.477,310.157 204.5,309.5C 204.5,309.833 204.5,310.167 204.5,310.5C 180.167,310.5 155.833,310.5 131.5,310.5C 130.167,310.5 128.833,310.5 127.5,310.5C 127.443,309.391 127.11,308.391 126.5,307.5 Z"/></g>
<g><path style="opacity:0.004" fill="#000000" d="M 293.5,309.5 C 294.833,310.167 294.833,310.167 293.5,309.5 Z"/></g>
<g><path style="opacity:1" fill="#df796f" d="M 131.5,310.5 C 155.833,310.5 180.167,310.5 204.5,310.5C 204.107,312.284 203.441,313.95 202.5,315.5C 197.694,316.593 192.694,317.259 187.5,317.5C 173.5,317.5 159.5,317.5 145.5,317.5C 140.566,317.771 135.9,317.104 131.5,315.5C 132.239,315.631 132.906,315.464 133.5,315C 132.418,313.67 131.751,312.17 131.5,310.5 Z"/></g>
<g><path style="opacity:0.247" fill="#fdf9f9" d="M 204.5,310.5 C 206.167,310.5 207.833,310.5 209.5,310.5C 209.167,311.833 208.833,313.167 208.5,314.5C 206.565,315.15 204.565,315.483 202.5,315.5C 203.441,313.95 204.107,312.284 204.5,310.5 Z"/></g>
<g><path style="opacity:0.004" fill="#000000" d="M 263.5,311.5 C 264.833,312.167 264.833,312.167 263.5,311.5 Z"/></g>
<g><path style="opacity:0.226" fill="#fbf9f8" d="M 126.5,311.5 C 126.5,311.167 126.5,310.833 126.5,310.5C 126.833,310.5 127.167,310.5 127.5,310.5C 128.833,310.5 130.167,310.5 131.5,310.5C 131.751,312.17 132.418,313.67 133.5,315C 132.906,315.464 132.239,315.631 131.5,315.5C 130.833,315.5 130.167,315.5 129.5,315.5C 129.068,314.29 128.401,313.29 127.5,312.5C 127.5,311.833 127.167,311.5 126.5,311.5 Z"/></g>
<g><path style="opacity:0.008" fill="#000000" d="M 258.5,313.5 C 258.5,313.167 258.5,312.833 258.5,312.5C 263.833,312.833 263.833,313.167 258.5,313.5 Z"/></g>
<g><path style="opacity:0.004" fill="#000000" d="M 272.5,313.5 C 278.653,312.347 284.986,312.18 291.5,313C 285.175,313.5 278.842,313.666 272.5,313.5 Z"/></g>
<g><path style="opacity:0.008" fill="#000000" d="M 254.5,313.5 C 255.833,313.5 257.167,313.5 258.5,313.5C 257.167,314.833 255.833,314.833 254.5,313.5 Z"/></g>
<g><path style="opacity:0.008" fill="#000000" d="M 250.5,315.5 C 251.251,314.427 252.251,314.26 253.5,315C 252.552,315.483 251.552,315.649 250.5,315.5 Z"/></g>
<g><path style="opacity:0.009" fill="#000000" d="M 246.5,316.5 C 246.5,316.167 246.5,315.833 246.5,315.5C 250.5,315.833 250.5,316.167 246.5,316.5 Z"/></g>
<g><path style="opacity:1" fill="#b8635b" d="M 145.5,317.5 C 159.5,317.5 173.5,317.5 187.5,317.5C 173.507,320.08 159.507,320.08 145.5,317.5 Z"/></g>
<g><path style="opacity:0.114" fill="#f9f3f2" d="M 135.5,321.5 C 136.441,323.05 137.107,324.716 137.5,326.5C 136.833,326.5 136.167,326.5 135.5,326.5C 134.833,325.167 134.167,323.833 133.5,322.5C 133.842,321.662 134.508,321.328 135.5,321.5 Z"/></g>
<g><path style="opacity:1" fill="#c96d64" d="M 135.5,321.5 C 140.149,322.065 144.816,322.565 149.5,323C 145.719,324.78 141.719,325.947 137.5,326.5C 137.107,324.716 136.441,323.05 135.5,321.5 Z"/></g>
<g><path style="opacity:0.361" fill="#e9e8e8" d="M 200.5,321.5 C 201.5,321.5 202.5,321.5 203.5,321.5C 203.5,321.833 203.5,322.167 203.5,322.5C 202.167,322.833 200.833,323.167 199.5,323.5C 199.833,322.833 200.167,322.167 200.5,321.5 Z"/></g>
<g><path style="opacity:1" fill="#d47269" d="M 200.5,321.5 C 200.167,322.167 199.833,322.833 199.5,323.5C 179.687,327.783 159.687,330.616 139.5,332C 146.761,329.469 154.094,327.135 161.5,325C 174.568,324.488 187.568,323.321 200.5,321.5 Z"/></g>
<g><path style="opacity:0.111" fill="#fdf7f7" d="M 196.5,329.5 C 197.5,329.5 198.5,329.5 199.5,329.5C 198.974,331.23 197.974,332.564 196.5,333.5C 196.5,332.167 196.5,330.833 196.5,329.5 Z"/></g>
<g><path style="opacity:1" fill="#df796f" d="M 196.5,329.5 C 196.5,330.833 196.5,332.167 196.5,333.5C 196.34,335.153 195.674,336.486 194.5,337.5C 194.19,336.262 193.69,336.262 193,337.5C 185.568,350.713 177.401,363.38 168.5,375.5C 160.11,363.928 152.277,351.928 145,339.5C 144.329,338.748 143.496,338.414 142.5,338.5C 160.313,335.185 178.313,332.185 196.5,329.5 Z"/></g>
<g><path style="opacity:0.985" fill="#d53f31" d="M 194.5,337.5 C 183.074,371.294 176.408,405.961 174.5,441.5C 170.833,441.5 167.167,441.5 163.5,441.5C 162.828,440.733 161.995,440.066 161,439.5C 159.134,406.337 152.967,374.003 142.5,342.5C 140.234,341.686 137.9,341.186 135.5,341C 137.708,340.809 139.708,340.309 141.5,339.5C 141.5,338.833 141.833,338.5 142.5,338.5C 143.496,338.414 144.329,338.748 145,339.5C 152.277,351.928 160.11,363.928 168.5,375.5C 177.401,363.38 185.568,350.713 193,337.5C 193.69,336.262 194.19,336.262 194.5,337.5 Z"/></g>
</svg>
