<?xml version="1.0" encoding="UTF-8"?>
<!DOCTYPE svg PUBLIC "-//W3C//DTD SVG 1.1//EN" "http://www.w3.org/Graphics/SVG/1.1/DTD/svg11.dtd">
<svg xmlns="http://www.w3.org/2000/svg" version="1.1" width="481px" height="481px" style="shape-rendering:geometricPrecision; text-rendering:geometricPrecision; image-rendering:optimizeQuality; fill-rule:evenodd; clip-rule:evenodd" xmlns:xlink="http://www.w3.org/1999/xlink">
<g><path style="opacity:0.998" fill="#c1131c" d="M 247.5,45.5 C 247.263,46.791 247.596,47.791 248.5,48.5C 277.914,99.6639 307.581,150.664 337.5,201.5C 341.681,209.208 346.348,216.542 351.5,223.5C 359.505,236.679 366.838,250.179 373.5,264C 372.944,266.237 371.944,268.237 370.5,270C 354.5,270.333 338.5,270.667 322.5,271C 319.969,274.358 317.302,277.524 314.5,280.5C 314.777,277.11 315.777,273.943 317.5,271C 265.5,270.333 213.5,270.333 161.5,271C 162.689,273.878 164.022,276.712 165.5,279.5C 165.376,280.107 165.043,280.44 164.5,280.5C 161.945,277.75 159.612,274.75 157.5,271.5C 140.51,270.667 123.51,270.167 106.5,270C 103.257,265.813 103.09,261.313 106,256.5C 113.43,244.638 120.596,232.638 127.5,220.5C 132.07,213.704 136.403,206.704 140.5,199.5C 169.833,149.5 199.167,99.5 228.5,49.5C 229.345,48.3285 230.011,46.9952 230.5,45.5C 233.442,39.3539 238.109,37.8539 244.5,41C 245.386,42.6147 246.386,44.1147 247.5,45.5 Z"/></g>
<g><path style="opacity:0.984" fill="#d64032" d="M 230.5,45.5 C 230.011,46.9952 229.345,48.3285 228.5,49.5C 185.692,54.2005 156.525,76.8672 141,117.5C 138.546,124.314 136.88,131.314 136,138.5C 134.404,159.208 135.904,179.542 140.5,199.5C 136.403,206.704 132.07,213.704 127.5,220.5C 104.09,157.615 119.09,106.115 172.5,66C 189.949,53.9055 209.282,47.0722 230.5,45.5 Z"/></g>
<g><path style="opacity:1" fill="#e1796f" d="M 228.5,49.5 C 199.167,99.5 169.833,149.5 140.5,199.5C 135.904,179.542 134.404,159.208 136,138.5C 136.88,131.314 138.546,124.314 141,117.5C 156.525,76.8672 185.692,54.2005 228.5,49.5 Z"/></g>
<g><path style="opacity:1" fill="#e1796f" d="M 248.5,48.5 C 301.623,55.7891 333.123,85.7891 343,138.5C 344.429,159.017 343.096,179.35 339,199.5C 338.722,200.416 338.222,201.082 337.5,201.5C 307.581,150.664 277.914,99.6639 248.5,48.5 Z"/></g>
<g><path style="opacity:0.988" fill="#d64032" d="M 247.5,45.5 C 302.914,53.425 339.747,83.7583 358,136.5C 362.614,153.618 363.614,170.951 361,188.5C 358.919,200.491 355.753,212.158 351.5,223.5C 346.348,216.542 341.681,209.208 337.5,201.5C 338.222,201.082 338.722,200.416 339,199.5C 343.096,179.35 344.429,159.017 343,138.5C 333.123,85.7891 301.623,55.7891 248.5,48.5C 247.596,47.791 247.263,46.791 247.5,45.5 Z"/></g>
<g><path style="opacity:1" fill="#f5f8f2" d="M 320.5,237.5 C 293.335,238.167 266.002,238.5 238.5,238.5C 210.825,238.5 183.492,237.833 156.5,236.5C 183.736,189.696 211.236,143.03 239,96.5C 266.695,143.228 293.862,190.228 320.5,237.5 Z"/></g>
<g><path style="opacity:1" fill="#313436" d="M 239.5,144.5 C 247.149,144.314 250.315,147.981 249,155.5C 244.829,161.729 240.163,162.062 235,156.5C 233.309,151.131 234.809,147.131 239.5,144.5 Z"/></g>
<g><path style="opacity:1" fill="#2f3233" d="M 240.5,195.5 C 240.5,196.167 240.167,196.5 239.5,196.5C 237.031,195.431 234.698,194.098 232.5,192.5C 232.312,195.885 233.146,199.218 235,202.5C 234.946,212.489 234.779,222.489 234.5,232.5C 232.833,232.5 231.167,232.5 229.5,232.5C 229.436,224.091 228.603,215.757 227,207.5C 224.333,204.167 221.667,200.833 219,197.5C 211.967,209.037 205.134,220.703 198.5,232.5C 196.955,233.452 195.288,233.785 193.5,233.5C 198.695,216.25 204.695,199.25 211.5,182.5C 208.5,180.5 205.5,178.5 202.5,176.5C 206.133,170.734 210.133,165.234 214.5,160C 221.099,158.504 227.766,158.171 234.5,159C 236.286,159.785 237.786,160.951 239,162.5C 240.454,173.397 240.954,184.397 240.5,195.5 Z"/></g>
<g><path style="opacity:1" fill="#e6eae5" d="M 214.5,167.5 C 216.288,167.215 217.955,167.548 219.5,168.5C 217.403,172.372 215.069,176.039 212.5,179.5C 210.998,178.917 209.665,178.084 208.5,177C 211.146,174.198 213.146,171.032 214.5,167.5 Z"/></g>
<g><path style="opacity:1" fill="#e0e4df" d="M 231.5,181.5 C 232.765,182.514 233.431,184.014 233.5,186C 233.463,191.34 231.796,191.84 228.5,187.5C 229.559,185.466 230.559,183.466 231.5,181.5 Z"/></g>
<g><path style="opacity:1" fill="#2b2e30" d="M 304.5,232.5 C 281.661,232.831 258.994,232.497 236.5,231.5C 239.066,226.035 241.899,220.702 245,215.5C 246.826,213.926 248.993,213.093 251.5,213C 254.2,211.143 255.866,208.643 256.5,205.5C 258.862,200.957 261.862,196.79 265.5,193C 267.971,192.294 270.305,192.627 272.5,194C 283.378,206.707 294.045,219.54 304.5,232.5 Z"/></g>
<g><path style="opacity:1" fill="#505354" d="M 240.5,195.5 C 246.206,198.347 251.539,201.68 256.5,205.5C 250.578,202.894 244.911,199.894 239.5,196.5C 240.167,196.5 240.5,196.167 240.5,195.5 Z"/></g>
<g><path style="opacity:1" fill="#d0d4cf" d="M 236.5,231.5 C 258.994,232.497 281.661,232.831 304.5,232.5C 281.663,233.829 258.663,233.829 235.5,232.5C 235.624,231.893 235.957,231.56 236.5,231.5 Z"/></g>
<g><path style="opacity:1" fill="#ebcac7" d="M 156.5,236.5 C 183.492,237.833 210.825,238.5 238.5,238.5C 266.002,238.5 293.335,238.167 320.5,237.5C 321.043,237.56 321.376,237.893 321.5,238.5C 265.836,239.667 210.17,239.833 154.5,239C 155.066,238.005 155.733,237.172 156.5,236.5 Z"/></g>
<g><path style="opacity:1" fill="#e27a70" d="M 314.5,280.5 C 314.107,282.284 313.441,283.95 312.5,285.5C 304.362,295.752 297.195,306.752 291,318.5C 281.306,335.77 273.472,353.77 267.5,372.5C 267.34,374.153 266.674,375.486 265.5,376.5C 265.19,375.262 264.69,375.262 264,376.5C 256.568,389.713 248.401,402.38 239.5,414.5C 229.148,399.658 219.482,384.992 210.5,370.5C 209.094,370.027 208.427,369.027 208.5,367.5C 201.951,347.394 193.451,328.06 183,309.5C 177.973,300.759 172.473,292.425 166.5,284.5C 165.326,283.486 164.66,282.153 164.5,280.5C 165.043,280.44 165.376,280.107 165.5,279.5C 164.022,276.712 162.689,273.878 161.5,271C 213.5,270.333 265.5,270.333 317.5,271C 315.777,273.943 314.777,277.11 314.5,280.5 Z"/></g>
<g><path style="opacity:0.235" fill="#fefcfc" d="M 166.5,284.5 C 172.473,292.425 177.973,300.759 183,309.5C 193.451,328.06 201.951,347.394 208.5,367.5C 192.152,341.138 178.152,313.471 166.5,284.5 Z"/></g>
<g><path style="opacity:0.238" fill="#fefcfb" d="M 312.5,285.5 C 299.823,315.858 284.823,344.858 267.5,372.5C 273.472,353.77 281.306,335.77 291,318.5C 297.195,306.752 304.362,295.752 312.5,285.5 Z"/></g>
<g><path style="opacity:0.985" fill="#d63f31" d="M 265.5,376.5 C 254.074,410.294 247.408,444.961 245.5,480.5C 241.833,480.5 238.167,480.5 234.5,480.5C 233.828,479.733 232.995,479.066 232,478.5C 229.638,441.526 222.472,405.526 210.5,370.5C 219.482,384.992 229.148,399.658 239.5,414.5C 248.401,402.38 256.568,389.713 264,376.5C 264.69,375.262 265.19,375.262 265.5,376.5 Z"/></g>
</svg>
