<?xml version="1.0" encoding="UTF-8"?>
<!DOCTYPE svg PUBLIC "-//W3C//DTD SVG 1.1//EN" "http://www.w3.org/Graphics/SVG/1.1/DTD/svg11.dtd">
<svg xmlns="http://www.w3.org/2000/svg" version="1.1" width="346px" height="442px" style="shape-rendering:geometricPrecision; text-rendering:geometricPrecision; image-rendering:optimizeQuality; fill-rule:evenodd; clip-rule:evenodd" xmlns:xlink="http://www.w3.org/1999/xlink">
<g><path style="opacity:0.998" fill="#c1131c" d="M 176.5,6.5 C 176.263,7.79105 176.596,8.79105 177.5,9.5C 206.914,60.6639 236.581,111.664 266.5,162.5C 270.681,170.208 275.348,177.542 280.5,184.5C 288.505,197.679 295.838,211.179 302.5,225C 301.944,227.237 300.944,229.237 299.5,231C 283.5,231.333 267.5,231.667 251.5,232C 248.969,235.358 246.302,238.524 243.5,241.5C 243.777,238.11 244.777,234.943 246.5,232C 194.5,231.333 142.5,231.333 90.5,232C 91.6886,234.878 93.0219,237.712 94.5,240.5C 94.3764,241.107 94.0431,241.44 93.5,241.5C 90.9449,238.75 88.6116,235.75 86.5,232.5C 69.5098,231.667 52.5098,231.167 35.5,231C 32.2566,226.813 32.0899,222.313 35,217.5C 42.4297,205.638 49.5964,193.638 56.5,181.5C 61.0698,174.704 65.4031,167.704 69.5,160.5C 98.8333,110.5 128.167,60.5 157.5,10.5C 158.345,9.32855 159.011,7.99522 159.5,6.5C 162.442,0.35391 167.109,-1.14609 173.5,2C 174.386,3.61467 175.386,5.11467 176.5,6.5 Z"/></g>
<g><path style="opacity:0.984" fill="#d64032" d="M 159.5,6.5 C 159.011,7.99522 158.345,9.32855 157.5,10.5C 114.692,15.2005 85.5255,37.8672 70,78.5C 67.5464,85.3144 65.8797,92.3144 65,99.5C 63.404,120.208 64.904,140.542 69.5,160.5C 65.4031,167.704 61.0698,174.704 56.5,181.5C 33.0904,118.615 48.0904,67.1146 101.5,27C 118.949,14.9055 138.282,8.07218 159.5,6.5 Z"/></g>
<g><path style="opacity:1" fill="#e1796f" d="M 157.5,10.5 C 128.167,60.5 98.8333,110.5 69.5,160.5C 64.904,140.542 63.404,120.208 65,99.5C 65.8797,92.3144 67.5464,85.3144 70,78.5C 85.5255,37.8672 114.692,15.2005 157.5,10.5 Z"/></g>
<g><path style="opacity:1" fill="#e1796f" d="M 177.5,9.5 C 230.623,16.7891 262.123,46.7891 272,99.5C 273.429,120.017 272.096,140.35 268,160.5C 267.722,161.416 267.222,162.082 266.5,162.5C 236.581,111.664 206.914,60.6639 177.5,9.5 Z"/></g>
<g><path style="opacity:0.988" fill="#d64032" d="M 176.5,6.5 C 231.914,14.425 268.747,44.7583 287,97.5C 291.614,114.618 292.614,131.951 290,149.5C 287.919,161.491 284.753,173.158 280.5,184.5C 275.348,177.542 270.681,170.208 266.5,162.5C 267.222,162.082 267.722,161.416 268,160.5C 272.096,140.35 273.429,120.017 272,99.5C 262.123,46.7891 230.623,16.7891 177.5,9.5C 176.596,8.79105 176.263,7.79105 176.5,6.5 Z"/></g>
<g><path style="opacity:1" fill="#f5f8f2" d="M 249.5,198.5 C 222.335,199.167 195.002,199.5 167.5,199.5C 139.825,199.5 112.492,198.833 85.5,197.5C 112.736,150.696 140.236,104.03 168,57.5C 195.695,104.228 222.862,151.228 249.5,198.5 Z"/></g>
<g><path style="opacity:1" fill="#313436" d="M 168.5,105.5 C 176.149,105.314 179.315,108.981 178,116.5C 173.829,122.729 169.163,123.062 164,117.5C 162.309,112.131 163.809,108.131 168.5,105.5 Z"/></g>
<g><path style="opacity:1" fill="#2f3233" d="M 169.5,156.5 C 169.5,157.167 169.167,157.5 168.5,157.5C 166.031,156.431 163.698,155.098 161.5,153.5C 161.312,156.885 162.146,160.218 164,163.5C 163.946,173.489 163.779,183.489 163.5,193.5C 161.833,193.5 160.167,193.5 158.5,193.5C 158.436,185.091 157.603,176.757 156,168.5C 153.333,165.167 150.667,161.833 148,158.5C 140.967,170.037 134.134,181.703 127.5,193.5C 125.955,194.452 124.288,194.785 122.5,194.5C 127.695,177.25 133.695,160.25 140.5,143.5C 137.5,141.5 134.5,139.5 131.5,137.5C 135.133,131.734 139.133,126.234 143.5,121C 150.099,119.504 156.766,119.171 163.5,120C 165.286,120.785 166.786,121.951 168,123.5C 169.454,134.397 169.954,145.397 169.5,156.5 Z"/></g>
<g><path style="opacity:1" fill="#e6eae5" d="M 143.5,128.5 C 145.288,128.215 146.955,128.548 148.5,129.5C 146.403,133.372 144.069,137.039 141.5,140.5C 139.998,139.917 138.665,139.084 137.5,138C 140.146,135.198 142.146,132.032 143.5,128.5 Z"/></g>
<g><path style="opacity:1" fill="#e0e4df" d="M 160.5,142.5 C 161.765,143.514 162.431,145.014 162.5,147C 162.463,152.34 160.796,152.84 157.5,148.5C 158.559,146.466 159.559,144.466 160.5,142.5 Z"/></g>
<g><path style="opacity:1" fill="#2b2e30" d="M 233.5,193.5 C 210.661,193.831 187.994,193.497 165.5,192.5C 168.066,187.035 170.899,181.702 174,176.5C 175.826,174.926 177.993,174.093 180.5,174C 183.2,172.143 184.866,169.643 185.5,166.5C 187.862,161.957 190.862,157.79 194.5,154C 196.971,153.294 199.305,153.627 201.5,155C 212.378,167.707 223.045,180.54 233.5,193.5 Z"/></g>
<g><path style="opacity:1" fill="#505354" d="M 169.5,156.5 C 175.206,159.347 180.539,162.68 185.5,166.5C 179.578,163.894 173.911,160.894 168.5,157.5C 169.167,157.5 169.5,157.167 169.5,156.5 Z"/></g>
<g><path style="opacity:1" fill="#d0d4cf" d="M 165.5,192.5 C 187.994,193.497 210.661,193.831 233.5,193.5C 210.663,194.829 187.663,194.829 164.5,193.5C 164.624,192.893 164.957,192.56 165.5,192.5 Z"/></g>
<g><path style="opacity:1" fill="#ebcac7" d="M 85.5,197.5 C 112.492,198.833 139.825,199.5 167.5,199.5C 195.002,199.5 222.335,199.167 249.5,198.5C 250.043,198.56 250.376,198.893 250.5,199.5C 194.836,200.667 139.17,200.833 83.5,200C 84.0659,199.005 84.7326,198.172 85.5,197.5 Z"/></g>
<g><path style="opacity:1" fill="#e27a70" d="M 243.5,241.5 C 243.107,243.284 242.441,244.95 241.5,246.5C 233.362,256.752 226.195,267.752 220,279.5C 210.306,296.77 202.472,314.77 196.5,333.5C 196.34,335.153 195.674,336.486 194.5,337.5C 194.19,336.262 193.69,336.262 193,337.5C 185.568,350.713 177.401,363.38 168.5,375.5C 158.148,360.658 148.482,345.992 139.5,331.5C 138.094,331.027 137.427,330.027 137.5,328.5C 130.951,308.394 122.451,289.06 112,270.5C 106.973,261.759 101.473,253.425 95.5,245.5C 94.3263,244.486 93.6596,243.153 93.5,241.5C 94.0431,241.44 94.3764,241.107 94.5,240.5C 93.0219,237.712 91.6886,234.878 90.5,232C 142.5,231.333 194.5,231.333 246.5,232C 244.777,234.943 243.777,238.11 243.5,241.5 Z"/></g>
<g><path style="opacity:0.235" fill="#fefcfc" d="M 95.5,245.5 C 101.473,253.425 106.973,261.759 112,270.5C 122.451,289.06 130.951,308.394 137.5,328.5C 121.152,302.138 107.152,274.471 95.5,245.5 Z"/></g>
<g><path style="opacity:0.238" fill="#fefcfb" d="M 241.5,246.5 C 228.823,276.858 213.823,305.858 196.5,333.5C 202.472,314.77 210.306,296.77 220,279.5C 226.195,267.752 233.362,256.752 241.5,246.5 Z"/></g>
<g><path style="opacity:0.985" fill="#d63f31" d="M 194.5,337.5 C 183.074,371.294 176.408,405.961 174.5,441.5C 170.833,441.5 167.167,441.5 163.5,441.5C 162.828,440.733 161.995,440.066 161,439.5C 158.638,402.526 151.472,366.526 139.5,331.5C 148.482,345.992 158.148,360.658 168.5,375.5C 177.401,363.38 185.568,350.713 193,337.5C 193.69,336.262 194.19,336.262 194.5,337.5 Z"/></g>
</svg>
