<svg xmlns="http://www.w3.org/2000/svg" xmlns:xlink="http://www.w3.org/1999/xlink" width="35" height="45" viewBox="0 0 35 44"><defs><clipPath id="g"><path d="M0 0h35v44H0z"/></clipPath><clipPath id="c"><path d="M0 0h35v44H0z"/></clipPath><clipPath id="d"><path d="M0 0h35v44H0z"/></clipPath><clipPath id="b"><path d="M0 0h35v44H0z"/></clipPath><clipPath id="e"><path d="M0 0h35v44H0z"/></clipPath><clipPath id="f"><path d="M0 0h35v44H0z"/></clipPath><mask id="i"><g filter="url(#a)"><path style="fill:#000;fill-opacity:.996078;stroke:none" d="M0 0h35v44H0z"/></g></mask><mask id="o"><g filter="url(#a)"><path style="fill:#000;fill-opacity:.235294;stroke:none" d="M0 0h35v44H0z"/></g></mask><mask id="m"><g filter="url(#a)"><path style="fill:#000;fill-opacity:.988235;stroke:none" d="M0 0h35v44H0z"/></g></mask><mask id="q"><g filter="url(#a)"><path style="fill:#000;fill-opacity:.239216;stroke:none" d="M0 0h35v44H0z"/></g></mask><mask id="k"><g filter="url(#a)"><path style="fill:#000;fill-opacity:.984314;stroke:none" d="M0 0h35v44H0z"/></g></mask><mask id="s"><g filter="url(#a)"><path style="fill:#000;fill-opacity:.984314;stroke:none" d="M0 0h35v44H0z"/></g></mask><g id="l" clip-path="url(#d)"><path style="stroke:none;fill-rule:evenodd;fill:#d64032;fill-opacity:1" d="M17.855.648c5.606.79 9.329 3.809 11.176 9.059.469 1.703.57 3.43.305 5.176a19.185 19.185 0 0 1-.961 3.484 18.274 18.274 0 0 1-1.418-2.191.31.31 0 0 0 .152-.2c.414-2.003.551-4.027.407-6.07-1-5.25-4.188-8.234-9.559-8.96-.094-.071-.129-.169-.102-.298zm0 0"/></g><g id="j" clip-path="url(#c)"><path style="stroke:none;fill-rule:evenodd;fill:#d64032;fill-opacity:1" d="M16.133.648a1.464 1.464 0 0 1-.2.399c-4.331.465-7.28 2.723-8.851 6.77a9.383 9.383 0 0 0-.508 2.09 19.762 19.762 0 0 0 .457 6.07 32.513 32.513 0 0 1-1.316 2.09c-2.367-6.258-.852-11.387 4.55-15.38A11.761 11.761 0 0 1 16.134.648zm0 0"/></g><g id="r" clip-path="url(#g)"><path style="stroke:none;fill-rule:evenodd;fill:#d63f31;fill-opacity:1" d="M19.676 33.598a38.028 38.028 0 0 0-2.024 10.351H16.54a1.026 1.026 0 0 0-.254-.199A40.482 40.482 0 0 0 14.11 33a98.49 98.49 0 0 0 2.934 4.379 37.061 37.061 0 0 0 2.48-3.781c.07-.125.122-.125.153 0zm0 0"/></g><g id="p" clip-path="url(#f)"><path style="stroke:none;fill-rule:evenodd;fill:#fefcfb;fill-opacity:1" d="M24.43 24.54a59.145 59.145 0 0 1-4.551 8.66 28.497 28.497 0 0 1 2.375-5.376 21.003 21.003 0 0 1 2.176-3.285zm0 0"/></g><g id="h" clip-path="url(#b)"><path style="stroke:none;fill-rule:evenodd;fill:#c1131c;fill-opacity:1" d="M17.855.648c-.027.13.008.227.102.297a1605.81 1605.81 0 0 0 9 15.23c.426.77.895 1.5 1.418 2.192a48.291 48.291 0 0 1 2.227 4.031c-.059.223-.16.422-.305.598-1.617.031-3.238.067-4.856.098-.257.336-.527.652-.808.945.027-.336.129-.652.3-.945a624.78 624.78 0 0 0-15.777 0c.117.289.254.57.403.847-.012.059-.047.094-.102.098a6.658 6.658 0 0 1-.707-.894 133.611 133.611 0 0 0-5.16-.149c-.328-.418-.344-.867-.05-1.344a93.148 93.148 0 0 0 2.175-3.586c.46-.675.902-1.37 1.316-2.09C9.996 11 12.965 6.024 15.934 1.047c.082-.116.152-.25.199-.398.3-.613.77-.761 1.418-.449.09.16.191.309.304.45zm0 0"/></g><g id="n" clip-path="url(#e)"><path style="stroke:none;fill-rule:evenodd;fill:#fefcfc;fill-opacity:1" d="M9.66 24.438c.606.789 1.16 1.62 1.668 2.488a31.565 31.565 0 0 1 2.582 5.777 53.082 53.082 0 0 1-4.25-8.266zm0 0"/></g><filter id="a" filterUnits="objectBoundingBox" x="0%" y="0%" width="100%" height="100%"><feColorMatrix in="SourceGraphic" values="0 0 0 0 1 0 0 0 0 1 0 0 0 0 1 0 0 0 1 0"/></filter></defs><use xlink:href="#h" mask="url(#i)"/><use xlink:href="#j" mask="url(#k)"/><path style="stroke:none;fill-rule:evenodd;fill:#e1796f;fill-opacity:1" d="M15.934 1.047C12.964 6.023 9.996 11 7.03 15.977a19.762 19.762 0 0 1-.457-6.07c.09-.716.258-1.415.508-2.09 1.57-4.047 4.52-6.305 8.852-6.77zM17.957.945c5.371.727 8.559 3.711 9.559 8.961a22.139 22.139 0 0 1-.407 6.07.31.31 0 0 1-.152.2 1605.81 1605.81 0 0 1-9-15.23zm0 0"/><use xlink:href="#l" mask="url(#m)"/><path style="stroke:none;fill-rule:evenodd;fill:#f5f8f2;fill-opacity:1" d="M25.238 19.762c-2.746.066-5.511.097-8.293.097-2.8 0-5.566-.066-8.297-.199 2.754-4.66 5.54-9.305 8.348-13.937 2.8 4.652 5.547 9.332 8.242 14.039zm0 0"/><path style="stroke:none;fill-rule:evenodd;fill:#313436;fill-opacity:1" d="M17.043 10.504c.777-.02 1.098.344.96 1.094-.421.62-.89.652-1.413.097-.172-.53-.02-.93.453-1.191zm0 0"/><path style="stroke:none;fill-rule:evenodd;fill:#2f3233;fill-opacity:1" d="M17.145 15.578c0 .067-.032.102-.102.102a3.723 3.723 0 0 1-.707-.399c-.02.336.066.668.254.996-.004.993-.024 1.989-.05 2.985h-.505a13.68 13.68 0 0 0-.254-2.489l-.808-.996a112.07 112.07 0 0 0-2.075 3.485.744.744 0 0 1-.507.101 57.806 57.806 0 0 1 1.82-5.078c-.3-.2-.606-.398-.91-.598.367-.574.773-1.12 1.215-1.64a5.874 5.874 0 0 1 2.023-.102c.18.078.332.196.457.348.145 1.086.195 2.18.149 3.285zm0 0"/><path style="stroke:none;fill-rule:evenodd;fill:#e6eae5;fill-opacity:1" d="M14.516 12.793a.725.725 0 0 1 .507.098c-.214.386-.449.75-.71 1.097a1.292 1.292 0 0 1-.403-.25c.266-.281.469-.593.606-.945zm0 0"/><path style="stroke:none;fill-rule:evenodd;fill:#e0e4df;fill-opacity:1" d="M16.234 14.184c.13.101.196.254.203.449-.003.531-.171.582-.503.148.105-.199.207-.398.3-.597zm0 0"/><path style="stroke:none;fill-rule:evenodd;fill:#2b2e30;fill-opacity:1" d="M23.621 19.262c-2.312.035-4.605 0-6.879-.098.258-.547.547-1.074.86-1.594.183-.156.402-.238.656-.25a1.16 1.16 0 0 0 .508-.746c.238-.453.543-.867.91-1.242.25-.07.484-.039.707.098a174.995 174.995 0 0 1 3.238 3.832zm0 0"/><path style="stroke:none;fill-rule:evenodd;fill:#505354;fill-opacity:1" d="M17.145 15.578c.578.285 1.117.617 1.62.996a13.56 13.56 0 0 1-1.722-.894c.07 0 .102-.035.102-.102zm0 0"/><path style="stroke:none;fill-rule:evenodd;fill:#d0d4cf;fill-opacity:1" d="M16.742 19.164c2.274.098 4.567.133 6.88.098a61.197 61.197 0 0 1-6.981 0c.011-.059.047-.094.101-.098zm0 0"/><path style="stroke:none;fill-rule:evenodd;fill:#ebcac7;fill-opacity:1" d="M8.648 19.66c2.73.133 5.497.2 8.297.2 2.782 0 5.547-.032 8.293-.098.055.004.09.039.102.097-5.633.118-11.262.133-16.895.051a.932.932 0 0 1 .203-.25zm0 0"/><path style="stroke:none;fill-rule:evenodd;fill:#e27a70;fill-opacity:1" d="M24.633 24.04c-.043.179-.11.343-.203.5a21.003 21.003 0 0 0-2.176 3.284 28.497 28.497 0 0 0-2.375 5.375.6.6 0 0 1-.203.399c-.031-.125-.082-.125-.153 0a37.061 37.061 0 0 1-2.48 3.78A98.49 98.49 0 0 1 14.109 33c-.14-.047-.207-.148-.199-.297a31.565 31.565 0 0 0-2.582-5.777 24.026 24.026 0 0 0-1.668-2.488.567.567 0 0 1-.203-.399c.055-.004.09-.039.102-.098a8.83 8.83 0 0 1-.403-.847 624.78 624.78 0 0 1 15.778 0c-.172.293-.274.61-.301.945zm0 0"/><use xlink:href="#n" mask="url(#o)"/><use xlink:href="#p" mask="url(#q)"/><use xlink:href="#r" mask="url(#s)"/></svg>