<svg xmlns="http://www.w3.org/2000/svg" xmlns:xlink="http://www.w3.org/1999/xlink" width="35" height="45" viewBox="0 0 35 44"><defs><clipPath id="h"><path d="M0 0h35v44H0z"/></clipPath><clipPath id="n"><path d="M0 0h35v44H0z"/></clipPath><clipPath id="m"><path d="M0 0h35v44H0z"/></clipPath><clipPath id="c"><path d="M0 0h35v44H0z"/></clipPath><clipPath id="l"><path d="M0 0h35v44H0z"/></clipPath><clipPath id="d"><path d="M0 0h35v44H0z"/></clipPath><clipPath id="k"><path d="M0 0h35v44H0z"/></clipPath><clipPath id="e"><path d="M0 0h35v44H0z"/></clipPath><clipPath id="j"><path d="M0 0h35v44H0z"/></clipPath><clipPath id="f"><path d="M0 0h35v44H0z"/></clipPath><clipPath id="i"><path d="M0 0h35v44H0z"/></clipPath><clipPath id="g"><path d="M0 0h35v44H0z"/></clipPath><clipPath id="b"><path d="M0 0h35v44H0z"/></clipPath><mask id="v"><g filter="url(#a)"><path style="fill:#000;fill-opacity:.811765;stroke:none" d="M0 0h35v44H0z"/></g></mask><mask id="B"><g filter="url(#a)"><path style="fill:#000;fill-opacity:.827451;stroke:none" d="M0 0h35v44H0z"/></g></mask><mask id="z"><g filter="url(#a)"><path style="fill:#000;fill-opacity:.988235;stroke:none" d="M0 0h35v44H0z"/></g></mask><mask id="F"><g filter="url(#a)"><path style="fill:#000;fill-opacity:.807843;stroke:none" d="M0 0h35v44H0z"/></g></mask><mask id="x"><g filter="url(#a)"><path style="fill:#000;fill-opacity:.996078;stroke:none" d="M0 0h35v44H0z"/></g></mask><mask id="H"><g filter="url(#a)"><path style="fill:#000;fill-opacity:.223529;stroke:none" d="M0 0h35v44H0z"/></g></mask><mask id="D"><g filter="url(#a)"><path style="fill:#000;fill-opacity:.996078;stroke:none" d="M0 0h35v44H0z"/></g></mask><mask id="J"><g filter="url(#a)"><path style="fill:#000;fill-opacity:.784314;stroke:none" d="M0 0h35v44H0z"/></g></mask><mask id="t"><g filter="url(#a)"><path style="fill:#000;fill-opacity:.976471;stroke:none" d="M0 0h35v44H0z"/></g></mask><mask id="L"><g filter="url(#a)"><path style="fill:#000;fill-opacity:.211765;stroke:none" d="M0 0h35v44H0z"/></g></mask><mask id="r"><g filter="url(#a)"><path style="fill:#000;fill-opacity:.8;stroke:none" d="M0 0h35v44H0z"/></g></mask><mask id="N"><g filter="url(#a)"><path style="fill:#000;fill-opacity:.984314;stroke:none" d="M0 0h35v44H0z"/></g></mask><mask id="p"><g filter="url(#a)"><path style="fill:#000;fill-opacity:.964706;stroke:none" d="M0 0h35v44H0z"/></g></mask><g id="M" clip-path="url(#n)"><path style="stroke:none;fill-rule:evenodd;fill:#d63f31;fill-opacity:1" d="M19.676 33.598a38.028 38.028 0 0 0-2.024 10.351H16.54a1.026 1.026 0 0 0-.254-.199A40.482 40.482 0 0 0 14.11 33a98.49 98.49 0 0 0 2.934 4.379 37.061 37.061 0 0 0 2.48-3.781c.07-.125.122-.125.153 0zm0 0"/></g><g id="E" clip-path="url(#j)"><path style="stroke:none;fill-rule:evenodd;fill:#000;fill-opacity:1" d="M5.715 17.969c.023.156.09.289.203.398a19.99 19.99 0 0 0 3.187 5.078c.22.325.403.657.555.992v.102a141.62 141.62 0 0 0-1.668 7.465c-.316 1.242-1.074 1.625-2.277 1.144a1.588 1.588 0 0 1-.504-.945 576.216 576.216 0 0 1 1.668-6.172.921.921 0 0 0 0-.597c-1.215-1.528-2.43-3.051-3.64-4.579a5.936 5.936 0 0 1-.66-1.293c.16-.347.343-.68.558-.996.465-.402.918-.82 1.363-1.246.41.184.816.399 1.215.649zm0 0"/></g><g id="y" clip-path="url(#g)"><path style="stroke:none;fill-rule:evenodd;fill:#d23d30;fill-opacity:1" d="M29.082 10.105c.602 2.34.5 4.66-.305 6.97 0 .066-.03.097-.097.097a50.82 50.82 0 0 1-1.723-.297c.07-.543.172-1.07.305-1.594a8.201 8.201 0 0 1 1.82-.199v-4.977zm0 0"/></g><g id="u" clip-path="url(#e)"><path style="stroke:none;fill-rule:evenodd;fill:#000;fill-opacity:1" d="M5.008 9.906v.098a10.492 10.492 0 0 0-.203 3.785c-.032.316.004.617.101.895.004.468.04.93.102 1.394-.117.613-.504.914-1.164.895-.469 0-.856-.168-1.164-.496a65.873 65.873 0 0 1-.051-6.274c.144-.094.297-.18.457-.25.64-.047 1.281-.066 1.922-.047zm0 0"/></g><g id="G" clip-path="url(#k)"><path style="stroke:none;fill-rule:evenodd;fill:#fdfbfb;fill-opacity:1" d="M9.66 24.438c.656.894 1.262 1.82 1.82 2.789v.097a.848.848 0 0 1-.402.399L9.66 24.539v-.102zm0 0"/></g><g id="o" clip-path="url(#b)"><path style="stroke:none;fill-rule:evenodd;fill:#d64234;fill-opacity:1" d="M21.293 1.445V1.743C17.113.194 13.305.808 9.863 3.581 8.02 5.305 6.938 7.414 6.625 9.906a7.205 7.205 0 0 1-1.617.098v-.098C6.293 5.805 8.957 2.934 13 1.293c2.781-.898 5.547-.848 8.293.152zm0 0"/></g><g id="A" clip-path="url(#h)"><path style="stroke:none;fill-rule:evenodd;fill:#000;fill-opacity:1" d="M28.777 17.074c.203.031.407.067.61.098.086 1.21.273 2.402.554 3.582a70.05 70.05 0 0 1 1.82 4.98c.079.567.177 1.133.305 1.692a8.996 8.996 0 0 1 0 1.89 2.665 2.665 0 0 0-.605-.597c-.402.355-.86.59-1.367.699a8.986 8.986 0 0 1-1.719-.55 1.727 1.727 0 0 0-1.012.1c.453 1.348.742 2.723.86 4.13-.813.789-1.621.789-2.43 0-.355-1.395-.711-2.79-1.059-4.18-.609.473-1.28.605-2.023.398a.429.429 0 0 0-.152.2 39.279 39.279 0 0 1-.204 3.78c-.308.34-.695.474-1.164.4-.527.105-.933-.063-1.214-.497v-.695a43.373 43.373 0 0 1 6.73-11.25 19.194 19.194 0 0 0 1.973-4.082c.066 0 .097-.031.097-.098zm0 0"/></g><g id="I" clip-path="url(#l)"><path style="stroke:none;fill-rule:evenodd;fill:#010101;fill-opacity:1" d="M11.48 27.324c.473.727.891 1.488 1.266 2.293.05.16.066.328.05.496-.066.192-.1.39-.1.598a9.969 9.969 0 0 0-.86 1.691c-.871.832-1.68.766-2.43-.199a1.34 1.34 0 0 1 0-1.195 37.606 37.606 0 0 0 1.672-3.285.848.848 0 0 0 .402-.399zm0 0"/></g><g id="s" clip-path="url(#d)"><path style="stroke:none;fill-rule:evenodd;fill:#d64234;fill-opacity:1" d="M23.82 3.234c.176.016.344.047.508.102l.606.2a18.318 18.318 0 0 1 1.62 1.589v.2a4.31 4.31 0 0 1-.1 1.296 9.288 9.288 0 0 0-2.634-3.387zm0 0"/></g><g id="w" clip-path="url(#f)"><path style="stroke:none;fill-rule:evenodd;fill:#d33e30;fill-opacity:1" d="M5.512 12.195c.34.012.68.043 1.011.098.024.703.09 1.398.204 2.09-.47.73-.977 1.426-1.516 2.094a1.473 1.473 0 0 0-.203-.399 11.108 11.108 0 0 1-.102-1.394v-2.489h.606zm0 0"/></g><g id="K" clip-path="url(#m)"><path style="stroke:none;fill-rule:evenodd;fill:#fdf9f9;fill-opacity:1" d="M12.797 30.113h.101c.434.82.77 1.684 1.012 2.59-.441-.637-.848-1.3-1.215-1.992 0-.207.035-.406.102-.598zm0 0"/></g><g id="C" clip-path="url(#i)"><path style="stroke:none;fill-rule:evenodd;fill:#cd3c2f;fill-opacity:1" d="M5.313 16.973c.828.457 1.601.988 2.324 1.593.086.368.187.735.304 1.094-.675-.43-1.347-.863-2.023-1.293a.677.677 0 0 1-.203-.398 9.152 9.152 0 0 1-.402-.996zm0 0"/></g><g id="q" clip-path="url(#c)"><path style="stroke:none;fill-rule:evenodd;fill:#000;fill-opacity:1" d="M29.082 9.805a13.5 13.5 0 0 0-2.527-4.48v-.2c.058-.426.09-.86.101-1.293a31.715 31.715 0 0 0-1.722-.297l-.606-.2a11.482 11.482 0 0 0-3.035-1.792v-.098a1.09 1.09 0 0 1 .406-.55 5.79 5.79 0 0 1 1.516 0c1.445.257 2.894.492 4.351.699.918.008 1.407.457 1.465 1.343.051 2.29.067 4.579.051 6.868zm0 0"/></g><filter id="a" filterUnits="objectBoundingBox" x="0%" y="0%" width="100%" height="100%"><feColorMatrix in="SourceGraphic" values="0 0 0 0 1 0 0 0 0 1 0 0 0 0 1 0 0 0 1 0"/></filter></defs><use xlink:href="#o" mask="url(#p)"/><use xlink:href="#q" mask="url(#r)"/><path style="stroke:none;fill-rule:evenodd;fill:#df786f;fill-opacity:1" d="M21.293 1.742c-.07.43.062.778.406 1.047.703.168 1.414.32 2.121.445a9.288 9.288 0 0 1 2.633 3.387c.031.402 0 .8-.101 1.195-1.618.895-3.239 1.79-4.856 2.688a.619.619 0 0 0-.152.297c-.051.969-.153 1.93-.305 2.886a14.842 14.842 0 0 0-1.973-2.14c-.882-.195-1.457.121-1.718.945.07.371.222.7.457.996l2.425 3.188c.29.316.61.597.961.844.446.125.836.043 1.164-.247.094-.933.211-1.863.356-2.789.27.297.539.598.809.895.253.035.503.066.757.101a27.216 27.216 0 0 1 2.985-.199c-.133.524-.235 1.051-.305 1.594a56.695 56.695 0 0 1-3.539-.5 5.714 5.714 0 0 1-1.063 1.992 23.926 23.926 0 0 0-3.539 3.883 17.49 17.49 0 0 0-2.43 6.969c.192-.274.446-.438.759-.5.496.16.968.36 1.418.597.496-.078.968-.21 1.414-.398v4.281c-.098.133-.2.266-.301.399-.031-.125-.082-.125-.153 0a37.061 37.061 0 0 1-2.48 3.78A98.49 98.49 0 0 1 14.109 33c-.14-.047-.207-.148-.199-.297a12.336 12.336 0 0 0-1.012-2.59 30.922 30.922 0 0 1 2.274-4.777.619.619 0 0 0 0-.5l-.656-.645a475.608 475.608 0 0 1-6.575-4.53 13.35 13.35 0 0 1-.304-1.095c.824.52 1.633 1.07 2.43 1.641.101.066.199.066.3 0 .801-1.227 1.61-2.437 2.43-3.633.066 1.028.133 2.059.203 3.086.242.328.578.512 1.012.547 1.246.176 2.492.34 3.742.5.914.258 1.422-.074 1.516-.996a1.118 1.118 0 0 0-.403-.895 60.064 60.064 0 0 0-3.441-.55c-.067-1.668-.133-3.328-.203-4.977-1.649-1.11-3.301-2.223-4.957-3.336a66.51 66.51 0 0 0-3.641-.047c.313-2.492 1.395-4.601 3.238-6.324 3.442-2.773 7.25-3.387 11.43-1.84zm0 0"/><path style="stroke:none;fill-rule:evenodd;fill:#231210;fill-opacity:1" d="M21.293 1.543a11.482 11.482 0 0 1 3.035 1.793 2.21 2.21 0 0 0-.508-.102 36.545 36.545 0 0 1-2.12-.445c-.345-.27-.477-.617-.407-1.047v-.199zm0 0"/><use xlink:href="#s" mask="url(#t)"/><path style="stroke:none;fill-rule:evenodd;fill:#201110;fill-opacity:1" d="M21.496 4.23c1.942-.027 2.871.903 2.781 2.79-.449 1.37-1.41 1.988-2.882 1.84-1.696-.755-2.149-1.965-1.368-3.633a2.47 2.47 0 0 1 1.47-.997zM14.719 4.43c.914-.028 1.672.304 2.277.996.34.437.645.902.91 1.394.067.2.067.399 0 .598a1.591 1.591 0 0 0-.304.894c.738.543 1.43 1.141 2.074 1.793a8.983 8.983 0 0 1-2.68-.398c-.742 1.418-1.906 1.965-3.492 1.64-1.262-.675-1.785-1.718-1.566-3.136.167-.254.269-.52.3-.793a7.606 7.606 0 0 1-1.668-1.992l.305-.102c.645.164 1.285.348 1.922.551a.945.945 0 0 0 .605 0A5.473 5.473 0 0 1 14.72 4.43zm0 0"/><path style="stroke:none;fill-rule:evenodd;fill:#20100e;fill-opacity:1" d="M26.555 5.324a13.5 13.5 0 0 1 2.527 4.48V15.083c-.629 0-1.234.066-1.82.2-1 .011-1.992.077-2.985.198-.254-.035-.504-.066-.757-.101l-.81-.895a51.313 51.313 0 0 0-.355 2.79c-.328.288-.718.37-1.164.246a5.812 5.812 0 0 1-.96-.844l-2.426-3.188a2.257 2.257 0 0 1-.457-.996c.261-.824.836-1.14 1.718-.945a14.842 14.842 0 0 1 1.973 2.14c.152-.957.254-1.917.305-2.886a.619.619 0 0 1 .152-.297c1.617-.899 3.238-1.793 4.856-2.688.101-.394.132-.793.101-1.195a4.31 4.31 0 0 0 .102-1.297zm0 0"/><use xlink:href="#u" mask="url(#v)"/><path style="stroke:none;fill-rule:evenodd;fill:#1f100f;fill-opacity:1" d="M6.625 9.906c1.215-.02 2.43 0 3.64.047 1.657 1.113 3.31 2.227 4.958 3.336a30.853 30.853 0 0 0 .203 4.977c1.152.152 2.3.332 3.441.55.27.235.406.532.403.895-.094.922-.602 1.254-1.516.996-1.25-.16-2.496-.324-3.742-.5-.434-.035-.77-.219-1.012-.547.016-1.129 0-2.258-.05-3.383a.33.33 0 0 0-.153.297 189.448 189.448 0 0 0-2.43 3.633.252.252 0 0 1-.3 0 49.936 49.936 0 0 0-2.43-1.64 14.575 14.575 0 0 0-2.324-1.594c-.352-.106-.387-.274-.102-.496a23.809 23.809 0 0 0 1.516-2.094c.464-.625.937-1.254 1.418-1.89a8.717 8.717 0 0 0-1.622-.2 7.92 7.92 0 0 0-1.011-.098 1.328 1.328 0 0 0-.707-.101v1.695a10.492 10.492 0 0 1 .203-3.785 7.205 7.205 0 0 0 1.617-.098zm0 0"/><use xlink:href="#w" mask="url(#x)"/><path style="stroke:none;fill-rule:evenodd;fill:#da756c;fill-opacity:1" d="M6.523 12.293a8.717 8.717 0 0 1 1.622.2c-.48.636-.954 1.265-1.418 1.89a16.245 16.245 0 0 1-.204-2.09zm0 0"/><path style="stroke:none;fill-rule:evenodd;fill:#491410;fill-opacity:1" d="M5.512 12.195h-.606v2.489a2.063 2.063 0 0 1-.101-.895v-1.695c.258-.028.496.004.707.101zm0 0"/><path style="stroke:none;fill-rule:evenodd;fill:#9a534c;fill-opacity:1" d="M15.223 13.29c.07 1.648.136 3.308.203 4.976-.2-1.621-.27-3.282-.203-4.977zm0 0"/><use xlink:href="#y" mask="url(#z)"/><path style="stroke:none;fill-rule:evenodd;fill:#1f100e;fill-opacity:1" d="M26.957 16.875a50.82 50.82 0 0 0 1.723.297 19.194 19.194 0 0 1-1.973 4.082 43.373 43.373 0 0 0-6.73 11.25v-3.586c-.446.187-.918.32-1.415.398a8.767 8.767 0 0 0-1.417-.597 1.177 1.177 0 0 0-.758.5 17.49 17.49 0 0 1 2.43-6.969 23.926 23.926 0 0 1 3.538-3.883 5.714 5.714 0 0 0 1.063-1.992c1.172.203 2.355.371 3.539.5zm0 0"/><use xlink:href="#A" mask="url(#B)"/><use xlink:href="#C" mask="url(#D)"/><use xlink:href="#E" mask="url(#F)"/><path style="stroke:none;fill-rule:evenodd;fill:#97514a;fill-opacity:1" d="M13 19.66c-.07-1.027-.137-2.058-.203-3.086a.33.33 0 0 1 .152-.297c.051 1.125.067 2.254.051 3.383zm0 0"/><path style="stroke:none;fill-rule:evenodd;fill:#1f100f;fill-opacity:1" d="M5.918 18.367c.676.43 1.348.863 2.023 1.293a475.608 475.608 0 0 0 6.575 4.531l.656.645c.07.168.07.332 0 .5a30.922 30.922 0 0 0-2.274 4.777h-.101c.015-.168 0-.336-.05-.496a18.574 18.574 0 0 0-1.267-2.293v-.097c.32-.426.59-.891.81-1.395-.794-.5-1.602-.98-2.427-1.441-.093-.07-.164-.055-.203.047a6.774 6.774 0 0 0-.555-.993 19.99 19.99 0 0 1-3.187-5.078zm0 0"/><use xlink:href="#G" mask="url(#H)"/><path style="stroke:none;fill-rule:evenodd;fill:#dc786f;fill-opacity:1" d="M9.66 24.438c.04-.102.11-.118.203-.047.825.46 1.633.941 2.426 1.441a6.841 6.841 0 0 1-.809 1.395 30.245 30.245 0 0 0-1.82-2.79zm0 0"/><use xlink:href="#I" mask="url(#J)"/><use xlink:href="#K" mask="url(#L)"/><use xlink:href="#M" mask="url(#N)"/></svg>