<?xml version="1.0" encoding="UTF-8"?>
<!DOCTYPE svg PUBLIC "-//W3C//DTD SVG 1.1//EN" "http://www.w3.org/Graphics/SVG/1.1/DTD/svg11.dtd">
<svg xmlns="http://www.w3.org/2000/svg" version="1.1" width="346px" height="442px" style="shape-rendering:geometricPrecision; text-rendering:geometricPrecision; image-rendering:optimizeQuality; fill-rule:evenodd; clip-rule:evenodd" xmlns:xlink="http://www.w3.org/1999/xlink">
<g><path style="opacity:0.966" fill="#d64234" d="M 210.5,14.5 C 210.5,14.8333 210.5,15.1667 210.5,15.5C 210.5,16.1667 210.5,16.8333 210.5,17.5C 169.174,1.94946 131.508,8.11613 97.5,36C 79.2663,53.3003 68.5997,74.467 65.5,99.5C 60.2599,100.449 54.9265,100.782 49.5,100.5C 49.5,100.167 49.5,99.8333 49.5,99.5C 62.1964,58.3159 88.5298,29.4825 128.5,13C 156.025,3.97471 183.359,4.47471 210.5,14.5 Z"/></g>
<g><path style="opacity:0.801" fill="#000000" d="M 287.5,98.5 C 282.013,81.8544 273.68,66.8544 262.5,53.5C 262.5,52.8333 262.5,52.1667 262.5,51.5C 263.08,47.19 263.414,42.8566 263.5,38.5C 257.861,37.3403 252.195,36.3403 246.5,35.5C 244.5,34.8333 242.5,34.1667 240.5,33.5C 231.531,26.0056 221.531,20.0056 210.5,15.5C 210.5,15.1667 210.5,14.8333 210.5,14.5C 211.228,12.2654 212.561,10.4321 214.5,9C 219.5,8.33333 224.5,8.33333 229.5,9C 243.79,11.5912 258.123,13.9245 272.5,16C 281.599,16.103 286.432,20.603 287,29.5C 287.5,52.4976 287.667,75.4976 287.5,98.5 Z"/></g>
<g><path style="opacity:1" fill="#df786f" d="M 210.5,17.5 C 209.796,21.8027 211.13,25.3027 214.5,28C 221.472,29.7167 228.472,31.2167 235.5,32.5C 246.812,41.8117 255.479,53.145 261.5,66.5C 261.824,70.5546 261.491,74.5546 260.5,78.5C 244.5,87.5 228.5,96.5 212.5,105.5C 211.749,106.376 211.249,107.376 211,108.5C 210.495,118.231 209.495,127.898 208,137.5C 202.182,129.684 195.682,122.517 188.5,116C 179.756,114.032 174.089,117.198 171.5,125.5C 172.183,129.199 173.683,132.532 176,135.5C 184,146.167 192,156.833 200,167.5C 202.869,170.704 206.035,173.537 209.5,176C 213.909,177.262 217.743,176.428 221,173.5C 221.919,164.127 223.085,154.794 224.5,145.5C 227.167,148.5 229.833,151.5 232.5,154.5C 235,154.833 237.5,155.167 240,155.5C 249.799,154.296 259.632,153.629 269.5,153.5C 268.19,158.746 267.19,164.079 266.5,169.5C 254.772,168.221 243.105,166.554 231.5,164.5C 229.335,171.828 225.835,178.494 221,184.5C 207.851,196.307 196.185,209.307 186,223.5C 173.083,245.177 165.083,268.51 162,293.5C 163.878,290.77 166.378,289.103 169.5,288.5C 174.398,290.092 179.065,292.092 183.5,294.5C 188.409,293.694 193.076,292.361 197.5,290.5C 197.5,302.5 197.5,314.5 197.5,326.5C 197.5,328.833 197.5,331.167 197.5,333.5C 196.5,334.833 195.5,336.167 194.5,337.5C 194.19,336.262 193.69,336.262 193,337.5C 185.568,350.713 177.401,363.38 168.5,375.5C 158.148,360.658 148.482,345.992 139.5,331.5C 138.094,331.027 137.427,330.027 137.5,328.5C 135.135,319.395 131.801,310.729 127.5,302.5C 133.649,285.868 141.149,269.868 150,254.5C 150.667,252.833 150.667,251.167 150,249.5C 147.833,247.333 145.667,245.167 143.5,243C 121.654,227.97 99.9871,212.804 78.5,197.5C 77.3443,193.877 76.3443,190.211 75.5,186.5C 83.645,191.743 91.645,197.243 99.5,203C 100.5,203.667 101.5,203.667 102.5,203C 110.399,190.683 118.399,178.516 126.5,166.5C 127.167,176.833 127.833,187.167 128.5,197.5C 130.901,200.794 134.234,202.627 138.5,203C 150.82,204.748 163.153,206.415 175.5,208C 184.55,210.605 189.55,207.271 190.5,198C 190.513,194.363 189.18,191.363 186.5,189C 175.229,186.84 163.895,185.006 152.5,183.5C 151.847,166.735 151.18,150.069 150.5,133.5C 134.195,122.343 117.862,111.177 101.5,100C 89.5046,99.5001 77.5046,99.3335 65.5,99.5C 68.5997,74.467 79.2663,53.3003 97.5,36C 131.508,8.11613 169.174,1.94946 210.5,17.5 Z"/></g>
<g><path style="opacity:1" fill="#231210" d="M 210.5,15.5 C 221.531,20.0056 231.531,26.0056 240.5,33.5C 238.883,32.962 237.216,32.6287 235.5,32.5C 228.472,31.2167 221.472,29.7167 214.5,28C 211.13,25.3027 209.796,21.8027 210.5,17.5C 210.5,16.8333 210.5,16.1667 210.5,15.5 Z"/></g>
<g><path style="opacity:0.975" fill="#d64234" d="M 235.5,32.5 C 237.216,32.6287 238.883,32.962 240.5,33.5C 242.5,34.1667 244.5,34.8333 246.5,35.5C 252.167,40.5 257.5,45.8333 262.5,51.5C 262.5,52.1667 262.5,52.8333 262.5,53.5C 262.818,58.0323 262.485,62.3656 261.5,66.5C 255.479,53.145 246.812,41.8117 235.5,32.5 Z"/></g>
<g><path style="opacity:1" fill="#201110" d="M 212.5,42.5 C 231.715,42.2132 240.882,51.5465 240,70.5C 235.575,84.3052 226.075,90.4719 211.5,89C 194.75,81.4195 190.25,69.2528 198,52.5C 201.689,47.2804 206.522,43.9471 212.5,42.5 Z"/></g>
<g><path style="opacity:1" fill="#201110" d="M 145.5,44.5 C 154.529,44.2376 162.029,47.5709 168,54.5C 171.394,58.8981 174.394,63.5648 177,68.5C 177.667,70.5 177.667,72.5 177,74.5C 175.086,77.2975 174.086,80.2975 174,83.5C 181.303,88.9704 188.137,94.9704 194.5,101.5C 185.568,101.552 176.734,100.219 168,97.5C 160.68,111.743 149.18,117.243 133.5,114C 121.027,107.22 115.861,96.7203 118,82.5C 119.665,79.9217 120.665,77.2551 121,74.5C 114.306,68.7541 108.806,62.0874 104.5,54.5C 105.5,54.1667 106.5,53.8333 107.5,53.5C 113.897,55.1454 120.231,56.9787 126.5,59C 128.5,59.6667 130.5,59.6667 132.5,59C 135.987,53.3499 140.32,48.5165 145.5,44.5 Z"/></g>
<g><path style="opacity:1" fill="#20100e" d="M 262.5,53.5 C 273.68,66.8544 282.013,81.8544 287.5,98.5C 287.5,99.5 287.5,100.5 287.5,101.5C 287.5,118.167 287.5,134.833 287.5,151.5C 281.288,151.523 275.288,152.19 269.5,153.5C 259.632,153.629 249.799,154.296 240,155.5C 237.5,155.167 235,154.833 232.5,154.5C 229.833,151.5 227.167,148.5 224.5,145.5C 223.085,154.794 221.919,164.127 221,173.5C 217.743,176.428 213.909,177.262 209.5,176C 206.035,173.537 202.869,170.704 200,167.5C 192,156.833 184,146.167 176,135.5C 173.683,132.532 172.183,129.199 171.5,125.5C 174.089,117.198 179.756,114.032 188.5,116C 195.682,122.517 202.182,129.684 208,137.5C 209.495,127.898 210.495,118.231 211,108.5C 211.249,107.376 211.749,106.376 212.5,105.5C 228.5,96.5 244.5,87.5 260.5,78.5C 261.491,74.5546 261.824,70.5546 261.5,66.5C 262.485,62.3656 262.818,58.0323 262.5,53.5 Z"/></g>
<g><path style="opacity:0.811" fill="#000000" d="M 49.5,99.5 C 49.5,99.8333 49.5,100.167 49.5,100.5C 46.5562,113.187 45.8895,125.854 47.5,138.5C 47.19,141.713 47.5233,144.713 48.5,147.5C 48.5401,152.193 48.8734,156.859 49.5,161.5C 48.3487,167.684 44.5153,170.684 38,170.5C 33.3803,170.488 29.5469,168.822 26.5,165.5C 25.3451,144.543 25.1784,123.543 26,102.5C 27.4194,101.54 28.9194,100.707 30.5,100C 36.8246,99.5005 43.1579,99.3338 49.5,99.5 Z"/></g>
<g><path style="opacity:1" fill="#1f100f" d="M 65.5,99.5 C 77.5046,99.3335 89.5046,99.5001 101.5,100C 117.862,111.177 134.195,122.343 150.5,133.5C 149.848,150.534 150.515,167.2 152.5,183.5C 163.895,185.006 175.229,186.84 186.5,189C 189.18,191.363 190.513,194.363 190.5,198C 189.55,207.271 184.55,210.605 175.5,208C 163.153,206.415 150.82,204.748 138.5,203C 134.234,202.627 130.901,200.794 128.5,197.5C 128.667,186.162 128.5,174.828 128,163.5C 126.961,164.244 126.461,165.244 126.5,166.5C 118.399,178.516 110.399,190.683 102.5,203C 101.5,203.667 100.5,203.667 99.5,203C 91.645,197.243 83.645,191.743 75.5,186.5C 68.3653,180.43 60.6987,175.097 52.5,170.5C 49.028,169.423 48.6947,167.756 51.5,165.5C 56.8558,158.802 61.8558,151.802 66.5,144.5C 71.1104,138.209 75.7771,131.875 80.5,125.5C 75.2283,124.322 69.895,123.655 64.5,123.5C 61.1933,122.949 57.8599,122.616 54.5,122.5C 52.3926,121.532 50.0593,121.198 47.5,121.5C 47.5,127.167 47.5,132.833 47.5,138.5C 45.8895,125.854 46.5562,113.187 49.5,100.5C 54.9265,100.782 60.2599,100.449 65.5,99.5 Z"/></g>
<g><path style="opacity:0.998" fill="#d33e30" d="M 54.5,122.5 C 57.8599,122.616 61.1933,122.949 64.5,123.5C 64.728,130.551 65.3947,137.551 66.5,144.5C 61.8558,151.802 56.8558,158.802 51.5,165.5C 51.0113,164.005 50.3446,162.671 49.5,161.5C 48.8734,156.859 48.5401,152.193 48.5,147.5C 48.5,139.167 48.5,130.833 48.5,122.5C 50.5,122.5 52.5,122.5 54.5,122.5 Z"/></g>
<g><path style="opacity:1" fill="#da756c" d="M 64.5,123.5 C 69.895,123.655 75.2283,124.322 80.5,125.5C 75.7771,131.875 71.1104,138.209 66.5,144.5C 65.3947,137.551 64.728,130.551 64.5,123.5 Z"/></g>
<g><path style="opacity:1" fill="#491410" d="M 54.5,122.5 C 52.5,122.5 50.5,122.5 48.5,122.5C 48.5,130.833 48.5,139.167 48.5,147.5C 47.5233,144.713 47.19,141.713 47.5,138.5C 47.5,132.833 47.5,127.167 47.5,121.5C 50.0593,121.198 52.3926,121.532 54.5,122.5 Z"/></g>
<g><path style="opacity:1" fill="#9a534c" d="M 150.5,133.5 C 151.18,150.069 151.847,166.735 152.5,183.5C 150.515,167.2 149.848,150.534 150.5,133.5 Z"/></g>
<g><path style="opacity:0.99" fill="#d23d30" d="M 287.5,101.5 C 293.449,125.009 292.449,148.342 284.5,171.5C 284.5,172.167 284.167,172.5 283.5,172.5C 277.698,171.58 272.031,170.58 266.5,169.5C 267.19,164.079 268.19,158.746 269.5,153.5C 275.288,152.19 281.288,151.523 287.5,151.5C 287.5,134.833 287.5,118.167 287.5,101.5 Z"/></g>
<g><path style="opacity:1" fill="#1f100e" d="M 266.5,169.5 C 272.031,170.58 277.698,171.58 283.5,172.5C 278.616,186.934 272.116,200.601 264,213.5C 236.207,247.738 214.04,285.405 197.5,326.5C 197.5,314.5 197.5,302.5 197.5,290.5C 193.076,292.361 188.409,293.694 183.5,294.5C 179.065,292.092 174.398,290.092 169.5,288.5C 166.378,289.103 163.878,290.77 162,293.5C 165.083,268.51 173.083,245.177 186,223.5C 196.185,209.307 207.851,196.307 221,184.5C 225.835,178.494 229.335,171.828 231.5,164.5C 243.105,166.554 254.772,168.221 266.5,169.5 Z"/></g>
<g><path style="opacity:0.826" fill="#000000" d="M 284.5,171.5 C 286.5,171.833 288.5,172.167 290.5,172.5C 291.369,184.645 293.203,196.645 296,208.5C 302.6,224.867 308.6,241.534 314,258.5C 314.742,264.211 315.742,269.878 317,275.5C 317.667,281.833 317.667,288.167 317,294.5C 315.333,292.167 313.333,290.167 311,288.5C 307.019,292.072 302.519,294.405 297.5,295.5C 291.684,294.266 286.018,292.433 280.5,290C 277.072,289.299 273.738,289.632 270.5,291C 275.004,304.533 277.837,318.366 279,332.5C 270.975,340.411 262.975,340.411 255,332.5C 251.452,318.473 247.952,304.473 244.5,290.5C 238.507,295.232 231.841,296.565 224.5,294.5C 223.808,295.025 223.308,295.692 223,296.5C 222.942,309.236 222.275,321.903 221,334.5C 217.954,337.91 214.121,339.244 209.5,338.5C 204.267,339.533 200.267,337.866 197.5,333.5C 197.5,331.167 197.5,328.833 197.5,326.5C 214.04,285.405 236.207,247.738 264,213.5C 272.116,200.601 278.616,186.934 283.5,172.5C 284.167,172.5 284.5,172.167 284.5,171.5 Z"/></g>
<g><path style="opacity:0.995" fill="#cd3c2f" d="M 52.5,170.5 C 60.6987,175.097 68.3653,180.43 75.5,186.5C 76.3443,190.211 77.3443,193.877 78.5,197.5C 71.8333,193.167 65.1667,188.833 58.5,184.5C 57.3995,183.395 56.7329,182.062 56.5,180.5C 54.9709,177.246 53.6376,173.913 52.5,170.5 Z"/></g>
<g><path style="opacity:0.806" fill="#000000" d="M 56.5,180.5 C 56.7329,182.062 57.3995,183.395 58.5,184.5C 66.4583,203.086 76.9583,220.086 90,235.5C 92.176,238.792 94.0094,242.125 95.5,245.5C 95.5,245.833 95.5,246.167 95.5,246.5C 89.3713,271.233 83.8713,296.233 79,321.5C 75.8761,333.978 68.3761,337.812 56.5,333C 53.7531,330.415 52.0864,327.248 51.5,323.5C 56.8938,302.803 62.3938,282.136 68,261.5C 68.6667,259.5 68.6667,257.5 68,255.5C 56,240.167 44,224.833 32,209.5C 29.3061,205.446 27.1394,201.112 25.5,196.5C 27.0651,193.038 28.8984,189.705 31,186.5C 35.5951,182.45 40.0951,178.283 44.5,174C 48.5472,175.833 52.5472,178 56.5,180.5 Z"/></g>
<g><path style="opacity:1" fill="#97514a" d="M 128.5,197.5 C 127.833,187.167 127.167,176.833 126.5,166.5C 126.461,165.244 126.961,164.244 128,163.5C 128.5,174.828 128.667,186.162 128.5,197.5 Z"/></g>
<g><path style="opacity:1" fill="#1f100f" d="M 58.5,184.5 C 65.1667,188.833 71.8333,193.167 78.5,197.5C 99.9871,212.804 121.654,227.97 143.5,243C 145.667,245.167 147.833,247.333 150,249.5C 150.667,251.167 150.667,252.833 150,254.5C 141.149,269.868 133.649,285.868 127.5,302.5C 127.167,302.5 126.833,302.5 126.5,302.5C 126.66,300.801 126.494,299.134 126,297.5C 122.313,289.452 118.147,281.785 113.5,274.5C 113.5,274.167 113.5,273.833 113.5,273.5C 116.645,269.222 119.312,264.555 121.5,259.5C 113.637,254.477 105.637,249.644 97.5,245C 96.5632,244.308 95.8966,244.475 95.5,245.5C 94.0094,242.125 92.176,238.792 90,235.5C 76.9583,220.086 66.4583,203.086 58.5,184.5 Z"/></g>
<g><path style="opacity:0.222" fill="#fdfbfb" d="M 95.5,245.5 C 101.985,254.457 107.985,263.79 113.5,273.5C 113.5,273.833 113.5,274.167 113.5,274.5C 112.607,276.297 111.274,277.63 109.5,278.5C 104.833,267.833 100.167,257.167 95.5,246.5C 95.5,246.167 95.5,245.833 95.5,245.5 Z"/></g>
<g><path style="opacity:1" fill="#dc786f" d="M 95.5,245.5 C 95.8966,244.475 96.5632,244.308 97.5,245C 105.637,249.644 113.637,254.477 121.5,259.5C 119.312,264.555 116.645,269.222 113.5,273.5C 107.985,263.79 101.985,254.457 95.5,245.5 Z"/></g>
<g><path style="opacity:0.786" fill="#010101" d="M 113.5,274.5 C 118.147,281.785 122.313,289.452 126,297.5C 126.494,299.134 126.66,300.801 126.5,302.5C 125.85,304.435 125.517,306.435 125.5,308.5C 122.17,313.827 119.337,319.494 117,325.5C 108.411,333.847 100.411,333.181 93,323.5C 91.1256,319.48 91.1256,315.48 93,311.5C 99.0438,300.746 104.544,289.746 109.5,278.5C 111.274,277.63 112.607,276.297 113.5,274.5 Z"/></g>
<g><path style="opacity:0.211" fill="#fdf9f9" d="M 126.5,302.5 C 126.833,302.5 127.167,302.5 127.5,302.5C 131.801,310.729 135.135,319.395 137.5,328.5C 133.137,322.118 129.137,315.451 125.5,308.5C 125.517,306.435 125.85,304.435 126.5,302.5 Z"/></g>
<g><path style="opacity:0.985" fill="#d63f31" d="M 194.5,337.5 C 183.074,371.294 176.408,405.961 174.5,441.5C 170.833,441.5 167.167,441.5 163.5,441.5C 162.828,440.733 161.995,440.066 161,439.5C 158.638,402.526 151.472,366.526 139.5,331.5C 148.482,345.992 158.148,360.658 168.5,375.5C 177.401,363.38 185.568,350.713 193,337.5C 193.69,336.262 194.19,336.262 194.5,337.5 Z"/></g>
</svg>
