<?xml version="1.0" encoding="UTF-8"?>
<!DOCTYPE svg PUBLIC "-//W3C//DTD SVG 1.1//EN" "http://www.w3.org/Graphics/SVG/1.1/DTD/svg11.dtd">
<svg xmlns="http://www.w3.org/2000/svg" version="1.1" width="481px" height="481px" style="shape-rendering:geometricPrecision; text-rendering:geometricPrecision; image-rendering:optimizeQuality; fill-rule:evenodd; clip-rule:evenodd" xmlns:xlink="http://www.w3.org/1999/xlink">
<g><path style="opacity:1" fill="#e27a70" d="M 343.5,141.5 C 326.84,138 309.84,136.5 292.5,137C 267.819,136.264 243.153,136.598 218.5,138C 197.579,146 188.579,161.166 191.5,183.5C 247.833,183.5 304.167,183.5 360.5,183.5C 354.355,184.49 348.022,184.823 341.5,184.5C 340.725,188.814 340.059,193.147 339.5,197.5C 272.833,198.833 206.167,198.833 139.5,197.5C 138.616,192.196 137.949,186.863 137.5,181.5C 156.33,189.28 172.163,185.28 185,169.5C 196.747,145.208 190.914,126.708 167.5,114C 159.197,112.169 150.864,112.002 142.5,113.5C 156.986,79.5261 182.32,58.3594 218.5,50C 263.962,42.8059 300.128,57.6393 327,94.5C 335.979,108.936 341.479,124.603 343.5,141.5 Z"/></g>
<g><path style="opacity:0.98" fill="#d74234" d="M 362.5,167.5 C 361.613,161.61 359.78,155.943 357,150.5C 353.118,146.429 348.618,143.429 343.5,141.5C 341.479,124.603 335.979,108.936 327,94.5C 300.128,57.6393 263.962,42.8059 218.5,50C 182.32,58.3594 156.986,79.5261 142.5,113.5C 139.587,115.87 136.254,117.704 132.5,119C 129.268,122.062 126.268,125.229 123.5,128.5C 137.925,92.2415 163.258,66.7415 199.5,52C 233.14,40.9189 265.473,43.9189 296.5,61C 337.643,84.4189 359.643,119.919 362.5,167.5 Z"/></g>
<g><path style="opacity:0.997" fill="#c1121c" d="M 120.5,197.5 C 126.833,197.5 133.167,197.5 139.5,197.5C 206.167,198.833 272.833,198.833 339.5,197.5C 346.167,197.5 352.833,197.5 359.5,197.5C 367.5,197.5 375.5,197.5 383.5,197.5C 383.073,180.452 383.573,163.452 385,146.5C 385.903,145.299 387.069,144.465 388.5,144C 395.5,143.333 402.5,143.333 409.5,144C 411.723,144.652 412.89,146.152 413,148.5C 413.48,198.599 413.647,248.599 413.5,298.5C 413.363,300.107 412.696,301.441 411.5,302.5C 404.274,304.348 396.941,304.848 389.5,304C 383.645,302.327 380.979,298.327 381.5,292C 382.723,281.104 382.723,270.271 381.5,259.5C 289.5,258.167 197.5,258.167 105.5,259.5C 104.944,273.147 104.11,286.813 103,300.5C 101.2,302.317 99.0336,303.484 96.5,304C 88.861,304.887 81.361,304.387 74,302.5C 72.5932,269.528 71.7599,236.528 71.5,203.5C 71.784,166.8 72.6174,130.133 74,93.5C 82.7281,91.0077 91.5615,90.8411 100.5,93C 101.701,93.9025 102.535,95.0692 103,96.5C 104,128.167 105,159.833 106,191.5C 106.972,193.305 108.139,194.972 109.5,196.5C 113.107,197.489 116.774,197.823 120.5,197.5 Z"/></g>
<g><path style="opacity:0.999" fill="#fefdfd" d="M 137.5,181.5 C 132.54,178.208 128.207,174.208 124.5,169.5C 124.573,167.973 123.906,166.973 122.5,166.5C 120.429,162.608 118.763,158.608 117.5,154.5C 116.685,145.098 118.685,136.431 123.5,128.5C 126.268,125.229 129.268,122.062 132.5,119C 136.254,117.704 139.587,115.87 142.5,113.5C 150.864,112.002 159.197,112.169 167.5,114C 190.914,126.708 196.747,145.208 185,169.5C 172.163,185.28 156.33,189.28 137.5,181.5 Z"/></g>
<g><path style="opacity:1" fill="#fefefe" d="M 343.5,141.5 C 348.618,143.429 353.118,146.429 357,150.5C 359.78,155.943 361.613,161.61 362.5,167.5C 362.821,173.026 362.488,178.36 361.5,183.5C 361.167,183.5 360.833,183.5 360.5,183.5C 304.167,183.5 247.833,183.5 191.5,183.5C 188.579,161.166 197.579,146 218.5,138C 243.153,136.598 267.819,136.264 292.5,137C 309.84,136.5 326.84,138 343.5,141.5 Z"/></g>
<g><path style="opacity:0.991" fill="#d64032" d="M 117.5,154.5 C 118.763,158.608 120.429,162.608 122.5,166.5C 122.427,168.027 123.094,169.027 124.5,169.5C 128.207,174.208 132.54,178.208 137.5,181.5C 137.949,186.863 138.616,192.196 139.5,197.5C 133.167,197.5 126.833,197.5 120.5,197.5C 116.926,183.34 115.926,169.007 117.5,154.5 Z"/></g>
<g><path style="opacity:1" fill="#e68a80" d="M 122.5,166.5 C 123.906,166.973 124.573,167.973 124.5,169.5C 123.094,169.027 122.427,168.027 122.5,166.5 Z"/></g>
<g><path style="opacity:0.992" fill="#d63f31" d="M 360.5,183.5 C 360.833,183.5 361.167,183.5 361.5,183.5C 361.05,188.202 360.383,192.868 359.5,197.5C 352.833,197.5 346.167,197.5 339.5,197.5C 340.059,193.147 340.725,188.814 341.5,184.5C 348.022,184.823 354.355,184.49 360.5,183.5 Z"/></g>
<g><path style="opacity:0.932" fill="#d33d38" d="M 105.5,259.5 C 197.5,258.167 289.5,258.167 381.5,259.5C 364.5,259.5 347.5,259.5 330.5,259.5C 327.5,259.5 324.5,259.5 321.5,259.5C 266.829,259.167 212.163,259.5 157.5,260.5C 159.891,266.949 162.558,273.282 165.5,279.5C 165.376,280.107 165.043,280.44 164.5,280.5C 159.521,273.901 154.521,267.235 149.5,260.5C 134.848,259.501 120.182,259.167 105.5,259.5 Z"/></g>
<g><path style="opacity:1" fill="#e27a70" d="M 321.5,259.5 C 318.87,266.421 316.536,273.421 314.5,280.5C 314.107,282.284 313.441,283.95 312.5,285.5C 304.362,295.752 297.195,306.752 291,318.5C 281.306,335.77 273.472,353.77 267.5,372.5C 267.34,374.153 266.674,375.486 265.5,376.5C 265.19,375.262 264.69,375.262 264,376.5C 256.568,389.713 248.401,402.38 239.5,414.5C 229.148,399.658 219.482,384.992 210.5,370.5C 209.094,370.027 208.427,369.027 208.5,367.5C 201.951,347.394 193.451,328.06 183,309.5C 177.973,300.759 172.473,292.425 166.5,284.5C 165.326,283.486 164.66,282.153 164.5,280.5C 165.043,280.44 165.376,280.107 165.5,279.5C 162.558,273.282 159.891,266.949 157.5,260.5C 212.163,259.5 266.829,259.167 321.5,259.5 Z"/></g>
<g><path style="opacity:0.957" fill="#d84335" d="M 321.5,259.5 C 324.5,259.5 327.5,259.5 330.5,259.5C 325.892,267.048 320.559,274.048 314.5,280.5C 316.536,273.421 318.87,266.421 321.5,259.5 Z"/></g>
<g><path style="opacity:0.235" fill="#fefcfc" d="M 166.5,284.5 C 172.473,292.425 177.973,300.759 183,309.5C 193.451,328.06 201.951,347.394 208.5,367.5C 192.152,341.138 178.152,313.471 166.5,284.5 Z"/></g>
<g><path style="opacity:0.238" fill="#fefcfb" d="M 312.5,285.5 C 299.823,315.858 284.823,344.858 267.5,372.5C 273.472,353.77 281.306,335.77 291,318.5C 297.195,306.752 304.362,295.752 312.5,285.5 Z"/></g>
<g><path style="opacity:0.985" fill="#d63f31" d="M 265.5,376.5 C 254.074,410.294 247.408,444.961 245.5,480.5C 241.833,480.5 238.167,480.5 234.5,480.5C 233.828,479.733 232.995,479.066 232,478.5C 229.638,441.526 222.472,405.526 210.5,370.5C 219.482,384.992 229.148,399.658 239.5,414.5C 248.401,402.38 256.568,389.713 264,376.5C 264.69,375.262 265.19,375.262 265.5,376.5 Z"/></g>
</svg>
