<?xml version="1.0" encoding="UTF-8"?>
<!DOCTYPE svg PUBLIC "-//W3C//DTD SVG 1.1//EN" "http://www.w3.org/Graphics/SVG/1.1/DTD/svg11.dtd">
<svg xmlns="http://www.w3.org/2000/svg" version="1.1" width="346px" height="442px" style="shape-rendering:geometricPrecision; text-rendering:geometricPrecision; image-rendering:optimizeQuality; fill-rule:evenodd; clip-rule:evenodd" xmlns:xlink="http://www.w3.org/1999/xlink">
<g><path style="opacity:1" fill="#e27a70" d="M 272.5,102.5 C 255.84,99.0005 238.84,97.5005 221.5,98C 196.819,97.2644 172.153,97.5977 147.5,99C 126.579,107 117.579,122.166 120.5,144.5C 176.833,144.5 233.167,144.5 289.5,144.5C 283.355,145.49 277.022,145.823 270.5,145.5C 269.725,149.814 269.059,154.147 268.5,158.5C 201.833,159.833 135.167,159.833 68.5,158.5C 67.6161,153.196 66.9494,147.863 66.5,142.5C 85.3296,150.28 101.163,146.28 114,130.5C 125.747,106.208 119.914,87.7084 96.5,75C 88.197,73.1688 79.8637,73.0022 71.5,74.5C 85.9864,40.5261 111.32,19.3594 147.5,11C 192.962,3.80593 229.128,18.6393 256,55.5C 264.979,69.9361 270.479,85.6028 272.5,102.5 Z"/></g>
<g><path style="opacity:0.98" fill="#d74234" d="M 291.5,128.5 C 290.613,122.61 288.78,116.943 286,111.5C 282.118,107.429 277.618,104.429 272.5,102.5C 270.479,85.6028 264.979,69.9361 256,55.5C 229.128,18.6393 192.962,3.80593 147.5,11C 111.32,19.3594 85.9864,40.5261 71.5,74.5C 68.5872,76.8705 65.2538,78.7038 61.5,80C 58.2678,83.0623 55.2678,86.229 52.5,89.5C 66.925,53.2415 92.2583,27.7415 128.5,13C 162.14,1.91893 194.473,4.91893 225.5,22C 266.643,45.4189 288.643,80.9189 291.5,128.5 Z"/></g>
<g><path style="opacity:0.997" fill="#c1121c" d="M 49.5,158.5 C 55.8333,158.5 62.1667,158.5 68.5,158.5C 135.167,159.833 201.833,159.833 268.5,158.5C 275.167,158.5 281.833,158.5 288.5,158.5C 296.5,158.5 304.5,158.5 312.5,158.5C 312.073,141.452 312.573,124.452 314,107.5C 314.903,106.299 316.069,105.465 317.5,105C 324.5,104.333 331.5,104.333 338.5,105C 340.723,105.652 341.89,107.152 342,109.5C 342.48,159.599 342.647,209.599 342.5,259.5C 342.363,261.107 341.696,262.441 340.5,263.5C 333.274,265.348 325.941,265.848 318.5,265C 312.645,263.327 309.979,259.327 310.5,253C 311.723,242.104 311.723,231.271 310.5,220.5C 218.5,219.167 126.5,219.167 34.5,220.5C 33.9438,234.147 33.1104,247.813 32,261.5C 30.2002,263.317 28.0336,264.484 25.5,265C 17.861,265.887 10.361,265.387 3,263.5C 1.59323,230.528 0.759899,197.528 0.5,164.5C 0.784042,127.8 1.61737,91.1335 3,54.5C 11.7281,52.0077 20.5615,51.8411 29.5,54C 30.7014,54.9025 31.5348,56.0692 32,57.5C 33,89.1667 34,120.833 35,152.5C 35.972,154.305 37.1387,155.972 38.5,157.5C 42.1073,158.489 45.774,158.823 49.5,158.5 Z"/></g>
<g><path style="opacity:0.999" fill="#fefdfd" d="M 66.5,142.5 C 61.5399,139.208 57.2066,135.208 53.5,130.5C 53.573,128.973 52.9063,127.973 51.5,127.5C 49.4293,123.608 47.7626,119.608 46.5,115.5C 45.6853,106.098 47.6853,97.431 52.5,89.5C 55.2678,86.229 58.2678,83.0623 61.5,80C 65.2538,78.7038 68.5872,76.8705 71.5,74.5C 79.8637,73.0022 88.197,73.1688 96.5,75C 119.914,87.7084 125.747,106.208 114,130.5C 101.163,146.28 85.3296,150.28 66.5,142.5 Z"/></g>
<g><path style="opacity:1" fill="#fefefe" d="M 272.5,102.5 C 277.618,104.429 282.118,107.429 286,111.5C 288.78,116.943 290.613,122.61 291.5,128.5C 291.821,134.026 291.488,139.36 290.5,144.5C 290.167,144.5 289.833,144.5 289.5,144.5C 233.167,144.5 176.833,144.5 120.5,144.5C 117.579,122.166 126.579,107 147.5,99C 172.153,97.5977 196.819,97.2644 221.5,98C 238.84,97.5005 255.84,99.0005 272.5,102.5 Z"/></g>
<g><path style="opacity:0.991" fill="#d64032" d="M 46.5,115.5 C 47.7626,119.608 49.4293,123.608 51.5,127.5C 51.427,129.027 52.0937,130.027 53.5,130.5C 57.2066,135.208 61.5399,139.208 66.5,142.5C 66.9494,147.863 67.6161,153.196 68.5,158.5C 62.1667,158.5 55.8333,158.5 49.5,158.5C 45.9264,144.34 44.9264,130.007 46.5,115.5 Z"/></g>
<g><path style="opacity:1" fill="#e68a80" d="M 51.5,127.5 C 52.9063,127.973 53.573,128.973 53.5,130.5C 52.0937,130.027 51.427,129.027 51.5,127.5 Z"/></g>
<g><path style="opacity:0.992" fill="#d63f31" d="M 289.5,144.5 C 289.833,144.5 290.167,144.5 290.5,144.5C 290.05,149.202 289.383,153.868 288.5,158.5C 281.833,158.5 275.167,158.5 268.5,158.5C 269.059,154.147 269.725,149.814 270.5,145.5C 277.022,145.823 283.355,145.49 289.5,144.5 Z"/></g>
<g><path style="opacity:0.932" fill="#d33d38" d="M 34.5,220.5 C 126.5,219.167 218.5,219.167 310.5,220.5C 293.5,220.5 276.5,220.5 259.5,220.5C 256.5,220.5 253.5,220.5 250.5,220.5C 195.829,220.167 141.163,220.5 86.5,221.5C 88.8909,227.949 91.5575,234.282 94.5,240.5C 94.3764,241.107 94.0431,241.44 93.5,241.5C 88.5207,234.901 83.5207,228.235 78.5,221.5C 63.8485,220.501 49.1818,220.167 34.5,220.5 Z"/></g>
<g><path style="opacity:1" fill="#e27a70" d="M 250.5,220.5 C 247.87,227.421 245.536,234.421 243.5,241.5C 243.107,243.284 242.441,244.95 241.5,246.5C 233.362,256.752 226.195,267.752 220,279.5C 210.306,296.77 202.472,314.77 196.5,333.5C 196.34,335.153 195.674,336.486 194.5,337.5C 194.19,336.262 193.69,336.262 193,337.5C 185.568,350.713 177.401,363.38 168.5,375.5C 158.148,360.658 148.482,345.992 139.5,331.5C 138.094,331.027 137.427,330.027 137.5,328.5C 130.951,308.394 122.451,289.06 112,270.5C 106.973,261.759 101.473,253.425 95.5,245.5C 94.3263,244.486 93.6596,243.153 93.5,241.5C 94.0431,241.44 94.3764,241.107 94.5,240.5C 91.5575,234.282 88.8909,227.949 86.5,221.5C 141.163,220.5 195.829,220.167 250.5,220.5 Z"/></g>
<g><path style="opacity:0.957" fill="#d84335" d="M 250.5,220.5 C 253.5,220.5 256.5,220.5 259.5,220.5C 254.892,228.048 249.559,235.048 243.5,241.5C 245.536,234.421 247.87,227.421 250.5,220.5 Z"/></g>
<g><path style="opacity:0.235" fill="#fefcfc" d="M 95.5,245.5 C 101.473,253.425 106.973,261.759 112,270.5C 122.451,289.06 130.951,308.394 137.5,328.5C 121.152,302.138 107.152,274.471 95.5,245.5 Z"/></g>
<g><path style="opacity:0.238" fill="#fefcfb" d="M 241.5,246.5 C 228.823,276.858 213.823,305.858 196.5,333.5C 202.472,314.77 210.306,296.77 220,279.5C 226.195,267.752 233.362,256.752 241.5,246.5 Z"/></g>
<g><path style="opacity:0.985" fill="#d63f31" d="M 194.5,337.5 C 183.074,371.294 176.408,405.961 174.5,441.5C 170.833,441.5 167.167,441.5 163.5,441.5C 162.828,440.733 161.995,440.066 161,439.5C 158.638,402.526 151.472,366.526 139.5,331.5C 148.482,345.992 158.148,360.658 168.5,375.5C 177.401,363.38 185.568,350.713 193,337.5C 193.69,336.262 194.19,336.262 194.5,337.5 Z"/></g>
</svg>
