<svg xmlns="http://www.w3.org/2000/svg" xmlns:xlink="http://www.w3.org/1999/xlink" width="35" height="45" viewBox="0 0 35 44"><defs><clipPath id="f"><path d="M0 0h35v44H0z"/></clipPath><clipPath id="j"><path d="M0 0h35v44H0z"/></clipPath><clipPath id="i"><path d="M0 0h35v44H0z"/></clipPath><clipPath id="c"><path d="M0 0h35v44H0z"/></clipPath><clipPath id="h"><path d="M0 0h35v44H0z"/></clipPath><clipPath id="d"><path d="M0 0h35v44H0z"/></clipPath><clipPath id="g"><path d="M0 0h35v44H0z"/></clipPath><clipPath id="e"><path d="M0 0h35v44H0z"/></clipPath><clipPath id="b"><path d="M0 0h35v44H0z"/></clipPath><mask id="t"><g filter="url(#a)"><path style="fill:#000;fill-opacity:.933333;stroke:none" d="M0 0h35v44H0z"/></g></mask><mask id="v"><g filter="url(#a)"><path style="fill:#000;fill-opacity:.956863;stroke:none" d="M0 0h35v44H0z"/></g></mask><mask id="r"><g filter="url(#a)"><path style="fill:#000;fill-opacity:.992157;stroke:none" d="M0 0h35v44H0z"/></g></mask><mask id="x"><g filter="url(#a)"><path style="fill:#000;fill-opacity:.235294;stroke:none" d="M0 0h35v44H0z"/></g></mask><mask id="p"><g filter="url(#a)"><path style="fill:#000;fill-opacity:.992157;stroke:none" d="M0 0h35v44H0z"/></g></mask><mask id="z"><g filter="url(#a)"><path style="fill:#000;fill-opacity:.239216;stroke:none" d="M0 0h35v44H0z"/></g></mask><mask id="n"><g filter="url(#a)"><path style="fill:#000;fill-opacity:.996078;stroke:none" d="M0 0h35v44H0z"/></g></mask><mask id="B"><g filter="url(#a)"><path style="fill:#000;fill-opacity:.984314;stroke:none" d="M0 0h35v44H0z"/></g></mask><mask id="l"><g filter="url(#a)"><path style="fill:#000;fill-opacity:.980392;stroke:none" d="M0 0h35v44H0z"/></g></mask><g id="u" clip-path="url(#g)"><path style="stroke:none;fill-rule:evenodd;fill:#d84335;fill-opacity:1" d="M25.34 21.95h.91a12.5 12.5 0 0 1-1.617 2.09c.203-.704.441-1.4.707-2.09zm0 0"/></g><g id="q" clip-path="url(#e)"><path style="stroke:none;fill-rule:evenodd;fill:#d63f31;fill-opacity:1" d="M29.285 14.383h.102c-.047.469-.114.933-.203 1.394H27.16c.059-.433.125-.863.203-1.293.66.032 1.301 0 1.922-.101zm0 0"/></g><g id="k" clip-path="url(#b)"><path style="stroke:none;fill-rule:evenodd;fill:#d74234;fill-opacity:1" d="M29.488 12.793a5.476 5.476 0 0 0-.558-1.695 3.664 3.664 0 0 0-1.364-.895 11.209 11.209 0 0 0-1.671-4.68C23.175 1.855 19.52.38 14.922 1.093c-3.66.833-6.223 2.942-7.688 6.325a3.37 3.37 0 0 1-1.011.547c-.328.305-.633.617-.91.945C6.77 5.3 9.332 2.762 13 1.293c3.402-1.102 6.672-.805 9.813.898 4.16 2.329 6.386 5.864 6.675 10.602zm0 0"/></g><g id="w" clip-path="url(#h)"><path style="stroke:none;fill-rule:evenodd;fill:#fefcfc;fill-opacity:1" d="M9.66 24.438c.606.789 1.16 1.62 1.668 2.488a31.565 31.565 0 0 1 2.582 5.777 53.082 53.082 0 0 1-4.25-8.266zm0 0"/></g><g id="o" clip-path="url(#d)"><path style="stroke:none;fill-rule:evenodd;fill:#d64032;fill-opacity:1" d="M4.703 11.496c.129.41.297.809.508 1.195-.008.153.059.254.2.301.374.469.816.867 1.316 1.192.046.535.113 1.066.203 1.593H5.008a11.803 11.803 0 0 1-.305-4.28zm0 0"/></g><g id="s" clip-path="url(#f)"><path style="stroke:none;fill-rule:evenodd;fill:#d33d38;fill-opacity:1" d="M3.488 21.95a978.407 978.407 0 0 1 27.922 0h-6.07c-5.531-.032-11.059 0-16.59.1.242.641.512 1.27.809 1.891-.012.059-.047.094-.102.098-.504-.656-1.008-1.32-1.516-1.988-1.484-.102-2.964-.133-4.453-.102zm0 0"/></g><g id="y" clip-path="url(#i)"><path style="stroke:none;fill-rule:evenodd;fill:#fefcfb;fill-opacity:1" d="M24.43 24.54a59.145 59.145 0 0 1-4.551 8.66 28.497 28.497 0 0 1 2.375-5.376 21.003 21.003 0 0 1 2.176-3.285zm0 0"/></g><g id="m" clip-path="url(#c)"><path style="stroke:none;fill-rule:evenodd;fill:#c1121c;fill-opacity:1" d="M5.008 15.777H6.93c6.742.133 13.488.133 20.23 0h4.449a45.813 45.813 0 0 1 .153-5.074.717.717 0 0 1 .355-.25 11.358 11.358 0 0 1 2.125 0 .446.446 0 0 1 .352.45c.05 4.984.066 9.96.05 14.929a.564.564 0 0 1-.199.398 6.193 6.193 0 0 1-2.226.149c-.594-.164-.864-.563-.809-1.195.121-1.082.121-2.16 0-3.235a978.407 978.407 0 0 0-27.922 0c-.054 1.36-.14 2.719-.25 4.082-.183.18-.402.297-.66.348-.77.09-1.531.039-2.273-.149a276.103 276.103 0 0 1-.254-9.855c.027-3.652.113-7.305.254-10.95a5.234 5.234 0 0 1 2.68-.05c.12.09.206.207.253.348.102 3.152.2 6.304.301 9.457.102.18.219.347.356.5.363.097.734.129 1.113.097zm0 0"/></g><g id="A" clip-path="url(#j)"><path style="stroke:none;fill-rule:evenodd;fill:#d63f31;fill-opacity:1" d="M19.676 33.598a38.028 38.028 0 0 0-2.024 10.351H16.54a1.026 1.026 0 0 0-.254-.199A40.482 40.482 0 0 0 14.11 33a98.49 98.49 0 0 0 2.934 4.379 37.061 37.061 0 0 0 2.48-3.781c.07-.125.122-.125.153 0zm0 0"/></g><filter id="a" filterUnits="objectBoundingBox" x="0%" y="0%" width="100%" height="100%"><feColorMatrix in="SourceGraphic" values="0 0 0 0 1 0 0 0 0 1 0 0 0 0 1 0 0 0 1 0"/></filter></defs><path style="stroke:none;fill-rule:evenodd;fill:#e27a70;fill-opacity:1" d="M27.566 10.203a22.499 22.499 0 0 0-5.16-.45 88.56 88.56 0 0 0-7.484.102c-2.117.797-3.027 2.305-2.735 4.528h17.098a9.19 9.19 0 0 1-1.922.101c-.078.43-.144.86-.203 1.293-6.742.133-13.488.133-20.23 0a19.738 19.738 0 0 1-.203-1.593c1.906.777 3.507.379 4.804-1.192 1.188-2.418.598-4.262-1.77-5.527-.84-.18-1.683-.2-2.527-.047 1.465-3.383 4.028-5.492 7.688-6.324 4.598-.715 8.254.761 10.973 4.43.91 1.437 1.464 3 1.671 4.68zm0 0"/><use xlink:href="#k" mask="url(#l)"/><use xlink:href="#m" mask="url(#n)"/><path style="stroke:none;fill-rule:evenodd;fill:#fefdfd;fill-opacity:1" d="M6.727 14.184a5.536 5.536 0 0 1-1.317-1.192c.008-.152-.058-.254-.2-.3a6.656 6.656 0 0 1-.507-1.196 4.11 4.11 0 0 1 .61-2.586c.277-.328.582-.64.91-.945a3.37 3.37 0 0 0 1.011-.547 6.477 6.477 0 0 1 2.528.047c2.367 1.265 2.957 3.11 1.77 5.527-1.298 1.57-2.9 1.969-4.805 1.192zm0 0"/><path style="stroke:none;fill-rule:evenodd;fill:#fefefe;fill-opacity:1" d="M27.566 10.203c.516.192.973.492 1.364.895.28.543.468 1.109.558 1.695a6.474 6.474 0 0 1-.101 1.59h-17.2c-.292-2.223.618-3.73 2.735-4.528a88.56 88.56 0 0 1 7.484-.101 22.499 22.499 0 0 1 5.16.45zm0 0"/><use xlink:href="#o" mask="url(#p)"/><path style="stroke:none;fill-rule:evenodd;fill:#e68a80;fill-opacity:1" d="M5.21 12.691c.142.047.208.149.2.301-.14-.047-.207-.148-.2-.3zm0 0"/><use xlink:href="#q" mask="url(#r)"/><use xlink:href="#s" mask="url(#t)"/><path style="stroke:none;fill-rule:evenodd;fill:#e27a70;fill-opacity:1" d="M25.34 21.95a25.782 25.782 0 0 0-.707 2.09c-.043.179-.11.343-.203.5a21.003 21.003 0 0 0-2.176 3.284 28.497 28.497 0 0 0-2.375 5.375.6.6 0 0 1-.203.399c-.031-.125-.082-.125-.153 0a37.061 37.061 0 0 1-2.48 3.78A98.49 98.49 0 0 1 14.109 33c-.14-.047-.207-.148-.199-.297a31.565 31.565 0 0 0-2.582-5.777 24.026 24.026 0 0 0-1.668-2.488.567.567 0 0 1-.203-.399c.055-.004.09-.039.102-.098a24.327 24.327 0 0 1-.809-1.89 690.822 690.822 0 0 1 16.59-.102zm0 0"/><use xlink:href="#u" mask="url(#v)"/><use xlink:href="#w" mask="url(#x)"/><use xlink:href="#y" mask="url(#z)"/><use xlink:href="#A" mask="url(#B)"/></svg>