<?xml version="1.0" encoding="UTF-8"?>
<!DOCTYPE svg PUBLIC "-//W3C//DTD SVG 1.1//EN" "http://www.w3.org/Graphics/SVG/1.1/DTD/svg11.dtd">
<svg xmlns="http://www.w3.org/2000/svg" version="1.1" width="346px" height="442px" style="shape-rendering:geometricPrecision; text-rendering:geometricPrecision; image-rendering:optimizeQuality; fill-rule:evenodd; clip-rule:evenodd" xmlns:xlink="http://www.w3.org/1999/xlink">
<g><path style="opacity:1" fill="#e1796f" d="M 272.5,115.5 C 257.071,120.7 241.571,126.033 226,131.5C 224.697,131.022 223.531,130.355 222.5,129.5C 220.833,128.5 219.5,127.167 218.5,125.5C 213.679,120.451 207.679,118.117 200.5,118.5C 197.795,118.316 195.462,118.983 193.5,120.5C 185.875,121.816 179.542,125.483 174.5,131.5C 160.758,121.589 146.091,119.922 130.5,126.5C 128.414,121.079 127.08,115.412 126.5,109.5C 128.861,109.326 131.194,108.993 133.5,108.5C 134.138,106.54 134.138,104.707 133.5,103C 114.075,89.2997 95.0749,75.133 76.5,60.5C 105.885,17.7442 146.219,1.91086 197.5,13C 234,24.1667 257.833,48 269,84.5C 271.863,94.6365 273.03,104.97 272.5,115.5 Z"/></g>
<g><path style="opacity:0.982" fill="#d64133" d="M 289.5,109.5 C 289.167,110.167 288.833,110.833 288.5,111.5C 286.102,111.259 284.102,111.926 282.5,113.5C 280.102,113.259 278.102,113.926 276.5,115.5C 275.167,115.5 273.833,115.5 272.5,115.5C 273.03,104.97 271.863,94.6365 269,84.5C 257.833,48 234,24.1667 197.5,13C 146.219,1.91086 105.885,17.7442 76.5,60.5C 73.8106,59.8106 72.1439,58.144 71.5,55.5C 114.128,4.84567 165.462,-6.321 225.5,22C 260.194,41.615 281.527,70.7817 289.5,109.5 Z"/></g>
<g><path style="opacity:0.925" fill="#3c3837" d="M 71.5,55.5 C 72.1439,58.144 73.8106,59.8106 76.5,60.5C 95.0749,75.133 114.075,89.2997 133.5,103C 134.138,104.707 134.138,106.54 133.5,108.5C 131.194,108.993 128.861,109.326 126.5,109.5C 127.08,115.412 128.414,121.079 130.5,126.5C 146.091,119.922 160.758,121.589 174.5,131.5C 179.542,125.483 185.875,121.816 193.5,120.5C 186.64,122.767 180.973,126.767 176.5,132.5C 175.659,133.926 174.659,135.26 173.5,136.5C 172.434,138.701 171.767,141.035 171.5,143.5C 170.71,144.609 170.21,145.942 170,147.5C 169.31,148.738 168.81,148.738 168.5,147.5C 168.631,146.761 168.464,146.094 168,145.5C 165.63,148.039 163.13,150.372 160.5,152.5C 163.252,148.242 166.585,144.409 170.5,141C 171.167,139 171.833,137 172.5,135C 168.911,130.526 164.245,127.526 158.5,126C 150.399,123.858 142.399,124.191 134.5,127C 132.487,127.68 131.154,129.013 130.5,131C 134.847,152.903 139.514,174.737 144.5,196.5C 142.237,200.087 138.903,201.921 134.5,202C 145.407,205.735 156.074,205.068 166.5,200C 167.167,199.333 167.833,198.667 168.5,198C 164.893,194.902 161.893,191.402 159.5,187.5C 164.513,193.351 170.513,197.851 177.5,201C 184.082,201.993 190.416,201.16 196.5,198.5C 199.514,199.514 201.514,201.514 202.5,204.5C 200.519,202.856 198.519,201.19 196.5,199.5C 188.15,204.754 179.816,204.754 171.5,199.5C 157.756,208.553 143.256,209.886 128,203.5C 112.667,206.333 97.5006,209.333 82.5,212.5C 79.3704,212.7 76.3704,213.366 73.5,214.5C 70.8333,214.833 70.8333,215.167 73.5,215.5C 71.0948,216.768 68.4282,217.435 65.5,217.5C 64.1155,216.199 62.6155,216.199 61,217.5C 57.357,203.594 54.0237,189.594 51,175.5C 50.1074,174.919 49.1074,174.585 48,174.5C 44.4818,175.255 40.9818,176.088 37.5,177C 36.4844,177.519 35.8178,178.353 35.5,179.5C 36.6028,184.847 37.7695,190.181 39,195.5C 39.4807,193.522 40.6473,192.189 42.5,191.5C 44.2664,191.434 45.2664,192.268 45.5,194C 45,195.5 44.5,197 44,198.5C 42.6667,197.833 41.3333,197.167 40,196.5C 39.8333,197.167 39.6667,197.833 39.5,198.5C 41.3356,205.846 42.8356,213.18 44,220.5C 41.5122,222.174 38.6789,223.341 35.5,224C 32.9009,224.769 30.4009,224.602 28,223.5C 21.8722,194.528 15.8722,165.528 10,136.5C 7.58007,135.512 5.24674,135.845 3,137.5C 2.62638,135.509 1.79305,133.842 0.5,132.5C 1.09223,129.309 2.25889,126.309 4,123.5C 19.4333,97.8859 34.2666,71.8859 48.5,45.5C 49.7198,43.5044 51.3865,42.6711 53.5,43C 59.3835,47.4328 65.3835,51.5995 71.5,55.5 Z M 55.5,81.5 C 53.8333,85.5 52.1667,89.5 50.5,93.5C 49.5127,90.2869 48.5127,86.9535 47.5,83.5C 50.0795,82.4512 52.7462,81.7845 55.5,81.5 Z M 38.5,133.5 C 40.451,133.227 41.951,133.893 43,135.5C 44.1873,142.248 45.6873,148.915 47.5,155.5C 42.2654,157.214 36.9321,158.547 31.5,159.5C 29.129,152.334 27.129,145.001 25.5,137.5C 29.9921,136.3 34.3255,134.967 38.5,133.5 Z"/></g>
<g><path style="opacity:1" fill="#cccccc" d="M 52.5,50.5 C 57.7815,53.1454 62.7815,56.312 67.5,60C 86.8333,74.6667 106.167,89.3333 125.5,104C 122.514,104.319 120.847,105.986 120.5,109C 123.271,116.332 124.271,123.832 123.5,131.5C 120.473,133.86 117.806,136.527 115.5,139.5C 113.438,129.981 110.771,120.648 107.5,111.5C 98.8259,113.502 90.1592,115.502 81.5,117.5C 83.2149,127.977 85.5482,138.31 88.5,148.5C 89.2164,149.311 90.0497,149.978 91,150.5C 97.7096,148.614 104.543,147.614 111.5,147.5C 111.116,150.769 109.782,153.603 107.5,156C 102.598,157.642 97.5977,158.809 92.5,159.5C 94.1655,170.481 96.8321,181.148 100.5,191.5C 101,191.833 101.5,192.167 102,192.5C 110.381,191.002 118.548,189.002 126.5,186.5C 125.101,175.168 122.435,164.168 118.5,153.5C 116.591,154.348 114.591,154.682 112.5,154.5C 113.096,145.686 117.263,138.353 125,132.5C 130.587,153.601 135.087,174.935 138.5,196.5C 114.388,200.522 90.3882,205.189 66.5,210.5C 65.3527,210.182 64.5194,209.516 64,208.5C 61.3667,195.029 58.2,181.696 54.5,168.5C 53.8333,168.167 53.1667,167.833 52.5,167.5C 44.6283,169.812 36.6283,171.478 28.5,172.5C 31.7072,187.456 34.7072,202.456 37.5,217.5C 35.8333,217.5 34.1667,217.5 32.5,217.5C 26.9902,189.452 21.1569,161.452 15,133.5C 13.607,129.714 11.107,128.214 7.5,129C 22.8911,103.05 37.8911,76.8838 52.5,50.5 Z M 55.5,81.5 C 53.8333,85.5 52.1667,89.5 50.5,93.5C 49.5127,90.2869 48.5127,86.9535 47.5,83.5C 50.0795,82.4512 52.7462,81.7845 55.5,81.5 Z M 38.5,133.5 C 34.3255,134.967 29.9921,136.3 25.5,137.5C 27.129,145.001 29.129,152.334 31.5,159.5C 36.9321,158.547 42.2654,157.214 47.5,155.5C 45.6873,148.915 44.1873,142.248 43,135.5C 41.951,133.893 40.451,133.227 38.5,133.5 Z"/></g>
<g><path style="opacity:0.968" fill="#393737" d="M 66.5,72.5 C 68.4803,73.8475 69.647,75.8475 70,78.5C 72.2832,87.416 74.1165,96.416 75.5,105.5C 67.5478,108.002 59.3811,110.002 51,111.5C 49.2976,110.631 48.131,109.298 47.5,107.5C 45.0797,97.9097 43.0797,88.2431 41.5,78.5C 49.978,76.6294 58.3113,74.6294 66.5,72.5 Z M 55.5,81.5 C 53.8333,85.5 52.1667,89.5 50.5,93.5C 49.5127,90.2869 48.5127,86.9535 47.5,83.5C 50.0795,82.4512 52.7462,81.7845 55.5,81.5 Z"/></g>
<g><path style="opacity:0.993" fill="#d43f31" d="M 66.5,86.5 C 66.0203,92.191 65.3536,97.8577 64.5,103.5C 60.2609,104.535 55.9275,105.201 51.5,105.5C 50.9791,101.519 50.6458,97.5191 50.5,93.5C 52.1667,89.5 53.8333,85.5 55.5,81.5C 58.4525,79.5902 61.7858,78.5902 65.5,78.5C 65.8333,81.1667 66.1667,83.8333 66.5,86.5 Z"/></g>
<g><path style="opacity:1" fill="#d4736a" d="M 66.5,86.5 C 68.5848,91.6078 69.2515,96.9411 68.5,102.5C 67.2638,103.246 65.9305,103.579 64.5,103.5C 65.3536,97.8577 66.0203,92.191 66.5,86.5 Z"/></g>
<g><path style="opacity:0.004" fill="#080908" d="M 321.5,98.5 C 322.833,99.1667 322.833,99.1667 321.5,98.5 Z"/></g>
<g><path style="opacity:0.004" fill="#080808" d="M 312.5,100.5 C 312.897,99.475 313.563,99.3083 314.5,100C 313.906,100.464 313.239,100.631 312.5,100.5 Z"/></g>
<g><path style="opacity:0.004" fill="#080808" d="M 309.5,101.5 C 309.897,100.475 310.563,100.308 311.5,101C 310.906,101.464 310.239,101.631 309.5,101.5 Z"/></g>
<g><path style="opacity:0.004" fill="#0a0a0a" d="M 306.5,102.5 C 306.897,101.475 307.563,101.308 308.5,102C 307.906,102.464 307.239,102.631 306.5,102.5 Z"/></g>
<g><path style="opacity:0.247" fill="#0e0d0d" d="M 321.5,99.5 C 322.29,100.401 323.29,101.068 324.5,101.5C 323.791,102.404 322.791,102.737 321.5,102.5C 320.399,101.402 319.066,101.235 317.5,102C 307.969,105.632 298.303,108.798 288.5,111.5C 288.833,110.833 289.167,110.167 289.5,109.5C 293.149,108.733 296.482,107.4 299.5,105.5C 306.884,103.705 314.218,101.705 321.5,99.5 Z"/></g>
<g><path style="opacity:0.004" fill="#0b0b0b" d="M 303.5,103.5 C 303.897,102.475 304.563,102.308 305.5,103C 304.906,103.464 304.239,103.631 303.5,103.5 Z"/></g>
<g><path style="opacity:0.004" fill="#171717" d="M 329.5,103.5 C 330.946,102.387 332.613,102.22 334.5,103C 332.866,103.494 331.199,103.66 329.5,103.5 Z"/></g>
<g><path style="opacity:0.004" fill="#0a0a0a" d="M 300.5,104.5 C 300.897,103.475 301.563,103.308 302.5,104C 301.906,104.464 301.239,104.631 300.5,104.5 Z"/></g>
<g><path style="opacity:0.998" fill="#696969" d="M 324.5,101.5 C 326.05,102.441 327.716,103.107 329.5,103.5C 329.842,104.338 330.508,104.672 331.5,104.5C 331.389,105.117 331.056,105.617 330.5,106C 331.737,106.232 332.737,106.732 333.5,107.5C 329.418,107.344 325.418,107.844 321.5,109C 294.013,118.246 266.513,127.412 239,136.5C 238.5,136.167 238,135.833 237.5,135.5C 238.648,133.851 239.981,132.351 241.5,131C 263.17,123.887 284.837,116.554 306.5,109C 311.642,106.906 316.642,104.74 321.5,102.5C 322.791,102.737 323.791,102.404 324.5,101.5 Z"/></g>
<g><path style="opacity:0.004" fill="#090909" d="M 299.5,105.5 C 298.761,105.631 298.094,105.464 297.5,105C 298.437,104.308 299.103,104.475 299.5,105.5 Z"/></g>
<g><path style="opacity:0.004" fill="#070707" d="M 294.5,106.5 C 294.897,105.475 295.563,105.308 296.5,106C 295.906,106.464 295.239,106.631 294.5,106.5 Z"/></g>
<g><path style="opacity:0.004" fill="#040504" d="M 291.5,107.5 C 291.897,106.475 292.563,106.308 293.5,107C 292.906,107.464 292.239,107.631 291.5,107.5 Z"/></g>
<g><path style="opacity:1" fill="#cdcdcd" d="M 321.5,102.5 C 316.642,104.74 311.642,106.906 306.5,109C 284.837,116.554 263.17,123.887 241.5,131C 239.981,132.351 238.648,133.851 237.5,135.5C 238,135.833 238.5,136.167 239,136.5C 266.513,127.412 294.013,118.246 321.5,109C 325.418,107.844 329.418,107.344 333.5,107.5C 334.598,108.601 334.765,109.934 334,111.5C 331.04,116.586 328.206,121.753 325.5,127C 320.806,129.327 316.472,128.827 312.5,125.5C 307.502,126.329 304.168,129.162 302.5,134C 298.429,136.229 294.762,135.729 291.5,132.5C 286.624,130.792 282.624,132.125 279.5,136.5C 277.427,137.469 275.261,138.135 273,138.5C 269.861,137.574 266.694,137.408 263.5,138C 260.436,142.027 258.436,146.527 257.5,151.5C 251.029,153.102 244.696,155.102 238.5,157.5C 236.883,158.038 235.216,158.371 233.5,158.5C 234.167,166.871 231.834,174.204 226.5,180.5C 223.833,182.167 221.167,183.833 218.5,185.5C 192.861,194.585 177.361,185.585 172,158.5C 171.501,153.511 171.334,148.511 171.5,143.5C 171.767,141.035 172.434,138.701 173.5,136.5C 177.115,138.021 179.615,140.687 181,144.5C 180.027,149.754 179.694,155.087 180,160.5C 181.762,168.062 186.262,173.062 193.5,175.5C 199.685,173.487 202.685,169.154 202.5,162.5C 201.674,154.009 197.674,147.509 190.5,143C 188.08,142.313 185.913,142.813 184,144.5C 181.249,140.598 178.749,136.598 176.5,132.5C 180.973,126.767 186.64,122.767 193.5,120.5C 202.544,119.237 210.878,120.904 218.5,125.5C 219.5,127.167 220.833,128.5 222.5,129.5C 222.712,131.384 223.712,132.717 225.5,133.5C 242.598,127.469 259.598,121.469 276.5,115.5C 278.898,115.741 280.898,115.074 282.5,113.5C 284.898,113.741 286.898,113.074 288.5,111.5C 298.303,108.798 307.969,105.632 317.5,102C 319.066,101.235 320.399,101.402 321.5,102.5 Z"/></g>
<g><path style="opacity:0.004" fill="#010101" d="M 337.5,111.5 C 337.343,110.127 337.51,108.793 338,107.5C 338.765,109.066 338.598,110.399 337.5,111.5 Z"/></g>
<g><path style="opacity:1" fill="#5c4947" d="M 288.5,111.5 C 286.898,113.074 284.898,113.741 282.5,113.5C 284.102,111.926 286.102,111.259 288.5,111.5 Z"/></g>
<g><path style="opacity:0.004" fill="#050505" d="M 336.5,111.5 C 336.833,111.5 337.167,111.5 337.5,111.5C 337.672,112.492 337.338,113.158 336.5,113.5C 336.5,112.833 336.5,112.167 336.5,111.5 Z"/></g>
<g><path style="opacity:0.352" fill="#191919" d="M 331.5,104.5 C 332.833,104.5 334.167,104.5 335.5,104.5C 335.993,106.806 336.326,109.139 336.5,111.5C 335.662,111.842 335.328,112.508 335.5,113.5C 334.662,113.842 334.328,114.508 334.5,115.5C 333.662,115.842 333.328,116.508 333.5,117.5C 332.662,117.842 332.328,118.508 332.5,119.5C 331.662,119.842 331.328,120.508 331.5,121.5C 330.662,121.842 330.328,122.508 330.5,123.5C 329.662,123.842 329.328,124.508 329.5,125.5C 328.662,125.842 328.328,126.508 328.5,127.5C 325.445,129.41 322.111,130.743 318.5,131.5C 315.024,128.131 311.358,127.798 307.5,130.5C 306.662,130.842 306.328,131.508 306.5,132.5C 305.086,134.918 303.086,136.585 300.5,137.5C 299.209,137.263 298.209,137.596 297.5,138.5C 295.589,137.925 293.922,136.925 292.5,135.5C 292.5,134.833 292.167,134.5 291.5,134.5C 291.5,134.167 291.5,133.833 291.5,133.5C 291.5,133.167 291.5,132.833 291.5,132.5C 294.762,135.729 298.429,136.229 302.5,134C 304.168,129.162 307.502,126.329 312.5,125.5C 316.472,128.827 320.806,129.327 325.5,127C 328.206,121.753 331.04,116.586 334,111.5C 334.765,109.934 334.598,108.601 333.5,107.5C 332.737,106.732 331.737,106.232 330.5,106C 331.056,105.617 331.389,105.117 331.5,104.5 Z"/></g>
<g><path style="opacity:1" fill="#5c4b48" d="M 282.5,113.5 C 280.898,115.074 278.898,115.741 276.5,115.5C 278.102,113.926 280.102,113.259 282.5,113.5 Z"/></g>
<g><path style="opacity:0.004" fill="#060606" d="M 335.5,113.5 C 335.833,113.5 336.167,113.5 336.5,113.5C 336.672,114.492 336.338,115.158 335.5,115.5C 335.5,114.833 335.5,114.167 335.5,113.5 Z"/></g>
<g><path style="opacity:0.004" fill="#040404" d="M 334.5,115.5 C 334.833,115.5 335.167,115.5 335.5,115.5C 335.672,116.492 335.338,117.158 334.5,117.5C 334.5,116.833 334.5,116.167 334.5,115.5 Z"/></g>
<g><path style="opacity:1" fill="#de786e" d="M 101.5,117.5 C 102.833,117.5 104.167,117.5 105.5,117.5C 106.319,124.594 107.652,131.594 109.5,138.5C 109.167,139.5 108.833,140.5 108.5,141.5C 102.954,143.15 97.2873,144.15 91.5,144.5C 90.2551,136.789 89.0885,129.122 88,121.5C 92.6428,120.321 97.1428,118.988 101.5,117.5 Z"/></g>
<g><path style="opacity:0.004" fill="#030303" d="M 333.5,117.5 C 333.833,117.5 334.167,117.5 334.5,117.5C 334.672,118.492 334.338,119.158 333.5,119.5C 333.5,118.833 333.5,118.167 333.5,117.5 Z"/></g>
<g><path style="opacity:1" fill="#3b3837" d="M 76.5,119.5 C 78.284,120.574 79.4506,122.24 80,124.5C 82.1485,133.777 83.9819,143.11 85.5,152.5C 77.5478,155.002 69.3811,157.002 61,158.5C 59.2976,157.631 58.131,156.298 57.5,154.5C 55.0797,144.91 53.0797,135.243 51.5,125.5C 59.978,123.629 68.3113,121.629 76.5,119.5 Z"/></g>
<g><path style="opacity:0.004" fill="#020302" d="M 332.5,119.5 C 332.833,119.5 333.167,119.5 333.5,119.5C 333.672,120.492 333.338,121.158 332.5,121.5C 332.5,120.833 332.5,120.167 332.5,119.5 Z"/></g>
<g><path style="opacity:1" fill="#5b4946" d="M 218.5,125.5 C 210.878,120.904 202.544,119.237 193.5,120.5C 195.462,118.983 197.795,118.316 200.5,118.5C 207.679,118.117 213.679,120.451 218.5,125.5 Z"/></g>
<g><path style="opacity:0.004" fill="#060606" d="M 331.5,121.5 C 331.833,121.5 332.167,121.5 332.5,121.5C 332.672,122.492 332.338,123.158 331.5,123.5C 331.5,122.833 331.5,122.167 331.5,121.5 Z"/></g>
<g><path style="opacity:0.004" fill="#090909" d="M 330.5,123.5 C 330.833,123.5 331.167,123.5 331.5,123.5C 331.672,124.492 331.338,125.158 330.5,125.5C 330.5,124.833 330.5,124.167 330.5,123.5 Z"/></g>
<g><path style="opacity:1" fill="#de786e" d="M 160.5,152.5 C 159.094,152.973 158.427,153.973 158.5,155.5C 156.254,157.649 154.754,160.316 154,163.5C 153.185,168.352 153.352,173.019 154.5,177.5C 154.402,179.553 155.069,181.22 156.5,182.5C 157.338,182.842 157.672,183.508 157.5,184.5C 157.427,186.027 158.094,187.027 159.5,187.5C 161.893,191.402 164.893,194.902 168.5,198C 167.833,198.667 167.167,199.333 166.5,200C 156.074,205.068 145.407,205.735 134.5,202C 138.903,201.921 142.237,200.087 144.5,196.5C 139.514,174.737 134.847,152.903 130.5,131C 131.154,129.013 132.487,127.68 134.5,127C 142.399,124.191 150.399,123.858 158.5,126C 164.245,127.526 168.911,130.526 172.5,135C 171.833,137 171.167,139 170.5,141C 166.585,144.409 163.252,148.242 160.5,152.5 Z"/></g>
<g><path style="opacity:1" fill="#5c3f3c" d="M 272.5,115.5 C 273.833,115.5 275.167,115.5 276.5,115.5C 259.598,121.469 242.598,127.469 225.5,133.5C 223.712,132.717 222.712,131.384 222.5,129.5C 223.531,130.355 224.697,131.022 226,131.5C 241.571,126.033 257.071,120.7 272.5,115.5 Z"/></g>
<g><path style="opacity:1" fill="#de786e" d="M 67.5,151.5 C 66.435,145.211 65.6017,138.877 65,132.5C 64.8784,130.563 64.045,129.23 62.5,128.5C 66.6813,127.34 71.0146,126.34 75.5,125.5C 76.3188,132.594 77.6521,139.594 79.5,146.5C 79.2908,147.994 78.6241,149.161 77.5,150C 74.2432,151.043 70.9099,151.543 67.5,151.5 Z"/></g>
<g><path style="opacity:0.004" fill="#050505" d="M 329.5,125.5 C 329.833,125.5 330.167,125.5 330.5,125.5C 330.672,126.492 330.338,127.158 329.5,127.5C 329.5,126.833 329.5,126.167 329.5,125.5 Z"/></g>
<g><path style="opacity:0.9" fill="#373636" d="M 44.5,126.5 C 46.4803,127.848 47.647,129.848 48,132.5C 50.2832,141.416 52.1165,150.416 53.5,159.5C 45.5478,162.002 37.3811,164.002 29,165.5C 27.2976,164.631 26.131,163.298 25.5,161.5C 23.0797,151.91 21.0797,142.243 19.5,132.5C 27.978,130.629 36.3113,128.629 44.5,126.5 Z M 38.5,133.5 C 34.3255,134.967 29.9921,136.3 25.5,137.5C 27.129,145.001 29.129,152.334 31.5,159.5C 36.9321,158.547 42.2654,157.214 47.5,155.5C 45.6873,148.915 44.1873,142.248 43,135.5C 41.951,133.893 40.451,133.227 38.5,133.5 Z"/></g>
<g><path style="opacity:0.004" fill="#000000" d="M 328.5,127.5 C 328.833,127.5 329.167,127.5 329.5,127.5C 329.315,128.17 328.981,128.17 328.5,127.5 Z"/></g>
<g><path style="opacity:1" fill="#d34133" d="M 62.5,128.5 C 64.045,129.23 64.8784,130.563 65,132.5C 65.6017,138.877 66.435,145.211 67.5,151.5C 65.7354,152.461 63.7354,152.795 61.5,152.5C 60.7455,145.561 59.4121,138.727 57.5,132C 57.743,128.997 59.4096,127.83 62.5,128.5 Z"/></g>
<g><path style="opacity:0.004" fill="#040404" d="M 324.5,131.5 C 324.897,130.475 325.563,130.308 326.5,131C 325.906,131.464 325.239,131.631 324.5,131.5 Z"/></g>
<g><path style="opacity:0.004" fill="#030303" d="M 307.5,130.5 C 309.933,130.786 309.933,131.452 307.5,132.5C 307.5,131.833 307.5,131.167 307.5,130.5 Z"/></g>
<g><path style="opacity:0.004" fill="#000100" d="M 318.5,131.5 C 318.5,131.833 318.5,132.167 318.5,132.5C 315.833,132.167 315.833,131.833 318.5,131.5 Z"/></g>
<g><path style="opacity:0.004" fill="#020302" d="M 321.5,132.5 C 321.897,131.475 322.563,131.308 323.5,132C 322.906,132.464 322.239,132.631 321.5,132.5 Z"/></g>
<g><path style="opacity:0.004" fill="#fe2f13" d="M -0.5,132.5 C -0.166667,132.5 0.166667,132.5 0.5,132.5C 0.31468,133.17 -0.0186536,133.17 -0.5,132.5 Z"/></g>
<g><path style="opacity:0.004" fill="#000000" d="M 318.5,132.5 C 319.239,132.369 319.906,132.536 320.5,133C 319.563,133.692 318.897,133.525 318.5,132.5 Z"/></g>
<g><path style="opacity:0.989" fill="#d13d30" d="M 291.5,133.5 C 291.5,133.833 291.5,134.167 291.5,134.5C 292.167,134.5 292.5,134.833 292.5,135.5C 290.843,143.409 289.51,151.409 288.5,159.5C 289.873,159.343 291.207,159.51 292.5,160C 290.618,160.198 288.952,160.698 287.5,161.5C 286.5,161.5 285.5,161.5 284.5,161.5C 279.222,160.245 273.889,159.245 268.5,158.5C 269.29,152.429 270.29,146.429 271.5,140.5C 275.099,139.301 278.765,138.301 282.5,137.5C 282.33,136.178 282.663,135.011 283.5,134C 286.164,132.487 288.83,132.32 291.5,133.5 Z"/></g>
<g><path style="opacity:0.004" fill="#050505" d="M 306.5,132.5 C 306.833,132.5 307.167,132.5 307.5,132.5C 307.167,135.167 306.833,135.167 306.5,132.5 Z"/></g>
<g><path style="opacity:0.004" fill="#121212" d="M 300.5,138.5 C 300.5,138.167 300.5,137.833 300.5,137.5C 304.5,137.833 304.5,138.167 300.5,138.5 Z"/></g>
<g><path style="opacity:0.004" fill="#111111" d="M 297.5,139.5 C 297.5,139.167 297.5,138.833 297.5,138.5C 298.5,138.5 299.5,138.5 300.5,138.5C 299.791,139.404 298.791,139.737 297.5,139.5 Z"/></g>
<g><path style="opacity:1" fill="#d9756b" d="M 271.5,140.5 C 270.29,146.429 269.29,152.429 268.5,158.5C 262.764,157.751 257.097,156.584 251.5,155C 254,154.115 256.333,152.948 258.5,151.5C 259.684,147.443 261.351,143.61 263.5,140C 266.413,137.909 269.08,138.076 271.5,140.5 Z"/></g>
<g><path style="opacity:0.004" fill="#000100" d="M 297.5,139.5 C 297.103,140.525 296.437,140.692 295.5,140C 296.094,139.536 296.761,139.369 297.5,139.5 Z"/></g>
<g><path style="opacity:1" fill="#574542" d="M 291.5,132.5 C 291.5,132.833 291.5,133.167 291.5,133.5C 288.83,132.32 286.164,132.487 283.5,134C 282.663,135.011 282.33,136.178 282.5,137.5C 278.765,138.301 275.099,139.301 271.5,140.5C 269.08,138.076 266.413,137.909 263.5,140C 261.351,143.61 259.684,147.443 258.5,151.5C 256.333,152.948 254,154.115 251.5,155C 257.097,156.584 262.764,157.751 268.5,158.5C 273.889,159.245 279.222,160.245 284.5,161.5C 284.5,161.833 284.5,162.167 284.5,162.5C 272.51,160.502 260.51,158.502 248.5,156.5C 246.452,156.672 244.452,157.005 242.5,157.5C 241.039,158.686 239.705,158.686 238.5,157.5C 244.696,155.102 251.029,153.102 257.5,151.5C 258.436,146.527 260.436,142.027 263.5,138C 266.694,137.408 269.861,137.574 273,138.5C 275.261,138.135 277.427,137.469 279.5,136.5C 282.624,132.125 286.624,130.792 291.5,132.5 Z"/></g>
<g><path style="opacity:1" fill="#504c4b" d="M 176.5,132.5 C 178.749,136.598 181.249,140.598 184,144.5C 185.913,142.813 188.08,142.313 190.5,143C 197.674,147.509 201.674,154.009 202.5,162.5C 202.685,169.154 199.685,173.487 193.5,175.5C 186.262,173.062 181.762,168.062 180,160.5C 179.694,155.087 180.027,149.754 181,144.5C 179.615,140.687 177.115,138.021 173.5,136.5C 174.659,135.26 175.659,133.926 176.5,132.5 Z"/></g>
<g><path style="opacity:1" fill="#c9c9c9" d="M 196.5,151.5 C 200.212,156.118 201.378,161.451 200,167.5C 198.757,172.921 195.59,174.588 190.5,172.5C 195.018,166.258 197.018,159.258 196.5,151.5 Z"/></g>
<g><path style="opacity:1" fill="#d8756b" d="M 185.5,147.5 C 191.765,147.363 194.265,150.363 193,156.5C 192.163,158.844 190.829,160.844 189,162.5C 188.401,157.331 187.234,152.331 185.5,147.5 Z"/></g>
<g><path style="opacity:1" fill="#d27269" d="M 181.5,149.5 C 183.776,149.756 184.943,151.09 185,153.5C 185.828,157.871 185.661,162.205 184.5,166.5C 183.066,164.78 182.233,162.78 182,160.5C 181.501,156.848 181.335,153.182 181.5,149.5 Z"/></g>
<g><path style="opacity:1" fill="#aeaeae" d="M 185.5,144.5 C 188.798,144.016 191.464,145.016 193.5,147.5C 193.333,147.833 193.167,148.167 193,148.5C 190.151,147.478 187.651,146.144 185.5,144.5 Z"/></g>
<g><path style="opacity:1" fill="#3c3231" d="M 160.5,152.5 C 160.573,154.027 159.906,155.027 158.5,155.5C 158.427,153.973 159.094,152.973 160.5,152.5 Z"/></g>
<g><path style="opacity:1" fill="#433635" d="M 158.5,155.5 C 155.087,162.41 153.753,169.744 154.5,177.5C 153.352,173.019 153.185,168.352 154,163.5C 154.754,160.316 156.254,157.649 158.5,155.5 Z"/></g>
<g><path style="opacity:1" fill="#c1c1c1" d="M 284.5,162.5 C 298.617,165.183 312.617,167.85 326.5,170.5C 326.03,171.693 325.03,172.36 323.5,172.5C 296.217,168.233 269.217,163.233 242.5,157.5C 244.452,157.005 246.452,156.672 248.5,156.5C 260.51,158.502 272.51,160.502 284.5,162.5 Z"/></g>
<g><path style="opacity:1" fill="#dd786e" d="M 112.5,159.5 C 113.833,159.5 115.167,159.5 116.5,159.5C 117.412,166.573 118.746,173.573 120.5,180.5C 120.167,181.5 119.833,182.5 119.5,183.5C 113.954,185.15 108.287,186.15 102.5,186.5C 101.255,178.789 100.088,171.122 99,163.5C 103.643,162.321 108.143,160.988 112.5,159.5 Z"/></g>
<g><path style="opacity:0.004" fill="#060606" d="M 298.5,161.5 C 296.801,161.66 295.134,161.494 293.5,161C 295.387,160.22 297.054,160.387 298.5,161.5 Z"/></g>
<g><path style="opacity:1" fill="#3c3837" d="M 87.5,160.5 C 88.4972,160.47 89.1639,160.97 89.5,162C 92.4092,172.38 94.7425,182.88 96.5,193.5C 88.5478,196.002 80.3811,198.002 72,199.5C 70.2976,198.631 69.131,197.298 68.5,195.5C 66.0797,185.91 64.0797,176.243 62.5,166.5C 70.978,164.629 79.3113,162.629 87.5,160.5 Z"/></g>
<g><path style="opacity:0.004" fill="#090909" d="M 298.5,162.5 C 298.5,162.167 298.5,161.833 298.5,161.5C 305.167,161.833 305.167,162.167 298.5,162.5 Z"/></g>
<g><path style="opacity:1" fill="#cccccc" d="M 333.5,180.5 C 336.017,182.077 336.017,183.91 333.5,186C 328.355,189.317 323.188,192.484 318,195.5C 315.979,195.327 314.146,194.66 312.5,193.5C 310.293,188.041 306.293,185.874 300.5,187C 298.057,190.49 294.89,191.323 291,189.5C 289.136,187.277 287.636,184.777 286.5,182C 284.482,181.495 282.482,180.995 280.5,180.5C 275.304,182.12 270.304,181.786 265.5,179.5C 264.967,176.475 263.133,175.142 260,175.5C 255.7,177.106 251.866,179.606 248.5,183C 241.773,182.873 235.106,182.039 228.5,180.5C 233.706,174.901 235.873,168.234 235,160.5C 236.049,159.483 237.216,159.316 238.5,160C 237.167,160.667 237.167,161.333 238.5,162C 270.4,167.757 302.067,173.924 333.5,180.5 Z"/></g>
<g><path style="opacity:0.004" fill="#040404" d="M 304.5,163.5 C 305.601,162.402 306.934,162.235 308.5,163C 307.207,163.49 305.873,163.657 304.5,163.5 Z"/></g>
<g><path style="opacity:0.324" fill="#191818" d="M 284.5,162.5 C 284.5,162.167 284.5,161.833 284.5,161.5C 285.5,161.5 286.5,161.5 287.5,161.5C 291.154,161.942 294.821,162.276 298.5,162.5C 307.261,164.784 316.261,166.45 325.5,167.5C 327.836,168.296 329.169,169.962 329.5,172.5C 328.5,171.833 327.5,171.167 326.5,170.5C 312.617,167.85 298.617,165.183 284.5,162.5 Z"/></g>
<g><path style="opacity:1" fill="#c3c3c3" d="M 193.5,157.5 C 194.743,162.809 193.076,167.143 188.5,170.5C 186.296,170.473 185.462,169.473 186,167.5C 189.511,164.836 192.011,161.502 193.5,157.5 Z"/></g>
<g><path style="opacity:0.004" fill="#2c2c2c" d="M 325.5,167.5 C 325.897,166.475 326.563,166.308 327.5,167C 326.906,167.464 326.239,167.631 325.5,167.5 Z"/></g>
<g><path style="opacity:1" fill="#de786e" d="M 76.5,193.5 C 75.3223,186.787 73.8223,180.12 72,173.5C 71.7645,171.881 70.9311,170.881 69.5,170.5C 74.9823,168.857 80.649,167.523 86.5,166.5C 87.3188,173.594 88.6521,180.594 90.5,187.5C 90.1667,188.5 89.8333,189.5 89.5,190.5C 85.1957,191.779 80.8624,192.779 76.5,193.5 Z"/></g>
<g><path style="opacity:0.995" fill="#686868" d="M 238.5,157.5 C 239.705,158.686 241.039,158.686 242.5,157.5C 269.217,163.233 296.217,168.233 323.5,172.5C 325.03,172.36 326.03,171.693 326.5,170.5C 327.5,171.167 328.5,171.833 329.5,172.5C 330.5,173.167 331.5,173.833 332.5,174.5C 332.733,176.062 333.4,177.395 334.5,178.5C 333.662,178.842 333.328,179.508 333.5,180.5C 302.067,173.924 270.4,167.757 238.5,162C 237.167,161.333 237.167,160.667 238.5,160C 237.216,159.316 236.049,159.483 235,160.5C 235.873,168.234 233.706,174.901 228.5,180.5C 227.833,180.5 227.167,180.5 226.5,180.5C 231.834,174.204 234.167,166.871 233.5,158.5C 235.216,158.371 236.883,158.038 238.5,157.5 Z"/></g>
<g><path style="opacity:1" fill="#d34336" d="M 69.5,170.5 C 70.9311,170.881 71.7645,171.881 72,173.5C 73.8223,180.12 75.3223,186.787 76.5,193.5C 75.1667,193.5 73.8333,193.5 72.5,193.5C 71.7455,186.561 70.4121,179.727 68.5,173C 68.528,171.93 68.8614,171.097 69.5,170.5 Z"/></g>
<g><path style="opacity:0.004" fill="#585958" d="M 333.5,174.5 C 332.833,173.167 332.833,173.167 333.5,174.5 Z"/></g>
<g><path style="opacity:0.004" fill="#535453" d="M 333.5,174.5 C 334.833,175.167 334.833,175.167 333.5,174.5 Z"/></g>
<g><path style="opacity:1" fill="#de786e" d="M 263.5,178.5 C 260.437,191.022 256.77,203.355 252.5,215.5C 252.167,215.5 251.833,215.5 251.5,215.5C 250.5,215.167 249.833,214.5 249.5,213.5C 246.899,209.229 243.566,205.563 239.5,202.5C 236.564,197.895 232.898,193.895 228.5,190.5C 227.611,188.264 226.278,186.264 224.5,184.5C 224.977,183.522 225.643,182.689 226.5,182C 232.8,182.603 239.134,183.437 245.5,184.5C 250.076,183.124 254.076,180.624 257.5,177C 259.775,176.595 261.775,177.095 263.5,178.5 Z"/></g>
<g><path style="opacity:0.004" fill="#1c1c1c" d="M 335.5,178.5 C 335.897,177.475 336.563,177.308 337.5,178C 336.906,178.464 336.239,178.631 335.5,178.5 Z"/></g>
<g><path style="opacity:1" fill="#3f3635" d="M 154.5,177.5 C 155.931,178.78 156.598,180.447 156.5,182.5C 155.069,181.22 154.402,179.553 154.5,177.5 Z"/></g>
<g><path style="opacity:0.982" fill="#d43f31" d="M 263.5,178.5 C 264.167,178.833 264.833,179.167 265.5,179.5C 265.414,180.496 265.748,181.329 266.5,182C 269.188,182.392 271.855,182.892 274.5,183.5C 276.325,182.349 278.325,181.682 280.5,181.5C 280.5,181.833 280.5,182.167 280.5,182.5C 281.209,183.404 282.209,183.737 283.5,183.5C 282.282,184.161 280.949,184.828 279.5,185.5C 273.598,198.307 266.932,210.641 259.5,222.5C 256.833,220.5 254.5,218.167 252.5,215.5C 256.77,203.355 260.437,191.022 263.5,178.5 Z"/></g>
<g><path style="opacity:1" fill="#57332d" d="M 265.5,179.5 C 270.304,181.786 275.304,182.12 280.5,180.5C 280.5,180.833 280.5,181.167 280.5,181.5C 278.325,181.682 276.325,182.349 274.5,183.5C 271.855,182.892 269.188,182.392 266.5,182C 265.748,181.329 265.414,180.496 265.5,179.5 Z"/></g>
<g><path style="opacity:0.004" fill="#040404" d="M 338.5,185.5 C 338.34,183.801 338.506,182.134 339,180.5C 339.78,182.387 339.613,184.054 338.5,185.5 Z"/></g>
<g><path style="opacity:1" fill="#402e2b" d="M 157.5,184.5 C 158.906,184.973 159.573,185.973 159.5,187.5C 158.094,187.027 157.427,186.027 157.5,184.5 Z"/></g>
<g><path style="opacity:1" fill="#cccccc" d="M 168.5,147.5 C 167.224,149.562 166.39,151.896 166,154.5C 161.742,180.39 172.575,194.39 198.5,196.5C 206.457,196.743 213.124,194.077 218.5,188.5C 219.191,186.978 220.358,185.978 222,185.5C 224.317,186.985 226.484,188.652 228.5,190.5C 231.436,195.105 235.102,199.105 239.5,202.5C 242.101,206.771 245.434,210.437 249.5,213.5C 249.833,214.5 250.5,215.167 251.5,215.5C 262.107,228.111 273.107,240.444 284.5,252.5C 284.649,253.552 284.483,254.552 284,255.5C 264.476,234.311 244.643,213.478 224.5,193C 222.833,192.333 221.167,192.333 219.5,193C 242.132,217.122 264.132,241.622 285.5,266.5C 285.586,267.496 285.252,268.329 284.5,269C 277.476,269.831 270.476,269.664 263.5,268.5C 260.929,265.02 259.763,261.02 260,256.5C 258.615,255.449 257.615,254.116 257,252.5C 252.242,252.503 248.242,250.836 245,247.5C 244.336,244.484 244.836,241.651 246.5,239C 245.35,236.684 243.683,234.85 241.5,233.5C 237.73,232.107 234.396,229.773 231.5,226.5C 232.186,222.713 231.186,219.546 228.5,217C 223.085,216.785 217.752,216.285 212.5,215.5C 209.899,211.229 206.566,207.563 202.5,204.5C 201.514,201.514 199.514,199.514 196.5,198.5C 190.416,201.16 184.082,201.993 177.5,201C 170.513,197.851 164.513,193.351 159.5,187.5C 159.573,185.973 158.906,184.973 157.5,184.5C 157.672,183.508 157.338,182.842 156.5,182.5C 156.598,180.447 155.931,178.78 154.5,177.5C 153.753,169.744 155.087,162.41 158.5,155.5C 159.906,155.027 160.573,154.027 160.5,152.5C 163.13,150.372 165.63,148.039 168,145.5C 168.464,146.094 168.631,146.761 168.5,147.5 Z"/></g>
<g><path style="opacity:1" fill="#4c3633" d="M 265.5,179.5 C 264.833,179.167 264.167,178.833 263.5,178.5C 261.775,177.095 259.775,176.595 257.5,177C 254.076,180.624 250.076,183.124 245.5,184.5C 239.134,183.437 232.8,182.603 226.5,182C 225.643,182.689 224.977,183.522 224.5,184.5C 226.278,186.264 227.611,188.264 228.5,190.5C 226.484,188.652 224.317,186.985 222,185.5C 220.358,185.978 219.191,186.978 218.5,188.5C 217.375,187.652 217.375,186.652 218.5,185.5C 221.167,183.833 223.833,182.167 226.5,180.5C 227.167,180.5 227.833,180.5 228.5,180.5C 235.106,182.039 241.773,182.873 248.5,183C 251.866,179.606 255.7,177.106 260,175.5C 263.133,175.142 264.967,176.475 265.5,179.5 Z"/></g>
<g><path style="opacity:0.004" fill="#000000" d="M 337.5,185.5 C 337.833,185.5 338.167,185.5 338.5,185.5C 338.315,186.17 337.981,186.17 337.5,185.5 Z"/></g>
<g><path style="opacity:0.004" fill="#000000" d="M 336.5,186.5 C 336.833,186.5 337.167,186.5 337.5,186.5C 337.315,187.17 336.981,187.17 336.5,186.5 Z"/></g>
<g><path style="opacity:0.39" fill="#191919" d="M 334.5,178.5 C 334.833,178.5 335.167,178.5 335.5,178.5C 337.148,180.456 337.815,182.789 337.5,185.5C 336.833,185.5 336.5,185.833 336.5,186.5C 335.508,186.328 334.842,186.662 334.5,187.5C 333.833,187.5 333.5,187.833 333.5,188.5C 332.508,188.328 331.842,188.662 331.5,189.5C 329.246,190.124 327.579,191.457 326.5,193.5C 325.508,193.328 324.842,193.662 324.5,194.5C 323.833,194.5 323.5,194.833 323.5,195.5C 322.508,195.328 321.842,195.662 321.5,196.5C 320.833,196.5 320.5,196.833 320.5,197.5C 316.809,197.342 313.476,196.342 310.5,194.5C 310.068,193.29 309.401,192.29 308.5,191.5C 305.116,187.695 301.783,187.695 298.5,191.5C 297.833,191.5 297.5,191.833 297.5,192.5C 293.079,192.646 289.413,191.312 286.5,188.5C 286.741,185.966 285.741,184.3 283.5,183.5C 282.791,182.596 281.791,182.263 280.5,182.5C 280.5,182.167 280.5,181.833 280.5,181.5C 280.5,181.167 280.5,180.833 280.5,180.5C 282.482,180.995 284.482,181.495 286.5,182C 287.636,184.777 289.136,187.277 291,189.5C 294.89,191.323 298.057,190.49 300.5,187C 306.293,185.874 310.293,188.041 312.5,193.5C 314.146,194.66 315.979,195.327 318,195.5C 323.188,192.484 328.355,189.317 333.5,186C 336.017,183.91 336.017,182.077 333.5,180.5C 333.328,179.508 333.662,178.842 334.5,178.5 Z"/></g>
<g><path style="opacity:0.004" fill="#040404" d="M 334.5,188.5 C 334.5,188.167 334.5,187.833 334.5,187.5C 335.167,187.5 335.833,187.5 336.5,187.5C 336.158,188.338 335.492,188.672 334.5,188.5 Z"/></g>
<g><path style="opacity:1" fill="#595959" d="M 171.5,143.5 C 171.334,148.511 171.501,153.511 172,158.5C 177.361,185.585 192.861,194.585 218.5,185.5C 217.375,186.652 217.375,187.652 218.5,188.5C 213.124,194.077 206.457,196.743 198.5,196.5C 172.575,194.39 161.742,180.39 166,154.5C 166.39,151.896 167.224,149.562 168.5,147.5C 168.81,148.738 169.31,148.738 170,147.5C 170.21,145.942 170.71,144.609 171.5,143.5 Z"/></g>
<g><path style="opacity:1" fill="#cbcbcb" d="M 168.5,149.5 C 169.636,163.725 175.303,175.892 185.5,186C 194.48,192.301 203.98,193.134 214,188.5C 214.5,188.833 215,189.167 215.5,189.5C 210.302,193.259 204.469,194.926 198,194.5C 181.428,195.063 171.095,187.397 167,171.5C 166.302,164.08 166.802,156.747 168.5,149.5 Z"/></g>
<g><path style="opacity:0.008" fill="#000000" d="M 333.5,188.5 C 333.833,188.5 334.167,188.5 334.5,188.5C 334.315,189.17 333.981,189.17 333.5,188.5 Z"/></g>
<g><path style="opacity:0.004" fill="#080808" d="M 286.5,188.5 C 286.631,189.239 286.464,189.906 286,190.5C 285.308,189.563 285.475,188.897 286.5,188.5 Z"/></g>
<g><path style="opacity:0.004" fill="#070707" d="M 331.5,189.5 C 332.167,189.5 332.833,189.5 333.5,189.5C 332.833,190.833 332.167,190.833 331.5,189.5 Z"/></g>
<g><path style="opacity:0.004" fill="#000000" d="M 300.5,190.5 C 301.833,191.167 301.833,191.167 300.5,190.5 Z"/></g>
<g><path style="opacity:1" fill="#4a3937" d="M 228.5,190.5 C 232.898,193.895 236.564,197.895 239.5,202.5C 235.102,199.105 231.436,195.105 228.5,190.5 Z"/></g>
<g><path style="opacity:0.008" fill="#000000" d="M 298.5,191.5 C 299.833,192.167 299.833,192.167 298.5,191.5 Z"/></g>
<g><path style="opacity:0.004" fill="#000000" d="M 297.5,192.5 C 297.833,192.5 298.167,192.5 298.5,192.5C 298.315,193.17 297.981,193.17 297.5,192.5 Z"/></g>
<g><path style="opacity:0.004" fill="#020302" d="M 308.5,191.5 C 308.631,192.239 308.464,192.906 308,193.5C 307.308,192.563 307.475,191.897 308.5,191.5 Z"/></g>
<g><path style="opacity:0.004" fill="#000100" d="M 297.5,193.5 C 296.399,194.598 295.066,194.765 293.5,194C 294.793,193.51 296.127,193.343 297.5,193.5 Z"/></g>
<g><path style="opacity:0.008" fill="#000000" d="M 326.5,193.5 C 327.833,194.167 327.833,194.167 326.5,193.5 Z"/></g>
<g><path style="opacity:0.004" fill="#000000" d="M 310.5,194.5 C 309.833,195.167 309.833,195.167 310.5,194.5 Z"/></g>
<g><path style="opacity:0.004" fill="#010201" d="M 324.5,195.5 C 324.5,195.167 324.5,194.833 324.5,194.5C 325.167,194.5 325.833,194.5 326.5,194.5C 326.158,195.338 325.492,195.672 324.5,195.5 Z"/></g>
<g><path style="opacity:0.008" fill="#000000" d="M 323.5,195.5 C 323.833,195.5 324.167,195.5 324.5,195.5C 324.315,196.17 323.981,196.17 323.5,195.5 Z"/></g>
<g><path style="opacity:0.004" fill="#040404" d="M 321.5,197.5 C 321.5,197.167 321.5,196.833 321.5,196.5C 322.167,196.5 322.833,196.5 323.5,196.5C 323.158,197.338 322.492,197.672 321.5,197.5 Z"/></g>
<g><path style="opacity:0.007" fill="#080808" d="M 312.5,198.5 C 313.601,197.402 314.934,197.235 316.5,198C 315.207,198.49 313.873,198.657 312.5,198.5 Z"/></g>
<g><path style="opacity:0.008" fill="#000000" d="M 320.5,197.5 C 320.833,197.5 321.167,197.5 321.5,197.5C 321.315,198.17 320.981,198.17 320.5,197.5 Z"/></g>
<g><path style="opacity:0.004" fill="#000000" d="M 320.5,198.5 C 319.749,199.573 318.749,199.74 317.5,199C 318.448,198.517 319.448,198.351 320.5,198.5 Z"/></g>
<g><path style="opacity:1" fill="#e17a70" d="M 202.5,204.5 C 205.101,208.771 208.434,212.437 212.5,215.5C 217.067,217.285 222.067,218.118 227.5,218C 229.808,220.447 231.141,223.281 231.5,226.5C 233.201,231.205 236.534,233.538 241.5,233.5C 242.203,235.716 243.536,237.549 245.5,239C 244.418,240.33 243.751,241.83 243.5,243.5C 242.833,243.5 242.5,243.833 242.5,244.5C 242.5,244.833 242.5,245.167 242.5,245.5C 241.833,245.5 241.5,245.833 241.5,246.5C 233.362,256.752 226.195,267.752 220,279.5C 210.306,296.77 202.472,314.77 196.5,333.5C 196.34,335.153 195.674,336.486 194.5,337.5C 194.19,336.262 193.69,336.262 193,337.5C 185.568,350.713 177.401,363.38 168.5,375.5C 158.148,360.658 148.482,345.992 139.5,331.5C 138.094,331.027 137.427,330.027 137.5,328.5C 130.951,308.394 122.451,289.06 112,270.5C 106.973,261.759 101.473,253.425 95.5,245.5C 94.3263,244.486 93.6596,243.153 93.5,241.5C 94.0431,241.44 94.3764,241.107 94.5,240.5C 90.6618,230.95 86.6618,221.616 82.5,212.5C 97.5006,209.333 112.667,206.333 128,203.5C 143.256,209.886 157.756,208.553 171.5,199.5C 179.816,204.754 188.15,204.754 196.5,199.5C 198.519,201.19 200.519,202.856 202.5,204.5 Z"/></g>
<g><path style="opacity:1" fill="#493937" d="M 239.5,202.5 C 243.566,205.563 246.899,209.229 249.5,213.5C 245.434,210.437 242.101,206.771 239.5,202.5 Z"/></g>
<g><path style="opacity:1" fill="#4a3533" d="M 202.5,204.5 C 206.566,207.563 209.899,211.229 212.5,215.5C 208.434,212.437 205.101,208.771 202.5,204.5 Z"/></g>
<g><path style="opacity:0.95" fill="#d74235" d="M 82.5,212.5 C 86.6618,221.616 90.6618,230.95 94.5,240.5C 94.3764,241.107 94.0431,241.44 93.5,241.5C 86.8333,232.833 80.1667,224.167 73.5,215.5C 73.5,215.167 73.5,214.833 73.5,214.5C 76.3704,213.366 79.3704,212.7 82.5,212.5 Z"/></g>
<g><path style="opacity:1" fill="#482b27" d="M 212.5,215.5 C 217.752,216.285 223.085,216.785 228.5,217C 231.186,219.546 232.186,222.713 231.5,226.5C 231.141,223.281 229.808,220.447 227.5,218C 222.067,218.118 217.067,217.285 212.5,215.5 Z"/></g>
<g><path style="opacity:0.004" fill="#fe2f13" d="M 65.5,217.5 C 64.8333,218.167 64.8333,218.167 65.5,217.5 Z"/></g>
<g><path style="opacity:1" fill="#666666" d="M 284.5,252.5 C 285.167,254.167 285.833,255.833 286.5,257.5C 286.865,259.588 286.865,261.921 286.5,264.5C 285.662,264.842 285.328,265.508 285.5,266.5C 264.132,241.622 242.132,217.122 219.5,193C 221.167,192.333 222.833,192.333 224.5,193C 244.643,213.478 264.476,234.311 284,255.5C 284.483,254.552 284.649,253.552 284.5,252.5 Z"/></g>
<g><path style="opacity:0.005" fill="#000000" d="M 262.5,225.5 C 262.5,224.833 262.167,224.5 261.5,224.5C 261.747,222.025 262.413,222.025 263.5,224.5C 263.376,225.107 263.043,225.44 262.5,225.5 Z"/></g>
<g><path style="opacity:1" fill="#553936" d="M 231.5,226.5 C 234.396,229.773 237.73,232.107 241.5,233.5C 236.534,233.538 233.201,231.205 231.5,226.5 Z"/></g>
<g><path style="opacity:0.663" fill="#191818" d="M 251.5,215.5 C 251.833,215.5 252.167,215.5 252.5,215.5C 254.5,218.167 256.833,220.5 259.5,222.5C 259.833,223.5 260.5,224.167 261.5,224.5C 262.167,224.5 262.5,224.833 262.5,225.5C 265.862,229.192 269.195,232.859 272.5,236.5C 272.5,237.167 272.833,237.5 273.5,237.5C 276.529,240.859 279.529,244.192 282.5,247.5C 282.5,248.167 282.833,248.5 283.5,248.5C 283.5,249.167 283.833,249.5 284.5,249.5C 285.167,250.833 286.167,251.833 287.5,252.5C 287.371,254.216 287.038,255.883 286.5,257.5C 285.833,255.833 285.167,254.167 284.5,252.5C 273.107,240.444 262.107,228.111 251.5,215.5 Z"/></g>
<g><path style="opacity:0.005" fill="#000000" d="M 273.5,237.5 C 272.833,237.5 272.5,237.167 272.5,236.5C 272.747,234.025 273.413,234.025 274.5,236.5C 274.376,237.107 274.043,237.44 273.5,237.5 Z"/></g>
<g><path style="opacity:0.235" fill="#fefcfc" d="M 95.5,245.5 C 101.473,253.425 106.973,261.759 112,270.5C 122.451,289.06 130.951,308.394 137.5,328.5C 121.152,302.138 107.152,274.471 95.5,245.5 Z"/></g>
<g><path style="opacity:0.005" fill="#000000" d="M 284.5,249.5 C 283.833,249.5 283.5,249.167 283.5,248.5C 282.833,248.5 282.5,248.167 282.5,247.5C 283.286,245.408 284.286,245.741 285.5,248.5C 285.376,249.107 285.043,249.44 284.5,249.5 Z"/></g>
<g><path style="opacity:0.238" fill="#fdfbfb" d="M 241.5,246.5 C 241.5,247.167 241.833,247.5 242.5,247.5C 234.061,264.377 225.561,281.377 217,298.5C 210.645,310.558 203.811,322.225 196.5,333.5C 202.472,314.77 210.306,296.77 220,279.5C 226.195,267.752 233.362,256.752 241.5,246.5 Z"/></g>
<g><path style="opacity:0.004" fill="#000000" d="M 245.5,250.5 C 245.5,251.167 245.833,251.5 246.5,251.5C 246.44,252.043 246.107,252.376 245.5,252.5C 244.227,251.743 244.227,251.077 245.5,250.5 Z"/></g>
<g><path style="opacity:0.004" fill="#000000" d="M 288.5,252.5 C 287.833,251.167 287.833,251.167 288.5,252.5 Z"/></g>
<g><path style="opacity:0.004" fill="#191919" d="M 288.5,252.5 C 289.634,254.966 289.801,257.633 289,260.5C 288.503,257.854 288.336,255.187 288.5,252.5 Z"/></g>
<g><path style="opacity:0.417" fill="#1a1a19" d="M 241.5,233.5 C 243.683,234.85 245.35,236.684 246.5,239C 244.836,241.651 244.336,244.484 245,247.5C 248.242,250.836 252.242,252.503 257,252.5C 257.615,254.116 258.615,255.449 260,256.5C 259.763,261.02 260.929,265.02 263.5,268.5C 270.476,269.664 277.476,269.831 284.5,269C 285.252,268.329 285.586,267.496 285.5,266.5C 285.328,265.508 285.662,264.842 286.5,264.5C 287.167,265.833 287.833,267.167 288.5,268.5C 287.833,268.5 287.5,268.833 287.5,269.5C 286.833,269.5 286.5,269.833 286.5,270.5C 279.246,271.63 271.913,271.796 264.5,271C 262.376,269.878 260.543,268.378 259,266.5C 258.667,263.167 258.333,259.833 258,256.5C 257.167,255.667 256.333,254.833 255.5,254C 252.189,253.943 249.189,253.11 246.5,251.5C 245.833,251.5 245.5,251.167 245.5,250.5C 244.833,249.167 243.833,248.167 242.5,247.5C 242.5,246.833 242.5,246.167 242.5,245.5C 242.5,245.167 242.5,244.833 242.5,244.5C 243.167,244.5 243.5,244.167 243.5,243.5C 243.751,241.83 244.418,240.33 245.5,239C 243.536,237.549 242.203,235.716 241.5,233.5 Z"/></g>
<g><path style="opacity:0.004" fill="#000000" d="M 289.5,267.5 C 290.833,268.167 290.833,268.167 289.5,267.5 Z"/></g>
<g><path style="opacity:0.004" fill="#010201" d="M 288.5,268.5 C 288.833,268.5 289.167,268.5 289.5,268.5C 289.315,269.17 288.981,269.17 288.5,268.5 Z"/></g>
<g><path style="opacity:0.004" fill="#000000" d="M 287.5,269.5 C 287.833,269.5 288.167,269.5 288.5,269.5C 288.315,270.17 287.981,270.17 287.5,269.5 Z"/></g>
<g><path style="opacity:0.008" fill="#000000" d="M 286.5,270.5 C 286.833,270.5 287.167,270.5 287.5,270.5C 287.315,271.17 286.981,271.17 286.5,270.5 Z"/></g>
<g><path style="opacity:0.985" fill="#d63f31" d="M 194.5,337.5 C 183.074,371.294 176.408,405.961 174.5,441.5C 170.833,441.5 167.167,441.5 163.5,441.5C 162.828,440.733 161.995,440.066 161,439.5C 158.638,402.526 151.472,366.526 139.5,331.5C 148.482,345.992 158.148,360.658 168.5,375.5C 177.401,363.38 185.568,350.713 193,337.5C 193.69,336.262 194.19,336.262 194.5,337.5 Z"/></g>
</svg>
