<svg xmlns="http://www.w3.org/2000/svg" xmlns:xlink="http://www.w3.org/1999/xlink" width="35" height="40" viewBox="0 0 35 44"><defs><clipPath id="x"><path d="M0 0h35v44H0z"/></clipPath><clipPath id="T"><path d="M0 0h35v44H0z"/></clipPath><clipPath id="S"><path d="M0 0h35v44H0z"/></clipPath><clipPath id="c"><path d="M0 0h35v44H0z"/></clipPath><clipPath id="R"><path d="M0 0h35v44H0z"/></clipPath><clipPath id="d"><path d="M0 0h35v44H0z"/></clipPath><clipPath id="Q"><path d="M0 0h35v44H0z"/></clipPath><clipPath id="e"><path d="M0 0h35v44H0z"/></clipPath><clipPath id="P"><path d="M0 0h35v44H0z"/></clipPath><clipPath id="f"><path d="M0 0h35v44H0z"/></clipPath><clipPath id="O"><path d="M0 0h35v44H0z"/></clipPath><clipPath id="g"><path d="M0 0h35v44H0z"/></clipPath><clipPath id="N"><path d="M0 0h35v44H0z"/></clipPath><clipPath id="h"><path d="M0 0h35v44H0z"/></clipPath><clipPath id="M"><path d="M0 0h35v44H0z"/></clipPath><clipPath id="i"><path d="M0 0h35v44H0z"/></clipPath><clipPath id="L"><path d="M0 0h35v44H0z"/></clipPath><clipPath id="j"><path d="M0 0h35v44H0z"/></clipPath><clipPath id="K"><path d="M0 0h35v44H0z"/></clipPath><clipPath id="k"><path d="M0 0h35v44H0z"/></clipPath><clipPath id="J"><path d="M0 0h35v44H0z"/></clipPath><clipPath id="l"><path d="M0 0h35v44H0z"/></clipPath><clipPath id="I"><path d="M0 0h35v44H0z"/></clipPath><clipPath id="m"><path d="M0 0h35v44H0z"/></clipPath><clipPath id="H"><path d="M0 0h35v44H0z"/></clipPath><clipPath id="n"><path d="M0 0h35v44H0z"/></clipPath><clipPath id="G"><path d="M0 0h35v44H0z"/></clipPath><clipPath id="o"><path d="M0 0h35v44H0z"/></clipPath><clipPath id="F"><path d="M0 0h35v44H0z"/></clipPath><clipPath id="p"><path d="M0 0h35v44H0z"/></clipPath><clipPath id="E"><path d="M0 0h35v44H0z"/></clipPath><clipPath id="q"><path d="M0 0h35v44H0z"/></clipPath><clipPath id="D"><path d="M0 0h35v44H0z"/></clipPath><clipPath id="r"><path d="M0 0h35v44H0z"/></clipPath><clipPath id="C"><path d="M0 0h35v44H0z"/></clipPath><clipPath id="s"><path d="M0 0h35v44H0z"/></clipPath><clipPath id="B"><path d="M0 0h35v44H0z"/></clipPath><clipPath id="t"><path d="M0 0h35v44H0z"/></clipPath><clipPath id="A"><path d="M0 0h35v44H0z"/></clipPath><clipPath id="u"><path d="M0 0h35v44H0z"/></clipPath><clipPath id="z"><path d="M0 0h35v44H0z"/></clipPath><clipPath id="v"><path d="M0 0h35v44H0z"/></clipPath><clipPath id="y"><path d="M0 0h35v44H0z"/></clipPath><clipPath id="w"><path d="M0 0h35v44H0z"/></clipPath><clipPath id="b"><path d="M0 0h35v44H0z"/></clipPath><mask id="ar"><g filter="url(#a)"><path style="fill:#000;fill-opacity:.0117647;stroke:none" d="M0 0h35v44H0z"/></g></mask><mask id="aN"><g filter="url(#a)"><path style="fill:#000;fill-opacity:.0117647;stroke:none" d="M0 0h35v44H0z"/></g></mask><mask id="aL"><g filter="url(#a)"><path style="fill:#000;fill-opacity:.00784314;stroke:none" d="M0 0h35v44H0z"/></g></mask><mask id="aR"><g filter="url(#a)"><path style="fill:#000;fill-opacity:.0117647;stroke:none" d="M0 0h35v44H0z"/></g></mask><mask id="aJ"><g filter="url(#a)"><path style="fill:#000;fill-opacity:.00784314;stroke:none" d="M0 0h35v44H0z"/></g></mask><mask id="aT"><g filter="url(#a)"><path style="fill:#000;fill-opacity:.00392157;stroke:none" d="M0 0h35v44H0z"/></g></mask><mask id="aH"><g filter="url(#a)"><path style="fill:#000;fill-opacity:.764706;stroke:none" d="M0 0h35v44H0z"/></g></mask><mask id="aV"><g filter="url(#a)"><path style="fill:#000;fill-opacity:.00784314;stroke:none" d="M0 0h35v44H0z"/></g></mask><mask id="aF"><g filter="url(#a)"><path style="fill:#000;fill-opacity:.00784314;stroke:none" d="M0 0h35v44H0z"/></g></mask><mask id="aX"><g filter="url(#a)"><path style="fill:#000;fill-opacity:.984314;stroke:none" d="M0 0h35v44H0z"/></g></mask><mask id="aD"><g filter="url(#a)"><path style="fill:#000;fill-opacity:.6;stroke:none" d="M0 0h35v44H0z"/></g></mask><mask id="aZ"><g filter="url(#a)"><path style="fill:#000;fill-opacity:.360784;stroke:none" d="M0 0h35v44H0z"/></g></mask><mask id="aB"><g filter="url(#a)"><path style="fill:#000;fill-opacity:.839216;stroke:none" d="M0 0h35v44H0z"/></g></mask><mask id="bb"><g filter="url(#a)"><path style="fill:#000;fill-opacity:.0156863;stroke:none" d="M0 0h35v44H0z"/></g></mask><mask id="az"><g filter="url(#a)"><path style="fill:#000;fill-opacity:.00784314;stroke:none" d="M0 0h35v44H0z"/></g></mask><mask id="bd"><g filter="url(#a)"><path style="fill:#000;fill-opacity:.0156863;stroke:none" d="M0 0h35v44H0z"/></g></mask><mask id="ax"><g filter="url(#a)"><path style="fill:#000;fill-opacity:.00392157;stroke:none" d="M0 0h35v44H0z"/></g></mask><mask id="bf"><g filter="url(#a)"><path style="fill:#000;fill-opacity:.00784314;stroke:none" d="M0 0h35v44H0z"/></g></mask><mask id="av"><g filter="url(#a)"><path style="fill:#000;fill-opacity:.00784314;stroke:none" d="M0 0h35v44H0z"/></g></mask><mask id="bh"><g filter="url(#a)"><path style="fill:#000;fill-opacity:.792157;stroke:none" d="M0 0h35v44H0z"/></g></mask><mask id="at"><g filter="url(#a)"><path style="fill:#000;fill-opacity:.0117647;stroke:none" d="M0 0h35v44H0z"/></g></mask><mask id="bj"><g filter="url(#a)"><path style="fill:#000;fill-opacity:.00784314;stroke:none" d="M0 0h35v44H0z"/></g></mask><mask id="aP"><g filter="url(#a)"><path style="fill:#000;fill-opacity:.00784314;stroke:none" d="M0 0h35v44H0z"/></g></mask><mask id="bl"><g filter="url(#a)"><path style="fill:#000;fill-opacity:.239216;stroke:none" d="M0 0h35v44H0z"/></g></mask><mask id="ap"><g filter="url(#a)"><path style="fill:#000;fill-opacity:.239216;stroke:none" d="M0 0h35v44H0z"/></g></mask><mask id="bn"><g filter="url(#a)"><path style="fill:#000;fill-opacity:.00784314;stroke:none" d="M0 0h35v44H0z"/></g></mask><mask id="an"><g filter="url(#a)"><path style="fill:#000;fill-opacity:.0196078;stroke:none" d="M0 0h35v44H0z"/></g></mask><mask id="bp"><g filter="url(#a)"><path style="fill:#000;fill-opacity:.00392157;stroke:none" d="M0 0h35v44H0z"/></g></mask><mask id="al"><g filter="url(#a)"><path style="fill:#000;fill-opacity:.00392157;stroke:none" d="M0 0h35v44H0z"/></g></mask><mask id="br"><g filter="url(#a)"><path style="fill:#000;fill-opacity:.00784314;stroke:none" d="M0 0h35v44H0z"/></g></mask><mask id="aj"><g filter="url(#a)"><path style="fill:#000;fill-opacity:.203922;stroke:none" d="M0 0h35v44H0z"/></g></mask><mask id="bt"><g filter="url(#a)"><path style="fill:#000;fill-opacity:.00784314;stroke:none" d="M0 0h35v44H0z"/></g></mask><mask id="ah"><g filter="url(#a)"><path style="fill:#000;fill-opacity:.0117647;stroke:none" d="M0 0h35v44H0z"/></g></mask><mask id="bv"><g filter="url(#a)"><path style="fill:#000;fill-opacity:.00784314;stroke:none" d="M0 0h35v44H0z"/></g></mask><mask id="af"><g filter="url(#a)"><path style="fill:#000;fill-opacity:.835294;stroke:none" d="M0 0h35v44H0z"/></g></mask><mask id="bx"><g filter="url(#a)"><path style="fill:#000;fill-opacity:.0156863;stroke:none" d="M0 0h35v44H0z"/></g></mask><mask id="ad"><g filter="url(#a)"><path style="fill:#000;fill-opacity:.0117647;stroke:none" d="M0 0h35v44H0z"/></g></mask><mask id="bz"><g filter="url(#a)"><path style="fill:#000;fill-opacity:.0117647;stroke:none" d="M0 0h35v44H0z"/></g></mask><mask id="ab"><g filter="url(#a)"><path style="fill:#000;fill-opacity:.00784314;stroke:none" d="M0 0h35v44H0z"/></g></mask><mask id="bB"><g filter="url(#a)"><path style="fill:#000;fill-opacity:.235294;stroke:none" d="M0 0h35v44H0z"/></g></mask><mask id="Z"><g filter="url(#a)"><path style="fill:#000;fill-opacity:.00392157;stroke:none" d="M0 0h35v44H0z"/></g></mask><mask id="bD"><g filter="url(#a)"><path style="fill:#000;fill-opacity:.239216;stroke:none" d="M0 0h35v44H0z"/></g></mask><mask id="X"><g filter="url(#a)"><path style="fill:#000;fill-opacity:.0117647;stroke:none" d="M0 0h35v44H0z"/></g></mask><mask id="bF"><g filter="url(#a)"><path style="fill:#000;fill-opacity:.984314;stroke:none" d="M0 0h35v44H0z"/></g></mask><mask id="V"><g filter="url(#a)"><path style="fill:#000;fill-opacity:.980392;stroke:none" d="M0 0h35v44H0z"/></g></mask><g id="ba" clip-path="url(#E)"><path style="stroke:none;fill-rule:evenodd;fill:#c7dcc8;fill-opacity:1" d="M29.184 16.375h.707v1.492a4.955 4.955 0 0 1-.102-1.39.982.982 0 0 1-.605-.102zm0 0"/></g><g id="aG" clip-path="url(#u)"><path style="stroke:none;fill-rule:evenodd;fill:#cad6cc;fill-opacity:1" d="M31.61 9.207h.1a.567.567 0 0 0 .204.547c-.125.16-.09.293.102.398l-.102.102a.59.59 0 0 1 .305.148.663.663 0 0 1-.457-.097 4.736 4.736 0 0 1-.153-1.098zm0 0"/></g><g id="bE" clip-path="url(#T)"><path style="stroke:none;fill-rule:evenodd;fill:#d63f31;fill-opacity:1" d="M19.676 33.496a35.78 35.78 0 0 0-1.973 10.254c-.488.152-.96.121-1.418-.098a40.45 40.45 0 0 0-2.176-10.75 98.49 98.49 0 0 0 2.934 4.38 37.115 37.115 0 0 0 2.48-3.786c.07-.121.122-.121.153 0zm0 0"/></g><g id="bc" clip-path="url(#F)"><path style="stroke:none;fill-rule:evenodd;fill:#adc5b2;fill-opacity:1" d="M33.332 16.875h-.102v-.398c.438.011.473.043.102.097v.301zm0 0"/></g><g id="ak" clip-path="url(#j)"><path style="stroke:none;fill-rule:evenodd;fill:#dff8f9;fill-opacity:1" d="M34.543 6.82h.102v.098c-.032-.031-.067-.066-.102-.098zm0 0"/></g><g id="aI" clip-path="url(#v)"><path style="stroke:none;fill-rule:evenodd;fill:#f1f2e9;fill-opacity:1" d="M33.535 11.598c.102.039.117.105.047.199a.229.229 0 0 1-.047-.2zm0 0"/></g><g id="be" clip-path="url(#G)"><path style="stroke:none;fill-rule:evenodd;fill:#c2dcc6;fill-opacity:1" d="M33.332 16.875c.113.313.133.645.05.992-.05-.328-.07-.66-.05-.992zm0 0"/></g><g id="au" clip-path="url(#o)"><path style="stroke:none;fill-rule:evenodd;fill:#d6e0db;fill-opacity:1" d="M30.7 7.219c.034-.086.105-.117.202-.102.035.082.102.117.203.102a.313.313 0 0 1-.203.199c0-.066-.03-.102-.101-.102 0-.066-.031-.097-.102-.097zm0 0"/></g><g id="ae" clip-path="url(#g)"><path style="stroke:none;fill-rule:evenodd;fill:#dff9fa;fill-opacity:1" d="M34.645 6.82c.042-.101.109-.12.203-.05a.249.249 0 0 1-.203.05zm0 0"/></g><g id="bg" clip-path="url(#H)"><path style="stroke:none;fill-rule:evenodd;fill:#bacdb9;fill-opacity:1" d="M26.047 16.176c1.332-.098 2.68-.133 4.047-.098-.016.563 0 1.129.05 1.692.07.156.157.304.254.449.696.14 1.403.191 2.125.148v.098c-.132-.024-.234.012-.304.101-.543.016-1.082 0-1.617-.05a1.163 1.163 0 0 1-.508-.45c.02-.097-.016-.164-.102-.199v-1.59h-.808c-.036-.086-.102-.117-.204-.101h-2.933zm0 0"/></g><g id="aK" clip-path="url(#w)"><path style="stroke:none;fill-rule:evenodd;fill:#ecf9ea;fill-opacity:1" d="M33.633 12.293c.105.039.12.105.05.2a.244.244 0 0 1-.05-.2zm0 0"/></g><g id="aa" clip-path="url(#e)"><path style="stroke:none;fill-rule:evenodd;fill:#eeeded;fill-opacity:1" d="M30.902 6.719c.137.066.137.066 0 0zm0 0"/></g><g id="bi" clip-path="url(#I)"><path style="stroke:none;fill-rule:evenodd;fill:#aec0ae;fill-opacity:1" d="M30.094 18.066a.244.244 0 0 1-.051.2c-.07-.094-.05-.16.05-.2zm0 0"/></g><g id="aw" clip-path="url(#p)"><path style="stroke:none;fill-rule:evenodd;fill:#eaefed;fill-opacity:1" d="M31.105 7.117h.102c-.02.067-.055.067-.102 0zm0 0"/></g><g id="aM" clip-path="url(#x)"><path style="stroke:none;fill-rule:evenodd;fill:#eef5ea;fill-opacity:1" d="M33.836 13.988c.137.067.137.067 0 0zm0 0"/></g><g id="bk" clip-path="url(#J)"><path style="stroke:none;fill-rule:evenodd;fill:#e7ece7;fill-opacity:1" d="M33.129 18.066c.14.047.21.149.203.301-.156.008-.258-.058-.305-.199.067 0 .102-.035.102-.102zm0 0"/></g><g id="am" clip-path="url(#k)"><path style="stroke:none;fill-rule:evenodd;fill:#d5e1da;fill-opacity:1" d="M30.297 7.02v-.102c.129-.059.23-.059.305 0a.324.324 0 0 1-.305.102zm0 0"/></g><g id="U" clip-path="url(#b)"><path style="stroke:none;fill-rule:evenodd;fill:#d74133;fill-opacity:1" d="M27.867 6.918a3.164 3.164 0 0 1-1.113.102C24.82 3.012 21.582.953 17.043.848 12.465.96 9.211 3.05 7.285 7.118a11.28 11.28 0 0 0-.71 2.687 38.175 38.175 0 0 0 .05 4.28c-.031.485.004.95.102 1.395a.818.818 0 0 1 .253.399 41.07 41.07 0 0 0 2.579 7.96c-.012.063-.047.095-.102.102a20.198 20.198 0 0 1-4.398-7.964c-1.254-6.008.75-10.637 6.02-13.887C14.565.227 18.14.059 21.8 1.594c2.594 1.156 4.617 2.933 6.066 5.324zm0 0"/></g><g id="bm" clip-path="url(#K)"><path style="stroke:none;fill-rule:evenodd;fill:#efefec;fill-opacity:1" d="M33.434 18.367a.23.23 0 0 1 .05-.199c.067.094.051.16-.05.2zm0 0"/></g><g id="aO" clip-path="url(#y)"><path style="stroke:none;fill-rule:evenodd;fill:#e0f6e2;fill-opacity:1" d="M33.938 14.582c.136.066.136.066 0 0zm0 0"/></g><g id="ay" clip-path="url(#q)"><path style="stroke:none;fill-rule:evenodd;fill:#ecf2ea;fill-opacity:1" d="M31.512 7.715c.101.039.117.105.05.2a.23.23 0 0 1-.05-.2zm0 0"/></g><g id="bo" clip-path="url(#L)"><path style="stroke:none;fill-rule:evenodd;fill:#a6c1aa;fill-opacity:1" d="M32.723 18.465v-.098c.27.031.27.067 0 .098zm0 0"/></g><g id="ag" clip-path="url(#h)"><path style="stroke:none;fill-rule:evenodd;fill:#aec2ad;fill-opacity:1" d="M30.297 6.918c-.207.016-.406 0-.61-.05a.688.688 0 0 1 .61.05zm0 0"/></g><g id="aQ" clip-path="url(#z)"><path style="stroke:none;fill-rule:evenodd;fill:#e6fce5;fill-opacity:1" d="M33.938 16.078a.244.244 0 0 1 .05-.2c.07.095.055.161-.05.2zm0 0"/></g><g id="bq" clip-path="url(#M)"><path style="stroke:none;fill-rule:evenodd;fill:#efefec;fill-opacity:1" d="M33.332 18.367h.102c-.02.067-.055.067-.102 0zm0 0"/></g><g id="ao" clip-path="url(#l)"><path style="stroke:none;fill-rule:evenodd;fill:#ebefed;fill-opacity:1" d="M31.105 7.117h-.203V7.02c.145-.153.211-.122.203.097zm0 0"/></g><g id="aA" clip-path="url(#r)"><path style="stroke:none;fill-rule:evenodd;fill:#cedfca;fill-opacity:1" d="M31.004 7.715c.133.039.266.07.406.101a2.466 2.466 0 0 0-.203.196c-.145-.047-.21-.145-.203-.297zm0 0"/></g><g id="bs" clip-path="url(#N)"><path style="stroke:none;fill-rule:evenodd;fill:#c3d7c3;fill-opacity:1" d="M32.523 18.566v-.101h.2c-.035.086-.102.117-.2.101zm0 0"/></g><g id="aS" clip-path="url(#A)"><path style="stroke:none;fill-rule:evenodd;fill:#cbd8ca;fill-opacity:1" d="M33.836 16.078h.102c.019.098-.016.164-.102.2v-.2zm0 0"/></g><g id="Y" clip-path="url(#d)"><path style="stroke:none;fill-rule:evenodd;fill:#e1fbe4;fill-opacity:1" d="M29.488 6.719c.133.066.133.066 0 0zm0 0"/></g><g id="bu" clip-path="url(#O)"><path style="stroke:none;fill-rule:evenodd;fill:#efefec;fill-opacity:1" d="M33.332 18.465c-.043.101-.11.12-.203.05a.252.252 0 0 1 .203-.05zm0 0"/></g><g id="ac" clip-path="url(#f)"><path style="stroke:none;fill-rule:evenodd;fill:#dff8f9;fill-opacity:1" d="M34.543 6.82c-.066-.133-.066-.133 0 0zm0 0"/></g><g id="aU" clip-path="url(#B)"><path style="stroke:none;fill-rule:evenodd;fill:#d9e4d8;fill-opacity:1" d="M33.734 16.277h.102c-.02.067-.05.067-.102 0zm0 0"/></g><g id="bw" clip-path="url(#P)"><path style="stroke:none;fill-rule:evenodd;fill:#b7c5b4;fill-opacity:1" d="M32.219 18.664v-.098h.304c-.074.09-.175.122-.304.098zm0 0"/></g><g id="aC" clip-path="url(#s)"><path style="stroke:none;fill-rule:evenodd;fill:#bccdbd;fill-opacity:1" d="M31.309 8.313c.238.234.34.53.3.894a1.737 1.737 0 0 1-.3-.895zm0 0"/></g><g id="aq" clip-path="url(#m)"><path style="stroke:none;fill-rule:evenodd;fill:#dff9fa;fill-opacity:1" d="M34.645 6.918a.249.249 0 0 1 .203.05c-.094.071-.16.052-.203-.05zm0 0"/></g><g id="by" clip-path="url(#Q)"><path style="stroke:none;fill-rule:evenodd;fill:#a6c0a5;fill-opacity:1" d="M32.219 18.664a4.398 4.398 0 0 1-1.617.05c.535-.05 1.074-.066 1.617-.05zm0 0"/></g><g id="aW" clip-path="url(#C)"><path style="stroke:none;fill-rule:evenodd;fill:#d64032;fill-opacity:1" d="M28.68 16.176h.3c.036.086.102.117.204.101v.098c-.125.008-.211.074-.254.2a22.275 22.275 0 0 1-4.297 7.464c-.063-.023-.094-.07-.102-.148a34.427 34.427 0 0 0 2.426-7.614 7.601 7.601 0 0 0 1.723-.101zm0 0"/></g><g id="ai" clip-path="url(#i)"><path style="stroke:none;fill-rule:evenodd;fill:#eeeded;fill-opacity:1" d="M30.902 6.82v.2c-.27-.067-.27-.133 0-.2zm0 0"/></g><g id="bA" clip-path="url(#R)"><path style="stroke:none;fill-rule:evenodd;fill:#fefcfc;fill-opacity:1" d="M9.66 24.34c.606.789 1.16 1.617 1.668 2.488a31.648 31.648 0 0 1 2.582 5.774 53.216 53.216 0 0 1-4.25-8.262zm0 0"/></g><g id="aE" clip-path="url(#t)"><path style="stroke:none;fill-rule:evenodd;fill:#98af98;fill-opacity:1" d="M31.71 9.207a1.336 1.336 0 0 1 .052-.496c.082.187.062.351-.051.496zm0 0"/></g><g id="aY" clip-path="url(#D)"><path style="stroke:none;fill-rule:evenodd;fill:#b7cdb9;fill-opacity:1" d="M33.535 13.191c.078.489.176.97.3 1.442-.124.48-.124.96 0 1.445-.085.031-.116.098-.1.2-.188.081-.391.117-.606.097a.682.682 0 0 0 .101.5c.02.402-.015.8-.101 1.191-.066 0-.102.036-.102.102a.587.587 0 0 1-.304.098 1.61 1.61 0 0 0 .254-.399c.05-.562.066-1.125.05-1.691h.606a44.163 44.163 0 0 0-.2-2.688c0-.12.036-.222.102-.297zm0 0"/></g><g id="bC" clip-path="url(#S)"><path style="stroke:none;fill-rule:evenodd;fill:#fefcfb;fill-opacity:1" d="M24.43 24.438a58.947 58.947 0 0 1-4.551 8.66 28.497 28.497 0 0 1 2.375-5.375 21.375 21.375 0 0 1 2.176-3.285zm0 0"/></g><g id="W" clip-path="url(#c)"><path style="stroke:none;fill-rule:evenodd;fill:#def1de;fill-opacity:1" d="M29.184 6.719c.136.066.136.066 0 0zm0 0"/></g><g id="as" clip-path="url(#n)"><path style="stroke:none;fill-rule:evenodd;fill:#eaefed;fill-opacity:1" d="M31.207 7.02c.133.066.133.066 0 0zm0 0"/></g><filter id="a" filterUnits="objectBoundingBox" x="0%" y="0%" width="100%" height="100%"><feColorMatrix in="SourceGraphic" values="0 0 0 0 1 0 0 0 0 1 0 0 0 0 1 0 0 0 1 0"/></filter></defs><use xlink:href="#U" mask="url(#V)"/><path style="stroke:none;fill-rule:evenodd;fill:#e17a70;fill-opacity:1" d="M26.754 7.02c-1.668-.036-3.32 0-4.953.097a6.97 6.97 0 0 0-1.824.149 2.91 2.91 0 0 0-.454.746c-.226.726-.43 1.457-.605 2.191-.223.145-.441.277-.66.399a.692.692 0 0 0-.453.3 8.337 8.337 0 0 0-.153 1.59 4.569 4.569 0 0 1-1.82.2c.016-.301 0-.598-.05-.895a8.958 8.958 0 0 1-1.419-1.793 2.525 2.525 0 0 0-.656-.547c-.512-.18-1.02-.379-1.52-.598a55.843 55.843 0 0 0-3.335-.05c.015.566 0 1.129-.051 1.695-.684.078-1.375.129-2.074.148a1.742 1.742 0 0 0 0 1.145c.058.02.109.055.152.098a8.354 8.354 0 0 1 1.77-.098c.039.762.074 1.527.101 2.289H6.625a38.175 38.175 0 0 1-.05-4.281c.124-.922.362-1.82.71-2.688 1.926-4.066 5.18-6.156 9.758-6.27 4.539.106 7.777 2.165 9.71 6.173zm0 0"/><use xlink:href="#W" mask="url(#X)"/><use xlink:href="#Y" mask="url(#Z)"/><use xlink:href="#aa" mask="url(#ab)"/><use xlink:href="#ac" mask="url(#ad)"/><use xlink:href="#ae" mask="url(#af)"/><use xlink:href="#ag" mask="url(#ah)"/><use xlink:href="#ai" mask="url(#aj)"/><use xlink:href="#ak" mask="url(#al)"/><use xlink:href="#am" mask="url(#an)"/><use xlink:href="#ao" mask="url(#ap)"/><use xlink:href="#aq" mask="url(#ar)"/><path style="stroke:none;fill-rule:evenodd;fill:#a0b59b;fill-opacity:1" d="M27.867 6.918a8.824 8.824 0 0 1 1.82.102c-2.609.097-5.242.132-7.886.097 1.633-.097 3.285-.133 4.953-.097.394.03.766-.004 1.113-.102zm0 0"/><use xlink:href="#as" mask="url(#at)"/><use xlink:href="#au" mask="url(#av)"/><use xlink:href="#aw" mask="url(#ax)"/><path style="stroke:none;fill-rule:evenodd;fill:#b5c9ba;fill-opacity:1" d="M29.79 7.02h.507c.117.082.254.148.402.199.07 0 .102.031.102.097.07 0 .101.036.101.102a.532.532 0 0 1 .102.297 2.79 2.79 0 0 0-1.215-.695zm0 0"/><use xlink:href="#ay" mask="url(#az)"/><use xlink:href="#aA" mask="url(#aB)"/><use xlink:href="#aC" mask="url(#aD)"/><path style="stroke:none;fill-rule:evenodd;fill:#9fc7d3;fill-opacity:1" d="M17.652 12.492c-.113.594-.18 1.192-.203 1.793h-1.617c.023.305-.012.606-.102.895a23.2 23.2 0 0 0-1.82 1.793c-.61.207-1.219.422-1.82.648a26.481 26.481 0 0 1-3.34-.101 87.282 87.282 0 0 1-.203-1.942 8.35 8.35 0 0 0-1.82-.098 4.983 4.983 0 0 1-.102-1.394H8.75c-.027-.762-.063-1.527-.102-2.29a8.354 8.354 0 0 0-1.77.099.393.393 0 0 0-.151-.098 1.742 1.742 0 0 1 0-1.145c.699-.02 1.39-.07 2.074-.148.05-.566.066-1.129.05-1.695 1.114-.016 2.227 0 3.336.05.5.22 1.008.418 1.52.598.25.145.469.328.656.547a8.958 8.958 0 0 0 1.418 1.793c.051.297.067.594.051.894a4.569 4.569 0 0 0 1.82-.199zm0 0"/><use xlink:href="#aE" mask="url(#aF)"/><use xlink:href="#aG" mask="url(#aH)"/><path style="stroke:none;fill-rule:evenodd;fill:#518054;fill-opacity:1" d="M29.688 7.02h.101c.45.12.856.351 1.215.695-.008.152.058.25.203.297.09.074.125.172.102.3.02.333.12.633.3.895.008.371.059.738.153 1.098.136.086.289.12.457.097.281.047.52.18.707.399-.02.328.082.594.304.797a.95.95 0 0 0-.05.695c.05.316.168.582.355.797v.101a.434.434 0 0 0-.101.297c.093.895.16 1.79.199 2.688h-.606c.016.566 0 1.129-.05 1.691a1.61 1.61 0 0 1-.254.399v.101h-.2a8.208 8.208 0 0 1-2.125-.148 3.007 3.007 0 0 1-.253-.45 14.392 14.392 0 0 1-.051-1.69c-1.367-.036-2.715 0-4.047.097h-4.754c-.125.008-.211.074-.254.199-.031.398-.066.797-.102 1.195-.09.125-.175.258-.25.399-.125.05-.242.082-.355.097a.505.505 0 0 0-.05.301h-.102c-.508.016-1.012 0-1.516-.05-.031-.31-.2-.458-.508-.45a4.217 4.217 0 0 0-.101-.992v-.5a.71.71 0 0 1-.504-.098c.05-1.761.168-3.523.355-5.277.137-.121.254-.254.352-.398.219-.122.437-.254.66-.399.176-.734.379-1.465.605-2.191a2.91 2.91 0 0 1 .454-.746 6.97 6.97 0 0 1 1.824-.149c2.644.035 5.277 0 7.887-.097zm-.504 9.355v-.098h.808v1.59h-.101v-1.492h-.707zm0 0"/><path style="stroke:none;fill-rule:evenodd;fill:#afc6b1;fill-opacity:1" d="M19.879 9.605a6.03 6.03 0 0 1-.102.7h4.653a56.473 56.473 0 0 1-4.754.097 1.225 1.225 0 0 1 .203-.797zm0 0"/><path style="stroke:none;fill-rule:evenodd;fill:#fdfdfd;fill-opacity:1" d="M29.184 7.914c.578-.121 1.03.043 1.367.496.297.57.484 1.168.554 1.793-2.226-.008-4.453.024-6.675.102h-4.653a6.03 6.03 0 0 0 .102-.7c.082-.605.32-1.136.707-1.593 2.863-.086 5.73-.121 8.598-.098zm0 0"/><path style="stroke:none;fill-rule:evenodd;fill:#d9e5da;fill-opacity:1" d="M29.184 7.914c-2.868-.023-5.735.012-8.598.098.25-.078.52-.13.809-.149 2.613-.082 5.21-.066 7.789.051zm0 0"/><path style="stroke:none;fill-rule:evenodd;fill:#e17b71;fill-opacity:1" d="M10.367 10.402c1.684-.187 2.95.446 3.793 1.891.07.7.07 1.395 0 2.09-.285.351-.57.699-.86 1.047a4.625 4.625 0 0 1-2.933.547v-5.575zm0 0"/><path style="stroke:none;fill-rule:evenodd;fill:#becbbf;fill-opacity:1" d="M33.23 11.598c-.222-.203-.324-.47-.304-.797.219-.106.254-.04.101.199.125.18.196.379.203.598zm0 0"/><use xlink:href="#aI" mask="url(#aJ)"/><path style="stroke:none;fill-rule:evenodd;fill:#f7f9f6;fill-opacity:1" d="M19.473 11.797c1.386.129 1.66.742.808 1.84-1.203.441-1.691.058-1.465-1.145.172-.285.391-.515.657-.695zm0 0"/><path style="stroke:none;fill-rule:evenodd;fill:#f7faf7;fill-opacity:1" d="M30.7 11.797c.628-.11 1.152.055 1.57.496.011 1.05-.508 1.496-1.57 1.344-.805-.621-.805-1.235 0-1.84zm0 0"/><path style="stroke:none;fill-rule:evenodd;fill:#a7bba6;fill-opacity:1" d="M33.23 11.598c.25.062.25.16 0 .297.051.195.153.363.305.5a.71.71 0 0 0 0 .695 1.556 1.556 0 0 1-.355-.797.95.95 0 0 1 .05-.695zm0 0"/><use xlink:href="#aK" mask="url(#aL)"/><path style="stroke:none;fill-rule:evenodd;fill:#6f8d72;fill-opacity:1" d="M18.258 10.602a2.109 2.109 0 0 1-.352.398 68.128 68.128 0 0 0-.355 5.277c-.102-.644-.133-1.308-.102-1.992.024-.601.09-1.2.203-1.793 0-.535.051-1.066.153-1.59a.692.692 0 0 1 .453-.3zm0 0"/><path style="stroke:none;fill-rule:evenodd;fill:#f6f9f6;fill-opacity:1" d="M23.215 13.688a61.542 61.542 0 0 1 4.652.101c.031.488 0 .969-.101 1.441-1.618.012-3.235-.003-4.856-.05-.015-.364 0-.73.05-1.094a.818.818 0 0 1 .255-.399zm0 0"/><use xlink:href="#aM" mask="url(#aN)"/><path style="stroke:none;fill-rule:evenodd;fill:#e17a70;fill-opacity:1" d="M17.45 14.285c-.032.684 0 1.348.1 1.992a.71.71 0 0 0 .505.098v.5a1.74 1.74 0 0 0-.051.992.718.718 0 0 0 .254.45c.656.242 1.297.261 1.922.05h.101a.658.658 0 0 0 .657-.398c.109-.602.226-1.2.355-1.793h7.387a7.601 7.601 0 0 1-1.723.101 34.427 34.427 0 0 1-2.426 7.614c.008.078.04.125.102.148-.07.133-.137.266-.203.398a21.375 21.375 0 0 0-2.176 3.286 28.497 28.497 0 0 0-2.375 5.375.582.582 0 0 1-.203.398c-.031-.121-.082-.121-.153 0a37.115 37.115 0 0 1-2.48 3.785 98.49 98.49 0 0 1-2.934-4.379c-.14-.05-.207-.148-.199-.3-.664-2-1.523-3.926-2.582-5.774A23.615 23.615 0 0 0 9.66 24.34a.583.583 0 0 1-.203-.399c.055-.007.09-.039.102-.101a41.07 41.07 0 0 1-2.579-7.961.818.818 0 0 0-.253-.399 8.35 8.35 0 0 1 1.82.098c.058.625.125 1.27.203 1.942 1.113.105 2.223.136 3.34.101.601-.226 1.21-.441 1.82-.648a23.2 23.2 0 0 1 1.82-1.793c.09-.29.125-.59.102-.895h1.617zm0 0"/><use xlink:href="#aO" mask="url(#aP)"/><use xlink:href="#aQ" mask="url(#aR)"/><use xlink:href="#aS" mask="url(#aT)"/><use xlink:href="#aU" mask="url(#aV)"/><use xlink:href="#aW" mask="url(#aX)"/><use xlink:href="#aY" mask="url(#aZ)"/><use xlink:href="#ba" mask="url(#bb)"/><use xlink:href="#bc" mask="url(#bd)"/><use xlink:href="#be" mask="url(#bf)"/><path style="stroke:none;fill-rule:evenodd;fill:#7a9778;fill-opacity:1" d="M18.055 16.875c.074.324.105.656.101.992.309-.008.477.14.508.45.504.05 1.008.066 1.516.05-.625.211-1.266.192-1.922-.05a.718.718 0 0 1-.254-.45 1.74 1.74 0 0 1 .05-.992zm0 0"/><use xlink:href="#bg" mask="url(#bh)"/><path style="stroke:none;fill-rule:evenodd;fill:#82987a;fill-opacity:1" d="M21.293 16.176a53.862 53.862 0 0 0-.355 1.793.658.658 0 0 1-.657.398.505.505 0 0 1 .051-.3c.113-.016.23-.047.355-.098.075-.14.16-.274.25-.399.036-.398.07-.797.102-1.195.043-.125.129-.191.254-.2zm0 0"/><use xlink:href="#bi" mask="url(#bj)"/><use xlink:href="#bk" mask="url(#bl)"/><use xlink:href="#bm" mask="url(#bn)"/><use xlink:href="#bo" mask="url(#bp)"/><use xlink:href="#bq" mask="url(#br)"/><use xlink:href="#bs" mask="url(#bt)"/><use xlink:href="#bu" mask="url(#bv)"/><use xlink:href="#bw" mask="url(#bx)"/><use xlink:href="#by" mask="url(#bz)"/><use xlink:href="#bA" mask="url(#bB)"/><use xlink:href="#bC" mask="url(#bD)"/><use xlink:href="#bE" mask="url(#bF)"/></svg>