<?xml version="1.0" encoding="UTF-8"?>
<!DOCTYPE svg PUBLIC "-//W3C//DTD SVG 1.1//EN" "http://www.w3.org/Graphics/SVG/1.1/DTD/svg11.dtd">
<svg xmlns="http://www.w3.org/2000/svg" version="1.1" width="346px" height="442px" style="shape-rendering:geometricPrecision; text-rendering:geometricPrecision; image-rendering:optimizeQuality; fill-rule:evenodd; clip-rule:evenodd" xmlns:xlink="http://www.w3.org/1999/xlink">
<g><path style="opacity:0.982" fill="#d74032" d="M 280.5,80.5 C 276.167,80.5 271.833,80.5 267.5,80.5C 254.152,43.2981 228.152,20.1314 189.5,11C 145.666,4.04598 110.166,17.8793 83,52.5C 66.924,76.8116 60.924,103.478 65,132.5C 65.5532,138.705 66.3865,144.872 67.5,151C 67.1382,152.434 66.4715,153.601 65.5,154.5C 64.5139,158.97 64.1805,163.637 64.5,168.5C 66.5,168.5 68.5,168.5 70.5,168.5C 76.2948,193.218 84.2948,217.218 94.5,240.5C 94.3764,241.107 94.0431,241.44 93.5,241.5C 73.0637,218.311 58.5637,191.644 50,161.5C 37.599,101.146 57.4323,54.6459 109.5,22C 144.015,3.27265 179.348,1.60598 215.5,17C 245.267,29.9341 266.933,51.1007 280.5,80.5 Z"/></g>
<g><path style="opacity:1" fill="#e17a70" d="M 267.5,80.5 C 246.477,80.1738 225.477,80.6738 204.5,82C 200.51,83.9904 198.01,87.1571 197,91.5C 194.216,99.3 192.383,107.3 191.5,115.5C 186.538,115.322 182.705,117.322 180,121.5C 178.476,127.375 177.643,133.375 177.5,139.5C 171.5,139.5 165.5,139.5 159.5,139.5C 159.816,136.022 159.316,132.688 158,129.5C 151.833,122 145.667,114.5 139.5,107C 134.249,104.472 128.916,102.139 123.5,100C 111.838,99.5001 100.171,99.3335 88.5,99.5C 87.7951,105.399 87.1284,111.399 86.5,117.5C 79.825,117.334 73.1583,117.5 66.5,118C 65.1667,122 65.1667,126 66.5,130C 73.1583,130.5 79.825,130.666 86.5,130.5C 86.5,138.5 86.5,146.5 86.5,154.5C 79.5,154.5 72.5,154.5 65.5,154.5C 66.4715,153.601 67.1382,152.434 67.5,151C 66.3865,144.872 65.5532,138.705 65,132.5C 60.924,103.478 66.924,76.8116 83,52.5C 110.166,17.8793 145.666,4.04598 189.5,11C 228.152,20.1314 254.152,43.2981 267.5,80.5 Z"/></g>
<g><path style="opacity:0.987" fill="#508053" d="M 267.5,80.5 C 271.833,80.5 276.167,80.5 280.5,80.5C 288.84,80.3336 297.173,80.5003 305.5,81C 311.307,82.8072 315.141,86.6405 317,92.5C 319.778,99.6102 321.611,106.944 322.5,114.5C 327.784,114.803 331.784,117.137 334.5,121.5C 334.263,122.791 334.596,123.791 335.5,124.5C 336.47,130.698 337.804,136.698 339.5,142.5C 341.03,153.775 341.697,165.108 341.5,176.5C 339.518,176.995 337.518,177.495 335.5,178C 336.833,178.333 338.167,178.667 339.5,179C 337.812,181.825 336.979,184.991 337,188.5C 336.667,185.5 336.333,182.5 336,179.5C 335.742,185.215 335.242,190.882 334.5,196.5C 333.833,196.5 333.5,196.833 333.5,197.5C 332.508,197.328 331.842,197.662 331.5,198.5C 323.876,199.398 316.209,199.731 308.5,199.5C 307.833,198.167 306.833,197.167 305.5,196.5C 305.131,194.559 304.464,192.725 303.5,191C 303.777,186.224 303.777,181.391 303.5,176.5C 298.971,176.034 294.637,176.034 290.5,176.5C 288.167,176.5 285.833,176.5 283.5,176.5C 277.167,175.167 270.833,175.167 264.5,176.5C 247.5,176.5 230.5,176.5 213.5,176.5C 212.762,182.931 211.595,189.265 210,195.5C 205.614,198.888 200.614,200.221 195,199.5C 185.852,200.869 181.352,197.036 181.5,188C 181.707,184.477 182.04,180.977 182.5,177.5C 180.5,177.5 178.5,177.5 176.5,177.5C 175.614,170.543 175.28,163.543 175.5,156.5C 175.5,156.167 175.5,155.833 175.5,155.5C 176.957,150.402 177.624,145.069 177.5,139.5C 177.643,133.375 178.476,127.375 180,121.5C 182.705,117.322 186.538,115.322 191.5,115.5C 192.383,107.3 194.216,99.3 197,91.5C 198.01,87.1571 200.51,83.9904 204.5,82C 225.477,80.6738 246.477,80.1738 267.5,80.5 Z M 290.5,176.5 C 294.637,176.034 298.971,176.034 303.5,176.5C 303.777,181.391 303.777,186.224 303.5,191C 304.464,192.725 305.131,194.559 305.5,196.5C 304.143,195.41 303.143,194.076 302.5,192.5C 302.5,187.5 302.5,182.5 302.5,177.5C 299.833,177.5 297.167,177.5 294.5,177.5C 293.432,176.566 292.099,176.232 290.5,176.5 Z"/></g>
<g><path style="opacity:0.008" fill="#4e8052" d="M 309.5,80.5 C 310.833,81.1667 310.833,81.1667 309.5,80.5 Z"/></g>
<g><path style="opacity:1" fill="#fbfbfa" d="M 213.5,88.5 C 244.208,88.0387 274.875,88.5387 305.5,90C 311.328,96.8146 314.495,104.648 315,113.5C 276.242,114.804 237.409,115.47 198.5,115.5C 199.681,106.789 202.181,98.4561 206,90.5C 208.607,89.8767 211.107,89.21 213.5,88.5 Z"/></g>
<g><path style="opacity:1" fill="#e8b9b5" d="M 88.5,99.5 C 89.12,105.926 88.4533,111.926 86.5,117.5C 87.1284,111.399 87.7951,105.399 88.5,99.5 Z"/></g>
<g><path style="opacity:1" fill="#fdfbfb" d="M 88.5,99.5 C 100.171,99.3335 111.838,99.5001 123.5,100C 128.916,102.139 134.249,104.472 139.5,107C 145.667,114.5 151.833,122 158,129.5C 159.316,132.688 159.816,136.022 159.5,139.5C 165.5,139.5 171.5,139.5 177.5,139.5C 177.624,145.069 176.957,150.402 175.5,155.5C 169.833,155.5 164.167,155.5 158.5,155.5C 158.5,158.167 158.5,160.833 158.5,163.5C 152.74,170.764 146.407,177.597 139.5,184C 133.321,186.727 126.987,189.06 120.5,191C 109.5,191.667 98.5,191.667 87.5,191C 85.7785,183.645 85.1119,176.145 85.5,168.5C 79.021,167.509 72.3543,167.176 65.5,167.5C 65.5,163.167 65.5,158.833 65.5,154.5C 72.5,154.5 79.5,154.5 86.5,154.5C 86.5,146.5 86.5,138.5 86.5,130.5C 79.825,130.666 73.1583,130.5 66.5,130C 65.1667,126 65.1667,122 66.5,118C 73.1583,117.5 79.825,117.334 86.5,117.5C 88.4533,111.926 89.12,105.926 88.5,99.5 Z"/></g>
<g><path style="opacity:0.006" fill="#4f8052" d="M 323.5,109.5 C 324.249,110.531 324.915,111.698 325.5,113C 325.167,113.167 324.833,113.333 324.5,113.5C 323.571,112.311 323.238,110.978 323.5,109.5 Z"/></g>
<g><path style="opacity:1" fill="#e17a70" d="M 103.5,115.5 C 109.509,115.334 115.509,115.501 121.5,116C 125.241,118.732 129.241,121.066 133.5,123C 135.948,127.115 138.781,130.948 142,134.5C 142.667,142.167 142.667,149.833 142,157.5C 139.167,161 136.333,164.5 133.5,168C 124.169,173.088 114.169,174.921 103.5,173.5C 103.5,154.167 103.5,134.833 103.5,115.5 Z"/></g>
<g><path style="opacity:0.007" fill="#4f8053" d="M 335.5,124.5 C 335.737,123.209 335.404,122.209 334.5,121.5C 334.393,119.621 334.893,119.288 336,120.5C 336.765,122.066 336.598,123.399 335.5,124.5 Z"/></g>
<g><path style="opacity:1" fill="#f7f7f5" d="M 197.5,129.5 C 204.863,128.867 208.863,132.2 209.5,139.5C 207.887,150.328 201.887,153.828 191.5,150C 186.71,145.689 186.21,140.855 190,135.5C 192.114,132.879 194.614,130.879 197.5,129.5 Z"/></g>
<g><path style="opacity:0.999" fill="#f8faf8" d="M 311.5,129.5 C 317.981,128.487 323.148,130.487 327,135.5C 327.297,146.204 322.13,151.037 311.5,150C 305.261,147.435 303.094,142.935 305,136.5C 306.694,133.642 308.861,131.309 311.5,129.5 Z"/></g>
<g><path style="opacity:0.008" fill="#4e8052" d="M 340.5,142.5 C 340.167,142.5 339.833,142.5 339.5,142.5C 339.833,135.833 340.167,135.833 340.5,142.5 Z"/></g>
<g><path style="opacity:0.007" fill="#4f8052" d="M 340.5,142.5 C 341.613,143.946 341.78,145.613 341,147.5C 340.506,145.866 340.34,144.199 340.5,142.5 Z"/></g>
<g><path style="opacity:0.008" fill="#4f8053" d="M 341.5,148.5 C 342.622,150.288 342.789,152.288 342,154.5C 341.505,152.527 341.338,150.527 341.5,148.5 Z"/></g>
<g><path style="opacity:1" fill="#f8f7f5" d="M 234.5,149.5 C 249.891,149.065 265.225,149.565 280.5,151C 281.635,155.748 281.802,160.581 281,165.5C 264.233,166.504 247.4,166.504 230.5,165.5C 230.275,160.752 230.775,156.085 232,151.5C 232.995,150.934 233.828,150.267 234.5,149.5 Z"/></g>
<g><path style="opacity:1" fill="#e6c0bd" d="M 175.5,155.5 C 175.5,155.833 175.5,156.167 175.5,156.5C 170.167,156.5 164.833,156.5 159.5,156.5C 159.802,159.059 159.468,161.393 158.5,163.5C 158.5,160.833 158.5,158.167 158.5,155.5C 164.167,155.5 169.833,155.5 175.5,155.5 Z"/></g>
<g><path style="opacity:1" fill="#e17a70" d="M 175.5,156.5 C 175.28,163.543 175.614,170.543 176.5,177.5C 178.5,177.5 180.5,177.5 182.5,177.5C 182.04,180.977 181.707,184.477 181.5,188C 181.352,197.036 185.852,200.869 195,199.5C 200.614,200.221 205.614,198.888 210,195.5C 211.595,189.265 212.762,182.931 213.5,176.5C 230.5,176.5 247.5,176.5 264.5,176.5C 258.496,198.511 251.496,220.178 243.5,241.5C 243.107,243.284 242.441,244.95 241.5,246.5C 233.362,256.752 226.195,267.752 220,279.5C 210.306,296.77 202.472,314.77 196.5,333.5C 196.34,335.153 195.674,336.486 194.5,337.5C 194.19,336.262 193.69,336.262 193,337.5C 185.568,350.713 177.401,363.38 168.5,375.5C 158.148,360.658 148.482,345.992 139.5,331.5C 138.094,331.027 137.427,330.027 137.5,328.5C 130.951,308.394 122.451,289.06 112,270.5C 106.973,261.759 101.473,253.425 95.5,245.5C 94.3263,244.486 93.6596,243.153 93.5,241.5C 94.0431,241.44 94.3764,241.107 94.5,240.5C 84.2948,217.218 76.2948,193.218 70.5,168.5C 75.5,168.5 80.5,168.5 85.5,168.5C 85.1119,176.145 85.7785,183.645 87.5,191C 98.5,191.667 109.5,191.667 120.5,191C 126.987,189.06 133.321,186.727 139.5,184C 146.407,177.597 152.74,170.764 158.5,163.5C 159.468,161.393 159.802,159.059 159.5,156.5C 164.833,156.5 170.167,156.5 175.5,156.5 Z"/></g>
<g><path style="opacity:1" fill="#e3cdcc" d="M 65.5,154.5 C 65.5,158.833 65.5,163.167 65.5,167.5C 72.3543,167.176 79.021,167.509 85.5,168.5C 80.5,168.5 75.5,168.5 70.5,168.5C 68.5,168.5 66.5,168.5 64.5,168.5C 64.1805,163.637 64.5139,158.97 65.5,154.5 Z"/></g>
<g><path style="opacity:0.982" fill="#d64032" d="M 283.5,176.5 C 282.833,176.5 282.5,176.833 282.5,177.5C 282.5,177.833 282.5,178.167 282.5,178.5C 273.094,201.867 260.094,222.867 243.5,241.5C 251.496,220.178 258.496,198.511 264.5,176.5C 270.833,175.167 277.167,175.167 283.5,176.5 Z"/></g>
<g><path style="opacity:0.004" fill="#4f7f52" d="M 290.5,176.5 C 292.099,176.232 293.432,176.566 294.5,177.5C 290.865,178.229 286.865,178.562 282.5,178.5C 282.5,178.167 282.5,177.833 282.5,177.5C 285.385,177.806 288.052,177.473 290.5,176.5 Z"/></g>
<g><path style="opacity:0.004" fill="#4e8052" d="M 341.5,176.5 C 342.833,177.167 342.833,177.167 341.5,176.5 Z"/></g>
<g><path style="opacity:0.004" fill="#4f8052" d="M 294.5,177.5 C 297.167,177.5 299.833,177.5 302.5,177.5C 302.5,182.5 302.5,187.5 302.5,192.5C 301.514,188.03 301.181,183.363 301.5,178.5C 298.941,178.802 296.607,178.468 294.5,177.5 Z"/></g>
<g><path style="opacity:0.004" fill="#4e8052" d="M 341.5,177.5 C 340.833,178.167 340.833,178.167 341.5,177.5 Z"/></g>
<g><path style="opacity:0.008" fill="#4f8052" d="M 334.5,196.5 C 335.833,197.167 335.833,197.167 334.5,196.5 Z"/></g>
<g><path style="opacity:0.004" fill="#4f8052" d="M 333.5,197.5 C 333.833,197.5 334.167,197.5 334.5,197.5C 334.315,198.17 333.981,198.17 333.5,197.5 Z"/></g>
<g><path style="opacity:0.008" fill="#4f8052" d="M 331.5,199.5 C 331.5,199.167 331.5,198.833 331.5,198.5C 332.167,198.5 332.833,198.5 333.5,198.5C 333.158,199.338 332.492,199.672 331.5,199.5 Z"/></g>
<g><path style="opacity:0.008" fill="#4f8052" d="M 308.5,199.5 C 308.5,199.833 308.5,200.167 308.5,200.5C 307.83,200.019 307.83,199.685 308.5,199.5 Z"/></g>
<g><path style="opacity:0.008" fill="#4e8052" d="M 331.5,199.5 C 331.103,200.525 330.437,200.692 329.5,200C 330.094,199.536 330.761,199.369 331.5,199.5 Z"/></g>
<g><path style="opacity:0.008" fill="#4f8052" d="M 308.5,200.5 C 309.552,200.351 310.552,200.517 311.5,201C 310.251,201.74 309.251,201.573 308.5,200.5 Z"/></g>
<g><path style="opacity:0.008" fill="#4f8053" d="M 324.5,201.5 C 325.601,200.402 326.934,200.235 328.5,201C 327.207,201.49 325.873,201.657 324.5,201.5 Z"/></g>
<g><path style="opacity:0.235" fill="#fefcfc" d="M 95.5,245.5 C 101.473,253.425 106.973,261.759 112,270.5C 122.451,289.06 130.951,308.394 137.5,328.5C 121.152,302.138 107.152,274.471 95.5,245.5 Z"/></g>
<g><path style="opacity:0.238" fill="#fefcfb" d="M 241.5,246.5 C 228.823,276.858 213.823,305.858 196.5,333.5C 202.472,314.77 210.306,296.77 220,279.5C 226.195,267.752 233.362,256.752 241.5,246.5 Z"/></g>
<g><path style="opacity:0.985" fill="#d63f31" d="M 194.5,337.5 C 183.074,371.294 176.408,405.961 174.5,441.5C 170.833,441.5 167.167,441.5 163.5,441.5C 162.828,440.733 161.995,440.066 161,439.5C 158.638,402.526 151.472,366.526 139.5,331.5C 148.482,345.992 158.148,360.658 168.5,375.5C 177.401,363.38 185.568,350.713 193,337.5C 193.69,336.262 194.19,336.262 194.5,337.5 Z"/></g>
</svg>
