<svg xmlns="http://www.w3.org/2000/svg" xmlns:xlink="http://www.w3.org/1999/xlink" width="35" height="45" viewBox="0 0 35 44"><defs><clipPath id="s"><path d="M0 0h35v44H0z"/></clipPath><clipPath id="J"><path d="M0 0h35v44H0z"/></clipPath><clipPath id="I"><path d="M0 0h35v44H0z"/></clipPath><clipPath id="c"><path d="M0 0h35v44H0z"/></clipPath><clipPath id="H"><path d="M0 0h35v44H0z"/></clipPath><clipPath id="d"><path d="M0 0h35v44H0z"/></clipPath><clipPath id="G"><path d="M0 0h35v44H0z"/></clipPath><clipPath id="e"><path d="M0 0h35v44H0z"/></clipPath><clipPath id="F"><path d="M0 0h35v44H0z"/></clipPath><clipPath id="f"><path d="M0 0h35v44H0z"/></clipPath><clipPath id="E"><path d="M0 0h35v44H0z"/></clipPath><clipPath id="g"><path d="M0 0h35v44H0z"/></clipPath><clipPath id="D"><path d="M0 0h35v44H0z"/></clipPath><clipPath id="h"><path d="M0 0h35v44H0z"/></clipPath><clipPath id="C"><path d="M0 0h35v44H0z"/></clipPath><clipPath id="i"><path d="M0 0h35v44H0z"/></clipPath><clipPath id="B"><path d="M0 0h35v44H0z"/></clipPath><clipPath id="j"><path d="M0 0h35v44H0z"/></clipPath><clipPath id="A"><path d="M0 0h35v44H0z"/></clipPath><clipPath id="k"><path d="M0 0h35v44H0z"/></clipPath><clipPath id="z"><path d="M0 0h35v44H0z"/></clipPath><clipPath id="l"><path d="M0 0h35v44H0z"/></clipPath><clipPath id="y"><path d="M0 0h35v44H0z"/></clipPath><clipPath id="m"><path d="M0 0h35v44H0z"/></clipPath><clipPath id="x"><path d="M0 0h35v44H0z"/></clipPath><clipPath id="n"><path d="M0 0h35v44H0z"/></clipPath><clipPath id="w"><path d="M0 0h35v44H0z"/></clipPath><clipPath id="o"><path d="M0 0h35v44H0z"/></clipPath><clipPath id="v"><path d="M0 0h35v44H0z"/></clipPath><clipPath id="p"><path d="M0 0h35v44H0z"/></clipPath><clipPath id="u"><path d="M0 0h35v44H0z"/></clipPath><clipPath id="q"><path d="M0 0h35v44H0z"/></clipPath><clipPath id="t"><path d="M0 0h35v44H0z"/></clipPath><clipPath id="r"><path d="M0 0h35v44H0z"/></clipPath><clipPath id="b"><path d="M0 0h35v44H0z"/></clipPath><mask id="aL"><g filter="url(#a)"><path style="fill:#000;fill-opacity:.00784314;stroke:none" d="M0 0h35v44H0z"/></g></mask><mask id="at"><g filter="url(#a)"><path style="fill:#000;fill-opacity:.0117647;stroke:none" d="M0 0h35v44H0z"/></g></mask><mask id="ar"><g filter="url(#a)"><path style="fill:#000;fill-opacity:.0117647;stroke:none" d="M0 0h35v44H0z"/></g></mask><mask id="ax"><g filter="url(#a)"><path style="fill:#000;fill-opacity:.00784314;stroke:none" d="M0 0h35v44H0z"/></g></mask><mask id="ap"><g filter="url(#a)"><path style="fill:#000;fill-opacity:.00392157;stroke:none" d="M0 0h35v44H0z"/></g></mask><mask id="az"><g filter="url(#a)"><path style="fill:#000;fill-opacity:.00784314;stroke:none" d="M0 0h35v44H0z"/></g></mask><mask id="an"><g filter="url(#a)"><path style="fill:#000;fill-opacity:.00784314;stroke:none" d="M0 0h35v44H0z"/></g></mask><mask id="aB"><g filter="url(#a)"><path style="fill:#000;fill-opacity:.00784314;stroke:none" d="M0 0h35v44H0z"/></g></mask><mask id="al"><g filter="url(#a)"><path style="fill:#000;fill-opacity:.00784314;stroke:none" d="M0 0h35v44H0z"/></g></mask><mask id="aD"><g filter="url(#a)"><path style="fill:#000;fill-opacity:.00784314;stroke:none" d="M0 0h35v44H0z"/></g></mask><mask id="aj"><g filter="url(#a)"><path style="fill:#000;fill-opacity:.0117647;stroke:none" d="M0 0h35v44H0z"/></g></mask><mask id="aF"><g filter="url(#a)"><path style="fill:#000;fill-opacity:.00784314;stroke:none" d="M0 0h35v44H0z"/></g></mask><mask id="ah"><g filter="url(#a)"><path style="fill:#000;fill-opacity:.00784314;stroke:none" d="M0 0h35v44H0z"/></g></mask><mask id="aH"><g filter="url(#a)"><path style="fill:#000;fill-opacity:.0117647;stroke:none" d="M0 0h35v44H0z"/></g></mask><mask id="af"><g filter="url(#a)"><path style="fill:#000;fill-opacity:.0117647;stroke:none" d="M0 0h35v44H0z"/></g></mask><mask id="aJ"><g filter="url(#a)"><path style="fill:#000;fill-opacity:.0117647;stroke:none" d="M0 0h35v44H0z"/></g></mask><mask id="ad"><g filter="url(#a)"><path style="fill:#000;fill-opacity:.00784314;stroke:none" d="M0 0h35v44H0z"/></g></mask><mask id="av"><g filter="url(#a)"><path style="fill:#000;fill-opacity:.00784314;stroke:none" d="M0 0h35v44H0z"/></g></mask><mask id="ab"><g filter="url(#a)"><path style="fill:#000;fill-opacity:.0117647;stroke:none" d="M0 0h35v44H0z"/></g></mask><mask id="aN"><g filter="url(#a)"><path style="fill:#000;fill-opacity:.988235;stroke:none" d="M0 0h35v44H0z"/></g></mask><mask id="Z"><g filter="url(#a)"><path style="fill:#000;fill-opacity:.00784314;stroke:none" d="M0 0h35v44H0z"/></g></mask><mask id="aP"><g filter="url(#a)"><path style="fill:#000;fill-opacity:.956863;stroke:none" d="M0 0h35v44H0z"/></g></mask><mask id="X"><g filter="url(#a)"><path style="fill:#000;fill-opacity:.00784314;stroke:none" d="M0 0h35v44H0z"/></g></mask><mask id="aR"><g filter="url(#a)"><path style="fill:#000;fill-opacity:.235294;stroke:none" d="M0 0h35v44H0z"/></g></mask><mask id="V"><g filter="url(#a)"><path style="fill:#000;fill-opacity:.0117647;stroke:none" d="M0 0h35v44H0z"/></g></mask><mask id="aT"><g filter="url(#a)"><path style="fill:#000;fill-opacity:.239216;stroke:none" d="M0 0h35v44H0z"/></g></mask><mask id="T"><g filter="url(#a)"><path style="fill:#000;fill-opacity:.00784314;stroke:none" d="M0 0h35v44H0z"/></g></mask><mask id="aV"><g filter="url(#a)"><path style="fill:#000;fill-opacity:.737255;stroke:none" d="M0 0h35v44H0z"/></g></mask><mask id="R"><g filter="url(#a)"><path style="fill:#000;fill-opacity:.0117647;stroke:none" d="M0 0h35v44H0z"/></g></mask><mask id="aX"><g filter="url(#a)"><path style="fill:#000;fill-opacity:.933333;stroke:none" d="M0 0h35v44H0z"/></g></mask><mask id="P"><g filter="url(#a)"><path style="fill:#000;fill-opacity:.0156863;stroke:none" d="M0 0h35v44H0z"/></g></mask><mask id="aZ"><g filter="url(#a)"><path style="fill:#000;fill-opacity:.00392157;stroke:none" d="M0 0h35v44H0z"/></g></mask><mask id="N"><g filter="url(#a)"><path style="fill:#000;fill-opacity:.0117647;stroke:none" d="M0 0h35v44H0z"/></g></mask><mask id="bb"><g filter="url(#a)"><path style="fill:#000;fill-opacity:.988235;stroke:none" d="M0 0h35v44H0z"/></g></mask><mask id="L"><g filter="url(#a)"><path style="fill:#000;fill-opacity:.980392;stroke:none" d="M0 0h35v44H0z"/></g></mask><g id="ac" clip-path="url(#k)"><path style="stroke:none;fill-rule:evenodd;fill:#000;fill-opacity:1" d="M32.824 6.422h.102c-.02.066-.051.066-.102 0zm0 0"/></g><g id="K" clip-path="url(#b)"><path style="stroke:none;fill-rule:evenodd;fill:#d64032;fill-opacity:1" d="M22.102 1.84c-.036.086-.102.117-.204.101-2.964-1.226-5.964-1.308-9-.25C9.566 3.18 7.492 5.688 6.676 9.207a22.796 22.796 0 0 0 .91 9.258 46.92 46.92 0 0 0 1.973 5.476c-.012.059-.047.094-.102.098-2.277-2.555-3.809-5.508-4.602-8.86-.793-4.788.707-8.718 4.5-11.796C13.285.34 17.531-.172 22.102 1.84zm0 0"/></g><g id="aE" clip-path="url(#y)"><path style="stroke:none;fill-rule:evenodd;fill:#000;fill-opacity:1" d="M29.89 9.11v-.102h.204c-.035.086-.102.117-.203.101zm0 0"/></g><g id="ao" clip-path="url(#q)"><path style="stroke:none;fill-rule:evenodd;fill:#000;fill-opacity:1" d="M31.309 8.21h.101c-.02.071-.055.071-.101 0zm0 0"/></g><g id="W" clip-path="url(#h)"><path style="stroke:none;fill-rule:evenodd;fill:#000;fill-opacity:1" d="M32.523 1.84c.176-.098.313-.031.403.2-.012.062-.047.093-.102.1 0-.066-.031-.1-.101-.1 0-.067-.032-.099-.102-.099 0-.066-.031-.101-.098-.101zm0 0"/></g><g id="aG" clip-path="url(#z)"><path style="stroke:none;fill-rule:evenodd;fill:#000;fill-opacity:1" d="M29.688 9.207v-.098h.203c-.036.082-.102.118-.203.098zm0 0"/></g><g id="ae" clip-path="url(#l)"><path style="stroke:none;fill-rule:evenodd;fill:#000;fill-opacity:1" d="M32.621 6.621V6.52h.203c-.035.085-.101.117-.203.101zm0 0"/></g><g id="aq" clip-path="url(#r)"><path style="stroke:none;fill-rule:evenodd;fill:#000;fill-opacity:1" d="M31.207 8.313h.102c-.02.066-.055.066-.102 0zm0 0"/></g><g id="aI" clip-path="url(#A)"><path style="stroke:none;fill-rule:evenodd;fill:#000;fill-opacity:1" d="M29.488 9.309v-.102h.2c-.032.086-.102.117-.2.102zm0 0"/></g><g id="O" clip-path="url(#d)"><path style="stroke:none;fill-rule:evenodd;fill:#000;fill-opacity:1" d="M30.8 1.246c.25-.113.52-.133.81-.05a3.492 3.492 0 0 1-.81.05zm0 0"/></g><g id="S" clip-path="url(#f)"><path style="stroke:none;fill-rule:evenodd;fill:#000;fill-opacity:1" d="M25.844 1.445c-.067 0-.098.032-.098.098-.254-.023-.254-.09 0-.2.059.012.094.048.098.102zm0 0"/></g><g id="aK" clip-path="url(#B)"><path style="stroke:none;fill-rule:evenodd;fill:#000;fill-opacity:1" d="M29.184 9.309h.304a.626.626 0 0 1-.508.199v-.102c.102.02.168-.015.204-.097zm0 0"/></g><g id="as" clip-path="url(#s)"><path style="stroke:none;fill-rule:evenodd;fill:#000;fill-opacity:1" d="M31.004 8.512V8.41h.203c-.035.086-.102.117-.203.102zm0 0"/></g><g id="ag" clip-path="url(#m)"><path style="stroke:none;fill-rule:evenodd;fill:#000;fill-opacity:1" d="M32.32 6.719V6.62h.301c-.07.09-.172.121-.3.098zm0 0"/></g><g id="aM" clip-path="url(#C)"><path style="stroke:none;fill-rule:evenodd;fill:#d63f31;fill-opacity:1" d="M28.879 9.309c0 .066.035.097.101.097v.102c.942 3.62.485 7.07-1.363 10.351a25.064 25.064 0 0 1-2.984 4.282c-.063-.024-.094-.075-.102-.149a53.28 53.28 0 0 0 1.77-4.828 24.548 24.548 0 0 0 1.164-9.758c.476.016.95-.015 1.414-.097zm0 0"/></g><g id="Y" clip-path="url(#i)"><path style="stroke:none;fill-rule:evenodd;fill:#000;fill-opacity:1" d="M33.027 6.32v-.097h.203c-.035.082-.101.117-.203.097zm0 0"/></g><g id="au" clip-path="url(#t)"><path style="stroke:none;fill-rule:evenodd;fill:#000;fill-opacity:1" d="M30.8 8.61v-.098h.204c-.035.082-.102.117-.203.097zm0 0"/></g><g id="aO" clip-path="url(#D)"><path style="stroke:none;fill-rule:evenodd;fill:#0c0505;fill-opacity:1" d="M32.523 1.84c.067 0 .098.035.098.101.07 0 .102.032.102.098.07 0 .101.035.101.102.078.18.2.246.356.199.136.187.254.387.355.598-.12.171-.101.335.047.496.059-.207.11-.223.152-.051a71.473 71.473 0 0 0 0 2.242c-.12.242-.289.441-.504.598-.066-.133-.136-.133-.203 0-.066 0-.101.03-.101.097-.067 0-.102.035-.102.102-.097-.02-.168.016-.203.098-.129-.024-.23.011-.3.101-.102-.02-.169.016-.204.098-.445-.004-.476.047-.101.148a1.825 1.825 0 0 0-.305.551c-.031-.531-.066-.531-.102 0-.132.098-.132.2 0 .297a.453.453 0 0 1-.097.398c-.035-.265-.07-.265-.102 0-.07 0-.101.032-.101.098-.067 0-.102.035-.102.101-.102-.015-.168.016-.203.098-.102-.015-.168.02-.203.102-.067 0-.102.031-.102.097-.097-.015-.168.02-.199.102-.102-.02-.168.016-.203.098-.102-.016-.168.015-.203.101-.102-.02-.168.016-.203.098-.098-.016-.168.015-.203.101-.098-.02-.165.016-.2.098-.133-.023-.234.012-.304.102h-.305a6.836 6.836 0 0 1-1.414.097 3.94 3.94 0 0 1-.809-.246c-.394-.246-.797-.46-1.215-.648-.488.355-.96.738-1.418 1.144l-1.414-.199c-.34 1.363-1.199 2.242-2.582 2.637.032.234.102.465.203.699.118.43.032.812-.253 1.145-.36.234-.715.484-1.059.746.047 6.566.062 13.136.047 19.71-.031.45.004.883.101 1.294v5.773h-.808v-5.773c-.016-7.102 0-14.204.05-21.305.36-.516.848-.848 1.47-.992a1.3 1.3 0 0 0-.102-.7 7.297 7.297 0 0 0-1.719-.347 31.53 31.53 0 0 0-3.543 0c-.457.172-.61.484-.453.945.152.121.27.274.351.45.188-.06.391-.11.61-.15a.505.505 0 0 1 .453.2c.05 7.098.066 14.2.05 21.3-.019 1.099.012 2.196.102 3.286v3.086h-.91v-6.77c.117-6.718.133-13.453.051-20.207-.191.059-.36-.007-.508-.199-.234-.297-.469-.598-.707-.894-.254-.516-.168-.961.254-1.344a4.766 4.766 0 0 1 1.719-.45c.12-.894.222-1.788.304-2.687.18-.293.415-.543.707-.746.301-.133.59-.281.86-.45a2.696 2.696 0 0 0-.152-.847c.05-.37.168-.719.355-1.043.66-.98 1.586-1.41 2.781-1.293-.023-1.215.516-2.078 1.617-2.59.102.016.168-.015.204-.101a6.44 6.44 0 0 1 2.53-.246c.227.101.446.218.657.347.14-.156.293-.289.457-.398.067 0 .098-.031.098-.098.379-.289.785-.52 1.215-.699a4.103 4.103 0 0 1 2.832.348l.304.3a16.344 16.344 0 0 1 1.516 0c.289.122.559.274.812.446zm0 0"/></g><g id="M" clip-path="url(#c)"><path style="stroke:none;fill-rule:evenodd;fill:#000;fill-opacity:1" d="M27.059.746a.256.256 0 0 1-.204-.05c.098-.067.165-.051.204.05zm0 0"/></g><g id="ai" clip-path="url(#n)"><path style="stroke:none;fill-rule:evenodd;fill:#000;fill-opacity:1" d="M32.117 6.719h.203c-.07.133-.136.133-.203 0zm0 0"/></g><g id="aQ" clip-path="url(#E)"><path style="stroke:none;fill-rule:evenodd;fill:#fefcfc;fill-opacity:1" d="M9.66 24.438c.606.789 1.16 1.62 1.668 2.488a31.565 31.565 0 0 1 2.582 5.777 53.082 53.082 0 0 1-4.25-8.266zm0 0"/></g><g id="aw" clip-path="url(#u)"><path style="stroke:none;fill-rule:evenodd;fill:#000;fill-opacity:1" d="M30.7 8.61h.1c-.015.066-.05.066-.1 0zm0 0"/></g><g id="ba" clip-path="url(#J)"><path style="stroke:none;fill-rule:evenodd;fill:#d03d2f;fill-opacity:1" d="M15.426 35.09a46.505 46.505 0 0 0 1.617 2.289c.434-.547.836-1.113 1.215-1.691v3.484a27.126 27.126 0 0 0-.153 2.289 69.61 69.61 0 0 0-.101-.895 37.148 37.148 0 0 1-.352 3.383H16.54a1.026 1.026 0 0 0-.254-.199 33.034 33.034 0 0 0-.504-4.379c-.035.695-.07 1.395-.101 2.09a46.765 46.765 0 0 0-.153-3.086 32.886 32.886 0 0 1-.101-3.285zm0 0"/></g><g id="aS" clip-path="url(#F)"><path style="stroke:none;fill-rule:evenodd;fill:#fefcfb;fill-opacity:1" d="M24.43 24.54a59.145 59.145 0 0 1-4.551 8.66 28.497 28.497 0 0 1 2.375-5.376 21.003 21.003 0 0 1 2.176-3.285zm0 0"/></g><g id="aa" clip-path="url(#j)"><path style="stroke:none;fill-rule:evenodd;fill:#000;fill-opacity:1" d="M32.926 6.32h.101c-.02.067-.05.067-.101 0zm0 0"/></g><g id="ay" clip-path="url(#v)"><path style="stroke:none;fill-rule:evenodd;fill:#000;fill-opacity:1" d="M30.5 8.809V8.71h.2c-.032.082-.102.117-.2.098zm0 0"/></g><g id="aU" clip-path="url(#G)"><path style="stroke:none;fill-rule:evenodd;fill:#792d23;fill-opacity:1" d="M14.617 34.492a228.184 228.184 0 0 0-.152 6.969c-.035-2.52-.067-5.043-.102-7.566-.113-.29-.199-.59-.254-.895.16.121.313.32.457.598.051.297.067.593.051.894zm0 0"/></g><g id="ak" clip-path="url(#o)"><path style="stroke:none;fill-rule:evenodd;fill:#000;fill-opacity:1" d="M31.61 7.418h.1c.028.125-.007.227-.1.297v-.297zm0 0"/></g><g id="U" clip-path="url(#g)"><path style="stroke:none;fill-rule:evenodd;fill:#000;fill-opacity:1" d="M22.71 1.543c.145-.11.313-.129.505-.05-.164.05-.332.066-.504.05zm0 0"/></g><g id="aW" clip-path="url(#H)"><path style="stroke:none;fill-rule:evenodd;fill:#d64435;fill-opacity:1" d="M19.676 33.598c-.156.457-.293.922-.406 1.394a1.066 1.066 0 0 0-.204.598v.097a4.285 4.285 0 0 1-.101-1.292c.242-.223.426-.489.558-.797.07-.125.122-.125.153 0zm0 0"/></g><g id="aA" clip-path="url(#w)"><path style="stroke:none;fill-rule:evenodd;fill:#000;fill-opacity:1" d="M30.297 8.91V8.81h.203c-.035.086-.102.117-.203.101zm0 0"/></g><g id="Q" clip-path="url(#e)"><path style="stroke:none;fill-rule:evenodd;fill:#000;fill-opacity:1" d="M23.316 1.445a2.92 2.92 0 0 1 1.317-.05 9.252 9.252 0 0 1-1.317.05zm0 0"/></g><g id="aY" clip-path="url(#I)"><path style="stroke:none;fill-rule:evenodd;fill:#000;fill-opacity:1" d="M19.27 34.992c.02 2.156 0 4.313-.051 6.469a161.491 161.491 0 0 0-.153-5.871c.012-.23.079-.43.204-.598zm0 0"/></g><g id="am" clip-path="url(#p)"><path style="stroke:none;fill-rule:evenodd;fill:#000;fill-opacity:1" d="M31.41 8.113h.102c-.02.067-.055.067-.102 0zm0 0"/></g><g id="aC" clip-path="url(#x)"><path style="stroke:none;fill-rule:evenodd;fill:#000;fill-opacity:1" d="M30.094 9.008V8.91h.203c-.035.082-.102.117-.203.098zm0 0"/></g><filter id="a" filterUnits="objectBoundingBox" x="0%" y="0%" width="100%" height="100%"><feColorMatrix in="SourceGraphic" values="0 0 0 0 1 0 0 0 0 1 0 0 0 0 1 0 0 0 1 0"/></filter></defs><use xlink:href="#K" mask="url(#L)"/><use xlink:href="#M" mask="url(#N)"/><path style="stroke:none;fill-rule:evenodd;fill:#e0796f;fill-opacity:1" d="M21.898 1.941c-1.101.512-1.64 1.375-1.617 2.59-1.195-.117-2.12.313-2.781 1.293a2.827 2.827 0 0 0-.355 1.043c.097.281.148.567.152.848-.27.168-.559.316-.86.45a2.472 2.472 0 0 0-.707.745 62.128 62.128 0 0 1-.304 2.688 4.766 4.766 0 0 0-1.719.449c-.422.383-.508.828-.254 1.344.238.296.473.597.707.894.149.192.317.258.508.2.082 6.753.066 13.488-.05 20.206v-.199c.015-.3 0-.597-.052-.894-.144-.278-.296-.477-.457-.598-.14-.047-.207-.148-.199-.297a31.565 31.565 0 0 0-2.582-5.777 24.026 24.026 0 0 0-1.668-2.488.567.567 0 0 1-.203-.399c.055-.004.09-.039.102-.098a46.92 46.92 0 0 1-1.973-5.476 22.796 22.796 0 0 1-.91-9.258c.816-3.52 2.89-6.027 6.222-7.516 3.036-1.058 6.036-.976 9 .25zm0 0"/><use xlink:href="#O" mask="url(#P)"/><use xlink:href="#Q" mask="url(#R)"/><use xlink:href="#S" mask="url(#T)"/><use xlink:href="#U" mask="url(#V)"/><use xlink:href="#W" mask="url(#X)"/><use xlink:href="#Y" mask="url(#Z)"/><use xlink:href="#aa" mask="url(#ab)"/><use xlink:href="#ac" mask="url(#ad)"/><use xlink:href="#ae" mask="url(#af)"/><use xlink:href="#ag" mask="url(#ah)"/><use xlink:href="#ai" mask="url(#aj)"/><use xlink:href="#ak" mask="url(#al)"/><use xlink:href="#am" mask="url(#an)"/><use xlink:href="#ao" mask="url(#ap)"/><use xlink:href="#aq" mask="url(#ar)"/><use xlink:href="#as" mask="url(#at)"/><use xlink:href="#au" mask="url(#av)"/><use xlink:href="#aw" mask="url(#ax)"/><path style="stroke:none;fill-rule:evenodd;fill:#e1796f;fill-opacity:1" d="M27.465 9.406a24.548 24.548 0 0 1-1.164 9.758 53.28 53.28 0 0 1-1.77 4.828c.008.074.04.125.102.149-.07.132-.137.265-.203.398a21.003 21.003 0 0 0-2.176 3.285 28.497 28.497 0 0 0-2.375 5.375.6.6 0 0 1-.203.399c-.031-.125-.082-.125-.153 0a2.299 2.299 0 0 1-.558.797c.015-6.575 0-13.145-.047-19.711.344-.262.7-.512 1.059-.746.285-.333.37-.715.253-1.145a2.629 2.629 0 0 1-.203-.7c1.383-.394 2.243-1.273 2.582-2.636l1.414.2c.457-.407.93-.79 1.418-1.145.418.187.82.402 1.215.648.262.11.532.195.809.246zm0 0"/><use xlink:href="#ay" mask="url(#az)"/><use xlink:href="#aA" mask="url(#aB)"/><use xlink:href="#aC" mask="url(#aD)"/><use xlink:href="#aE" mask="url(#aF)"/><use xlink:href="#aG" mask="url(#aH)"/><use xlink:href="#aI" mask="url(#aJ)"/><use xlink:href="#aK" mask="url(#aL)"/><use xlink:href="#aM" mask="url(#aN)"/><use xlink:href="#aO" mask="url(#aP)"/><path style="stroke:none;fill-rule:evenodd;fill:#7f7f7f;fill-opacity:1" d="M27.566.945c.407-.015.809 0 1.211.051.489.328.961.676 1.418 1.043 1.317-.484 2.313-.121 2.985 1.098.66 1.746.07 2.84-1.77 3.285-.18 1.55-1.055 2.43-2.633 2.637-.918.175-1.761.011-2.527-.496-.29-.301-.59-.583-.91-.848a3.282 3.282 0 0 1-1.215 1.543c-.785.222-1.41.008-1.871-.649a9.684 9.684 0 0 1-.504 2.094c-.602.918-1.395 1.117-2.379.594-.258.172-.527.32-.808.45a8.307 8.307 0 0 1-2.43-.099c-.442-.222-.59-.57-.453-1.046.246-.13.43-.309.554-.547-.132-.235-.27-.465-.402-.696.184-.398.418-.765.707-1.097.352-.211.691-.196 1.012.05.082-.726.133-1.457.152-2.19.637-1.134 1.598-1.497 2.883-1.095.121-.746.305-1.476.555-2.191.582-.664 1.324-.965 2.226-.895a4.006 4.006 0 0 1 2.176.598A3.76 3.76 0 0 1 27.566.945zm0 0"/><path style="stroke:none;fill-rule:evenodd;fill:#a7463d;fill-opacity:1" d="M19.27 11.797a.506.506 0 0 1 .406.098c-.07.035-.137.066-.203.101-.121-.023-.192-.09-.203-.2zm0 0"/><path style="stroke:none;fill-rule:evenodd;fill:#e0796f;fill-opacity:1" d="M18.258 35.688a23.086 23.086 0 0 1-1.215 1.69 46.505 46.505 0 0 1-1.617-2.288c.015-7.102 0-14.203-.051-21.3a.505.505 0 0 0-.453-.2c-.219.039-.422.09-.61.148a1.234 1.234 0 0 0-.351-.449c-.156-.46-.004-.773.453-.945a31.53 31.53 0 0 1 3.543 0c.59.047 1.164.164 1.719.347a1.3 1.3 0 0 1 .101.7 2.392 2.392 0 0 0-1.468.992c-.051 7.101-.067 14.203-.051 21.304zm0 0"/><use xlink:href="#aQ" mask="url(#aR)"/><use xlink:href="#aS" mask="url(#aT)"/><use xlink:href="#aU" mask="url(#aV)"/><use xlink:href="#aW" mask="url(#aX)"/><use xlink:href="#aY" mask="url(#aZ)"/><use xlink:href="#ba" mask="url(#bb)"/></svg>