<?xml version="1.0" encoding="UTF-8"?>
<!DOCTYPE svg PUBLIC "-//W3C//DTD SVG 1.1//EN" "http://www.w3.org/Graphics/SVG/1.1/DTD/svg11.dtd">
<svg xmlns="http://www.w3.org/2000/svg" version="1.1" width="346px" height="442px" style="shape-rendering:geometricPrecision; text-rendering:geometricPrecision; image-rendering:optimizeQuality; fill-rule:evenodd; clip-rule:evenodd" xmlns:xlink="http://www.w3.org/1999/xlink">
<g><path style="opacity:0.982" fill="#d64032" d="M 272.5,65.5 C 268.833,65.5 265.167,65.5 261.5,65.5C 244.69,33.7367 218.356,15.2367 182.5,10C 131.253,5.86153 94.4199,26.6949 72,72.5C 66.2469,86.4383 63.7469,100.938 64.5,116C 66.5587,159.402 76.5587,200.902 94.5,240.5C 94.3764,241.107 94.0431,241.44 93.5,241.5C 73.0637,218.311 58.5637,191.644 50,161.5C 38.6544,115.221 49.8211,75.3872 83.5,42C 118.399,8.44284 159.065,-1.22383 205.5,13C 234.73,23.6854 257.064,41.1854 272.5,65.5 Z"/></g>
<g><path style="opacity:1" fill="#e1796f" d="M 261.5,65.5 C 260.735,65.9234 259.902,66.2568 259,66.5C 252.283,61.1485 244.616,58.1485 236,57.5C 232.742,57.4933 229.575,57.9933 226.5,59C 219.796,62.3461 213.463,66.1795 207.5,70.5C 204.121,69.1391 200.788,67.8057 197.5,66.5C 184.007,65.8273 172.507,70.1606 163,79.5C 159.557,84.6617 158.057,90.3284 158.5,96.5C 146.679,95.328 137.513,99.6613 131,109.5C 129.142,112.763 127.975,116.263 127.5,120C 128.451,122.822 128.951,125.655 129,128.5C 126.31,130.182 123.477,131.682 120.5,133C 117.616,135.048 115.283,137.548 113.5,140.5C 112.709,146.836 112.042,153.17 111.5,159.5C 110.908,162.127 110.575,164.794 110.5,167.5C 104.546,167.936 98.8793,169.436 93.5,172C 89.3294,175.854 88.4961,180.354 91,185.5C 93.3333,188.5 95.6667,191.5 98,194.5C 99.46,196.422 101.127,197.089 103,196.5C 103.829,218.004 103.663,239.337 102.5,260.5C 102.404,254.419 100.071,249.419 95.5,245.5C 94.3263,244.486 93.6596,243.153 93.5,241.5C 94.0431,241.44 94.3764,241.107 94.5,240.5C 76.5587,200.902 66.5587,159.402 64.5,116C 63.7469,100.938 66.2469,86.4383 72,72.5C 94.4199,26.6949 131.253,5.86153 182.5,10C 218.356,15.2367 244.69,33.7367 261.5,65.5 Z"/></g>
<g><path style="opacity:0.915" fill="#0f0807" d="M 261.5,65.5 C 265.167,65.5 268.833,65.5 272.5,65.5C 274.969,66.5686 277.302,67.9019 279.5,69.5C 279.5,70.1667 279.833,70.5 280.5,70.5C 280.5,71.1667 280.833,71.5 281.5,71.5C 281.5,72.1667 281.833,72.5 282.5,72.5C 283.281,74.3223 284.448,74.9889 286,74.5C 287.366,76.3703 288.533,78.3703 289.5,80.5C 288.339,82.2237 288.505,83.8904 290,85.5C 290.556,83.4049 291.056,83.2382 291.5,85C 291.65,91.7779 291.317,98.9445 290.5,106.5C 289.833,106.5 289.5,106.833 289.5,107.5C 285.506,112.8 280.173,116.133 273.5,117.5C 272.504,117.414 271.671,117.748 271,118.5C 269.727,123.432 268.227,128.265 266.5,133C 259.724,137.721 252.391,141.388 244.5,144C 238.569,145.471 232.569,145.804 226.5,145C 220.828,142.164 215.162,139.331 209.5,136.5C 204.691,140.083 200.025,143.916 195.5,148C 190.833,147.333 186.167,146.667 181.5,146C 179.899,154.045 175.899,160.545 169.5,165.5C 169.5,164.833 169.167,164.5 168.5,164.5C 174.251,156.546 177.417,147.546 178,137.5C 182.559,144.077 188.726,146.243 196.5,144C 202.052,140.076 206.052,134.909 208.5,128.5C 222.993,144.331 239.66,146.831 258.5,136C 264.637,130.557 267.637,123.724 267.5,115.5C 286.688,111.79 292.855,100.79 286,82.5C 281.545,74.7172 274.878,70.0505 266,68.5C 262.613,68.7957 259.446,69.7957 256.5,71.5C 251.975,67.8076 247.308,64.3076 242.5,61C 228.545,59.5604 217.712,64.7271 210,76.5C 208.786,74.9512 207.286,73.7845 205.5,73C 195.143,69.7657 184.81,69.7657 174.5,73C 171.705,74.7932 169.205,76.9598 167,79.5C 164.536,86.6883 162.703,94.0217 161.5,101.5C 148.819,97.442 139.319,101.109 133,112.5C 132.831,119.856 132.331,127.189 131.5,134.5C 127.436,131.703 123.602,132.036 120,135.5C 118.034,138.601 116.2,141.768 114.5,145C 115.833,147.333 117.167,149.667 118.5,152C 116.2,154.302 114.2,156.802 112.5,159.5C 112.167,159.5 111.833,159.5 111.5,159.5C 112.042,153.17 112.709,146.836 113.5,140.5C 115.283,137.548 117.616,135.048 120.5,133C 123.477,131.682 126.31,130.182 129,128.5C 128.951,125.655 128.451,122.822 127.5,120C 127.975,116.263 129.142,112.763 131,109.5C 137.513,99.6613 146.679,95.328 158.5,96.5C 158.057,90.3284 159.557,84.6617 163,79.5C 172.507,70.1606 184.007,65.8273 197.5,66.5C 200.788,67.8057 204.121,69.1391 207.5,70.5C 213.463,66.1795 219.796,62.3461 226.5,59C 229.575,57.9933 232.742,57.4933 236,57.5C 244.616,58.1485 252.283,61.1485 259,66.5C 259.902,66.2568 260.735,65.9234 261.5,65.5 Z"/></g>
<g><path style="opacity:1" fill="#7f7f7e" d="M 168.5,164.5 C 162.234,168.259 155.901,168.259 149.5,164.5C 146.961,166.2 144.295,167.7 141.5,169C 134.833,169.667 128.167,169.667 121.5,169C 115.659,168.431 112.659,165.265 112.5,159.5C 114.2,156.802 116.2,154.302 118.5,152C 117.167,149.667 115.833,147.333 114.5,145C 116.2,141.768 118.034,138.601 120,135.5C 123.602,132.036 127.436,131.703 131.5,134.5C 132.331,127.189 132.831,119.856 133,112.5C 139.319,101.109 148.819,97.442 161.5,101.5C 162.703,94.0217 164.536,86.6883 167,79.5C 169.205,76.9598 171.705,74.7932 174.5,73C 184.81,69.7657 195.143,69.7657 205.5,73C 207.286,73.7845 208.786,74.9512 210,76.5C 217.712,64.7271 228.545,59.5604 242.5,61C 247.308,64.3076 251.975,67.8076 256.5,71.5C 259.446,69.7957 262.613,68.7957 266,68.5C 274.878,70.0505 281.545,74.7172 286,82.5C 292.855,100.79 286.688,111.79 267.5,115.5C 267.637,123.724 264.637,130.557 258.5,136C 239.66,146.831 222.993,144.331 208.5,128.5C 206.052,134.909 202.052,140.076 196.5,144C 188.726,146.243 182.559,144.077 178,137.5C 177.417,147.546 174.251,156.546 168.5,164.5 Z"/></g>
<g><path style="opacity:0.007" fill="#000000" d="M 279.5,69.5 C 281.268,68.4925 282.601,69.1592 283.5,71.5C 283.376,72.1067 283.043,72.44 282.5,72.5C 281.833,72.5 281.5,72.1667 281.5,71.5C 280.833,71.5 280.5,71.1667 280.5,70.5C 279.833,70.5 279.5,70.1667 279.5,69.5 Z"/></g>
<g><path style="opacity:0.008" fill="#000000" d="M 290.5,106.5 C 291.715,107.779 291.382,108.779 289.5,109.5C 289.5,108.833 289.5,108.167 289.5,107.5C 290.167,107.5 290.5,107.167 290.5,106.5 Z"/></g>
<g><path style="opacity:0.988" fill="#d63f31" d="M 289.5,107.5 C 289.5,108.167 289.5,108.833 289.5,109.5C 294.227,141.281 288.727,171.281 273,199.5C 264.639,214.905 254.805,229.238 243.5,242.5C 242.903,242.265 242.57,241.765 242.5,241C 259.822,201.547 270.155,160.38 273.5,117.5C 280.173,116.133 285.506,112.8 289.5,107.5 Z"/></g>
<g><path style="opacity:1" fill="#e1796f" d="M 273.5,117.5 C 270.155,160.38 259.822,201.547 242.5,241C 242.57,241.765 242.903,242.265 243.5,242.5C 242.833,243.833 242.167,245.167 241.5,246.5C 233.362,256.752 226.195,267.752 220,279.5C 210.306,296.77 202.472,314.77 196.5,333.5C 196.34,335.153 195.674,336.486 194.5,337.5C 194.19,336.262 193.69,336.262 193,337.5C 185.568,350.713 177.401,363.38 168.5,375.5C 160.808,364.149 153.141,352.815 145.5,341.5C 145.642,293.799 145.475,246.133 145,198.5C 148.412,195.877 151.912,193.377 155.5,191C 158.318,187.662 159.151,183.829 158,179.5C 156.972,177.156 156.306,174.823 156,172.5C 160.731,170.552 165.231,168.218 169.5,165.5C 175.899,160.545 179.899,154.045 181.5,146C 186.167,146.667 190.833,147.333 195.5,148C 200.025,143.916 204.691,140.083 209.5,136.5C 215.162,139.331 220.828,142.164 226.5,145C 232.569,145.804 238.569,145.471 244.5,144C 252.391,141.388 259.724,137.721 266.5,133C 268.227,128.265 269.727,123.432 271,118.5C 271.671,117.748 272.504,117.414 273.5,117.5 Z"/></g>
<g><path style="opacity:0.907" fill="#080403" d="M 111.5,159.5 C 111.833,159.5 112.167,159.5 112.5,159.5C 112.659,165.265 115.659,168.431 121.5,169C 128.167,169.667 134.833,169.667 141.5,169C 144.295,167.7 146.961,166.2 149.5,164.5C 155.901,168.259 162.234,168.259 168.5,164.5C 169.167,164.5 169.5,164.833 169.5,165.5C 165.231,168.218 160.731,170.552 156,172.5C 156.306,174.823 156.972,177.156 158,179.5C 159.151,183.829 158.318,187.662 155.5,191C 151.912,193.377 148.412,195.877 145,198.5C 145.475,246.133 145.642,293.799 145.5,341.5C 145.5,345.5 145.5,349.5 145.5,353.5C 145.5,372.167 145.5,390.833 145.5,409.5C 142.833,409.5 140.167,409.5 137.5,409.5C 137.5,382.833 137.5,356.167 137.5,329.5C 138.333,285.002 138.833,240.335 139,195.5C 142.558,190.306 147.391,186.972 153.5,185.5C 153.808,183.076 153.474,180.743 152.5,178.5C 147.012,176.642 141.345,175.476 135.5,175C 123.833,174.333 112.167,174.333 100.5,175C 95.962,176.713 94.462,179.88 96,184.5C 97.5292,185.729 98.6959,187.229 99.5,189C 101.342,188.421 103.342,187.921 105.5,187.5C 107.374,187.39 108.874,188.056 110,189.5C 110.5,216.165 110.667,242.831 110.5,269.5C 110.294,273.898 110.627,278.232 111.5,282.5C 111.5,324.833 111.5,367.167 111.5,409.5C 108.5,409.5 105.5,409.5 102.5,409.5C 102.5,360.167 102.5,310.833 102.5,261.5C 102.5,261.167 102.5,260.833 102.5,260.5C 103.663,239.337 103.829,218.004 103,196.5C 101.127,197.089 99.46,196.422 98,194.5C 95.6667,191.5 93.3333,188.5 91,185.5C 88.4961,180.354 89.3294,175.854 93.5,172C 98.8793,169.436 104.546,167.936 110.5,167.5C 110.575,164.794 110.908,162.127 111.5,159.5 Z"/></g>
<g><path style="opacity:1" fill="#a7463d" d="M 148.5,169.5 C 149.978,169.238 151.311,169.571 152.5,170.5C 151.833,170.833 151.167,171.167 150.5,171.5C 149.287,171.253 148.62,170.586 148.5,169.5 Z"/></g>
<g><path style="opacity:1" fill="#df786e" d="M 137.5,329.5 C 137.5,329.167 137.5,328.833 137.5,328.5C 130.925,307.687 121.925,288.02 110.5,269.5C 110.667,242.831 110.5,216.165 110,189.5C 108.874,188.056 107.374,187.39 105.5,187.5C 103.342,187.921 101.342,188.421 99.5,189C 98.6959,187.229 97.5292,185.729 96,184.5C 94.462,179.88 95.962,176.713 100.5,175C 112.167,174.333 123.833,174.333 135.5,175C 141.345,175.476 147.012,176.642 152.5,178.5C 153.474,180.743 153.808,183.076 153.5,185.5C 147.391,186.972 142.558,190.306 139,195.5C 138.833,240.335 138.333,285.002 137.5,329.5 Z"/></g>
<g><path style="opacity:0.134" fill="#838282" d="M 95.5,245.5 C 100.071,249.419 102.404,254.419 102.5,260.5C 102.5,260.833 102.5,261.167 102.5,261.5C 101.667,310.665 101.167,359.998 101,409.5C 100.667,358.833 100.333,308.167 100,257.5C 98.2019,253.578 96.7019,249.578 95.5,245.5 Z"/></g>
<g><path style="opacity:0.238" fill="#fefcfb" d="M 241.5,246.5 C 228.823,276.858 213.823,305.858 196.5,333.5C 202.472,314.77 210.306,296.77 220,279.5C 226.195,267.752 233.362,256.752 241.5,246.5 Z"/></g>
<g><path style="opacity:0.25" fill="#9a9999" d="M 110.5,269.5 C 121.925,288.02 130.925,307.687 137.5,328.5C 136.668,355.33 136.168,382.33 136,409.5C 135.667,381.5 135.333,353.5 135,325.5C 127.746,312.659 120.746,299.659 114,286.5C 113.667,327.5 113.333,368.5 113,409.5C 112.833,366.998 112.333,324.665 111.5,282.5C 110.627,278.232 110.294,273.898 110.5,269.5 Z"/></g>
<g><path style="opacity:0.986" fill="#d03e30" d="M 194.5,337.5 C 183.074,371.294 176.408,405.961 174.5,441.5C 170.833,441.5 167.167,441.5 163.5,441.5C 162.828,440.733 161.995,440.066 161,439.5C 159.586,412.685 155.253,386.351 148,360.5C 147.667,376.833 147.333,393.167 147,409.5C 146.832,390.662 146.332,371.996 145.5,353.5C 145.5,349.5 145.5,345.5 145.5,341.5C 153.141,352.815 160.808,364.149 168.5,375.5C 177.401,363.38 185.568,350.713 193,337.5C 193.69,336.262 194.19,336.262 194.5,337.5 Z"/></g>
</svg>
