<?xml version="1.0" encoding="UTF-8"?>
<!DOCTYPE svg PUBLIC "-//W3C//DTD SVG 1.1//EN" "http://www.w3.org/Graphics/SVG/1.1/DTD/svg11.dtd">
<svg xmlns="http://www.w3.org/2000/svg" version="1.1" width="346px" height="442px" style="shape-rendering:geometricPrecision; text-rendering:geometricPrecision; image-rendering:optimizeQuality; fill-rule:evenodd; clip-rule:evenodd" xmlns:xlink="http://www.w3.org/1999/xlink">
<g><path style="opacity:1" fill="#e0796f" d="M 243.5,242.5 C 242.833,243.833 242.167,245.167 241.5,246.5C 233.362,256.752 226.195,267.752 220,279.5C 210.306,296.77 202.472,314.77 196.5,333.5C 196.34,335.153 195.674,336.486 194.5,337.5C 194.19,336.262 193.69,336.262 193,337.5C 185.568,350.713 177.401,363.38 168.5,375.5C 158.148,360.658 148.482,345.992 139.5,331.5C 138.094,331.027 137.427,330.027 137.5,328.5C 130.951,308.394 122.451,289.06 112,270.5C 106.973,261.759 101.473,253.425 95.5,245.5C 94.3263,244.486 93.6596,243.153 93.5,241.5C 94.0431,241.44 94.3764,241.107 94.5,240.5C 83.8937,216.681 75.8937,192.014 70.5,166.5C 64.1667,166.5 57.8333,166.5 51.5,166.5C 60.6749,165.178 70.0082,165.178 79.5,166.5C 90.5626,203.062 114.229,227.229 150.5,239C 184.34,246.958 215.007,240.458 242.5,219.5C 243.82,211.657 243.82,203.657 242.5,195.5C 241.893,195.624 241.56,195.957 241.5,196.5C 221.02,218.499 195.686,227.999 165.5,225C 131.966,218.629 109.3,199.463 97.5,167.5C 135.344,167.165 173.011,166.165 210.5,164.5C 212.082,159.501 214.082,154.668 216.5,150C 175.501,149.5 134.501,149.333 93.5,149.5C 93.5,143.5 93.5,137.5 93.5,131.5C 137.167,131.5 180.833,131.5 224.5,131.5C 225.94,125.954 227.94,120.62 230.5,115.5C 186.167,114.833 141.833,114.167 97.5,113.5C 113.396,73.2085 143.063,54.0419 186.5,56C 209.034,58.8495 227.868,68.6829 243,85.5C 245.831,79.6734 247.831,73.6734 249,67.5C 215.811,37.5907 178.311,30.7573 136.5,47C 106.717,60.9423 87.7171,83.7756 79.5,115.5C 72.1667,115.5 64.8333,115.5 57.5,115.5C 59.6074,114.532 61.9407,114.198 64.5,114.5C 65.2683,68.7694 86.2683,36.2694 127.5,17C 172.443,0.948332 211.943,9.44833 246,42.5C 267.991,68.4907 276.658,98.4907 272,132.5C 267.46,170.118 257.627,206.285 242.5,241C 242.57,241.765 242.903,242.265 243.5,242.5 Z"/></g>
<g><path style="opacity:0.987" fill="#d64032" d="M 243.5,242.5 C 242.903,242.265 242.57,241.765 242.5,241C 257.627,206.285 267.46,170.118 272,132.5C 276.658,98.4907 267.991,68.4907 246,42.5C 211.943,9.44833 172.443,0.948332 127.5,17C 86.2683,36.2694 65.2683,68.7694 64.5,114.5C 61.9407,114.198 59.6074,114.532 57.5,115.5C 55.2259,120.383 53.2259,125.383 51.5,130.5C 50.9569,130.56 50.6236,130.893 50.5,131.5C 55.456,132.494 60.456,132.827 65.5,132.5C 65.6865,137.845 66.0199,143.178 66.5,148.5C 63.2869,148.19 60.2869,148.523 57.5,149.5C 55.6768,154.48 53.3434,159.147 50.5,163.5C 36.9719,102.4 56.6385,55.2334 109.5,22C 144.015,3.27265 179.348,1.60598 215.5,17C 270.567,43.9515 295.401,88.1182 290,149.5C 285.689,173.774 276.689,196.107 263,216.5C 256.283,225.044 249.783,233.71 243.5,242.5 Z"/></g>
<g><path style="opacity:1" fill="#030101" d="M 97.5,113.5 C 96.9569,113.56 96.6236,113.893 96.5,114.5C 141.162,115.5 185.828,115.833 230.5,115.5C 227.94,120.62 225.94,125.954 224.5,131.5C 180.833,131.5 137.167,131.5 93.5,131.5C 93.5,137.5 93.5,143.5 93.5,149.5C 134.501,149.333 175.501,149.5 216.5,150C 214.082,154.668 212.082,159.501 210.5,164.5C 172.567,165.161 134.567,165.827 96.5,166.5C 96.6236,167.107 96.9569,167.44 97.5,167.5C 109.3,199.463 131.966,218.629 165.5,225C 195.686,227.999 221.02,218.499 241.5,196.5C 242.492,203.982 242.825,211.648 242.5,219.5C 215.007,240.458 184.34,246.958 150.5,239C 114.229,227.229 90.5626,203.062 79.5,166.5C 70.0082,165.178 60.6749,165.178 51.5,166.5C 50.596,165.791 50.2627,164.791 50.5,163.5C 53.3434,159.147 55.6768,154.48 57.5,149.5C 63.8333,149.5 70.1667,149.5 76.5,149.5C 76.5,143.5 76.5,137.5 76.5,131.5C 67.9832,131.826 59.6499,131.493 51.5,130.5C 53.2259,125.383 55.2259,120.383 57.5,115.5C 64.8333,115.5 72.1667,115.5 79.5,115.5C 87.7171,83.7756 106.717,60.9423 136.5,47C 178.311,30.7573 215.811,37.5907 249,67.5C 247.831,73.6734 245.831,79.6734 243,85.5C 227.868,68.6829 209.034,58.8495 186.5,56C 143.063,54.0419 113.396,73.2085 97.5,113.5 Z"/></g>
<g><path style="opacity:1" fill="#733d38" d="M 97.5,113.5 C 141.833,114.167 186.167,114.833 230.5,115.5C 185.828,115.833 141.162,115.5 96.5,114.5C 96.6236,113.893 96.9569,113.56 97.5,113.5 Z"/></g>
<g><path style="opacity:1" fill="#e1796f" d="M 65.5,132.5 C 68.8333,132.5 72.1667,132.5 75.5,132.5C 75.5,137.833 75.5,143.167 75.5,148.5C 72.5,148.5 69.5,148.5 66.5,148.5C 66.0199,143.178 65.6865,137.845 65.5,132.5 Z"/></g>
<g><path style="opacity:1" fill="#773932" d="M 51.5,130.5 C 59.6499,131.493 67.9832,131.826 76.5,131.5C 76.5,137.5 76.5,143.5 76.5,149.5C 70.1667,149.5 63.8333,149.5 57.5,149.5C 60.2869,148.523 63.2869,148.19 66.5,148.5C 69.5,148.5 72.5,148.5 75.5,148.5C 75.5,143.167 75.5,137.833 75.5,132.5C 72.1667,132.5 68.8333,132.5 65.5,132.5C 60.456,132.827 55.456,132.494 50.5,131.5C 50.6236,130.893 50.9569,130.56 51.5,130.5 Z"/></g>
<g><path style="opacity:1" fill="#733d38" d="M 210.5,164.5 C 173.011,166.165 135.344,167.165 97.5,167.5C 96.9569,167.44 96.6236,167.107 96.5,166.5C 134.567,165.827 172.567,165.161 210.5,164.5 Z"/></g>
<g><path style="opacity:0.982" fill="#d64032" d="M 51.5,166.5 C 57.8333,166.5 64.1667,166.5 70.5,166.5C 75.8937,192.014 83.8937,216.681 94.5,240.5C 94.3764,241.107 94.0431,241.44 93.5,241.5C 73.9559,219.393 59.9559,194.393 51.5,166.5 Z"/></g>
<g><path style="opacity:1" fill="#80443f" d="M 241.5,196.5 C 241.56,195.957 241.893,195.624 242.5,195.5C 243.82,203.657 243.82,211.657 242.5,219.5C 242.825,211.648 242.492,203.982 241.5,196.5 Z"/></g>
<g><path style="opacity:0.235" fill="#fefcfc" d="M 95.5,245.5 C 101.473,253.425 106.973,261.759 112,270.5C 122.451,289.06 130.951,308.394 137.5,328.5C 121.152,302.138 107.152,274.471 95.5,245.5 Z"/></g>
<g><path style="opacity:0.238" fill="#fefcfb" d="M 241.5,246.5 C 228.823,276.858 213.823,305.858 196.5,333.5C 202.472,314.77 210.306,296.77 220,279.5C 226.195,267.752 233.362,256.752 241.5,246.5 Z"/></g>
<g><path style="opacity:0.985" fill="#d63f31" d="M 194.5,337.5 C 183.074,371.294 176.408,405.961 174.5,441.5C 170.833,441.5 167.167,441.5 163.5,441.5C 162.828,440.733 161.995,440.066 161,439.5C 158.638,402.526 151.472,366.526 139.5,331.5C 148.482,345.992 158.148,360.658 168.5,375.5C 177.401,363.38 185.568,350.713 193,337.5C 193.69,336.262 194.19,336.262 194.5,337.5 Z"/></g>
</svg>
