<svg xmlns="http://www.w3.org/2000/svg" xmlns:xlink="http://www.w3.org/1999/xlink" width="35" height="45" viewBox="0 0 35 44"><defs><clipPath id="b"><path d="M0 0h35v44H0z"/></clipPath><clipPath id="ak"><path d="M0 0h35v44H0z"/></clipPath><clipPath id="d"><path d="M0 0h35v44H0z"/></clipPath><clipPath id="e"><path d="M0 0h35v44H0z"/></clipPath><clipPath id="f"><path d="M0 0h35v44H0z"/></clipPath><clipPath id="g"><path d="M0 0h35v44H0z"/></clipPath><clipPath id="h"><path d="M0 0h35v44H0z"/></clipPath><clipPath id="i"><path d="M0 0h35v44H0z"/></clipPath><clipPath id="j"><path d="M0 0h35v44H0z"/></clipPath><clipPath id="k"><path d="M0 0h35v44H0z"/></clipPath><clipPath id="l"><path d="M0 0h35v44H0z"/></clipPath><clipPath id="m"><path d="M0 0h35v44H0z"/></clipPath><clipPath id="n"><path d="M0 0h35v44H0z"/></clipPath><clipPath id="o"><path d="M0 0h35v44H0z"/></clipPath><clipPath id="p"><path d="M0 0h35v44H0z"/></clipPath><clipPath id="q"><path d="M0 0h35v44H0z"/></clipPath><clipPath id="r"><path d="M0 0h35v44H0z"/></clipPath><clipPath id="s"><path d="M0 0h35v44H0z"/></clipPath><clipPath id="t"><path d="M0 0h35v44H0z"/></clipPath><clipPath id="u"><path d="M0 0h35v44H0z"/></clipPath><clipPath id="v"><path d="M0 0h35v44H0z"/></clipPath><clipPath id="w"><path d="M0 0h35v44H0z"/></clipPath><clipPath id="x"><path d="M0 0h35v44H0z"/></clipPath><clipPath id="y"><path d="M0 0h35v44H0z"/></clipPath><clipPath id="z"><path d="M0 0h35v44H0z"/></clipPath><clipPath id="A"><path d="M0 0h35v44H0z"/></clipPath><clipPath id="B"><path d="M0 0h35v44H0z"/></clipPath><clipPath id="C"><path d="M0 0h35v44H0z"/></clipPath><clipPath id="D"><path d="M0 0h35v44H0z"/></clipPath><clipPath id="E"><path d="M0 0h35v44H0z"/></clipPath><clipPath id="F"><path d="M0 0h35v44H0z"/></clipPath><clipPath id="c"><path d="M0 0h35v44H0z"/></clipPath><clipPath id="G"><path d="M0 0h35v44H0z"/></clipPath><clipPath id="H"><path d="M0 0h35v44H0z"/></clipPath><clipPath id="I"><path d="M0 0h35v44H0z"/></clipPath><clipPath id="J"><path d="M0 0h35v44H0z"/></clipPath><clipPath id="K"><path d="M0 0h35v44H0z"/></clipPath><clipPath id="L"><path d="M0 0h35v44H0z"/></clipPath><clipPath id="M"><path d="M0 0h35v44H0z"/></clipPath><clipPath id="N"><path d="M0 0h35v44H0z"/></clipPath><clipPath id="O"><path d="M0 0h35v44H0z"/></clipPath><clipPath id="P"><path d="M0 0h35v44H0z"/></clipPath><clipPath id="Q"><path d="M0 0h35v44H0z"/></clipPath><clipPath id="R"><path d="M0 0h35v44H0z"/></clipPath><clipPath id="S"><path d="M0 0h35v44H0z"/></clipPath><clipPath id="T"><path d="M0 0h35v44H0z"/></clipPath><clipPath id="U"><path d="M0 0h35v44H0z"/></clipPath><clipPath id="V"><path d="M0 0h35v44H0z"/></clipPath><clipPath id="W"><path d="M0 0h35v44H0z"/></clipPath><clipPath id="X"><path d="M0 0h35v44H0z"/></clipPath><clipPath id="Y"><path d="M0 0h35v44H0z"/></clipPath><clipPath id="Z"><path d="M0 0h35v44H0z"/></clipPath><clipPath id="aa"><path d="M0 0h35v44H0z"/></clipPath><clipPath id="ab"><path d="M0 0h35v44H0z"/></clipPath><clipPath id="ac"><path d="M0 0h35v44H0z"/></clipPath><clipPath id="ad"><path d="M0 0h35v44H0z"/></clipPath><clipPath id="ae"><path d="M0 0h35v44H0z"/></clipPath><clipPath id="af"><path d="M0 0h35v44H0z"/></clipPath><clipPath id="ag"><path d="M0 0h35v44H0z"/></clipPath><clipPath id="ah"><path d="M0 0h35v44H0z"/></clipPath><clipPath id="ai"><path d="M0 0h35v44H0z"/></clipPath><clipPath id="aj"><path d="M0 0h35v44H0z"/></clipPath><mask id="am"><g filter="url(#a)"><path style="fill:#000;fill-opacity:.0235294;stroke:none" d="M0 0h35v44H0z"/></g></mask><mask id="bw"><g filter="url(#a)"><path style="fill:#000;fill-opacity:.0196078;stroke:none" d="M0 0h35v44H0z"/></g></mask><mask id="aS"><g filter="url(#a)"><path style="fill:#000;fill-opacity:.054902;stroke:none" d="M0 0h35v44H0z"/></g></mask><mask id="by"><g filter="url(#a)"><path style="fill:#000;fill-opacity:.65098;stroke:none" d="M0 0h35v44H0z"/></g></mask><mask id="aC"><g filter="url(#a)"><path style="fill:#000;fill-opacity:.0431373;stroke:none" d="M0 0h35v44H0z"/></g></mask><mask id="bA"><g filter="url(#a)"><path style="fill:#000;fill-opacity:.0352941;stroke:none" d="M0 0h35v44H0z"/></g></mask><mask id="aU"><g filter="url(#a)"><path style="fill:#000;fill-opacity:.00784314;stroke:none" d="M0 0h35v44H0z"/></g></mask><mask id="bC"><g filter="url(#a)"><path style="fill:#000;fill-opacity:.34902;stroke:none" d="M0 0h35v44H0z"/></g></mask><mask id="au"><g filter="url(#a)"><path style="fill:#000;fill-opacity:.0235294;stroke:none" d="M0 0h35v44H0z"/></g></mask><mask id="bE"><g filter="url(#a)"><path style="fill:#000;fill-opacity:.109804;stroke:none" d="M0 0h35v44H0z"/></g></mask><mask id="aW"><g filter="url(#a)"><path style="fill:#000;fill-opacity:.764706;stroke:none" d="M0 0h35v44H0z"/></g></mask><mask id="bG"><g filter="url(#a)"><path style="fill:#000;fill-opacity:.0392157;stroke:none" d="M0 0h35v44H0z"/></g></mask><mask id="aE"><g filter="url(#a)"><path style="fill:#000;fill-opacity:.419608;stroke:none" d="M0 0h35v44H0z"/></g></mask><mask id="bI"><g filter="url(#a)"><path style="fill:#000;fill-opacity:.0431373;stroke:none" d="M0 0h35v44H0z"/></g></mask><mask id="aY"><g filter="url(#a)"><path style="fill:#000;fill-opacity:.941176;stroke:none" d="M0 0h35v44H0z"/></g></mask><mask id="bK"><g filter="url(#a)"><path style="fill:#000;fill-opacity:.552941;stroke:none" d="M0 0h35v44H0z"/></g></mask><mask id="aq"><g filter="url(#a)"><path style="fill:#000;fill-opacity:.0431373;stroke:none" d="M0 0h35v44H0z"/></g></mask><mask id="bM"><g filter="url(#a)"><path style="fill:#000;fill-opacity:.027451;stroke:none" d="M0 0h35v44H0z"/></g></mask><mask id="ba"><g filter="url(#a)"><path style="fill:#000;fill-opacity:.0509804;stroke:none" d="M0 0h35v44H0z"/></g></mask><mask id="bO"><g filter="url(#a)"><path style="fill:#000;fill-opacity:.0352941;stroke:none" d="M0 0h35v44H0z"/></g></mask><mask id="aG"><g filter="url(#a)"><path style="fill:#000;fill-opacity:.243137;stroke:none" d="M0 0h35v44H0z"/></g></mask><mask id="bQ"><g filter="url(#a)"><path style="fill:#000;fill-opacity:.0235294;stroke:none" d="M0 0h35v44H0z"/></g></mask><mask id="bc"><g filter="url(#a)"><path style="fill:#000;fill-opacity:.435294;stroke:none" d="M0 0h35v44H0z"/></g></mask><mask id="bS"><g filter="url(#a)"><path style="fill:#000;fill-opacity:.0313725;stroke:none" d="M0 0h35v44H0z"/></g></mask><mask id="aw"><g filter="url(#a)"><path style="fill:#000;fill-opacity:.0392157;stroke:none" d="M0 0h35v44H0z"/></g></mask><mask id="bU"><g filter="url(#a)"><path style="fill:#000;fill-opacity:.65098;stroke:none" d="M0 0h35v44H0z"/></g></mask><mask id="be"><g filter="url(#a)"><path style="fill:#000;fill-opacity:.0352941;stroke:none" d="M0 0h35v44H0z"/></g></mask><mask id="bW"><g filter="url(#a)"><path style="fill:#000;fill-opacity:.0392157;stroke:none" d="M0 0h35v44H0z"/></g></mask><mask id="aI"><g filter="url(#a)"><path style="fill:#000;fill-opacity:.0313725;stroke:none" d="M0 0h35v44H0z"/></g></mask><mask id="bY"><g filter="url(#a)"><path style="fill:#000;fill-opacity:.329412;stroke:none" d="M0 0h35v44H0z"/></g></mask><mask id="bg"><g filter="url(#a)"><path style="fill:#000;fill-opacity:.74902;stroke:none" d="M0 0h35v44H0z"/></g></mask><mask id="ca"><g filter="url(#a)"><path style="fill:#000;fill-opacity:.0352941;stroke:none" d="M0 0h35v44H0z"/></g></mask><mask id="ao"><g filter="url(#a)"><path style="fill:#000;fill-opacity:.0392157;stroke:none" d="M0 0h35v44H0z"/></g></mask><mask id="cc"><g filter="url(#a)"><path style="fill:#000;fill-opacity:.439216;stroke:none" d="M0 0h35v44H0z"/></g></mask><mask id="bi"><g filter="url(#a)"><path style="fill:#000;fill-opacity:.0352941;stroke:none" d="M0 0h35v44H0z"/></g></mask><mask id="ce"><g filter="url(#a)"><path style="fill:#000;fill-opacity:.145098;stroke:none" d="M0 0h35v44H0z"/></g></mask><mask id="aK"><g filter="url(#a)"><path style="fill:#000;fill-opacity:.0470588;stroke:none" d="M0 0h35v44H0z"/></g></mask><mask id="cg"><g filter="url(#a)"><path style="fill:#000;fill-opacity:.00392157;stroke:none" d="M0 0h35v44H0z"/></g></mask><mask id="bk"><g filter="url(#a)"><path style="fill:#000;fill-opacity:.0392157;stroke:none" d="M0 0h35v44H0z"/></g></mask><mask id="ci"><g filter="url(#a)"><path style="fill:#000;fill-opacity:.0901961;stroke:none" d="M0 0h35v44H0z"/></g></mask><mask id="ay"><g filter="url(#a)"><path style="fill:#000;fill-opacity:.329412;stroke:none" d="M0 0h35v44H0z"/></g></mask><mask id="ck"><g filter="url(#a)"><path style="fill:#000;fill-opacity:.0470588;stroke:none" d="M0 0h35v44H0z"/></g></mask><mask id="bm"><g filter="url(#a)"><path style="fill:#000;fill-opacity:.0313725;stroke:none" d="M0 0h35v44H0z"/></g></mask><mask id="cm"><g filter="url(#a)"><path style="fill:#000;fill-opacity:.862745;stroke:none" d="M0 0h35v44H0z"/></g></mask><mask id="aM"><g filter="url(#a)"><path style="fill:#000;fill-opacity:.745098;stroke:none" d="M0 0h35v44H0z"/></g></mask><mask id="co"><g filter="url(#a)"><path style="fill:#000;fill-opacity:.0313725;stroke:none" d="M0 0h35v44H0z"/></g></mask><mask id="bo"><g filter="url(#a)"><path style="fill:#000;fill-opacity:.701961;stroke:none" d="M0 0h35v44H0z"/></g></mask><mask id="cq"><g filter="url(#a)"><path style="fill:#000;fill-opacity:.0313725;stroke:none" d="M0 0h35v44H0z"/></g></mask><mask id="as"><g filter="url(#a)"><path style="fill:#000;fill-opacity:.0313725;stroke:none" d="M0 0h35v44H0z"/></g></mask><mask id="cs"><g filter="url(#a)"><path style="fill:#000;fill-opacity:.839216;stroke:none" d="M0 0h35v44H0z"/></g></mask><mask id="bq"><g filter="url(#a)"><path style="fill:#000;fill-opacity:.580392;stroke:none" d="M0 0h35v44H0z"/></g></mask><mask id="cu"><g filter="url(#a)"><path style="fill:#000;fill-opacity:.988235;stroke:none" d="M0 0h35v44H0z"/></g></mask><mask id="aO"><g filter="url(#a)"><path style="fill:#000;fill-opacity:.0431373;stroke:none" d="M0 0h35v44H0z"/></g></mask><mask id="cw"><g filter="url(#a)"><path style="fill:#000;fill-opacity:.0313725;stroke:none" d="M0 0h35v44H0z"/></g></mask><mask id="bs"><g filter="url(#a)"><path style="fill:#000;fill-opacity:.0470588;stroke:none" d="M0 0h35v44H0z"/></g></mask><mask id="cy"><g filter="url(#a)"><path style="fill:#000;fill-opacity:.0352941;stroke:none" d="M0 0h35v44H0z"/></g></mask><mask id="aA"><g filter="url(#a)"><path style="fill:#000;fill-opacity:.0431373;stroke:none" d="M0 0h35v44H0z"/></g></mask><mask id="cA"><g filter="url(#a)"><path style="fill:#000;fill-opacity:.235294;stroke:none" d="M0 0h35v44H0z"/></g></mask><mask id="bu"><g filter="url(#a)"><path style="fill:#000;fill-opacity:.0313725;stroke:none" d="M0 0h35v44H0z"/></g></mask><mask id="cC"><g filter="url(#a)"><path style="fill:#000;fill-opacity:.239216;stroke:none" d="M0 0h35v44H0z"/></g></mask><mask id="aQ"><g filter="url(#a)"><path style="fill:#000;fill-opacity:.772549;stroke:none" d="M0 0h35v44H0z"/></g></mask><mask id="cE"><g filter="url(#a)"><path style="fill:#000;fill-opacity:.984314;stroke:none" d="M0 0h35v44H0z"/></g></mask><g id="bt" clip-path="url(#F)"><path style="stroke:none;fill-rule:evenodd;fill:#fefffe;fill-opacity:1" d="M4.906 6.621a2.077 2.077 0 0 1-.707.797c.16-.328.395-.594.707-.797zm0 0"/></g><g id="bn" clip-path="url(#C)"><path style="stroke:none;fill-rule:evenodd;fill:#a08b87;fill-opacity:1" d="M27.363 5.723c.14.047.211.148.203.3-.144-.046-.21-.148-.203-.3zm0 0"/></g><g id="bP" clip-path="url(#Q)"><path style="stroke:none;fill-rule:evenodd;fill:#fefffe;fill-opacity:1" d="M4.2 17.469a.442.442 0 0 1 .198.152c-.132.05-.199 0-.199-.152zm0 0"/></g><g id="az" clip-path="url(#i)"><path style="stroke:none;fill-rule:evenodd;fill:#fefffe;fill-opacity:1" d="M23.316 1.445c.895.547 1.707 1.211 2.43 1.989a4.692 4.692 0 0 1-.71-.446 34.99 34.99 0 0 0-1.72-1.543zm0 0"/></g><g id="aV" clip-path="url(#t)"><path style="stroke:none;fill-rule:evenodd;fill:#a66;fill-opacity:1" d="M8.344 3.934a3.41 3.41 0 0 1-.707.695c.136-.332.37-.563.707-.695zm0 0"/></g><g id="bR" clip-path="url(#R)"><path style="stroke:none;fill-rule:evenodd;fill:#fefffe;fill-opacity:1" d="M4.3 17.867c.243.547.427 1.11.555 1.695a3.835 3.835 0 0 1-.554-1.695zm0 0"/></g><g id="bp" clip-path="url(#D)"><path style="stroke:none;fill-rule:evenodd;fill:#a58989;fill-opacity:1" d="M27.566 6.023c.141.047.207.145.2.297-.141-.047-.207-.144-.2-.297zm0 0"/></g><g id="an" clip-path="url(#c)"><path style="stroke:none;fill-rule:evenodd;fill:#fefffe;fill-opacity:1" d="M23.316 1.445A81.059 81.059 0 0 0 21.09.496c.535.145 1.074.309 1.62.5.227.125.43.277.606.45zm0 0"/></g><g id="bT" clip-path="url(#S)"><path style="stroke:none;fill-rule:evenodd;fill:#a08f8f;fill-opacity:1" d="M29.59 10.8c.773 4.255-.34 7.97-3.34 11.15-.344.34-.715.636-1.113.898 3.566-3.25 5.05-7.262 4.453-12.047zm0 0"/></g><g id="aJ" clip-path="url(#n)"><path style="stroke:none;fill-rule:evenodd;fill:#ae7f7d;fill-opacity:1" d="M23.922 2.54a1.4 1.4 0 0 1 .71.495 1.391 1.391 0 0 1-.71-.496zm0 0"/></g><g id="br" clip-path="url(#E)"><path style="stroke:none;fill-rule:evenodd;fill:#fefffe;fill-opacity:1" d="M5.11 6.422a.313.313 0 0 1-.204.2c0-.134.067-.2.203-.2zm0 0"/></g><g id="bV" clip-path="url(#T)"><path style="stroke:none;fill-rule:evenodd;fill:#fefffe;fill-opacity:1" d="M27.668 21.254a17.1 17.1 0 0 1 1.262-2.488c.07.097.07.199 0 .297a9.556 9.556 0 0 0-1.012 1.992.763.763 0 0 1-.25.199zm0 0"/></g><g id="aX" clip-path="url(#u)"><path style="stroke:none;fill-rule:evenodd;fill:#a97978;fill-opacity:1" d="M26.352 4.531c.308.203.546.469.707.793a2.002 2.002 0 0 1-.707-.793zm0 0"/></g><g id="cD" clip-path="url(#ak)"><path style="stroke:none;fill-rule:evenodd;fill:#d63f31;fill-opacity:1" d="M19.676 33.598a38.028 38.028 0 0 0-2.024 10.351H16.54a1.026 1.026 0 0 0-.254-.199A40.482 40.482 0 0 0 14.11 33a98.49 98.49 0 0 0 2.934 4.379 37.061 37.061 0 0 0 2.48-3.781c.07-.125.122-.125.153 0zm0 0"/></g><g id="bX" clip-path="url(#U)"><path style="stroke:none;fill-rule:evenodd;fill:#a87878;fill-opacity:1" d="M5.512 18.566c.312.383.55.813.71 1.293a4.847 4.847 0 0 1-.558-.797.874.874 0 0 1-.152-.496zm0 0"/></g><g id="aB" clip-path="url(#j)"><path style="stroke:none;fill-rule:evenodd;fill:#fefffe;fill-opacity:1" d="M10.168 1.742c-.34.332-.742.567-1.215.696a3.39 3.39 0 0 1 1.215-.696zm0 0"/></g><g id="aZ" clip-path="url(#v)"><path style="stroke:none;fill-rule:evenodd;fill:#fefefe;fill-opacity:1" d="M26.855 4.727c.391.12.696.351.91.699a4.627 4.627 0 0 1-.91-.7zm0 0"/></g><g id="bZ" clip-path="url(#V)"><path style="stroke:none;fill-rule:evenodd;fill:#fefefe;fill-opacity:1" d="M7.941 23.047a13.472 13.472 0 0 1-1.718-1.098 76.534 76.534 0 0 1-1.418-2.238c.504.57.96 1.219 1.367 1.941.61.45 1.2.914 1.77 1.395zm0 0"/></g><g id="aL" clip-path="url(#o)"><path style="stroke:none;fill-rule:evenodd;fill:#ab5c5f;fill-opacity:1" d="M9.254 3.137c-.176.273-.41.472-.707.597.176-.273.414-.472.707-.597zm0 0"/></g><g id="bv" clip-path="url(#G)"><path style="stroke:none;fill-rule:evenodd;fill:#fefffe;fill-opacity:1" d="M4.2 7.418c-.071.066-.071.066 0 0zm0 0"/></g><g id="cb" clip-path="url(#W)"><path style="stroke:none;fill-rule:evenodd;fill:#a6716e;fill-opacity:1" d="M6.223 19.86c.242.18.41.41.504.695a1.368 1.368 0 0 1-.504-.696zm0 0"/></g><g id="av" clip-path="url(#g)"><path style="stroke:none;fill-rule:evenodd;fill:#fefffe;fill-opacity:1" d="M10.168 1.742c.254-.27.559-.484.91-.648a7.053 7.053 0 0 1 1.617-.297 8.91 8.91 0 0 1-1.515.398c-.328.207-.668.39-1.012.547zm0 0"/></g><g id="bb" clip-path="url(#w)"><path style="stroke:none;fill-rule:evenodd;fill:#ab5d5c;fill-opacity:1" d="M7.434 4.828c-.09.258-.262.457-.504.598.093-.258.261-.457.504-.598zm0 0"/></g><g id="cd" clip-path="url(#X)"><path style="stroke:none;fill-rule:evenodd;fill:#ac8283;fill-opacity:1" d="M6.727 20.555c.14.05.21.148.203.3-.145-.046-.211-.148-.203-.3zm0 0"/></g><g id="bx" clip-path="url(#H)"><path style="stroke:none;fill-rule:evenodd;fill:#a99090;fill-opacity:1" d="M27.766 6.32c.34.332.574.73.71 1.196a5.255 5.255 0 0 1-.71-1.196zm0 0"/></g><g id="ar" clip-path="url(#e)"><path style="stroke:none;fill-rule:evenodd;fill:#fefffe;fill-opacity:1" d="M13.91.547c-.07.066-.07.066 0 0zm0 0"/></g><g id="cf" clip-path="url(#Y)"><path style="stroke:none;fill-rule:evenodd;fill:#a78c8b;fill-opacity:1" d="M6.93 20.855c.21.11.343.274.402.497a.744.744 0 0 1-.402-.497zm0 0"/></g><g id="aN" clip-path="url(#p)"><path style="stroke:none;fill-rule:evenodd;fill:#fefffe;fill-opacity:1" d="M8.145 3.434c-.118.332-.356.546-.711.648-.325.27-.594.586-.809.945-.375.239-.71.504-1.012.797A43.305 43.305 0 0 0 7.332 3.98c.316-.125.586-.308.813-.546zm0 0"/></g><g id="bz" clip-path="url(#I)"><path style="stroke:none;fill-rule:evenodd;fill:#fefefe;fill-opacity:1" d="M28.98 8.313c.02-.098-.015-.165-.101-.2.02-.097-.016-.164-.102-.199 0-.066-.03-.098-.097-.098v-.101c.015-.098-.02-.164-.102-.2a1.989 1.989 0 0 0-.305-.796c.036-.117.086-.117.153 0 .187.629.492 1.191.91 1.691.227.34.328.703.305 1.098a3.497 3.497 0 0 0-.66-1.195zm0 0"/></g><g id="ch" clip-path="url(#Z)"><path style="stroke:none;fill-rule:evenodd;fill:#fefffe;fill-opacity:1" d="M27.668 21.254c-.07.066-.07.066 0 0zm0 0"/></g><g id="bd" clip-path="url(#x)"><path style="stroke:none;fill-rule:evenodd;fill:#fefffe;fill-opacity:1" d="M27.766 5.426c.086.035.12.101.101.199-.082-.035-.117-.102-.101-.2zm0 0"/></g><g id="aD" clip-path="url(#k)"><path style="stroke:none;fill-rule:evenodd;fill:#aa5d61;fill-opacity:1" d="M11.379 1.84a.681.681 0 0 1-.606.3c.168-.152.372-.25.606-.3zm0 0"/></g><g id="cj" clip-path="url(#aa)"><path style="stroke:none;fill-rule:evenodd;fill:#fefffe;fill-opacity:1" d="M27.566 21.352a2.984 2.984 0 0 1-.96 1.097 1.23 1.23 0 0 1-.051-.101c.336-.336.672-.668 1.011-.996zm0 0"/></g><g id="bB" clip-path="url(#J)"><path style="stroke:none;fill-rule:evenodd;fill:#a49e9c;fill-opacity:1" d="M28.477 7.516h.101c-.02.097.016.164.102.199v.101c.066 0 .097.032.097.098-.015.098.02.164.102.2-.016.097.016.163.101.198.036.2.067.399.102.598a6.522 6.522 0 0 1-.605-1.394zm0 0"/></g><g id="al" clip-path="url(#b)"><path style="stroke:none;fill-rule:evenodd;fill:#fefffe;fill-opacity:1" d="M13.91.547c.11-.11.246-.125.402-.05a.832.832 0 0 1-.402.05zm0 0"/></g><g id="cl" clip-path="url(#ab)"><path style="stroke:none;fill-rule:evenodd;fill:#b3534e;fill-opacity:1" d="M7.738 21.852c.457.183.828.48 1.114.894-.262-.125-.5-.289-.707-.496a1.167 1.167 0 0 1-.407-.398zm0 0"/></g><g id="bf" clip-path="url(#y)"><path style="stroke:none;fill-rule:evenodd;fill:#a58d8c;fill-opacity:1" d="M27.059 5.324c.18.078.28.211.304.399a.466.466 0 0 1-.304-.399zm0 0"/></g><g id="bD" clip-path="url(#K)"><path style="stroke:none;fill-rule:evenodd;fill:#a59d9b;fill-opacity:1" d="M29.082 8.91c.227.426.363.89.406 1.395a5.37 5.37 0 0 1-.406-1.395zm0 0"/></g><g id="cn" clip-path="url(#ac)"><path style="stroke:none;fill-rule:evenodd;fill:#fef3f2;fill-opacity:1" d="M26.047 22.348c.055.007.09.039.101.101a.613.613 0 0 1-.402.2.285.285 0 0 1 .2-.2c.07 0 .1-.035.1-.101zm0 0"/></g><g id="aP" clip-path="url(#q)"><path style="stroke:none;fill-rule:evenodd;fill:#ab8383;fill-opacity:1" d="M24.633 3.035c.426.152.762.418 1.012.797a4.555 4.555 0 0 1-1.012-.797zm0 0"/></g><g id="ax" clip-path="url(#h)"><path style="stroke:none;fill-rule:evenodd;fill:#b07676;fill-opacity:1" d="M20.89 1.145c.387.039.723.171 1.008.398a3.162 3.162 0 0 1-1.007-.398zm0 0"/></g><g id="cp" clip-path="url(#ad)"><path style="stroke:none;fill-rule:evenodd;fill:#fdfefd;fill-opacity:1" d="M26.25 22.348c.137.066.137.066 0 0zm0 0"/></g><g id="bF" clip-path="url(#L)"><path style="stroke:none;fill-rule:evenodd;fill:#fefffe;fill-opacity:1" d="M29.59 9.805c.004-.055.039-.086.098-.098.117.191.167.39.152.598a3.978 3.978 0 0 1-.25-.5zm0 0"/></g><g id="bh" clip-path="url(#z)"><path style="stroke:none;fill-rule:evenodd;fill:#fefffe;fill-opacity:1" d="M27.867 5.625c.086.035.121.102.102.2-.082-.036-.117-.102-.102-.2zm0 0"/></g><g id="cr" clip-path="url(#ae)"><path style="stroke:none;fill-rule:evenodd;fill:#da4538;fill-opacity:1" d="M8.145 22.25c.207.207.445.371.707.496.308.348.546.746.707 1.195-.012.059-.047.094-.102.098a.992.992 0 0 1-.3-.297.472.472 0 0 0-.305-.398 9.315 9.315 0 0 1-.707-1.094zm0 0"/></g><g id="aF" clip-path="url(#l)"><path style="stroke:none;fill-rule:evenodd;fill:#af888b;fill-opacity:1" d="M23.418 2.238a.673.673 0 0 1 .504.301.673.673 0 0 1-.504-.3zm0 0"/></g><g id="bH" clip-path="url(#M)"><path style="stroke:none;fill-rule:evenodd;fill:#fefffe;fill-opacity:1" d="M29.79 10.402c.136.067.136.067 0 0zm0 0"/></g><g id="ct" clip-path="url(#af)"><path style="stroke:none;fill-rule:evenodd;fill:#e16453;fill-opacity:1" d="M26.25 21.95a.677.677 0 0 1-.203.398c-.067 0-.102.035-.102.101a.285.285 0 0 0-.199.2 8.217 8.217 0 0 1-1.215 1.69c-.054-.007-.09-.038-.101-.1.183-.497.422-.962.707-1.391.398-.262.77-.559 1.113-.899zm0 0"/></g><g id="aR" clip-path="url(#r)"><path style="stroke:none;fill-rule:evenodd;fill:#fefefe;fill-opacity:1" d="M25.746 3.434c.406.402.777.832 1.11 1.293a44.38 44.38 0 0 1-.504-.395c0-.066-.036-.102-.102-.102 0-.066-.035-.097-.102-.097a1.11 1.11 0 0 1-.402-.7zm0 0"/></g><g id="bj" clip-path="url(#A)"><path style="stroke:none;fill-rule:evenodd;fill:#fefffe;fill-opacity:1" d="M5.613 5.824a1.113 1.113 0 0 1-.504.598c.094-.258.262-.457.504-.598zm0 0"/></g><g id="cv" clip-path="url(#ag)"><path style="stroke:none;fill-rule:evenodd;fill:#fdfdfd;fill-opacity:1" d="M7.941 23.047c.282.031.516.144.707.348a.915.915 0 0 1-.707-.348zm0 0"/></g><g id="bJ" clip-path="url(#N)"><path style="stroke:none;fill-rule:evenodd;fill:#a76361;fill-opacity:1" d="M4.3 13.988a21.234 21.234 0 0 0 1.013 4.18 9.54 9.54 0 0 1-1.012-4.18zm0 0"/></g><g id="ap" clip-path="url(#d)"><path style="stroke:none;fill-rule:evenodd;fill:#fefffe;fill-opacity:1" d="M13.504.547c.25.023.25.09 0 .2-.098-.048-.098-.114 0-.2zm0 0"/></g><g id="cx" clip-path="url(#ah)"><path style="stroke:none;fill-rule:evenodd;fill:#fef4f2;fill-opacity:1" d="M8.852 23.344c.18.074.277.207.304.398-.219-.101-.316-.234-.304-.398zm0 0"/></g><g id="at" clip-path="url(#f)"><path style="stroke:none;fill-rule:evenodd;fill:#fefffe;fill-opacity:1" d="M13 .648c.387.012.387.075 0 .2-.098-.047-.098-.114 0-.2zm0 0"/></g><g id="bL" clip-path="url(#O)"><path style="stroke:none;fill-rule:evenodd;fill:#fefffe;fill-opacity:1" d="M29.688 16.574a.249.249 0 0 1 .203.051c-.235.71-.54 1.39-.91 2.04a2.547 2.547 0 0 0-.102-.048c.36-.644.629-1.324.808-2.043zm0 0"/></g><g id="cz" clip-path="url(#ai)"><path style="stroke:none;fill-rule:evenodd;fill:#fefcfc;fill-opacity:1" d="M9.66 24.438c.606.789 1.16 1.62 1.668 2.488a31.565 31.565 0 0 1 2.582 5.777 53.082 53.082 0 0 1-4.25-8.266zm0 0"/></g><g id="bl" clip-path="url(#B)"><path style="stroke:none;fill-rule:evenodd;fill:#fefefe;fill-opacity:1" d="M27.969 5.824c.144.2.281.414.406.645-.266-.102-.402-.317-.406-.645zm0 0"/></g><g id="aT" clip-path="url(#s)"><path style="stroke:none;fill-rule:evenodd;fill:#ac8581;fill-opacity:1" d="M25.645 3.832c.14.14.312.242.503.3.067 0 .102.032.102.098.066 0 .102.036.102.102v.2a6.913 6.913 0 0 0-.657-.5.23.23 0 0 1-.05-.2zm0 0"/></g><g id="cB" clip-path="url(#aj)"><path style="stroke:none;fill-rule:evenodd;fill:#fefcfb;fill-opacity:1" d="M24.43 24.54a59.145 59.145 0 0 1-4.551 8.66 28.497 28.497 0 0 1 2.375-5.376 21.003 21.003 0 0 1 2.176-3.285zm0 0"/></g><g id="bN" clip-path="url(#P)"><path style="stroke:none;fill-rule:evenodd;fill:#fefffe;fill-opacity:1" d="M4.098 16.973c.18.082.23.215.152.398a.96.96 0 0 1-.152-.398zm0 0"/></g><g id="aH" clip-path="url(#m)"><path style="stroke:none;fill-rule:evenodd;fill:#fefffe;fill-opacity:1" d="M8.953 2.438c-.238.367-.508.699-.808.996.164-.426.433-.758.808-.997zm0 0"/></g><filter id="a" filterUnits="objectBoundingBox" x="0%" y="0%" width="100%" height="100%"><feColorMatrix in="SourceGraphic" values="0 0 0 0 1 0 0 0 0 1 0 0 0 0 1 0 0 0 1 0"/></filter></defs><use xlink:href="#al" mask="url(#am)"/><use xlink:href="#an" mask="url(#ao)"/><use xlink:href="#ap" mask="url(#aq)"/><use xlink:href="#ar" mask="url(#as)"/><use xlink:href="#at" mask="url(#au)"/><path style="stroke:none;fill-rule:evenodd;fill:#ab2320;fill-opacity:1" d="M20.89 1.145c.305.187.641.32 1.008.398.551.152 1.055.387 1.52.695a.673.673 0 0 0 .504.301c.176.234.414.402.71.496.298.313.638.578 1.013.797a.23.23 0 0 0 .05.2c.23.155.45.32.657.5.16.323.398.59.707.792a.466.466 0 0 0 .304.399c-.008.152.059.254.203.3-.007.153.059.25.2.297.187.434.422.832.71 1.196.149.492.352.957.606 1.394.074.492.211.957.406 1.395.094.14.13.304.102.496.598 4.785-.887 8.797-4.453 12.047-.793.472-1.57.968-2.325 1.492-.546.18-1.09.379-1.62.598l-1.313.398c-.973.144-1.953.242-2.934.297a31.28 31.28 0 0 1-2.836-.297 14.37 14.37 0 0 1-5.257-2.59 2.42 2.42 0 0 0-1.114-.894c-.133-.168-.27-.332-.406-.5a.752.752 0 0 0-.402-.497c.008-.152-.063-.25-.203-.3a1.384 1.384 0 0 0-.504-.696c-.16-.48-.399-.91-.711-1.293a.579.579 0 0 1-.2-.398 21.234 21.234 0 0 1-1.011-4.18c-.242-3.203.633-6.054 2.629-8.562.242-.14.414-.34.504-.598a.305.305 0 0 1 .203-.2c.27-.198.508-.429.707-.694a.297.297 0 0 1 .203-.2c.297-.125.531-.324.707-.597.453-.407.96-.739 1.52-.996a.681.681 0 0 0 .605-.301C13.773.687 16.3.309 18.965.695a9.163 9.163 0 0 1 1.926.45zm0 0"/><use xlink:href="#av" mask="url(#aw)"/><use xlink:href="#ax" mask="url(#ay)"/><use xlink:href="#az" mask="url(#aA)"/><use xlink:href="#aB" mask="url(#aC)"/><use xlink:href="#aD" mask="url(#aE)"/><use xlink:href="#aF" mask="url(#aG)"/><use xlink:href="#aH" mask="url(#aI)"/><use xlink:href="#aJ" mask="url(#aK)"/><path style="stroke:none;fill-rule:evenodd;fill:#fcfbfb;fill-opacity:1" d="M20.383 14.98c1.707-.468 2.734-1.562 3.086-3.285.426-2.03-.235-3.61-1.973-4.726a6.432 6.432 0 0 0-1.719-.5c-2.328-.047-4.656-.067-6.98-.047v1.195a76.474 76.474 0 0 1-2.227-2.14c2.657-2.122 5.657-2.786 9.004-1.993 5.293 1.774 7.77 5.407 7.434 10.899a9.33 9.33 0 0 1-2.125 4.879 54.754 54.754 0 0 1-4.5-4.282zm0 0"/><use xlink:href="#aL" mask="url(#aM)"/><use xlink:href="#aN" mask="url(#aO)"/><use xlink:href="#aP" mask="url(#aQ)"/><use xlink:href="#aR" mask="url(#aS)"/><use xlink:href="#aT" mask="url(#aU)"/><use xlink:href="#aV" mask="url(#aW)"/><use xlink:href="#aX" mask="url(#aY)"/><use xlink:href="#aZ" mask="url(#ba)"/><use xlink:href="#bb" mask="url(#bc)"/><use xlink:href="#bd" mask="url(#be)"/><use xlink:href="#bf" mask="url(#bg)"/><use xlink:href="#bh" mask="url(#bi)"/><use xlink:href="#bj" mask="url(#bk)"/><use xlink:href="#bl" mask="url(#bm)"/><use xlink:href="#bn" mask="url(#bo)"/><use xlink:href="#bp" mask="url(#bq)"/><use xlink:href="#br" mask="url(#bs)"/><path style="stroke:none;fill-rule:evenodd;fill:#040203;fill-opacity:1" d="M20.383 14.98a44.667 44.667 0 0 1-2.528-2.488 3.715 3.715 0 0 0 2.477-.496l.305-.5c.386-1.242-.035-2.055-1.266-2.437-1.281-.051-2.562-.067-3.844-.051v1.195a25.123 25.123 0 0 1-2.73-2.586V6.422c2.324-.02 4.652 0 6.98.047a6.432 6.432 0 0 1 1.72.5c1.737 1.117 2.398 2.695 1.972 4.726-.352 1.723-1.38 2.817-3.086 3.285zm0 0"/><use xlink:href="#bt" mask="url(#bu)"/><path style="stroke:none;fill-rule:evenodd;fill:#fefdfd;fill-opacity:1" d="M12.797 10.602v9.359h2.73c.102-1.578.133-3.168.102-4.781h1.922a487.902 487.902 0 0 1 5.765 5.625c-2.41 1.875-5.14 2.57-8.195 2.09-5.187-1.336-7.918-4.637-8.191-9.903-.024-2.27.699-4.258 2.175-5.972a62.62 62.62 0 0 1 3.692 3.582zm0 0"/><use xlink:href="#bv" mask="url(#bw)"/><use xlink:href="#bx" mask="url(#by)"/><use xlink:href="#bz" mask="url(#bA)"/><use xlink:href="#bB" mask="url(#bC)"/><path style="stroke:none;fill-rule:evenodd;fill:#fcfcfc;fill-opacity:1" d="M17.855 12.492a37.93 37.93 0 0 1-2.328-2.289V9.008c1.282-.016 2.563 0 3.844.05 1.23.383 1.652 1.196 1.266 2.438l-.305.5a3.715 3.715 0 0 1-2.477.496zm0 0"/><use xlink:href="#bD" mask="url(#bE)"/><use xlink:href="#bF" mask="url(#bG)"/><use xlink:href="#bH" mask="url(#bI)"/><path style="stroke:none;fill-rule:evenodd;fill:#252324;fill-opacity:1" d="M12.797 10.602c.066 0 .101.035.101.101v9.156h2.63v.102h-2.731V10.6zm0 0"/><path style="stroke:none;fill-rule:evenodd;fill:#020001;fill-opacity:1" d="M12.898 10.703c1.516 1.426 3 2.887 4.45 4.379h-1.82v4.777h-2.63v-9.156zm0 0"/><use xlink:href="#bJ" mask="url(#bK)"/><path style="stroke:none;fill-rule:evenodd;fill:#aaa9a9;fill-opacity:1" d="M17.348 15.082c.101-.02.168.016.203.098h-1.922c.031 1.613 0 3.203-.102 4.78V15.083h1.82zm0 0"/><use xlink:href="#bL" mask="url(#bM)"/><use xlink:href="#bN" mask="url(#bO)"/><use xlink:href="#bP" mask="url(#bQ)"/><use xlink:href="#bR" mask="url(#bS)"/><use xlink:href="#bT" mask="url(#bU)"/><use xlink:href="#bV" mask="url(#bW)"/><use xlink:href="#bX" mask="url(#bY)"/><use xlink:href="#bZ" mask="url(#ca)"/><use xlink:href="#cb" mask="url(#cc)"/><use xlink:href="#cd" mask="url(#ce)"/><use xlink:href="#cf" mask="url(#cg)"/><use xlink:href="#ch" mask="url(#ci)"/><use xlink:href="#cj" mask="url(#ck)"/><use xlink:href="#cl" mask="url(#cm)"/><use xlink:href="#cn" mask="url(#co)"/><use xlink:href="#cp" mask="url(#cq)"/><use xlink:href="#cr" mask="url(#cs)"/><use xlink:href="#ct" mask="url(#cu)"/><use xlink:href="#cv" mask="url(#cw)"/><path style="stroke:none;fill-rule:evenodd;fill:#e17a70;fill-opacity:1" d="M8.852 22.746a14.37 14.37 0 0 0 5.257 2.59c.961.3 1.954.434 2.985.398.457-.02.91-.035 1.367-.05.562-.047 1.035-.164 1.418-.348l1.312-.398a2.77 2.77 0 0 0 1.622-.598 39.846 39.846 0 0 1 2.324-1.492c-.285.43-.524.894-.707 1.39.011.063.047.094.101.102a4.79 4.79 0 0 0-.101.2 21.003 21.003 0 0 0-2.176 3.284 28.497 28.497 0 0 0-2.375 5.375.6.6 0 0 1-.203.399c-.031-.125-.082-.125-.153 0a37.061 37.061 0 0 1-2.48 3.78A98.49 98.49 0 0 1 14.109 33c-.14-.047-.207-.148-.199-.297a31.565 31.565 0 0 0-2.582-5.777 24.026 24.026 0 0 0-1.668-2.488.567.567 0 0 1-.203-.399c.055-.004.09-.039.102-.098a3.616 3.616 0 0 0-.707-1.195zm0 0"/><use xlink:href="#cx" mask="url(#cy)"/><use xlink:href="#cz" mask="url(#cA)"/><use xlink:href="#cB" mask="url(#cC)"/><path style="stroke:none;fill-rule:evenodd;fill:#a57a78;fill-opacity:1" d="M22.813 24.34a2.77 2.77 0 0 1-1.622.598 23.668 23.668 0 0 1 1.622-.598zm0 0"/><path style="stroke:none;fill-rule:evenodd;fill:#b17f7c;fill-opacity:1" d="M14.11 25.336c.94.14 1.882.242 2.835.297.98-.055 1.961-.153 2.934-.297-.383.184-.856.3-1.418.348-.457.015-.91.03-1.367.05a8.892 8.892 0 0 1-2.985-.398zm0 0"/><use xlink:href="#cD" mask="url(#cE)"/></svg>