<?xml version="1.0" encoding="UTF-8"?>
<!DOCTYPE svg PUBLIC "-//W3C//DTD SVG 1.1//EN" "http://www.w3.org/Graphics/SVG/1.1/DTD/svg11.dtd">
<svg xmlns="http://www.w3.org/2000/svg" version="1.1" width="346px" height="442px" style="shape-rendering:geometricPrecision; text-rendering:geometricPrecision; image-rendering:optimizeQuality; fill-rule:evenodd; clip-rule:evenodd" xmlns:xlink="http://www.w3.org/1999/xlink">
<g><path style="opacity:1" fill="#e17a6f" d="M 275.5,148.5 C 266.635,149.191 257.635,150.024 248.5,151C 247.333,152.167 246.167,153.333 245,154.5C 243.774,160.184 242.441,165.851 241,171.5C 238.532,172.104 236.532,173.438 235,175.5C 233.066,186.497 233.066,197.497 235,208.5C 236.011,209.337 237.178,209.67 238.5,209.5C 236.167,219.833 240.167,223.833 250.5,221.5C 247.595,227.975 245.261,234.642 243.5,241.5C 243.107,243.284 242.441,244.95 241.5,246.5C 233.362,256.752 226.195,267.752 220,279.5C 210.306,296.77 202.472,314.77 196.5,333.5C 196.34,335.153 195.674,336.486 194.5,337.5C 194.19,336.262 193.69,336.262 193,337.5C 185.568,350.713 177.401,363.38 168.5,375.5C 159.599,363.38 151.432,350.713 144,337.5C 143.241,335.937 142.074,334.937 140.5,334.5C 143.036,330.784 143.036,326.951 140.5,323C 142.374,321.14 143.374,318.806 143.5,316C 142.286,306.645 139.453,297.812 135,289.5C 133.005,287.253 130.505,286.253 127.5,286.5C 126.301,279.36 122.968,273.526 117.5,269C 115.19,268.503 112.857,268.337 110.5,268.5C 106.233,260.284 101.233,252.618 95.5,245.5C 94.3263,244.486 93.6596,243.153 93.5,241.5C 90.6016,231.654 87.1016,221.654 83,211.5C 78.8511,198.89 75.0178,186.223 71.5,173.5C 78.5244,173.435 85.5244,173.768 92.5,174.5C 92.3345,178.514 92.5012,182.514 93,186.5C 93.5,187.667 94.3333,188.5 95.5,189C 99.8333,189.667 104.167,189.667 108.5,189C 109,188.5 109.5,188 110,187.5C 110.499,183.848 110.665,180.182 110.5,176.5C 112.167,176.5 113.833,176.5 115.5,176.5C 115.705,168.133 115.371,159.8 114.5,151.5C 114.706,148.505 114.04,145.838 112.5,143.5C 110.784,141.553 108.617,140.219 106,139.5C 106.615,132.01 104.448,125.51 99.5,120C 85.4157,117.975 71.4157,116.475 57.5,115.5C 59.8333,115.5 62.1667,115.5 64.5,115.5C 64.4625,75.0602 81.4625,44.2268 115.5,23C 145.926,7.31725 177.259,5.31725 209.5,17C 244.934,33.3381 265.767,60.8381 272,99.5C 272.842,115.882 272.342,132.215 270.5,148.5C 272.167,148.5 273.833,148.5 275.5,148.5 Z"/></g>
<g><path style="opacity:0.987" fill="#d64032" d="M 290.5,147.5 C 285.595,148.445 280.595,148.779 275.5,148.5C 273.833,148.5 272.167,148.5 270.5,148.5C 272.342,132.215 272.842,115.882 272,99.5C 265.767,60.8381 244.934,33.3381 209.5,17C 177.259,5.31725 145.926,7.31725 115.5,23C 81.4625,44.2268 64.4625,75.0602 64.5,115.5C 62.1667,115.5 59.8333,115.5 57.5,115.5C 53.6286,115.815 49.9619,115.482 46.5,114.5C 51.4863,81.6974 66.8196,54.8641 92.5,34C 134.174,1.86134 178.508,-2.13866 225.5,22C 273.146,50.1185 294.812,91.9519 290.5,147.5 Z"/></g>
<g><path style="opacity:0.962" fill="#528054" d="M 46.5,114.5 C 49.9619,115.482 53.6286,115.815 57.5,115.5C 71.4157,116.475 85.4157,117.975 99.5,120C 104.448,125.51 106.615,132.01 106,139.5C 108.617,140.219 110.784,141.553 112.5,143.5C 112.565,146.428 113.232,149.095 114.5,151.5C 115.371,159.8 115.705,168.133 115.5,176.5C 113.833,176.5 112.167,176.5 110.5,176.5C 110.665,180.182 110.499,183.848 110,187.5C 109.5,188 109,188.5 108.5,189C 104.167,189.667 99.8333,189.667 95.5,189C 94.3333,188.5 93.5,187.667 93,186.5C 92.5012,182.514 92.3345,178.514 92.5,174.5C 85.5244,173.768 78.5244,173.435 71.5,173.5C 65.2993,173.213 59.2993,173.213 53.5,173.5C 49.0109,172.429 44.6776,172.429 40.5,173.5C 40.5768,176.123 40.2434,178.789 39.5,181.5C 39.6567,180.127 39.49,178.793 39,177.5C 38.3471,180.139 37.1804,182.473 35.5,184.5C 29.751,185.941 24.251,185.274 19,182.5C 18.5065,180.866 18.3398,179.199 18.5,177.5C 19.4614,175.735 19.7947,173.735 19.5,171.5C 16.8787,171.523 15.5454,170.189 15.5,167.5C 15.8942,158.89 17.2275,150.724 19.5,143C 18.0652,140.378 18.2319,137.878 20,135.5C 20.805,137.901 21.6383,137.734 22.5,135C 24.3453,133.872 26.3453,133.372 28.5,133.5C 28.9539,131.259 28.9539,129.259 28.5,127.5C 30.9455,124.473 32.9455,120.473 34.5,115.5C 36.1561,114.854 37.8228,114.187 39.5,113.5C 41.7822,114.223 44.1155,114.557 46.5,114.5 Z M 39.5,181.5 C 38.7638,183.229 37.4305,184.229 35.5,184.5C 37.1804,182.473 38.3471,180.139 39,177.5C 39.49,178.793 39.6567,180.127 39.5,181.5 Z"/></g>
<g><path style="opacity:0.004" fill="#4f8052" d="M 34.5,115.5 C 33.8333,114.167 33.8333,114.167 34.5,115.5 Z"/></g>
<g><path style="opacity:0.006" fill="#4f7f52" d="M 31.5,116.5 C 32.525,116.897 32.6917,117.563 32,118.5C 31.5357,117.906 31.369,117.239 31.5,116.5 Z"/></g>
<g><path style="opacity:1" fill="#fafbfa" d="M 64.5,136.5 C 54.3672,135.06 44.0339,134.393 33.5,134.5C 33.8828,129.776 35.5495,125.11 38.5,120.5C 40.5,120.167 42.5,119.833 44.5,119.5C 62.2095,120.482 79.8762,121.982 97.5,124C 100.748,128.32 102.414,133.154 102.5,138.5C 89.7945,138.496 77.1279,137.829 64.5,136.5 Z"/></g>
<g><path style="opacity:0.004" fill="#4f7f51" d="M 28.5,127.5 C 27.8333,128.167 27.8333,128.167 28.5,127.5 Z"/></g>
<g><path style="opacity:0.006" fill="#4f8052" d="M 26.5,129.5 C 27.7759,130.386 27.7759,131.386 26.5,132.5C 25.913,131.767 25.913,130.767 26.5,129.5 Z"/></g>
<g><path style="opacity:1" fill="#ced4c7" d="M 33.5,134.5 C 44.0339,134.393 54.3672,135.06 64.5,136.5C 53.9618,136.675 43.6285,136.009 33.5,134.5 Z"/></g>
<g><path style="opacity:0.996" fill="#f5f8f5" d="M 29.5,143.5 C 38.5908,143.6 40.5908,147.433 35.5,155C 28.0255,157.508 24.8588,155.008 26,147.5C 27.3756,146.295 28.5423,144.962 29.5,143.5 Z"/></g>
<g><path style="opacity:0.942" fill="#518054" d="M 317.5,153.5 C 316.957,153.56 316.624,153.893 316.5,154.5C 317.82,158.114 318.987,161.78 320,165.5C 320.333,164.167 320.667,162.833 321,161.5C 321.202,163.256 321.702,164.922 322.5,166.5C 324.61,167.961 326.61,168.794 328.5,169C 328.043,169.414 327.709,169.914 327.5,170.5C 328.7,174.992 330.034,179.326 331.5,183.5C 333.958,193.74 334.124,204.073 332,214.5C 331.667,211.5 331.333,208.5 331,205.5C 330.894,209.39 330.061,213.057 328.5,216.5C 323.096,217.283 317.929,217.95 313,218.5C 311.513,217.747 311.346,216.914 312.5,216C 311.747,214.513 310.914,214.346 310,215.5C 308.711,212.649 308.211,209.649 308.5,206.5C 304.5,206.5 300.5,206.5 296.5,206.5C 287.286,205.593 277.952,205.927 268.5,207.5C 264.702,206.517 260.702,206.183 256.5,206.5C 256.665,210.182 256.499,213.848 256,217.5C 254.913,219.814 253.079,221.148 250.5,221.5C 240.167,223.833 236.167,219.833 238.5,209.5C 237.178,209.67 236.011,209.337 235,208.5C 233.066,197.497 233.066,186.497 235,175.5C 236.532,173.438 238.532,172.104 241,171.5C 242.441,165.851 243.774,160.184 245,154.5C 246.167,153.333 247.333,152.167 248.5,151C 257.635,150.024 266.635,149.191 275.5,148.5C 280.595,148.779 285.595,148.445 290.5,147.5C 296.834,146.932 303.167,146.766 309.5,147C 311.624,148.122 313.457,149.622 315,151.5C 316.308,150.849 317.141,151.515 317.5,153.5 Z M 299.5,205.5 C 302.962,204.518 306.629,204.185 310.5,204.5C 310.664,207.187 310.497,209.854 310,212.5C 309.503,210.19 309.337,207.857 309.5,205.5C 306.167,205.5 302.833,205.5 299.5,205.5 Z"/></g>
<g><path style="opacity:1" fill="#f3f4f1" d="M 97.5,148.5 C 101.516,147.9 105.016,148.9 108,151.5C 108.156,158.837 104.656,161.504 97.5,159.5C 93.5116,155.798 93.5116,152.131 97.5,148.5 Z"/></g>
<g><path style="opacity:1" fill="#9e7c62" d="M 112.5,143.5 C 114.04,145.838 114.706,148.505 114.5,151.5C 113.232,149.095 112.565,146.428 112.5,143.5 Z"/></g>
<g><path style="opacity:0.998" fill="#f8f9f7" d="M 273.5,152.5 C 285.518,152.168 297.518,152.501 309.5,153.5C 312.853,157.206 314.853,161.539 315.5,166.5C 292.158,167.945 268.825,169.612 245.5,171.5C 246.328,166.357 247.661,161.357 249.5,156.5C 257.598,155.126 265.598,153.793 273.5,152.5 Z"/></g>
<g><path style="opacity:0.004" fill="#4f7f52" d="M 317.5,153.5 C 318.833,154.167 318.833,154.167 317.5,153.5 Z"/></g>
<g><path style="opacity:0.004" fill="#4f7f52" d="M 319.5,157.5 C 318.475,157.103 318.308,156.437 319,155.5C 319.464,156.094 319.631,156.761 319.5,157.5 Z"/></g>
<g><path style="opacity:1" fill="#f3f3f0" d="M 51.5,156.5 C 61.2791,156.601 70.9457,157.601 80.5,159.5C 80.5,162.5 80.5,165.5 80.5,168.5C 70.5154,167.668 60.5154,167.001 50.5,166.5C 50.2529,163.061 50.5863,159.728 51.5,156.5 Z"/></g>
<g><path style="opacity:0.005" fill="#507f52" d="M 319.5,157.5 C 320.573,158.251 320.74,159.251 320,160.5C 319.517,159.552 319.351,158.552 319.5,157.5 Z"/></g>
<g><path style="opacity:0.008" fill="#4e8052" d="M 322.5,164.5 C 323.833,165.167 323.833,165.167 322.5,164.5 Z"/></g>
<g><path style="opacity:0.004" fill="#4e8051" d="M 324.5,165.5 C 325.833,166.167 325.833,166.167 324.5,165.5 Z"/></g>
<g><path style="opacity:1" fill="#538054" d="M 145.5,169.5 C 166.649,169.226 187.649,170.726 208.5,174C 210.617,175.731 212.117,177.898 213,180.5C 213.62,184.888 214.453,189.222 215.5,193.5C 217.908,194.453 220.075,195.787 222,197.5C 224.162,208.389 224.995,219.389 224.5,230.5C 223.167,230.5 221.833,230.5 220.5,230.5C 221.966,242.844 216.633,247.011 204.5,243C 204,242.5 203.5,242 203,241.5C 202.8,237.247 202.3,233.08 201.5,229C 184.5,227.922 167.5,226.755 150.5,225.5C 149.353,225.818 148.519,226.484 148,227.5C 147.012,230.424 146.346,233.424 146,236.5C 145.5,237 145,237.5 144.5,238C 140.167,238.667 135.833,238.667 131.5,238C 128.365,234.483 127.698,230.483 129.5,226C 128.552,225.517 127.552,225.351 126.5,225.5C 125.899,214.308 127.066,203.308 130,192.5C 131.715,189.603 134.215,188.269 137.5,188.5C 138.833,181.512 141.5,175.179 145.5,169.5 Z"/></g>
<g><path style="opacity:0.004" fill="#4f7f52" d="M 329.5,171.5 C 330.573,172.251 330.74,173.251 330,174.5C 329.517,173.552 329.351,172.552 329.5,171.5 Z"/></g>
<g><path style="opacity:0.005" fill="#4e7f53" d="M 18.5,177.5 C 17.3871,176.054 17.2204,174.387 18,172.5C 18.4935,174.134 18.6602,175.801 18.5,177.5 Z"/></g>
<g><path style="opacity:0.004" fill="#4f7f52" d="M 40.5,173.5 C 41.552,173.351 42.552,173.517 43.5,174C 42.2506,174.74 41.2506,174.573 40.5,173.5 Z"/></g>
<g><path style="opacity:0.98" fill="#d54132" d="M 71.5,173.5 C 75.0178,186.223 78.8511,198.89 83,211.5C 87.1016,221.654 90.6016,231.654 93.5,241.5C 76.9194,222.192 63.9194,200.525 54.5,176.5C 51.8929,175.682 49.2263,175.182 46.5,175C 49.0356,174.814 51.369,174.314 53.5,173.5C 59.2993,173.213 65.2993,173.213 71.5,173.5 Z"/></g>
<g><path style="opacity:1" fill="#fbfbfa" d="M 147.5,174.5 C 160.173,174.652 172.839,174.985 185.5,175.5C 192.509,176.192 199.509,177.025 206.5,178C 209.665,182.328 211.331,187.161 211.5,192.5C 196.833,191.833 182.167,191.167 167.5,190.5C 158.933,189.775 150.6,188.442 142.5,186.5C 143.393,182.148 145.06,178.148 147.5,174.5 Z"/></g>
<g><path style="opacity:1" fill="#8fa98c" d="M 147.5,174.5 C 160.196,173.223 172.862,173.557 185.5,175.5C 172.839,174.985 160.173,174.652 147.5,174.5 Z"/></g>
<g><path style="opacity:0.005" fill="#4e8052" d="M 330.5,175.5 C 331.573,176.251 331.74,177.251 331,178.5C 330.517,177.552 330.351,176.552 330.5,175.5 Z"/></g>
<g><path style="opacity:0.997" fill="#f1f5f1" d="M 313.5,175.5 C 324.651,175.947 326.317,180.113 318.5,188C 312.333,188.5 309.5,185.667 310,179.5C 311.376,178.295 312.542,176.962 313.5,175.5 Z"/></g>
<g><path style="opacity:0.006" fill="#4e8052" d="M 331.5,183.5 C 331.343,182.127 331.51,180.793 332,179.5C 332.765,181.066 332.598,182.399 331.5,183.5 Z"/></g>
<g><path style="opacity:0.004" fill="#4e8052" d="M 16.5,180.5 C 17.8333,181.167 17.8333,181.167 16.5,180.5 Z"/></g>
<g><path style="opacity:1" fill="#f2f4f1" d="M 245.5,179.5 C 251.873,179.368 254.373,182.368 253,188.5C 249.614,192.888 245.614,193.555 241,190.5C 240.333,188.5 240.333,186.5 241,184.5C 242.707,182.963 244.207,181.296 245.5,179.5 Z"/></g>
<g><path style="opacity:0.004" fill="#4e8052" d="M 19.5,184.5 C 20.8333,185.167 20.8333,185.167 19.5,184.5 Z"/></g>
<g><path style="opacity:0.004" fill="#4f8052" d="M 34.5,185.5 C 35.8333,186.167 35.8333,186.167 34.5,185.5 Z"/></g>
<g><path style="opacity:1" fill="#c3c9b9" d="M 142.5,186.5 C 150.6,188.442 158.933,189.775 167.5,190.5C 158.818,190.479 150.152,190.146 141.5,189.5C 141.263,188.209 141.596,187.209 142.5,186.5 Z"/></g>
<g><path style="opacity:0.996" fill="#d2dace" d="M 296.5,198.5 C 296.425,195.794 296.092,193.127 295.5,190.5C 286.151,190.483 276.818,190.817 267.5,191.5C 268.263,190.732 269.263,190.232 270.5,190C 279.16,189.5 287.827,189.334 296.5,189.5C 297.551,192.656 297.551,195.656 296.5,198.5 Z"/></g>
<g><path style="opacity:0.998" fill="#f9faf8" d="M 296.5,198.5 C 286.496,199.132 276.496,199.798 266.5,200.5C 266.19,197.287 266.523,194.287 267.5,191.5C 276.818,190.817 286.151,190.483 295.5,190.5C 296.092,193.127 296.425,195.794 296.5,198.5 Z"/></g>
<g><path style="opacity:1" fill="#f2f3f0" d="M 138.5,197.5 C 145.327,196.825 148.16,199.825 147,206.5C 143.306,211.342 139.306,211.675 135,207.5C 134.182,203.469 135.349,200.136 138.5,197.5 Z"/></g>
<g><path style="opacity:1" fill="#f4f5f2" d="M 206.5,202.5 C 210.516,201.9 214.016,202.9 217,205.5C 217.344,212.153 214.177,214.987 207.5,214C 202.624,210.479 202.29,206.646 206.5,202.5 Z"/></g>
<g><path style="opacity:0.005" fill="#4f7f53" d="M 286.5,207.5 C 289.625,206.521 292.958,206.187 296.5,206.5C 293.375,207.479 290.042,207.813 286.5,207.5 Z"/></g>
<g><path style="opacity:0.966" fill="#d14634" d="M 268.5,207.5 C 269.681,208.397 271.681,208.897 274.5,209C 271.774,209.182 269.107,209.682 266.5,210.5C 259.934,221.721 252.267,232.055 243.5,241.5C 245.261,234.642 247.595,227.975 250.5,221.5C 253.079,221.148 254.913,219.814 256,217.5C 256.499,213.848 256.665,210.182 256.5,206.5C 260.702,206.183 264.702,206.517 268.5,207.5 Z"/></g>
<g><path style="opacity:0.004" fill="#4f7f53" d="M 286.5,207.5 C 284.372,208.629 282.039,208.796 279.5,208C 281.81,207.503 284.143,207.337 286.5,207.5 Z"/></g>
<g><path style="opacity:1" fill="#f5f6f3" d="M 159.5,211.5 C 168.884,211.184 178.218,211.684 187.5,213C 189.344,215.804 190.011,218.97 189.5,222.5C 179.484,222.054 169.484,221.387 159.5,220.5C 159.5,217.5 159.5,214.5 159.5,211.5 Z"/></g>
<g><path style="opacity:0.004" fill="#508052" d="M 328.5,216.5 C 329.833,217.167 329.833,217.167 328.5,216.5 Z"/></g>
<g><path style="opacity:0.213" fill="#fdfbfb" d="M 95.5,245.5 C 101.233,252.618 106.233,260.284 110.5,268.5C 108.833,268.5 107.167,268.5 105.5,268.5C 101.387,261.156 98.0535,253.49 95.5,245.5 Z"/></g>
<g><path style="opacity:0.238" fill="#fefcfb" d="M 241.5,246.5 C 228.823,276.858 213.823,305.858 196.5,333.5C 202.472,314.77 210.306,296.77 220,279.5C 226.195,267.752 233.362,256.752 241.5,246.5 Z"/></g>
<g><path style="opacity:0.93" fill="#518054" d="M 105.5,268.5 C 107.167,268.5 108.833,268.5 110.5,268.5C 112.857,268.337 115.19,268.503 117.5,269C 122.968,273.526 126.301,279.36 127.5,286.5C 130.505,286.253 133.005,287.253 135,289.5C 139.453,297.812 142.286,306.645 143.5,316C 143.374,318.806 142.374,321.14 140.5,323C 143.036,326.951 143.036,330.784 140.5,334.5C 140.5,334.833 140.5,335.167 140.5,335.5C 135.677,336.546 130.844,337.546 126,338.5C 124.417,336.089 123.417,333.422 123,330.5C 122.506,332.134 122.34,333.801 122.5,335.5C 121.539,333.735 121.205,331.735 121.5,329.5C 120.842,328.602 120.176,327.602 119.5,326.5C 114.934,327.816 110.268,328.483 105.5,328.5C 103.833,327.167 102.167,327.167 100.5,328.5C 90.4289,329.734 80.4289,331.401 70.5,333.5C 72.435,334.213 72.7683,335.213 71.5,336.5C 70.7463,339.023 70.0796,341.689 69.5,344.5C 69.6236,345.107 69.9569,345.44 70.5,345.5C 69.9924,347.233 69.159,347.566 68,346.5C 62.9388,348.036 58.1055,349.036 53.5,349.5C 52.1314,347.309 51.1314,344.975 50.5,342.5C 50.6621,340.473 50.4955,338.473 50,336.5C 49.6667,337.833 49.3333,339.167 49,340.5C 45.7289,334.686 43.8955,328.353 43.5,321.5C 43.5265,315.261 43.6931,308.928 44,302.5C 46.1678,301.371 46.6678,299.871 45.5,298C 46.549,297.508 47.549,297.674 48.5,298.5C 49.5826,296.208 49.5826,293.875 48.5,291.5C 49.1667,290.167 49.8333,288.833 50.5,287.5C 49.6042,285.199 49.4375,282.866 50,280.5C 50.3333,281.167 50.6667,281.833 51,282.5C 51.9786,278.518 54.4786,276.352 58.5,276C 74.1797,273.498 89.8464,270.998 105.5,268.5 Z M 121.5,329.5 C 121.773,327.549 121.107,326.049 119.5,325C 120.448,324.517 121.448,324.351 122.5,324.5C 122.784,326.415 122.451,328.081 121.5,329.5 Z"/></g>
<g><path style="opacity:0.998" fill="#f9faf9" d="M 105.5,273.5 C 115.943,271.603 121.943,275.936 123.5,286.5C 100.474,290.06 77.474,293.727 54.5,297.5C 54.5894,292.125 55.5894,286.959 57.5,282C 73.3999,277.853 89.3999,275.019 105.5,273.5 Z"/></g>
<g><path style="opacity:0.008" fill="#4f7f53" d="M 48.5,286.5 C 49.525,286.897 49.6917,287.563 49,288.5C 48.5357,287.906 48.369,287.239 48.5,286.5 Z"/></g>
<g><path style="opacity:0.998" fill="#f5f7f5" d="M 122.5,295.5 C 131.929,294.082 134.596,297.582 130.5,306C 123.271,309.406 119.771,307.239 120,299.5C 120.662,298.016 121.496,296.683 122.5,295.5 Z"/></g>
<g><path style="opacity:0.004" fill="#4f8051" d="M 41.5,302.5 C 42.8333,303.167 42.8333,303.167 41.5,302.5 Z"/></g>
<g><path style="opacity:0.005" fill="#4f8052" d="M 41.5,304.5 C 42.6129,305.946 42.7796,307.613 42,309.5C 41.5065,307.866 41.3398,306.199 41.5,304.5 Z"/></g>
<g><path style="opacity:0.997" fill="#f4f7f4" d="M 55.5,306.5 C 62.5598,305.725 65.0598,308.725 63,315.5C 59.9612,319.839 56.2945,320.506 52,317.5C 50.6631,312.872 51.8298,309.205 55.5,306.5 Z"/></g>
<g><path style="opacity:0.997" fill="#f3f6f3" d="M 96.5,311.5 C 100.167,311.5 103.833,311.5 107.5,311.5C 108.159,314.455 108.492,317.455 108.5,320.5C 98.2427,322.265 87.9094,323.265 77.5,323.5C 77.2229,320.552 77.5562,317.719 78.5,315C 84.6256,313.741 90.6256,312.574 96.5,311.5 Z"/></g>
<g><path style="opacity:0.005" fill="#4f8052" d="M 100.5,328.5 C 102.167,328.5 103.833,328.5 105.5,328.5C 103.833,329.833 102.167,329.833 100.5,328.5 Z"/></g>
<g><path style="opacity:0.004" fill="#4f7f53" d="M 92.5,331.5 C 93.9464,330.387 95.6131,330.22 97.5,331C 95.8659,331.494 94.1992,331.66 92.5,331.5 Z"/></g>
<g><path style="opacity:0.004" fill="#507f53" d="M 86.5,332.5 C 87.9464,331.387 89.6131,331.22 91.5,332C 89.8659,332.494 88.1992,332.66 86.5,332.5 Z"/></g>
<g><path style="opacity:0.007" fill="#4f7f52" d="M 80.5,333.5 C 81.6009,332.402 82.9343,332.235 84.5,333C 83.2068,333.49 81.8734,333.657 80.5,333.5 Z"/></g>
<g><path style="opacity:0.004" fill="#4f7f53" d="M 73.5,334.5 C 74.9464,333.387 76.6131,333.22 78.5,334C 76.8659,334.494 75.1992,334.66 73.5,334.5 Z"/></g>
<g><path style="opacity:0.004" fill="#4e7f53" d="M 122.5,335.5 C 123.833,336.167 123.833,336.167 122.5,335.5 Z"/></g>
<g><path style="opacity:0.007" fill="#4f8052" d="M 71.5,336.5 C 72.6225,338.288 72.7891,340.288 72,342.5C 71.5045,340.527 71.3379,338.527 71.5,336.5 Z"/></g>
<g><path style="opacity:0.985" fill="#d63f31" d="M 140.5,334.5 C 142.074,334.937 143.241,335.937 144,337.5C 151.432,350.713 159.599,363.38 168.5,375.5C 177.401,363.38 185.568,350.713 193,337.5C 193.69,336.262 194.19,336.262 194.5,337.5C 183.074,371.294 176.408,405.961 174.5,441.5C 170.833,441.5 167.167,441.5 163.5,441.5C 162.828,440.733 161.995,440.066 161,439.5C 158.845,403.891 152.012,369.225 140.5,335.5C 140.5,335.167 140.5,334.833 140.5,334.5 Z"/></g>
<g><path style="opacity:0.004" fill="#4f7f53" d="M 50.5,342.5 C 50.6602,344.199 50.4935,345.866 50,347.5C 49.2204,345.613 49.3871,343.946 50.5,342.5 Z"/></g>
<g><path style="opacity:0.004" fill="#4e8052" d="M 70.5,344.5 C 71.8333,345.167 71.8333,345.167 70.5,344.5 Z"/></g>
<g><path style="opacity:0.004" fill="#4e8052" d="M 53.5,349.5 C 54.8333,350.167 54.8333,350.167 53.5,349.5 Z"/></g>
</svg>
