<?xml version="1.0" encoding="UTF-8"?>
<!DOCTYPE svg PUBLIC "-//W3C//DTD SVG 1.1//EN" "http://www.w3.org/Graphics/SVG/1.1/DTD/svg11.dtd">
<svg xmlns="http://www.w3.org/2000/svg" version="1.1" width="346px" height="442px" style="shape-rendering:geometricPrecision; text-rendering:geometricPrecision; image-rendering:optimizeQuality; fill-rule:evenodd; clip-rule:evenodd" xmlns:xlink="http://www.w3.org/1999/xlink">
<g><path style="opacity:0.986" fill="#d64032" d="M 285.5,169.5 C 280.068,160.3 275.401,150.633 271.5,140.5C 278.601,99.9841 267.934,65.1507 239.5,36C 205.921,8.39018 168.588,2.05684 127.5,17C 92.0664,33.3381 71.2331,60.8381 65,99.5C 64.5002,110.161 64.3335,120.828 64.5,131.5C 60.535,142.097 55.535,152.097 49.5,161.5C 37.4498,101.414 57.4498,54.9145 109.5,22C 148.14,1.35801 186.807,1.35801 225.5,22C 271.18,48.5097 293.013,88.343 291,141.5C 290.108,151.058 288.275,160.392 285.5,169.5 Z"/></g>
<g><path style="opacity:1" fill="#e1796f" d="M 271.5,140.5 C 263.775,125.381 256.275,110.048 249,94.5C 245.27,93.5399 241.437,93.2065 237.5,93.5C 236.399,92.1516 235.399,90.6516 234.5,89C 228.16,88.3993 221.826,87.7326 215.5,87C 204.584,83.8618 193.584,81.0285 182.5,78.5C 176.182,78.9923 170.682,81.3256 166,85.5C 159.354,80.2542 151.854,78.0876 143.5,79C 128.571,84.2326 113.237,87.5659 97.5,89C 96.2189,90.4087 95.2189,91.9087 94.5,93.5C 90.4454,93.1758 86.4454,93.5091 82.5,94.5C 76.7253,107.047 70.7253,119.381 64.5,131.5C 64.3335,120.828 64.5002,110.161 65,99.5C 71.2331,60.8381 92.0664,33.3381 127.5,17C 168.588,2.05684 205.921,8.39018 239.5,36C 267.934,65.1507 278.601,99.9841 271.5,140.5 Z"/></g>
<g><path style="opacity:1" fill="#0b0809" d="M 94.5,93.5 C 93.9002,94.8999 92.9002,95.8999 91.5,96.5C 90.2058,97.2899 89.0391,98.2899 88,99.5C 77.3333,120.833 66.6667,142.167 56,163.5C 55.2419,165.769 55.4086,167.936 56.5,170C 61.4889,170.499 66.4889,170.666 71.5,170.5C 99.5,170.5 127.5,170.5 155.5,170.5C 157.963,172.461 160.297,174.628 162.5,177C 164.5,177.667 166.5,177.667 168.5,177C 171.331,174.999 173.997,172.833 176.5,170.5C 202.833,170.5 229.167,170.5 255.5,170.5C 262.175,170.666 268.842,170.5 275.5,170C 276.576,168.274 276.743,166.441 276,164.5C 265.605,142.71 254.939,121.044 244,99.5C 242.871,97.8588 241.371,96.8588 239.5,96.5C 238.449,95.7777 237.782,94.7777 237.5,93.5C 241.437,93.2065 245.27,93.5399 249,94.5C 256.275,110.048 263.775,125.381 271.5,140.5C 275.401,150.633 280.068,160.3 285.5,169.5C 286.263,171.368 287.263,173.035 288.5,174.5C 288.433,175.959 288.766,177.292 289.5,178.5C 280.833,178.5 272.167,178.5 263.5,178.5C 236.165,178.333 208.831,178.5 181.5,179C 180.5,180 179.5,181 178.5,182C 170.167,182.667 161.833,182.667 153.5,182C 152.167,181.333 151.167,180.333 150.5,179C 124.835,178.5 99.1688,178.333 73.5,178.5C 63.1667,178.5 52.8333,178.5 42.5,178.5C 42.5,177.833 42.5,177.167 42.5,176.5C 45.0698,171.689 47.4032,166.689 49.5,161.5C 55.535,152.097 60.535,142.097 64.5,131.5C 70.7253,119.381 76.7253,107.047 82.5,94.5C 86.4454,93.5091 90.4454,93.1758 94.5,93.5 Z"/></g>
<g><path style="opacity:1" fill="#ababab" d="M 91.5,96.5 C 92.2389,96.369 92.9056,96.5357 93.5,97C 83.1371,118.556 73.4704,140.39 64.5,162.5C 84.7304,163.82 104.064,160.32 122.5,152C 140.272,148.628 154.772,154.128 166,168.5C 174.449,157.696 185.449,151.696 199,150.5C 208.778,152.314 218.278,155.147 227.5,159C 240.683,162.334 254.017,163.167 267.5,161.5C 257.833,140.167 248.167,118.833 238.5,97.5C 238.624,96.8933 238.957,96.56 239.5,96.5C 241.371,96.8588 242.871,97.8588 244,99.5C 254.939,121.044 265.605,142.71 276,164.5C 276.743,166.441 276.576,168.274 275.5,170C 268.842,170.5 262.175,170.666 255.5,170.5C 236.495,167.242 217.329,164.242 198,161.5C 188.979,160.333 181.813,163.333 176.5,170.5C 173.997,172.833 171.331,174.999 168.5,177C 166.5,177.667 164.5,177.667 162.5,177C 160.297,174.628 157.963,172.461 155.5,170.5C 148.971,163.486 140.804,160.486 131,161.5C 111.053,164.576 91.2198,167.576 71.5,170.5C 66.4889,170.666 61.4889,170.499 56.5,170C 55.4086,167.936 55.2419,165.769 56,163.5C 66.6667,142.167 77.3333,120.833 88,99.5C 89.0391,98.2899 90.2058,97.2899 91.5,96.5 Z"/></g>
<g><path style="opacity:1" fill="#686666" d="M 237.5,93.5 C 237.782,94.7777 238.449,95.7777 239.5,96.5C 238.957,96.56 238.624,96.8933 238.5,97.5C 248.167,118.833 257.833,140.167 267.5,161.5C 254.017,163.167 240.683,162.334 227.5,159C 218.278,155.147 208.778,152.314 199,150.5C 185.449,151.696 174.449,157.696 166,168.5C 154.772,154.128 140.272,148.628 122.5,152C 104.064,160.32 84.7304,163.82 64.5,162.5C 73.4704,140.39 83.1371,118.556 93.5,97C 92.9056,96.5357 92.2389,96.369 91.5,96.5C 92.9002,95.8999 93.9002,94.8999 94.5,93.5C 95.2189,91.9087 96.2189,90.4087 97.5,89C 113.237,87.5659 128.571,84.2326 143.5,79C 151.854,78.0876 159.354,80.2542 166,85.5C 170.682,81.3256 176.182,78.9923 182.5,78.5C 193.584,81.0285 204.584,83.8618 215.5,87C 221.826,87.7326 228.16,88.3993 234.5,89C 235.399,90.6516 236.399,92.1516 237.5,93.5 Z"/></g>
<g><path style="opacity:1" fill="#a5a5a5" d="M 250.5,128.5 C 255.684,138.875 260.351,149.542 264.5,160.5C 256.648,160.825 248.982,160.492 241.5,159.5C 244.518,159.665 247.518,159.498 250.5,159C 250.412,148.948 250.412,138.781 250.5,128.5 Z"/></g>
<g><path style="opacity:1" fill="#a5a5a5" d="M 80.5,130.5 C 81.821,140 81.821,149.5 80.5,159C 82.8098,159.497 85.1432,159.663 87.5,159.5C 81.021,160.491 74.3543,160.824 67.5,160.5C 70.9777,150.057 75.311,140.057 80.5,130.5 Z"/></g>
<g><path style="opacity:1" fill="#b8b8b8" d="M 237.5,100.5 C 242.343,109.524 246.677,118.858 250.5,128.5C 250.412,138.781 250.412,148.948 250.5,159C 247.518,159.498 244.518,159.665 241.5,159.5C 239.265,159.795 237.265,159.461 235.5,158.5C 239.449,158.307 239.449,157.807 235.5,157C 236.173,138.167 236.839,119.333 237.5,100.5 Z"/></g>
<g><path style="opacity:1" fill="#b5b5b5" d="M 90.5,108.5 C 90.8095,124.822 90.8095,141.322 90.5,158C 92.1341,158.494 93.8008,158.66 95.5,158.5C 93.0521,159.473 90.3854,159.806 87.5,159.5C 85.1432,159.663 82.8098,159.497 80.5,159C 81.821,149.5 81.821,140 80.5,130.5C 83.3228,122.86 86.6562,115.527 90.5,108.5 Z"/></g>
<g><path style="opacity:1" fill="#c5c5c5" d="M 228.5,90.5 C 230.467,90.2606 232.301,90.5939 234,91.5C 235.741,94.3093 236.908,97.3093 237.5,100.5C 236.839,119.333 236.173,138.167 235.5,157C 239.449,157.807 239.449,158.307 235.5,158.5C 232.572,158.435 229.905,157.768 227.5,156.5C 228.239,156.631 228.906,156.464 229.5,156C 228.5,155.667 227.5,155.333 226.5,155C 227.833,134 227.833,113 226.5,92C 227.416,91.7216 228.082,91.2216 228.5,90.5 Z"/></g>
<g><path style="opacity:1" fill="#c4c4c4" d="M 102.5,90.5 C 103.263,91.2679 104.263,91.7679 105.5,92C 105.164,113.49 104.164,134.823 102.5,156C 102.728,156.399 103.062,156.565 103.5,156.5C 101.162,158.04 98.4951,158.706 95.5,158.5C 93.8008,158.66 92.1341,158.494 90.5,158C 90.8095,141.322 90.8095,124.822 90.5,108.5C 92.5444,102.741 94.8777,97.0739 97.5,91.5C 99.0453,90.5481 100.712,90.2148 102.5,90.5 Z"/></g>
<g><path style="opacity:1" fill="#d2d2d2" d="M 219.5,89.5 C 222.482,89.9629 225.482,90.2962 228.5,90.5C 228.082,91.2216 227.416,91.7216 226.5,92C 227.833,113 227.833,134 226.5,155C 227.5,155.333 228.5,155.667 229.5,156C 228.906,156.464 228.239,156.631 227.5,156.5C 223.838,156.277 220.505,155.277 217.5,153.5C 220.097,153.279 220.097,152.779 217.5,152C 218.833,131.667 218.833,111.333 217.5,91C 218.416,90.7216 219.082,90.2216 219.5,89.5 Z"/></g>
<g><path style="opacity:1" fill="#d3d3d3" d="M 111.5,89.5 C 112.263,90.2679 113.263,90.7679 114.5,91C 113.833,111.667 113.167,132.333 112.5,153C 112.728,153.399 113.062,153.565 113.5,153.5C 110.45,155.101 107.116,156.101 103.5,156.5C 103.062,156.565 102.728,156.399 102.5,156C 104.164,134.823 105.164,113.49 105.5,92C 104.263,91.7679 103.263,91.2679 102.5,90.5C 105.455,89.8413 108.455,89.5079 111.5,89.5 Z"/></g>
<g><path style="opacity:1" fill="#dfdfdf" d="M 121.5,87.5 C 121.918,88.2216 122.584,88.7216 123.5,89C 122.167,108.667 122.167,128.333 123.5,148C 122.429,148.852 121.429,149.685 120.5,150.5C 118.491,152.065 116.157,153.065 113.5,153.5C 113.062,153.565 112.728,153.399 112.5,153C 113.167,132.333 113.833,111.667 114.5,91C 113.263,90.7679 112.263,90.2679 111.5,89.5C 114.761,88.6222 118.094,87.9555 121.5,87.5 Z"/></g>
<g><path style="opacity:1" fill="#dfdfdf" d="M 210.5,87.5 C 213.461,88.3234 216.461,88.99 219.5,89.5C 219.082,90.2216 218.416,90.7216 217.5,91C 218.833,111.333 218.833,131.667 217.5,152C 220.097,152.779 220.097,153.279 217.5,153.5C 213.648,152.395 209.982,151.062 206.5,149.5C 207.75,149.423 208.583,148.756 209,147.5C 209.826,127.927 209.659,108.427 208.5,89C 209.416,88.7216 210.082,88.2216 210.5,87.5 Z"/></g>
<g><path style="opacity:1" fill="#909090" d="M 164.5,86.5 C 165.829,112.336 165.829,138.336 164.5,164.5C 163.893,164.376 163.56,164.043 163.5,163.5C 164.498,138.005 164.831,112.339 164.5,86.5 Z"/></g>
<g><path style="opacity:1" fill="#ececec" d="M 203.5,85.5 C 205.772,86.3186 208.106,86.9853 210.5,87.5C 210.082,88.2216 209.416,88.7216 208.5,89C 209.659,108.427 209.826,127.927 209,147.5C 208.583,148.756 207.75,149.423 206.5,149.5C 204.901,149.768 203.568,149.434 202.5,148.5C 203.239,148.631 203.906,148.464 204.5,148C 202.833,147.667 201.167,147.333 199.5,147C 200.493,126.909 200.827,106.743 200.5,86.5C 201.791,86.7373 202.791,86.404 203.5,85.5 Z"/></g>
<g><path style="opacity:1" fill="#d5d5d5" d="M 174.5,82.5 C 175.209,83.404 176.209,83.7373 177.5,83.5C 177.169,107.339 177.502,131.006 178.5,154.5C 174.645,157.698 170.812,161.031 167,164.5C 166.333,138.5 166.333,112.5 167,86.5C 169.158,84.5056 171.658,83.1723 174.5,82.5 Z"/></g>
<g><path style="opacity:1" fill="#d6d6d6" d="M 154.5,81.5 C 158.117,82.6417 161.45,84.3084 164.5,86.5C 164.831,112.339 164.498,138.005 163.5,163.5C 160.833,161.5 158.5,159.167 156.5,156.5C 156.217,155.711 155.717,155.044 155,154.5C 154.5,130.169 154.333,105.836 154.5,81.5 Z"/></g>
<g><path style="opacity:1" fill="#f8f8f8" d="M 188.5,81.5 C 193.718,82.0759 198.718,83.4093 203.5,85.5C 202.791,86.404 201.791,86.7373 200.5,86.5C 200.827,106.743 200.493,126.909 199.5,147C 201.167,147.333 202.833,147.667 204.5,148C 203.906,148.464 203.239,148.631 202.5,148.5C 197.009,148.15 191.676,148.816 186.5,150.5C 185.504,150.586 184.671,150.252 184,149.5C 183.173,127.261 183.34,105.094 184.5,83C 183.833,82.6667 183.167,82.3333 182.5,82C 184.473,81.5045 186.473,81.3379 188.5,81.5 Z"/></g>
<g><path style="opacity:1" fill="#e5e5e5" d="M 188.5,81.5 C 186.473,81.3379 184.473,81.5045 182.5,82C 183.167,82.3333 183.833,82.6667 184.5,83C 183.34,105.094 183.173,127.261 184,149.5C 184.671,150.252 185.504,150.586 186.5,150.5C 183.872,151.814 181.205,153.147 178.5,154.5C 177.502,131.006 177.169,107.339 177.5,83.5C 176.209,83.7373 175.209,83.404 174.5,82.5C 177.017,81.027 179.85,80.3603 183,80.5C 185.033,80.5056 186.866,80.8389 188.5,81.5 Z"/></g>
<g><path style="opacity:1" fill="#e5e5e5" d="M 154.5,81.5 C 154.333,105.836 154.5,130.169 155,154.5C 155.717,155.044 156.217,155.711 156.5,156.5C 153.331,155.083 150.331,153.417 147.5,151.5C 147.852,140.138 147.852,128.471 147.5,116.5C 147.511,104.775 148.178,93.2747 149.5,82C 145.891,82.2384 142.225,82.4051 138.5,82.5C 143.59,80.2524 148.924,79.9191 154.5,81.5 Z"/></g>
<g><path style="opacity:1" fill="#f4f4f4" d="M 147.5,151.5 C 138.623,147.966 129.623,147.633 120.5,150.5C 121.429,149.685 122.429,148.852 123.5,148C 122.167,128.333 122.167,108.667 123.5,89C 122.584,88.7216 121.918,88.2216 121.5,87.5C 126.894,85.2611 132.561,83.5945 138.5,82.5C 142.225,82.4051 145.891,82.2384 149.5,82C 148.178,93.2747 147.511,104.775 147.5,116.5C 147.852,128.471 147.852,140.138 147.5,151.5 Z"/></g>
<g><path style="opacity:1" fill="#383838" d="M 155.5,170.5 C 127.5,170.5 99.5,170.5 71.5,170.5C 91.2198,167.576 111.053,164.576 131,161.5C 140.804,160.486 148.971,163.486 155.5,170.5 Z"/></g>
<g><path style="opacity:1" fill="#373737" d="M 255.5,170.5 C 229.167,170.5 202.833,170.5 176.5,170.5C 181.813,163.333 188.979,160.333 198,161.5C 217.329,164.242 236.495,167.242 255.5,170.5 Z"/></g>
<g><path style="opacity:0.012" fill="#1a1a1a" d="M 289.5,174.5 C 289.167,174.5 288.833,174.5 288.5,174.5C 288.833,171.833 289.167,171.833 289.5,174.5 Z"/></g>
<g><path style="opacity:0.008" fill="#101010" d="M 42.5,176.5 C 41.475,176.103 41.3083,175.437 42,174.5C 42.4643,175.094 42.631,175.761 42.5,176.5 Z"/></g>
<g><path style="opacity:0.012" fill="#212121" d="M 289.5,174.5 C 290.338,174.842 290.672,175.508 290.5,176.5C 289.662,176.158 289.328,175.492 289.5,174.5 Z"/></g>
<g><path style="opacity:0.008" fill="#282828" d="M 290.5,176.5 C 291.525,176.897 291.692,177.563 291,178.5C 290.536,177.906 290.369,177.239 290.5,176.5 Z"/></g>
<g><path style="opacity:1" fill="#e17a70" d="M 73.5,178.5 C 99.1688,178.333 124.835,178.5 150.5,179C 151.167,180.333 152.167,181.333 153.5,182C 161.833,182.667 170.167,182.667 178.5,182C 179.5,181 180.5,180 181.5,179C 208.831,178.5 236.165,178.333 263.5,178.5C 261.649,186.568 259.483,194.568 257,202.5C 252.385,215.515 247.885,228.515 243.5,241.5C 243.107,243.284 242.441,244.95 241.5,246.5C 233.362,256.752 226.195,267.752 220,279.5C 210.306,296.77 202.472,314.77 196.5,333.5C 196.34,335.153 195.674,336.486 194.5,337.5C 194.19,336.262 193.69,336.262 193,337.5C 185.568,350.713 177.401,363.38 168.5,375.5C 158.148,360.658 148.482,345.992 139.5,331.5C 138.094,331.027 137.427,330.027 137.5,328.5C 130.951,308.394 122.451,289.06 112,270.5C 106.973,261.759 101.473,253.425 95.5,245.5C 94.3263,244.486 93.6596,243.153 93.5,241.5C 90.6016,231.654 87.1016,221.654 83,211.5C 79.3197,200.628 76.1531,189.628 73.5,178.5 Z"/></g>
<g><path style="opacity:0.977" fill="#d64637" d="M 42.5,178.5 C 52.8333,178.5 63.1667,178.5 73.5,178.5C 76.1531,189.628 79.3197,200.628 83,211.5C 87.1016,221.654 90.6016,231.654 93.5,241.5C 78.3386,223.876 66.1719,204.209 57,182.5C 52.2512,181.695 47.4179,181.195 42.5,181C 47.1667,180.667 51.8333,180.333 56.5,180C 51.6486,179.826 46.9819,179.326 42.5,178.5 Z"/></g>
<g><path style="opacity:0.981" fill="#d74335" d="M 263.5,178.5 C 272.167,178.5 280.833,178.5 289.5,178.5C 287.031,179.317 284.365,179.817 281.5,180C 283.833,180.333 286.167,180.667 288.5,181C 285.854,181.497 283.187,181.664 280.5,181.5C 271.704,203.775 259.37,223.775 243.5,241.5C 247.885,228.515 252.385,215.515 257,202.5C 259.483,194.568 261.649,186.568 263.5,178.5 Z"/></g>
<g><path style="opacity:0.235" fill="#fefcfc" d="M 95.5,245.5 C 101.473,253.425 106.973,261.759 112,270.5C 122.451,289.06 130.951,308.394 137.5,328.5C 121.152,302.138 107.152,274.471 95.5,245.5 Z"/></g>
<g><path style="opacity:0.238" fill="#fefcfb" d="M 241.5,246.5 C 228.823,276.858 213.823,305.858 196.5,333.5C 202.472,314.77 210.306,296.77 220,279.5C 226.195,267.752 233.362,256.752 241.5,246.5 Z"/></g>
<g><path style="opacity:0.985" fill="#d63f31" d="M 194.5,337.5 C 183.074,371.294 176.408,405.961 174.5,441.5C 170.833,441.5 167.167,441.5 163.5,441.5C 162.828,440.733 161.995,440.066 161,439.5C 158.638,402.526 151.472,366.526 139.5,331.5C 148.482,345.992 158.148,360.658 168.5,375.5C 177.401,363.38 185.568,350.713 193,337.5C 193.69,336.262 194.19,336.262 194.5,337.5 Z"/></g>
</svg>
